<svg width="427" height="95" viewBox="0 0 427 95" fill="none" xmlns="http://www.w3.org/2000/svg">
<path d="M388.956 50.9902H395.976C398.526 50.9902 400.116 51.8302 401.076 52.7302C401.916 53.5402 402.816 54.9802 402.816 57.2002C402.816 58.4602 402.546 60.0202 401.256 61.2802C400.566 61.9402 399.576 62.5402 398.466 62.8102L404.616 71.0002H398.976L393.576 63.1102V71.0002H388.956V50.9902ZM393.576 54.5902V60.0802H394.626C395.466 60.0802 396.606 59.9902 397.386 59.2102C397.716 58.8802 398.136 58.2502 398.136 57.2602C398.136 56.1202 397.596 55.5202 397.206 55.2202C396.456 54.6502 395.256 54.5902 394.656 54.5902H393.576Z" fill="#555"/>
<path d="M374.658 50.54C377.778 50.54 380.388 51.5 382.398 53.45C384.288 55.28 385.518 57.92 385.518 61.01C385.518 63.68 384.558 66.41 382.398 68.51C380.538 70.31 378.018 71.45 374.658 71.45C370.908 71.45 368.358 69.95 366.858 68.51C364.938 66.71 363.738 64.01 363.738 61.07C363.738 58.19 365.028 55.28 366.828 53.48C368.178 52.13 370.668 50.54 374.658 50.54ZM374.628 54.8C372.888 54.8 371.328 55.43 370.248 56.51C369.378 57.35 368.478 58.82 368.478 61.04C368.478 62.87 369.078 64.34 370.308 65.54C371.598 66.77 373.038 67.19 374.598 67.19C376.638 67.19 378.078 66.44 379.038 65.48C379.818 64.73 380.778 63.32 380.778 61.01C380.778 58.94 379.938 57.41 379.038 56.51C378.048 55.55 376.458 54.8 374.628 54.8Z" fill="#555"/>
<path d="M362.825 54.8902H358.475V71.0002H353.855V54.8902H349.505V50.9902H362.825V54.8902Z" fill="#555"/>
<path d="M332.199 71.0002H327.579V50.9902H331.599L342.459 63.8902V50.9902H347.079V71.0002H343.059L332.199 58.0402V71.0002Z" fill="#555"/>
<path d="M323.83 50.9902V54.8902H317.14V58.7602H323.5V62.6602H317.14V67.1002H323.83V71.0002H312.52V50.9902H323.83Z" fill="#555"/>
<path d="M289.638 71.0002H285.018L288.228 50.9902H292.068L297.048 62.9602L302.028 50.9902H305.868L309.078 71.0002H304.458L302.868 59.0602L297.858 71.0002H296.238L291.228 59.0602L289.638 71.0002Z" fill="#555"/>
<path d="M252.374 50.9902H259.394C261.944 50.9902 263.534 51.8302 264.494 52.7302C265.334 53.5402 266.234 54.9802 266.234 57.2002C266.234 58.4602 265.964 60.0202 264.674 61.2802C263.984 61.9402 262.994 62.5402 261.884 62.8102L268.034 71.0002H262.394L256.994 63.1102V71.0002H252.374V50.9902ZM256.994 54.5902V60.0802H258.044C258.884 60.0802 260.024 59.9902 260.804 59.2102C261.134 58.8802 261.554 58.2502 261.554 57.2602C261.554 56.1202 261.014 55.5202 260.624 55.2202C259.874 54.6502 258.674 54.5902 258.074 54.5902H256.994Z" fill="#555"/>
<path d="M248.625 50.9902V54.8902H241.935V58.7602H248.295V62.6602H241.935V67.1002H248.625V71.0002H237.315V50.9902H248.625Z" fill="#555"/>
<path d="M216.778 50.9902H223.108C225.748 50.9902 228.538 51.3802 230.998 53.7502C232.768 55.4602 233.878 57.8002 233.878 60.9202C233.878 64.0702 232.798 66.3502 231.148 68.0002C228.388 70.7902 224.938 71.0002 223.258 71.0002H216.778V50.9902ZM221.398 54.8902V67.1002H222.628C223.588 67.1002 225.688 67.0102 227.188 65.7502C228.268 64.8502 229.138 63.1402 229.138 60.9202C229.138 58.7602 228.268 57.3802 227.488 56.6002C225.988 55.1002 224.038 54.8902 222.628 54.8902H221.398Z" fill="#555"/>
<path d="M209.735 71.0002L208.235 67.2202H200.675L199.145 71.0002H194.345L202.415 50.9902H206.645L214.535 71.0002H209.735ZM202.025 63.6802H206.975L204.515 56.9602L202.025 63.6802Z" fill="#555"/>
<path d="M192.727 50.9902V54.8902H186.036V58.7602H192.396V62.6602H186.036V67.1002H192.727V71.0002H181.417V50.9902H192.727Z" fill="#555"/>
<path d="M167.969 50.9902H172.589V67.1002H178.799V71.0002H167.969V50.9902Z" fill="#555"/>
<path d="M134.395 50.9902H141.415C143.965 50.9902 145.555 51.8302 146.515 52.7302C147.355 53.5402 148.255 54.9802 148.255 57.2002C148.255 58.4602 147.985 60.0202 146.695 61.2802C146.005 61.9402 145.015 62.5402 143.905 62.8102L150.055 71.0002H144.415L139.015 63.1102V71.0002H134.395V50.9902ZM139.015 54.5902V60.0802H140.065C140.905 60.0802 142.045 59.9902 142.825 59.2102C143.155 58.8802 143.575 58.2502 143.575 57.2602C143.575 56.1202 143.035 55.5202 142.645 55.2202C141.895 54.6502 140.695 54.5902 140.095 54.5902H139.015Z" fill="#555"/>
<path d="M130.646 50.9902V54.8902H123.956V58.7602H130.316V62.6602H123.956V67.1002H130.646V71.0002H119.336V50.9902H130.646Z" fill="#555"/>
<path d="M100.079 71.0002H95.4595V50.9902H99.4795L110.339 63.8902V50.9902H114.959V71.0002H110.939L100.079 58.0402V71.0002Z" fill="#555"/>
<path d="M82.0913 63.8V60.08H92.0213V60.29C92.0213 62.72 91.1513 66.41 88.9313 68.72C86.7113 71.03 84.1612 71.45 81.7912 71.45C79.3912 71.45 76.8112 71.06 74.4712 68.66C73.3012 67.46 71.5312 65.03 71.5312 61.04C71.5312 57.77 72.7313 55.16 74.4113 53.45C76.8713 50.9 79.9013 50.54 82.2713 50.54C83.9213 50.54 86.0213 50.81 87.8813 52.04C89.2313 52.94 90.4012 54.35 91.1213 55.61L86.9513 57.86C86.5613 57.08 85.9613 56.27 85.1813 55.7C84.2813 55.04 83.2613 54.74 82.1213 54.74C80.2913 54.74 78.9413 55.34 77.9813 56.36C76.8713 57.53 76.2713 59.24 76.2713 61.1C76.2713 63.38 77.1113 64.85 77.9513 65.69C79.1213 66.89 80.4713 67.25 82.0013 67.25C83.9813 67.25 85.0312 66.56 85.4813 66.17C85.6313 66.05 86.5313 65.27 86.9213 63.8H82.0913Z" fill="#555"/>
<path d="M63.3813 50.9902H68.0014V71.0002H63.3813V50.9902Z" fill="#555"/>
<path d="M59.1874 52.52L57.1174 55.88C55.6174 54.53 54.3274 54.44 53.7574 54.44C53.1274 54.44 52.3474 54.53 51.8074 55.13C51.5074 55.43 51.2974 55.88 51.2974 56.39C51.2974 56.87 51.4474 57.23 51.7474 57.5C52.2274 57.95 52.9174 58.13 54.2674 58.64L55.7674 59.21C56.6374 59.54 57.7174 59.99 58.4974 60.74C59.6674 61.85 59.9674 63.29 59.9674 64.46C59.9674 66.53 59.2474 68.33 58.1974 69.41C56.4274 71.27 53.8474 71.45 52.5274 71.45C51.0874 71.45 49.8274 71.24 48.5674 70.61C47.5474 70.1 46.3774 69.17 45.6274 68.42L48.0274 65.12C48.5374 65.63 49.3474 66.32 49.8874 66.65C50.6674 67.13 51.4774 67.37 52.4074 67.37C53.0074 67.37 53.8474 67.25 54.5074 66.68C54.8974 66.35 55.2274 65.81 55.2274 65.06C55.2274 64.4 54.9574 63.98 54.5374 63.62C53.9974 63.17 52.7674 62.72 52.1974 62.51L50.5474 61.94C49.6174 61.61 48.5374 61.19 47.7574 60.35C46.7074 59.24 46.5574 57.83 46.5574 56.87C46.5574 55.1 47.0974 53.6 48.2974 52.37C49.7074 50.93 51.3874 50.54 53.2474 50.54C54.6274 50.54 56.8474 50.78 59.1874 52.52Z" fill="#555"/>
<path d="M43.0488 50.9902V54.8902H36.3588V58.7602H42.7188V62.6602H36.3588V67.1002H43.0488V71.0002H31.7388V50.9902H43.0488Z" fill="#555"/>
<path d="M11.2017 50.9902H17.5317C20.1717 50.9902 22.9617 51.3802 25.4217 53.7502C27.1917 55.4602 28.3017 57.8002 28.3017 60.9202C28.3017 64.0702 27.2217 66.3502 25.5717 68.0002C22.8117 70.7902 19.3617 71.0002 17.6817 71.0002H11.2017V50.9902ZM15.8217 54.8902V67.1002H17.0517C18.0117 67.1002 20.1117 67.0102 21.6117 65.7502C22.6917 64.8502 23.5617 63.1402 23.5617 60.9202C23.5617 58.7602 22.6917 57.3802 21.9117 56.6002C20.4117 55.1002 18.4617 54.8902 17.0517 54.8902H15.8217Z" fill="#555"/>
<path fill-rule="evenodd" clip-rule="evenodd" d="M391.082 39.9908L382.576 27.5625V39.9908H377.956V50.9492C378.006 50.9627 378.057 50.9766 378.107 50.9908C379.744 51.4522 381.181 52.27 382.398 53.4508C382.458 53.5086 382.517 53.5672 382.576 53.6266C382.872 53.928 383.15 54.2499 383.409 54.5908C383.527 54.7463 383.641 54.9059 383.751 55.0692C384.701 56.4837 385.326 58.1847 385.481 60.0808C385.506 60.3858 385.518 60.696 385.518 61.0108C385.518 61.7108 385.452 62.4149 385.316 63.1108C385.29 63.2426 385.262 63.3742 385.231 63.5054C384.82 65.249 383.958 66.9249 382.576 68.3345C382.517 68.3937 382.458 68.4525 382.398 68.5108C381.232 69.6401 379.805 70.5096 378.074 71.0008C378.035 71.0119 377.995 71.0229 377.956 71.0336V82.0008H426.632L412.698 63.4451C413.626 61.011 413.816 58.7421 413.816 57.2008C413.816 51.7084 411.486 47.4887 408.711 44.8125L408.655 44.7588L408.599 44.7059C405.503 41.8038 401.185 39.9908 395.976 39.9908H391.082ZM402.327 54.5908C401.99 53.7758 401.524 53.1634 401.076 52.7308C400.77 52.444 400.4 52.1634 399.956 51.9141C399.908 51.8874 399.859 51.861 399.81 51.835C399.803 51.8311 399.795 51.8272 399.788 51.8233C399.525 51.6865 399.238 51.5608 398.925 51.4508C398.125 51.1697 397.152 50.9908 395.976 50.9908H388.956V71.0008H393.576V63.1108L398.976 71.0008H404.616L398.466 62.8108C398.639 62.7687 398.809 62.7185 398.976 62.6614C399.32 62.5434 399.648 62.3955 399.956 62.2268C400.052 62.174 400.146 62.1192 400.237 62.0626C400.621 61.8261 400.965 61.5588 401.256 61.2808C401.643 60.9024 401.938 60.497 402.162 60.0808C402.176 60.0556 402.189 60.0304 402.202 60.0051C402.203 60.0037 402.203 60.0022 402.204 60.0008C402.679 59.0766 402.81 58.1045 402.815 57.2608C402.815 57.2407 402.816 57.2207 402.816 57.2008C402.816 57.1788 402.815 57.1568 402.815 57.135C402.807 56.1298 402.614 55.2865 402.327 54.5908ZM394.859 54.5932C394.811 54.592 394.765 54.5913 394.721 54.591C394.699 54.5908 394.677 54.5908 394.656 54.5908H393.576V60.0808H394.626C394.636 60.0808 394.646 60.0808 394.656 60.0808C395.054 60.0797 395.517 60.0572 395.976 59.9508C396.481 59.8337 396.982 59.6148 397.386 59.2108C397.438 59.1587 397.492 59.0992 397.546 59.032C397.742 58.7907 397.941 58.45 398.05 57.9992C398.055 57.9808 398.059 57.9622 398.063 57.9434C398.109 57.7382 398.136 57.511 398.136 57.2608C398.136 57.2406 398.135 57.2206 398.135 57.2008C398.128 56.7583 398.038 56.3993 397.908 56.109C397.899 56.0875 397.889 56.0664 397.879 56.0457C397.688 55.6493 397.423 55.3883 397.206 55.2208C397.007 55.0695 396.776 54.9542 396.533 54.8664C396.351 54.8006 396.163 54.7502 395.976 54.7117C395.568 54.6279 395.167 54.6006 394.859 54.5932ZM377.956 66.3261C378.369 66.0783 378.729 65.7904 379.038 65.4808C379.818 64.7308 380.778 63.3208 380.778 61.0108C380.778 58.9408 379.938 57.4108 379.038 56.5108C378.732 56.2132 378.367 55.9358 377.956 55.6946V66.3261Z" fill="#101010"/>
<path fill-rule="evenodd" clip-rule="evenodd" d="M390.066 76.398L390.057 76.4068L390.048 76.4156C386.068 80.2667 380.777 82.451 374.658 82.451C367.751 82.451 362.571 79.6233 359.286 76.4901C357.602 74.9009 356.212 73.0401 355.152 71.001H358.475V54.891H362.825V50.991H355.221C356.242 49.0099 357.541 47.2121 359.05 45.7028C362.222 42.5308 367.427 39.541 374.658 39.541C380.191 39.541 385.696 41.3239 390.058 45.5559C391.678 47.1263 393.046 48.9597 394.1 50.991H388.955V71.001H393.575V63.111L395.84 66.4201C394.929 69.9913 393.067 73.4806 390.066 76.398ZM395.586 54.6472C396.081 56.2847 396.389 58.0085 396.485 59.7931C395.861 60.042 395.178 60.081 394.625 60.081H393.575V54.591H394.655C394.893 54.591 395.225 54.6004 395.586 54.6472ZM382.229 68.6715C382.286 68.6186 382.342 68.5651 382.398 68.511C384.558 66.411 385.518 63.681 385.518 61.011C385.518 57.921 384.288 55.281 382.398 53.451C382.347 53.4016 382.296 53.3529 382.244 53.3048C382.227 53.289 382.21 53.2732 382.193 53.2574C380.212 51.4375 377.673 50.541 374.658 50.541C374.648 50.541 374.638 50.541 374.628 50.541C370.896 50.5485 368.48 51.9486 367.085 53.2347C367.065 53.2528 367.046 53.271 367.026 53.2891C366.958 53.3535 366.892 53.4175 366.828 53.481C365.035 55.2748 363.747 58.1708 363.738 61.041C363.738 61.051 363.738 61.061 363.738 61.071C363.738 64.011 364.938 66.711 366.858 68.511C366.951 68.6002 367.048 68.6897 367.149 68.779C367.162 68.7904 367.175 68.8019 367.188 68.8133C368.712 70.1457 371.142 71.4361 374.598 71.4509C374.618 71.451 374.638 71.451 374.658 71.451C377.879 71.451 380.328 70.4035 382.164 68.7314C382.185 68.7115 382.207 68.6916 382.229 68.6715ZM379.038 65.481C379.106 65.4154 379.176 65.3448 379.246 65.269C379.249 65.2664 379.251 65.2638 379.253 65.2613C379.984 64.4688 380.778 63.1122 380.778 61.011C380.778 59.0924 380.057 57.6377 379.234 56.7186C379.233 56.7175 379.232 56.7163 379.232 56.7152C379.168 56.6439 379.103 56.5758 379.038 56.511C378.054 55.5563 376.476 54.8092 374.658 54.8011C374.648 54.801 374.638 54.801 374.628 54.801C372.888 54.801 371.328 55.431 370.248 56.511C370.184 56.5732 370.119 56.6387 370.055 56.7078C369.25 57.5726 368.478 58.9852 368.478 61.041C368.478 61.051 368.478 61.061 368.478 61.071C368.484 62.7124 368.975 64.0633 369.973 65.1891C369.984 65.2026 369.996 65.2161 370.009 65.2295C370.104 65.3353 370.204 65.4391 370.308 65.541C371.598 66.771 373.038 67.191 374.598 67.191C374.618 67.191 374.638 67.1909 374.658 67.1908C376.667 67.1762 378.088 66.4316 379.038 65.481ZM374.589 61.1535L374.728 61.011L374.731 61.0078C374.731 61.0089 374.731 61.01 374.732 61.011C374.734 61.0222 374.735 61.0322 374.736 61.041C374.738 61.0535 374.738 61.0635 374.738 61.071C374.738 61.0875 374.738 61.1024 374.737 61.1157C374.732 61.1229 374.725 61.131 374.717 61.1398C374.714 61.1433 374.711 61.1469 374.708 61.1507C374.694 61.1669 374.677 61.1853 374.658 61.2057C374.652 61.2129 374.645 61.2203 374.637 61.228C374.634 61.2238 374.631 61.2196 374.628 61.2155C374.617 61.2001 374.607 61.1847 374.598 61.1696C374.595 61.1642 374.592 61.1588 374.589 61.1535ZM374.529 61.0205C374.528 61.0171 374.527 61.014 374.526 61.011C374.524 61.0049 374.523 60.9994 374.521 60.9948C374.523 60.988 374.525 60.9797 374.527 60.97C374.529 60.9637 374.531 60.9567 374.533 60.9491C374.538 60.9348 374.544 60.9183 374.551 60.8998C374.558 60.8811 374.567 60.8615 374.577 60.8413C374.577 60.841 374.577 60.8406 374.578 60.8403C374.584 60.8274 374.591 60.8143 374.598 60.8011C374.605 60.7888 374.612 60.7765 374.62 60.7641C374.623 60.7683 374.626 60.7725 374.628 60.7766C374.64 60.7944 374.65 60.8111 374.658 60.8266C374.667 60.8419 374.674 60.8559 374.681 60.8688L374.643 60.906L374.641 60.9081L374.553 60.996L374.529 61.0205ZM353.652 54.891H353.855V67.941C353.123 65.7529 352.738 63.4318 352.738 61.071C352.738 58.9658 353.06 56.8789 353.652 54.891Z" fill="#101010"/>
<path fill-rule="evenodd" clip-rule="evenodd" d="M358.475 71.0012V54.8912H362.825V50.9912H349.505V54.8912H353.855V71.0012H358.475ZM347.078 50.9912H342.458V63.8912L338.505 59.1956V39.9912H373.825V50.5649C372.854 50.621 371.981 50.7734 371.199 50.9912C369.155 51.5601 367.735 52.5748 366.828 53.4812C366.413 53.8967 366.024 54.3714 365.673 54.8912C365.371 55.3371 365.097 55.8161 364.855 56.3195C364.159 57.7716 363.738 59.4263 363.738 61.0712C363.738 62.7762 364.142 64.4004 364.855 65.8153C364.868 65.8407 364.881 65.866 364.894 65.8912C365.406 66.8853 366.072 67.7738 366.858 68.5112C367.521 69.1476 368.389 69.7958 369.475 70.321V82.0012H342.855V70.7589L343.058 71.0012H347.078V50.9912ZM338.776 65.8912H338.505V65.5677L338.776 65.8912ZM373.825 54.8469V65.8912H370.706C370.572 65.7826 370.439 65.6661 370.308 65.5412C369.988 65.2289 369.711 64.8983 369.475 64.5478C368.807 63.5516 368.478 62.3949 368.478 61.0412C368.478 59.4936 368.916 58.3104 369.475 57.4511C369.719 57.0778 369.985 56.7656 370.248 56.5112C371.09 55.6694 372.224 55.101 373.507 54.8912C373.612 54.874 373.718 54.8592 373.825 54.8469Z" fill="#101010"/>
<path fill-rule="evenodd" clip-rule="evenodd" d="M316.579 82.0008V71.0008H323.83V67.1008H317.14V62.6608H323.5V58.7608H317.14V54.8908H323.83V50.9908H316.579V39.9908H321.199V27.7871L331.425 39.9908H358.079V50.9908H349.506V54.8908H353.856V71.0008H358.079V82.0008H353.459V94.0371L343.326 82.0008H316.579ZM332.199 58.0408L343.059 71.0008H347.079V50.9908H342.459V63.8908L331.599 50.9908H327.579V71.0008H332.199V58.0408Z" fill="#101010"/>
<path fill-rule="evenodd" clip-rule="evenodd" d="M334.83 39.9912V54.8296L331.599 50.9912H327.579V71.0012H332.199V58.0412L334.83 61.1815V82.0012H301.52V62.2732L302.868 59.0612L304.458 71.0012H309.078L305.868 50.9912H302.028L301.52 52.2116V39.9912H334.83ZM312.52 50.9912V71.0012H323.83V67.1012H317.14V62.6612H323.5V58.7612H317.14V54.8912H323.83V50.9912H312.52Z" fill="#101010"/>
<path fill-rule="evenodd" clip-rule="evenodd" d="M273.849 71.176L272.112 82.0008H293.055L297.048 91.5975L301.04 82.0008H321.983L320.218 71.0008H312.52V50.9908H317.008L315.244 39.9908H311.425L308.417 17.4043L298.94 39.9908H295.155L285.678 17.4043L282.67 39.9908H278.852L274.544 66.8419C275.018 67.3307 275.306 68.0012 275.306 68.7508C275.306 68.986 275.278 69.2133 275.224 69.4297C275.035 70.1958 274.529 70.8246 273.849 71.176ZM296.238 71.0008H297.858L302.868 59.0608L304.458 71.0008H309.078L305.868 50.9908H302.028L297.048 62.9608L292.068 50.9908H288.228L285.018 71.0008H289.638L291.228 59.0608L296.238 71.0008ZM317.634 54.8908H317.14V58.7608H318.255L317.634 54.8908ZM318.88 62.6608H317.14V67.1008H319.593L318.88 62.6608Z" fill="#101010"/>
<path fill-rule="evenodd" clip-rule="evenodd" d="M259.087 66.1687C258.929 67.0045 258.846 67.8675 258.846 68.7505C258.846 76.3556 264.971 82.4805 272.576 82.4805C279.415 82.4805 285.056 77.5282 286.124 71.0005H285.018L285.909 65.4456C284.436 59.4466 279.041 55.0205 272.576 55.0205C270.275 55.0205 268.11 55.5811 266.209 56.5737C266.225 56.7753 266.234 56.9842 266.234 57.2005C266.234 58.4605 265.964 60.0205 264.674 61.2805C263.984 61.9405 262.994 62.5405 261.884 62.8105L264.629 66.4672C265.628 63.0216 268.822 60.4805 272.576 60.4805C277.121 60.4805 280.846 64.2054 280.846 68.7505C280.846 73.2956 277.121 77.0205 272.576 77.0205C268.81 77.0205 265.607 74.463 264.62 71.0005H262.394L259.087 66.1687Z" fill="#101010"/>
<path fill-rule="evenodd" clip-rule="evenodd" d="M254.5 39.9908L245.994 27.5625V39.9908H241.374V50.9908H248.625V54.8908H241.935V58.7608H248.295V62.6608H241.935V67.1008H248.625V71.0008H241.374V82.0008H290.05L276.116 63.4451C277.044 61.011 277.234 58.7421 277.234 57.2008C277.234 51.7084 274.904 47.4887 272.129 44.8125L272.073 44.7588L272.017 44.7059C268.921 41.8038 264.603 39.9908 259.394 39.9908H254.5ZM265.745 54.5908C265.408 53.7758 264.942 53.1634 264.494 52.7308C264.188 52.444 263.818 52.1634 263.374 51.9141C263.326 51.8874 263.277 51.861 263.228 51.835C263.221 51.8311 263.213 51.8272 263.206 51.8233C262.943 51.6865 262.656 51.5608 262.343 51.4508C261.543 51.1697 260.57 50.9908 259.394 50.9908H252.374V71.0008H256.994V63.1108L262.394 71.0008H268.034L261.884 62.8108C262.057 62.7687 262.227 62.7185 262.394 62.6614C262.738 62.5434 263.066 62.3955 263.374 62.2268C263.47 62.174 263.564 62.1192 263.655 62.0627C264.039 61.8261 264.383 61.5588 264.674 61.2808C265.061 60.9024 265.356 60.497 265.58 60.0808C265.594 60.0556 265.607 60.0304 265.62 60.0051C265.621 60.0037 265.621 60.0022 265.622 60.0008C266.097 59.0766 266.228 58.1045 266.233 57.2608C266.233 57.2407 266.234 57.2207 266.234 57.2008C266.234 57.1788 266.233 57.1568 266.233 57.135C266.225 56.1298 266.032 55.2865 265.745 54.5908ZM258.277 54.5932C258.229 54.592 258.183 54.5913 258.139 54.591C258.117 54.5908 258.095 54.5908 258.074 54.5908H256.994V60.0808H258.044C258.053 60.0808 258.063 60.0808 258.074 60.0808C258.472 60.0797 258.935 60.0572 259.394 59.9508C259.899 59.8337 260.4 59.6148 260.804 59.2108C260.856 59.1587 260.91 59.0992 260.964 59.032C261.16 58.7907 261.359 58.45 261.468 57.9992C261.473 57.9808 261.477 57.9622 261.481 57.9434C261.527 57.7382 261.554 57.511 261.554 57.2608C261.554 57.2406 261.553 57.2206 261.553 57.2008C261.546 56.7583 261.456 56.3993 261.326 56.109C261.317 56.0875 261.307 56.0664 261.297 56.0457C261.106 55.6493 260.841 55.3883 260.624 55.2208C260.425 55.0695 260.194 54.9542 259.951 54.8664C259.769 54.8006 259.581 54.7502 259.394 54.7117C258.986 54.6279 258.585 54.6006 258.277 54.5932ZM270.591 70.6423C271.086 71.1615 271.787 71.4808 272.576 71.4808C274.106 71.4808 275.306 70.2808 275.306 68.7508C275.306 67.9327 274.963 67.2089 274.41 66.7125C274.307 66.6202 274.197 66.5358 274.08 66.4601C273.652 66.1814 273.136 66.0208 272.576 66.0208C271.663 66.0208 270.868 66.448 270.375 67.1177C270.358 67.141 270.341 67.1646 270.324 67.1884C270.022 67.6284 269.846 68.1655 269.846 68.7508C269.846 69.031 269.886 69.3002 269.962 69.5529C270.085 69.9683 270.303 70.3394 270.591 70.6423Z" fill="#101010"/>
<path fill-rule="evenodd" clip-rule="evenodd" d="M259.625 39.9912V50.9935C259.549 50.992 259.472 50.9912 259.394 50.9912H252.374V71.0012H256.994V63.1112L259.625 66.956V82.0012H226.315V70.6724C227.786 70.3267 229.449 69.6248 230.935 68.2101C231.006 68.1421 231.077 68.0725 231.148 68.0012C231.429 67.7199 231.694 67.4203 231.939 67.1012C232.855 65.9124 233.505 64.4529 233.759 62.6612C233.837 62.1129 233.878 61.5335 233.878 60.9212C233.878 60.1549 233.811 59.4356 233.684 58.7612C233.4 57.2562 232.815 55.9744 232.005 54.8912C231.7 54.4835 231.363 54.104 230.998 53.7512C230.977 53.731 230.956 53.711 230.935 53.6911C229.476 52.3085 227.903 51.6146 226.315 51.2797V39.9912H259.625ZM226.315 66.3319V55.7129C226.723 55.9418 227.119 56.2325 227.488 56.6012C228.268 57.3812 229.138 58.7612 229.138 60.9212C229.138 63.1412 228.268 64.8512 227.188 65.7512C226.913 65.9817 226.619 66.1731 226.315 66.3319ZM237.315 50.9912V71.0012H248.625V67.1012H241.935V62.6612H248.295V58.7612H241.935V54.8912H248.625V50.9912H237.315ZM259.625 54.766C259.515 54.7373 259.404 54.7132 259.295 54.693C258.825 54.6063 258.374 54.5912 258.074 54.5912H256.994V60.0812H258.044C258.42 60.0812 258.857 60.0631 259.295 59.9728C259.405 59.9501 259.516 59.9228 259.625 59.89V54.766Z" fill="#101010"/>
<path fill-rule="evenodd" clip-rule="evenodd" d="M205.778 39.9912H223.108C226.887 39.9912 233.153 40.5534 238.63 45.8295L238.641 45.8401C240.206 47.3522 241.508 49.0808 242.51 50.9912H237.315V71.0012H242.465C241.535 72.7545 240.353 74.348 238.948 75.7577C232.983 81.7707 225.706 82.0012 223.258 82.0012H205.778V67.2212H208.235L209.735 71.0012H214.535L206.645 50.9912H205.778V39.9912ZM205.778 63.6812V60.4106L206.975 63.6812H205.778ZM229.932 69.0443C229.937 69.041 229.941 69.0377 229.946 69.0344C230.356 68.7369 230.759 68.3947 231.148 68.0012C231.429 67.7199 231.694 67.4203 231.939 67.1012C232.101 66.8917 232.254 66.6739 232.398 66.4472C233.322 64.9941 233.878 63.1817 233.878 60.9212C233.878 58.7351 233.333 56.932 232.398 55.4602C232.274 55.2647 232.143 55.0751 232.005 54.8912C231.7 54.4835 231.363 54.104 230.998 53.7512C230.884 53.6415 230.769 53.5361 230.654 53.4348C229.73 52.6214 228.763 52.0709 227.778 51.702C226.233 51.1235 224.645 50.9912 223.108 50.9912H216.778V71.0012H223.258C224.288 71.0012 225.984 70.9222 227.778 70.2179C228.492 69.9374 229.222 69.5577 229.932 69.0443ZM227.778 65.1505C227.85 65.0625 227.919 64.9705 227.987 64.8745C227.992 64.8679 227.997 64.8613 228.001 64.8546C228.673 63.894 229.138 62.5438 229.138 60.9212C229.138 59.0989 228.519 57.8318 227.857 57.0117C227.855 57.0101 227.854 57.0084 227.853 57.0068C227.828 56.9761 227.803 56.9459 227.778 56.9165C227.681 56.8021 227.584 56.6971 227.488 56.6012C226.152 55.265 224.458 54.9525 223.108 54.9001C222.942 54.8937 222.782 54.8912 222.628 54.8912H221.398V67.1012H222.628C222.803 67.1012 223.017 67.0982 223.258 67.0856C224.335 67.0292 225.962 66.7809 227.188 65.7512C227.394 65.5797 227.592 65.3788 227.778 65.1505ZM244.034 67.1012C244.438 65.6918 244.702 64.2089 244.815 62.6612H241.935V67.1012H244.034ZM244.778 58.7612C244.654 57.4219 244.413 56.1296 244.062 54.8912H241.935V58.7612H244.778Z" fill="#101010"/>
<path fill-rule="evenodd" clip-rule="evenodd" d="M178.048 82.0008L182.484 71.0008H192.726V67.1008H186.036V62.6608H192.396V58.7608H187.421L188.981 54.8908H192.726V50.9908H190.554L194.99 39.9908H199.072L204.578 25.1328L210.017 39.9908H214.132L218.469 50.9908H216.778V71.0008H223.258C223.985 71.0008 225.045 70.9614 226.237 70.6901L230.697 82.0008H178.048ZM221.398 58.4178L224.739 66.891C223.893 67.0777 223.114 67.1008 222.628 67.1008H221.398V58.4178ZM206.645 50.9908H202.415L194.345 71.0008H199.145L200.675 67.2208H208.235L209.735 71.0008H214.535L206.645 50.9908ZM206.975 63.6808H202.025L204.515 56.9608L206.975 63.6808Z" fill="#101010"/>
<path fill-rule="evenodd" clip-rule="evenodd" d="M203.727 39.9912V50.9912H202.415L194.345 71.0012H199.145L200.675 67.2212H203.727V82.0012H170.417V71.0012H178.799V67.1012H172.589V50.9912H170.417V39.9912H203.727ZM181.417 50.9912V71.0012H192.727V67.1012H186.036V62.6612H192.396V58.7612H186.036V54.8912H192.727V50.9912H181.417ZM203.727 59.0895V63.6812H202.025L203.727 59.0895Z" fill="#101010"/>
<path fill-rule="evenodd" clip-rule="evenodd" d="M156.969 39.9912H183.589V50.9912H181.417V71.0012H189.799V82.0012H156.969V70.1227C157.198 69.7219 157.328 69.2544 157.328 68.7512C157.328 68.248 157.198 67.7805 156.969 67.3797V39.9912ZM189.799 67.1012V62.6612H186.036V67.1012H189.799ZM189.799 58.7612V56.1012H186.036V58.7612H189.799ZM172.589 50.9912H167.969V71.0012H178.799V67.1012H172.589V50.9912Z" fill="#101010"/>
<path fill-rule="evenodd" clip-rule="evenodd" d="M141.108 66.1687C140.95 67.0045 140.868 67.8675 140.868 68.7505C140.868 76.3556 146.993 82.4805 154.598 82.4805C161.436 82.4805 167.078 77.5282 168.146 71.0005H167.969V65.6083C166.555 59.5268 161.121 55.0205 154.598 55.0205C152.297 55.0205 150.132 55.5811 148.23 56.5737C148.246 56.7753 148.255 56.9842 148.255 57.2005C148.255 58.4605 147.985 60.0205 146.695 61.2805C146.005 61.9405 145.015 62.5405 143.905 62.8105L146.651 66.4672C147.649 63.0216 150.844 60.4805 154.598 60.4805C159.143 60.4805 162.868 64.2054 162.868 68.7505C162.868 73.2956 159.143 77.0205 154.598 77.0205C150.831 77.0205 147.629 74.463 146.641 71.0005H144.415L141.108 66.1687Z" fill="#101010"/>
<path fill-rule="evenodd" clip-rule="evenodd" d="M136.521 39.9908L128.015 27.5625V39.9908H123.395V50.9908H130.646V54.8908H123.956V58.7608H130.316V62.6608H123.956V67.1008H130.646V71.0008H123.395V82.0008H172.071L158.137 63.4451C159.066 61.011 159.255 58.7421 159.255 57.2008C159.255 51.7084 156.926 47.4887 154.151 44.8125L154.095 44.7588L154.038 44.7059C150.943 41.8038 146.624 39.9908 141.415 39.9908H136.521ZM147.766 54.5908C147.429 53.7758 146.964 53.1634 146.515 52.7308C146.209 52.444 145.839 52.1634 145.395 51.9141C145.347 51.8874 145.299 51.861 145.249 51.835C145.242 51.8311 145.235 51.8272 145.227 51.8233C144.965 51.6865 144.678 51.5608 144.364 51.4508C143.564 51.1697 142.592 50.9908 141.415 50.9908H134.395V71.0008H139.015V63.1108L144.415 71.0008H150.055L143.905 62.8108C144.078 62.7687 144.248 62.7185 144.415 62.6614C144.759 62.5434 145.088 62.3955 145.395 62.2268C145.491 62.174 145.585 62.1192 145.677 62.0626C146.061 61.8261 146.404 61.5588 146.695 61.2808C147.082 60.9024 147.378 60.497 147.602 60.0808C147.615 60.0556 147.628 60.0304 147.641 60.0051C147.642 60.0037 147.643 60.0022 147.644 60.0008C148.119 59.0766 148.249 58.1045 148.255 57.2608C148.255 57.2407 148.255 57.2207 148.255 57.2008C148.255 57.1788 148.255 57.1569 148.255 57.135C148.247 56.1298 148.053 55.2865 147.766 54.5908ZM140.298 54.5932C140.25 54.592 140.204 54.5913 140.161 54.591C140.138 54.5908 140.116 54.5908 140.095 54.5908H139.015V60.0808H140.065C140.075 60.0808 140.085 60.0808 140.095 60.0808C140.493 60.0797 140.956 60.0572 141.415 59.9508C141.92 59.8337 142.421 59.6148 142.825 59.2108C142.877 59.1587 142.931 59.0992 142.986 59.032C143.182 58.7907 143.381 58.4501 143.49 57.9993C143.494 57.9808 143.499 57.9622 143.503 57.9434C143.548 57.7382 143.575 57.511 143.575 57.2608C143.575 57.2406 143.575 57.2206 143.575 57.2008C143.567 56.7583 143.477 56.3993 143.348 56.109C143.338 56.0875 143.328 56.0664 143.318 56.0457C143.127 55.6493 142.863 55.3883 142.645 55.2208C142.446 55.0695 142.215 54.9542 141.973 54.8664C141.791 54.8006 141.602 54.7502 141.415 54.7117C141.007 54.6279 140.607 54.6006 140.298 54.5932ZM152.613 70.6423C153.107 71.1615 153.808 71.4808 154.598 71.4808C156.128 71.4808 157.328 70.2808 157.328 68.7508C157.328 67.9327 156.985 67.2089 156.431 66.7125C156.329 66.6202 156.218 66.5358 156.102 66.4601C155.673 66.1814 155.157 66.0208 154.598 66.0208C153.685 66.0208 152.889 66.448 152.396 67.1177C152.379 67.141 152.362 67.1646 152.346 67.1884C152.043 67.6284 151.868 68.1655 151.868 68.7508C151.868 69.031 151.908 69.3002 151.983 69.5529C152.107 69.9683 152.324 70.3394 152.613 70.6423Z" fill="#101010"/>
<path fill-rule="evenodd" clip-rule="evenodd" d="M141.646 39.9912V50.9935C141.57 50.992 141.493 50.9912 141.415 50.9912H134.395V71.0012H139.015V63.1112L141.646 66.956V82.0012H108.336V67.8948L110.939 71.0012H114.959V50.9912H110.339V63.8912L108.336 61.5119V39.9912H141.646ZM119.336 71.0012H130.646V67.1012H123.956V62.6612H130.316V58.7612H123.956V54.8912H130.646V50.9912H119.336V71.0012ZM141.646 54.766C141.537 54.7373 141.426 54.7132 141.316 54.693C140.847 54.6063 140.396 54.5912 140.095 54.5912H139.015V60.0812H140.065C140.442 60.0812 140.879 60.0631 141.316 59.9728C141.427 59.9501 141.537 59.9228 141.646 59.89V54.766Z" fill="#101010"/>
<path fill-rule="evenodd" clip-rule="evenodd" d="M84.4595 82.0008V71.2061C84.7276 71.15 84.9956 71.0822 85.2628 71.0008C86.5272 70.6155 87.7742 69.925 88.9314 68.7208C88.9815 68.6687 89.0308 68.616 89.0795 68.5625C91.1902 66.2451 92.0214 62.666 92.0214 60.2908V60.0808H84.4595V55.2601C84.7081 55.3836 84.9488 55.5302 85.1814 55.7008C85.9614 56.2708 86.5614 57.0808 86.9514 57.8608L91.1214 55.6108C90.6251 54.7422 89.915 53.8024 89.0795 53.0075C88.7029 52.6492 88.3008 52.3204 87.8814 52.0408C87.1475 51.5554 86.3762 51.2196 85.6099 50.9908C85.2234 50.8753 84.8381 50.7872 84.4595 50.7208V39.9908H89.0795V27.7871L99.3057 39.9908H125.959V50.9908H119.336V71.0008H125.959V82.0008H121.339V94.0371L111.207 82.0008H84.4595ZM100.079 58.0408L110.939 71.0008H114.959V50.9908H110.339V63.8908L99.4795 50.9908H95.4595V71.0008H100.079V58.0408ZM125.959 67.1008V62.6608H123.956V67.1008H125.959ZM125.959 58.7608V54.8908H123.956V58.7608H125.959ZM84.4595 66.7979C84.9459 66.5891 85.2761 66.3487 85.4814 66.1708C85.6314 66.0508 86.5314 65.2708 86.9214 63.8008H84.4595V66.7979Z" fill="#101010"/>
<path fill-rule="evenodd" clip-rule="evenodd" d="M74.4113 53.451C72.8991 54.9902 71.7758 57.2585 71.5665 60.081C71.5432 60.3943 71.5312 60.7143 71.5312 61.041C71.5312 61.0611 71.5313 61.0811 71.5314 61.101C71.5358 62.0972 71.6507 62.9955 71.8387 63.801C72.3971 66.1932 73.6004 67.7678 74.4712 68.661C74.5425 68.7341 74.6141 68.8054 74.6858 68.8748C74.6996 68.8883 74.7135 68.9016 74.7274 68.9149C76.8861 70.9812 79.2334 71.4107 81.4465 71.4482C81.5618 71.4501 81.6767 71.451 81.7912 71.451C81.8611 71.451 81.9311 71.4507 82.0013 71.4499C82.0312 71.4496 82.0612 71.4492 82.0913 71.4487C83.041 71.4336 84.016 71.342 84.9839 71.081C85.6362 70.9051 86.2853 70.6523 86.9213 70.2941C87.3275 70.0653 87.7284 69.7935 88.1214 69.4713C88.1641 69.4363 88.2066 69.4008 88.249 69.3646C88.4795 69.1683 88.707 68.9543 88.9313 68.721C89.8379 67.7776 90.5194 66.6041 91.0084 65.3802C91.068 65.231 91.1248 65.081 91.1787 64.9305C91.3135 64.555 91.4308 64.1768 91.5315 63.801C91.8696 62.5395 92.0213 61.3055 92.0213 60.291V60.081H82.0913V63.801H86.9213C86.6715 64.7425 86.2125 65.4009 85.8754 65.7842C85.6861 65.9994 85.5352 66.1279 85.4813 66.171C85.0381 66.5551 84.0132 67.23 82.0913 67.2505C82.0615 67.2509 82.0315 67.251 82.0013 67.251C81.9309 67.251 81.8609 67.2503 81.7912 67.2487C80.7723 67.2257 79.835 67.0295 78.9792 66.5137C78.6224 66.2986 78.2797 66.0279 77.9513 65.691C77.882 65.6217 77.8127 65.5482 77.7439 65.4702C77.3711 65.0479 77.0122 64.4969 76.742 63.801C76.4574 63.068 76.2713 62.1742 76.2713 61.101C76.2713 61.081 76.2713 61.061 76.2715 61.041C76.2737 60.7156 76.2944 60.3949 76.333 60.081C76.4928 58.781 76.96 57.5984 77.7001 56.6822C77.709 56.6712 77.7178 56.6603 77.7267 56.6495C77.8083 56.5501 77.8932 56.4538 77.9813 56.361C78.936 55.3466 80.2765 54.7476 82.0913 54.7411C82.1012 54.741 82.1112 54.741 82.1213 54.741C82.1715 54.741 82.2215 54.7416 82.2713 54.7428C83.3509 54.7682 84.3209 55.0701 85.1813 55.701C85.2396 55.7437 85.297 55.7877 85.3533 55.8329C85.3578 55.8365 85.3622 55.84 85.3666 55.8436C85.9408 56.3078 86.4082 56.8997 86.7556 57.4983C86.8142 57.5995 86.8695 57.7008 86.9213 57.8018C86.9314 57.8215 86.9414 57.8413 86.9513 57.861L91.1213 55.611C90.5812 54.6659 89.7879 53.6364 88.8554 52.801C88.5448 52.5227 88.2186 52.2659 87.8813 52.041C87.8777 52.0386 87.8741 52.0363 87.8705 52.0339C87.8684 52.0325 87.8662 52.0311 87.8641 52.0297C86.2771 50.9861 84.5171 50.6387 83.0118 50.56C82.757 50.5466 82.5094 50.541 82.2713 50.541C82.2215 50.541 82.1715 50.5412 82.1213 50.5415C82.1113 50.5416 82.1013 50.5416 82.0913 50.5417C79.8283 50.5599 77.0072 50.9382 74.656 53.2063C74.6516 53.2105 74.6472 53.2147 74.6428 53.219C74.5651 53.2942 74.4879 53.3716 74.4113 53.451ZM95.4593 50.991V71.001H100.079V58.041L103.101 61.6465L102.973 61.7152C102.7 65.8764 101.2 71.8301 96.8624 76.3432C91.695 81.72 85.6022 82.451 81.7912 82.451C77.9749 82.451 71.8822 81.7626 66.5952 76.3401C64.0322 73.7113 60.5312 68.669 60.5312 61.041C60.5312 55.0305 62.7641 49.6299 66.529 45.7782C72.1125 40.0174 78.8977 39.541 82.2713 39.541C84.9491 39.541 89.5342 39.9465 93.9488 42.8658L93.9659 42.8771L93.983 42.8885C96.6123 44.6414 98.6344 46.9593 100.016 49.081H103.021V54.2648L104.682 57.1709L99.4793 50.991H95.4593ZM68.0013 71.001H63.3813V50.991H68.0013V71.001Z" fill="#101010"/>
<path fill-rule="evenodd" clip-rule="evenodd" d="M52.3813 39.9912H79.0014V50.8732C78.8488 50.9089 78.6958 50.9481 78.5426 50.9912C77.1267 51.3899 75.6918 52.1239 74.4113 53.4512C74.4013 53.4614 74.3913 53.4716 74.3813 53.4818C72.717 55.1923 71.5313 57.7907 71.5313 61.0412C71.5313 64.9303 73.2128 67.3373 74.3813 68.5678C74.4117 68.5997 74.4417 68.6309 74.4713 68.6612C75.6867 69.9079 76.967 70.6122 78.2531 71.0012C78.5024 71.0766 78.752 71.1402 79.0014 71.1936V82.0012H52.3813V71.4505C52.4298 71.451 52.4784 71.4512 52.5272 71.4512C53.2775 71.4512 54.435 71.3931 55.6194 71.0012C56.0836 70.8477 56.5518 70.6429 57.0014 70.3703C57.4227 70.1147 57.8276 69.7996 58.1972 69.4112C59.2472 68.3312 59.9672 66.5312 59.9672 64.4612C59.9672 63.2912 59.6672 61.8512 58.4972 60.7412C58.0624 60.3231 57.5343 59.9982 57.0014 59.7354C56.5783 59.5268 56.1522 59.3572 55.7672 59.2112L54.2672 58.6412C53.9896 58.5363 53.7399 58.4454 53.5142 58.3632C53.0444 58.1922 52.6785 58.059 52.3813 57.9165V54.7007C52.8272 54.4832 53.3271 54.4412 53.7572 54.4412C54.3125 54.4412 55.551 54.5266 57.0014 55.7791C57.0398 55.8123 57.0784 55.8463 57.1172 55.8812L59.1872 52.5212C58.4384 51.9644 57.702 51.5612 57.0014 51.2704C56.7418 51.1626 56.4872 51.0702 56.2387 50.9912C55.0617 50.6169 54.022 50.5412 53.2472 50.5412C52.954 50.5412 52.6653 50.5509 52.3813 50.5729V39.9912ZM52.3813 62.5792V67.3712C52.39 67.3712 52.3986 67.3712 52.4072 67.3712C53.0072 67.3712 53.8472 67.2512 54.5072 66.6812C54.8972 66.3512 55.2272 65.8112 55.2272 65.0612C55.2272 64.4012 54.9572 63.9812 54.5372 63.6212C54.0498 63.2151 53.0003 62.8089 52.3813 62.5792ZM63.3813 50.9912V71.0012H68.0014V50.9912H63.3813ZM79.0014 66.5271V55.5316C78.6212 55.7632 78.2821 56.0416 77.9813 56.3612C76.8713 57.5312 76.2713 59.2412 76.2713 61.1012C76.2713 63.3812 77.1113 64.8512 77.9513 65.6912C78.2865 66.0351 78.6365 66.3099 79.0014 66.5271Z" fill="#101010"/>
<path fill-rule="evenodd" clip-rule="evenodd" d="M68.0014 50.991H63.3814V71.001H68.0014V50.991ZM58.1972 69.411C59.1444 68.4368 59.823 66.8767 59.9469 65.061C59.9603 64.8639 59.9672 64.6637 59.9672 64.461C59.9672 63.9321 59.9059 63.3479 59.7306 62.764C59.7303 62.7632 59.7301 62.7623 59.7298 62.7615C59.7297 62.7612 59.7299 62.7618 59.7298 62.7615C59.6514 62.5008 59.5499 62.2392 59.4212 61.9836C59.2012 61.5465 58.901 61.1241 58.4972 60.741C58.2248 60.4791 57.9157 60.2537 57.5918 60.0573C57.573 60.0459 57.5542 60.0346 57.5353 60.0233C57.3054 59.887 57.0688 59.7649 56.833 59.6542C56.7542 59.6173 56.6756 59.5816 56.5973 59.5471C56.3805 59.4516 56.1667 59.3651 55.9618 59.2856C55.896 59.2601 55.831 59.2352 55.7672 59.211L54.2672 58.641C54.0856 58.5724 53.916 58.5098 53.7572 58.4517C53.7381 58.4447 53.7192 58.4378 53.7004 58.4309C53.6723 58.4207 53.6446 58.4105 53.6172 58.4006C53.5823 58.3878 53.548 58.3754 53.5142 58.3631C53.4212 58.3292 53.3323 58.2968 53.2472 58.2656C52.9147 58.1434 52.6401 58.0384 52.4072 57.9286C52.2725 57.8651 52.1517 57.8001 52.0417 57.7292C52.0309 57.7222 52.0201 57.7152 52.0095 57.7081C51.9147 57.6448 51.828 57.5767 51.7472 57.501C51.5843 57.3544 51.4656 57.1812 51.3911 56.9766C51.3854 56.9609 51.38 56.9451 51.3748 56.929C51.3686 56.9099 51.3628 56.8906 51.3574 56.871C51.3228 56.7461 51.3031 56.6103 51.2984 56.4627C51.2976 56.4391 51.2972 56.4152 51.2972 56.391C51.2972 56.0705 51.3801 55.7737 51.5162 55.523C51.5176 55.5205 51.5189 55.518 51.5203 55.5155C51.6 55.3702 51.6976 55.2406 51.8072 55.131C52.1355 54.7663 52.5524 54.59 52.9704 54.5079C53.0217 54.4978 53.0729 54.4891 53.1241 54.4817C53.1486 54.4781 53.1731 54.4749 53.1976 54.4719C53.2141 54.4698 53.2307 54.4679 53.2472 54.4661C53.4227 54.447 53.5949 54.441 53.7572 54.441C53.8271 54.441 53.9078 54.4424 53.9984 54.4472C54.0332 54.4491 54.0695 54.4515 54.1073 54.4545C54.2115 54.4629 54.3264 54.4762 54.4509 54.4969C54.4825 54.5022 54.5146 54.5079 54.5474 54.5142C54.6667 54.537 54.7939 54.5667 54.9283 54.6053C54.9815 54.6207 55.0359 54.6374 55.0913 54.6557C55.1186 54.6647 55.1462 54.6741 55.174 54.6838C55.3354 54.7405 55.5051 54.8102 55.682 54.8959C55.6844 54.8971 55.6867 54.8982 55.6891 54.8993C56.0519 55.0759 56.4445 55.3197 56.8558 55.6564C56.9208 55.7097 56.9863 55.7652 57.0522 55.8232C57.0528 55.8237 57.0534 55.8242 57.054 55.8248C57.075 55.8433 57.0961 55.862 57.1172 55.881L59.1872 52.521C58.9537 52.3473 58.7213 52.1886 58.4908 52.0436C58.4895 52.0427 58.4882 52.0419 58.4868 52.0411C58.1868 51.8524 57.8899 51.6869 57.5979 51.5419C57.5371 51.5117 57.4766 51.4824 57.4163 51.454C57.3627 51.4287 57.3092 51.4041 57.256 51.3802C57.19 51.3506 57.1243 51.3219 57.059 51.2943C57.0543 51.2923 57.0496 51.2903 57.0449 51.2884C55.7914 50.7607 54.6508 50.5937 53.7572 50.5525C53.5768 50.5442 53.4064 50.541 53.2472 50.541C51.9879 50.541 50.8111 50.7198 49.7447 51.2822C49.7282 51.2909 49.7117 51.2997 49.6953 51.3086C49.3458 51.4974 49.0084 51.728 48.6839 52.0077C48.6255 52.058 48.5675 52.1099 48.51 52.1635C48.4384 52.2301 48.3675 52.2993 48.2972 52.371C47.2072 53.4883 46.6618 54.8283 46.5709 56.391C46.5618 56.5487 46.5572 56.7087 46.5572 56.871C46.5572 57.4158 46.6055 58.1056 46.8392 58.8032C47.0173 59.3348 47.3031 59.871 47.7572 60.351C47.9802 60.5912 48.2277 60.797 48.4892 60.9762C48.5162 60.9946 48.5433 61.0128 48.5705 61.0307C49.1 61.3789 49.6814 61.6235 50.2301 61.8264C50.23 61.8264 50.2303 61.8265 50.2301 61.8264C50.2714 61.8417 50.3129 61.8569 50.3537 61.8717C50.3942 61.8864 50.4345 61.9008 50.4746 61.9152C50.4812 61.9175 50.4879 61.9199 50.4945 61.9223C50.5121 61.9286 50.5297 61.9348 50.5472 61.941L52.1972 62.511L52.2182 62.5187C52.2669 62.5367 52.3199 62.5562 52.3767 62.5773C52.3814 62.579 52.3861 62.5808 52.3909 62.5825C52.3963 62.5846 52.4017 62.5866 52.4072 62.5886C52.4457 62.6029 52.4858 62.6179 52.5272 62.6335C52.5352 62.6365 52.5433 62.6396 52.5514 62.6426C52.6062 62.6633 52.6632 62.685 52.7219 62.7077C52.7245 62.7087 52.7271 62.7097 52.7298 62.7107C53.05 62.8344 53.4196 62.9858 53.7572 63.1503C53.9083 63.224 54.0529 63.3003 54.1838 63.3779C54.1846 63.3783 54.1854 63.3788 54.1862 63.3793C54.3203 63.4589 54.44 63.54 54.5372 63.621C54.7685 63.8193 54.9544 64.0358 55.0746 64.3005C55.0796 64.3114 55.0844 64.3223 55.0891 64.3334C55.1068 64.3747 55.1229 64.4172 55.1373 64.461C55.1957 64.6378 55.2272 64.8354 55.2272 65.061C55.2272 65.1344 55.2241 65.2059 55.218 65.2753C55.1855 65.646 55.07 65.9594 54.9101 66.2152C54.9013 66.2294 54.8923 66.2434 54.8831 66.2573C54.7729 66.4243 54.6437 66.5655 54.5072 66.681C54.1446 66.9942 53.7275 67.1716 53.3259 67.2678C53.1 67.3219 52.8789 67.3503 52.6751 67.3629C52.6732 67.363 52.6713 67.3631 52.6694 67.3632C52.6209 67.3661 52.5735 67.3682 52.5272 67.3694C52.4863 67.3705 52.4462 67.371 52.4072 67.371C52.3411 67.371 52.2756 67.3698 52.2107 67.3674C52.1834 67.3664 52.1563 67.3651 52.1293 67.3637C51.9079 67.3519 51.6931 67.3257 51.4837 67.2853C51.4588 67.2805 51.434 67.2755 51.4093 67.2703C51.2853 67.2442 51.1632 67.213 51.0426 67.1768C51.0369 67.1751 51.0312 67.1734 51.0256 67.1716C50.9095 67.1363 50.7949 67.0962 50.6815 67.0514C50.666 67.0453 50.6506 67.0391 50.6351 67.0328C50.6051 67.0206 50.5751 67.008 50.5452 66.9951C50.4988 66.975 50.4525 66.9542 50.4064 66.9326C50.2313 66.8503 50.0585 66.7564 49.8872 66.651C49.7121 66.544 49.5086 66.3991 49.2961 66.2348C49.2359 66.1882 49.1749 66.1401 49.1137 66.0908C49.1036 66.0826 49.0935 66.0745 49.0834 66.0663C48.8825 65.9036 48.6795 65.7294 48.4898 65.5584C48.3214 65.4066 48.1636 65.2574 48.0272 65.121L45.6272 68.421C46.1606 68.9544 46.9065 69.5789 47.6597 70.0785C47.6804 70.0923 47.7012 70.1059 47.7219 70.1195C47.7293 70.1243 47.7366 70.1291 47.7439 70.1339C47.7475 70.1362 47.751 70.1385 47.7546 70.1408C48.0237 70.3154 48.2927 70.4729 48.5522 70.6035C48.5572 70.606 48.5622 70.6085 48.5672 70.611C48.6015 70.6282 48.6358 70.645 48.6701 70.6615C48.7061 70.6789 48.7421 70.6959 48.7781 70.7125C48.8922 70.7654 49.0064 70.8149 49.1208 70.8612C49.1771 70.884 49.2334 70.906 49.2898 70.9273C50.2793 71.3002 51.2899 71.4412 52.4072 71.4505C52.4471 71.4509 52.4871 71.451 52.5272 71.451C53.3473 71.451 54.6536 71.3815 55.9499 70.883C56.2571 70.7648 56.5637 70.6225 56.8632 70.4514C57.0464 70.3467 57.227 70.2312 57.4033 70.1037C57.4156 70.0949 57.4279 70.0859 57.4401 70.077C57.7038 69.8832 57.9579 69.6625 58.1972 69.411ZM43.0486 67.101H36.3586V62.661H42.7186V58.761H36.3586V54.891H43.0486V50.991H36.5209C37.2949 48.7472 38.5628 46.5968 40.4236 44.6895L40.4306 44.6823L40.4376 44.6751C44.675 40.3475 49.7255 39.541 53.2472 39.541C56.0888 39.541 60.8982 40.0855 65.7509 43.6939L73.8398 49.7087L69.2842 57.1032C70.6517 59.863 70.9672 62.5858 70.9672 64.461C70.9672 68.8455 69.4847 73.5543 66.1268 77.0349C60.9848 82.4026 54.2171 82.451 52.5272 82.451C49.917 82.451 46.8527 82.0521 43.6479 80.4497C41.2661 79.2588 39.1547 77.5049 37.849 76.1992L32.6509 71.001H43.0486V67.101ZM31.7386 70.0888V68.8158L31.2026 69.5528L31.7386 70.0888Z" fill="#101010"/>
<path fill-rule="evenodd" clip-rule="evenodd" d="M54.0488 54.4504C53.9376 54.4431 53.8399 54.4412 53.7574 54.4412C53.7446 54.4412 53.7317 54.4412 53.7188 54.4413C53.1926 54.4445 52.569 54.5151 52.0692 54.8912C51.9773 54.9604 51.8896 55.0399 51.8074 55.1312C51.5657 55.3729 51.3824 55.7119 51.3203 56.1012C51.3053 56.1952 51.2974 56.2921 51.2974 56.3912C51.2974 56.8712 51.4474 57.2312 51.7474 57.5012C52.1287 57.8587 52.6425 58.0458 53.5144 58.3632C53.5804 58.3873 53.6485 58.4121 53.7188 58.4378C53.8238 58.4762 53.9337 58.5165 54.0488 58.5593V54.4504ZM54.0488 63.301C53.9441 63.2434 53.8331 63.1869 53.7188 63.1319C53.3448 62.9519 52.9358 62.7886 52.6002 62.6612C52.4566 62.6067 52.3265 62.5588 52.2183 62.5189L52.1974 62.5112L50.5474 61.9412C49.6174 61.6112 48.5374 61.1912 47.7574 60.3512C47.2912 59.8585 47.0025 59.3066 46.8255 58.7612C46.6037 58.078 46.5574 57.405 46.5574 56.8712C46.5574 56.6086 46.5693 56.3519 46.5934 56.1012C46.6339 55.6812 46.7088 55.2779 46.8201 54.8912C47.09 53.953 47.5737 53.113 48.2974 52.3712C48.9422 51.7126 49.6436 51.2737 50.3928 50.9912C51.2817 50.6561 52.238 50.5412 53.2474 50.5412C53.3952 50.5412 53.5526 50.544 53.7188 50.551C53.8253 50.5555 53.9353 50.5618 54.0488 50.5703V39.9912H20.7388V51.2797C22.3266 51.6146 23.8997 52.3085 25.3588 53.6911C25.3798 53.711 25.4007 53.731 25.4217 53.7512C25.7868 54.104 26.1238 54.4835 26.4288 54.8912C27.2392 55.9744 27.8235 57.2562 28.1074 58.7612C28.2347 59.4356 28.3017 60.1549 28.3017 60.9212C28.3017 61.5335 28.2609 62.1129 28.183 62.6612C27.9286 64.4529 27.2784 65.9124 26.3633 67.1012C26.1177 67.4203 25.853 67.7199 25.5717 68.0012C25.5011 68.0725 25.4302 68.1421 25.3588 68.2101C23.8728 69.6248 22.2094 70.3267 20.7388 70.6724V82.0012H54.0488V71.3557C53.9365 71.3707 53.8263 71.3834 53.7188 71.3943C53.2646 71.44 52.8568 71.4512 52.5274 71.4512C51.4396 71.4512 50.4546 71.3314 49.4946 71.0012C49.1838 70.8943 48.8756 70.7653 48.5674 70.6112C47.5474 70.1012 46.3774 69.1712 45.6274 68.4212L48.0274 65.1212C48.2633 65.3572 48.5635 65.6317 48.8715 65.8912C49.2291 66.1926 49.5972 66.4739 49.8874 66.6512C50.1897 66.8373 50.4966 66.9873 50.8132 67.1012C51.3133 67.2812 51.8379 67.3712 52.4074 67.3712C52.7845 67.3712 53.2563 67.3238 53.7188 67.1471C53.7565 67.1327 53.7942 67.1174 53.8317 67.1012C53.9046 67.0698 53.9771 67.0349 54.0488 66.9963V63.301ZM42.7188 58.7612H36.3588V54.8912H43.0488V50.9912H31.7388V71.0012H43.0488V67.1012H36.3588V62.6612H42.7188V58.7612ZM20.7388 66.3319C21.0427 66.1731 21.3372 65.9817 21.6117 65.7512C22.6917 64.8512 23.5617 63.1412 23.5617 60.9212C23.5617 58.7612 22.6917 57.3812 21.9117 56.6012C21.543 56.2325 21.1471 55.9418 20.7388 55.7129V66.3319Z" fill="#101010"/>
<path fill-rule="evenodd" clip-rule="evenodd" d="M0.20166 39.9912H17.5317C21.3105 39.9912 27.5771 40.5534 33.0536 45.8295L33.0591 45.8348L33.0646 45.8401C34.6297 47.3522 35.9316 49.0808 36.934 50.9912H31.7388V71.0012H36.889C35.9591 72.7546 34.7768 74.3482 33.3711 75.7581C27.4069 81.7707 20.1296 82.0012 17.6817 82.0012H0.20166V39.9912ZM24.3696 69.0344C24.7794 68.7369 25.1824 68.3947 25.5717 68.0012C25.853 67.7199 26.1177 67.4203 26.3633 67.1012C26.5246 66.8917 26.6776 66.6739 26.8217 66.4472C27.7455 64.9941 28.3017 63.1817 28.3017 60.9212C28.3017 58.7351 27.7567 56.932 26.8217 55.4602C26.6975 55.2647 26.5664 55.0751 26.4288 54.8912C26.1238 54.4835 25.7868 54.104 25.4217 53.7512C25.3078 53.6415 25.1933 53.5361 25.0781 53.4348C24.1535 52.6214 23.1865 52.0709 22.2017 51.702C20.6573 51.1235 19.0691 50.9912 17.5317 50.9912H11.2017V71.0012H17.6817C18.7118 71.0012 20.4076 70.9222 22.2017 70.2179C22.9161 69.9374 23.6461 69.5577 24.3559 69.0443C24.3605 69.041 24.365 69.0377 24.3696 69.0344ZM22.2017 65.1505C22.2733 65.0625 22.3432 64.9705 22.411 64.8745C22.4157 64.8679 22.4204 64.8612 22.425 64.8546C23.0969 63.894 23.5617 62.5438 23.5617 60.9212C23.5617 59.0989 22.9424 57.8318 22.2804 57.0117C22.2791 57.0101 22.2778 57.0084 22.2764 57.0068C22.2516 56.9761 22.2266 56.9459 22.2017 56.9165C22.1048 56.8021 22.0076 56.6971 21.9117 56.6012C20.5755 55.265 18.8822 54.9525 17.5317 54.9001C17.3661 54.8937 17.2056 54.8912 17.0517 54.8912H15.8217V67.1012H17.0517C17.2271 67.1012 17.4407 67.0982 17.6817 67.0856C18.7593 67.0292 20.3858 66.7809 21.6117 65.7512C21.8175 65.5797 22.0157 65.3788 22.2017 65.1505ZM38.4583 67.1012C38.8623 65.6918 39.126 64.2089 39.2389 62.6612H36.3588V67.1012H38.4583ZM39.2023 58.7612C39.0775 57.4219 38.8363 56.1296 38.4861 54.8912H36.3588V58.7612H39.2023Z" fill="#101010"/>
<path d="M379.887 10.9844H389.679C391.407 10.9844 395.343 11.0804 397.839 13.4324C399.903 15.4004 400.143 18.0884 400.143 19.4804C400.143 20.7284 399.951 22.1684 399.087 23.5604C398.271 24.9044 397.167 25.5764 396.399 25.9124C397.935 26.1524 399.663 26.9204 400.815 28.0724C401.871 29.1284 402.879 30.9524 402.879 33.7844C402.879 37.0004 401.631 39.0164 400.383 40.2644C397.743 42.8084 393.903 43.0004 391.935 43.0004H379.887V10.9844ZM387.183 16.7444V23.9924H388.383C389.391 23.9924 391.071 23.8484 392.127 23.0804C392.799 22.6004 393.423 21.6404 393.423 20.2484C393.423 18.8564 392.751 17.9924 392.175 17.5604C391.119 16.7444 389.679 16.7444 388.335 16.7444H387.183ZM387.183 29.4644V37.2404H388.959C390.831 37.2404 393.087 37.1924 394.431 35.9444C395.103 35.3204 395.487 34.4084 395.487 33.2564C395.487 31.9604 394.959 31.0964 394.479 30.6644C393.183 29.4644 390.687 29.4644 389.199 29.4644H387.183Z" fill="#FFFFFF"/>
<path d="M368.618 43.0004L366.218 36.9524H354.122L351.674 43.0004H343.994L356.906 10.9844H363.674L376.298 43.0004H368.618ZM356.282 31.2884H364.202L360.266 20.5364L356.282 31.2884Z" fill="#FFFFFF"/>
<path d="M345.532 17.2244H338.572V43.0004H331.18V17.2244H324.22V10.9844H345.532V17.2244Z" fill="#FFFFFF"/>
<path d="M320.969 17.2244H314.009V43.0004H306.617V17.2244H299.657V10.9844H320.969V17.2244Z" fill="#FFFFFF"/>
<path d="M293.524 43.0004L291.124 36.9524H279.028L276.58 43.0004H268.9L281.812 10.9844H288.58L301.204 43.0004H293.524ZM281.188 31.2884H289.108L285.172 20.5364L281.188 31.2884Z" fill="#FFFFFF"/>
<path d="M245.154 10.9844V23.1764H257.922V10.9844H265.314V43.0004H257.922V29.4164H245.154V43.0004H237.762V10.9844H245.154Z" fill="#FFFFFF"/>
<path d="M212.997 10.9844V24.3284L223.941 10.9844H232.965L220.005 26.1524L233.973 43.0004H224.469L212.997 28.7924V43.0004H205.605V10.9844H212.997Z" fill="#FFFFFF"/>
<path d="M188.959 10.9844V17.2244H178.591V23.4164H188.191V29.6564H178.591V43.0004H171.199V10.9844H188.959Z" fill="#FFFFFF"/>
<path d="M159.931 43.0004L157.531 36.9524H145.435L142.987 43.0004H135.307L148.219 10.9844H154.987L167.611 43.0004H159.931ZM147.595 31.2884H155.515L151.579 20.5364L147.595 31.2884Z" fill="#FFFFFF"/>
<path d="M109.043 10.9844H120.275C124.355 10.9844 126.899 12.3284 128.435 13.7684C129.779 15.0644 131.219 17.3684 131.219 20.9204C131.219 22.9364 130.787 25.4324 128.723 27.4484C127.619 28.5044 126.035 29.4644 124.259 29.8964L134.099 43.0004H125.075L116.435 30.3764V43.0004H109.043V10.9844ZM116.435 16.7444V25.5284H118.115C119.459 25.5284 121.283 25.3844 122.531 24.1364C123.059 23.6084 123.731 22.6004 123.731 21.0164C123.731 19.1924 122.867 18.2324 122.243 17.7524C121.043 16.8404 119.123 16.7444 118.163 16.7444H116.435Z" fill="#FFFFFF"/>
<path d="M81.8881 10.9844V23.1764H94.6561V10.9844H102.048V43.0004H94.6561V29.4164H81.8881V43.0004H74.4961V10.9844H81.8881Z" fill="#FFFFFF"/>
<path d="M67.9294 13.4326L64.6174 18.8087C62.2174 16.6486 60.1534 16.5046 59.2414 16.5046C58.2334 16.5046 56.9854 16.6486 56.1214 17.6086C55.6414 18.0886 55.3054 18.8086 55.3054 19.6246C55.3054 20.3926 55.5454 20.9686 56.0254 21.4007C56.7934 22.1206 57.8974 22.4086 60.0574 23.2246L62.4574 24.1367C63.8494 24.6646 65.5774 25.3846 66.8254 26.5847C68.6974 28.3607 69.1774 30.6647 69.1774 32.5366C69.1774 35.8486 68.0254 38.7286 66.3454 40.4566C63.5134 43.4326 59.3854 43.7206 57.2734 43.7206C54.9694 43.7206 52.9534 43.3846 50.9374 42.3766C49.3054 41.5606 47.4334 40.0727 46.2334 38.8727L50.0734 33.5926C50.8894 34.4086 52.1854 35.5126 53.0494 36.0406C54.2974 36.8086 55.5934 37.1926 57.0814 37.1926C58.0414 37.1926 59.3854 37.0007 60.4414 36.0886C61.0654 35.5607 61.5934 34.6967 61.5934 33.4967C61.5934 32.4407 61.1614 31.7686 60.4894 31.1926C59.6254 30.4726 57.6574 29.7526 56.7454 29.4166L54.1054 28.5047C52.6174 27.9766 50.8894 27.3046 49.6414 25.9606C47.9614 24.1846 47.7214 21.9286 47.7214 20.3926C47.7214 17.5606 48.5854 15.1606 50.5054 13.1926C52.7614 10.8886 55.4494 10.2646 58.4254 10.2646C60.6334 10.2646 64.1854 10.6486 67.9294 13.4326Z" fill="#FFFFFF"/>
<path d="M36.8369 43.0004L34.4369 36.9524H22.3409L19.8929 43.0004H12.2129L25.1249 10.9844H31.8929L44.5169 43.0004H36.8369ZM24.5009 31.2884H32.4209L28.4849 20.5364L24.5009 31.2884Z" fill="#FFFFFF"/>
<path fill-rule="evenodd" clip-rule="evenodd" d="M372.887 3.98438H389.679C390.662 3.98438 392.668 4.00435 394.912 4.47624C397.115 4.93969 400.107 5.95086 402.64 8.33785L402.655 8.35199L402.67 8.36621C406.882 12.3825 407.143 17.5759 407.143 19.4804C407.143 20.6876 407.029 22.2477 406.521 23.9475C408.523 26.3275 409.879 29.6545 409.879 33.7844C409.879 39.0768 407.729 42.8175 405.333 45.2141L405.287 45.26L405.24 45.3049C400.417 49.9532 393.937 50.0004 391.935 50.0004H372.887V43.0004H376.299L372.887 34.3481V29.3236L371.598 29.1222L372.887 28.5583V3.98438ZM379.887 43.0004H391.935C393.506 43.0004 396.269 42.8781 398.662 41.5356C399.268 41.1959 399.85 40.7781 400.383 40.2644C401.631 39.0164 402.879 37.0004 402.879 33.7844C402.879 32.4432 402.653 31.3281 402.303 30.4135C402.149 30.0109 401.97 29.6471 401.777 29.32C401.482 28.8214 401.151 28.4081 400.815 28.0724C400.166 27.4229 399.333 26.8955 398.455 26.5159C398.423 26.502 398.391 26.4883 398.358 26.4748C398.332 26.4638 398.306 26.4529 398.279 26.4421C397.654 26.1877 397.011 26.0081 396.399 25.9124C396.911 25.6882 397.573 25.3145 398.2 24.6914C398.512 24.3806 398.815 24.0077 399.087 23.5604C399.779 22.4461 400.04 21.3011 400.116 20.2484C400.131 20.0509 400.139 19.8566 400.142 19.6664C400.143 19.604 400.143 19.5419 400.143 19.4804C400.143 18.5486 400.036 17.0362 399.345 15.5477C399.167 15.1624 398.949 14.7787 398.684 14.407C398.443 14.0696 398.164 13.7421 397.839 13.4324C397.352 12.9737 396.811 12.6009 396.242 12.2978C396.213 12.2826 396.185 12.2676 396.156 12.2527C393.824 11.0451 391.053 10.9844 389.679 10.9844H379.887V43.0004ZM387.183 23.9924H388.383C388.623 23.9924 388.901 23.9842 389.199 23.9615C390.155 23.8886 391.322 23.6657 392.127 23.0804C392.291 22.963 392.453 22.8169 392.603 22.6428C393.067 22.105 393.423 21.2999 393.423 20.2484C393.423 20.2052 393.422 20.1625 393.421 20.1204C393.42 20.0939 393.419 20.0677 393.418 20.0417C393.411 19.8983 393.397 19.761 393.376 19.6295C393.374 19.6185 393.373 19.6076 393.371 19.5967C393.364 19.5574 393.357 19.5186 393.349 19.4804C393.279 19.1267 393.162 18.8183 393.02 18.5526C393.01 18.534 392.999 18.5157 392.989 18.4976C392.753 18.0775 392.453 17.7687 392.175 17.5604C391.467 17.0135 390.587 16.8331 389.679 16.7737C389.232 16.7444 388.778 16.7444 388.335 16.7444H387.183V23.9924ZM394.183 30.4246C394.019 30.3084 393.842 30.2062 393.656 30.1164C392.299 29.4644 390.413 29.4644 389.199 29.4644H387.183V37.2404H388.959C389.909 37.2404 390.957 37.228 391.935 37.053C392.771 36.9033 393.556 36.6349 394.183 36.1536C394.269 36.0879 394.352 36.0183 394.431 35.9444C394.527 35.8554 394.617 35.7606 394.701 35.6601C395.205 35.0555 395.487 34.2442 395.487 33.2564C395.487 33.1214 395.481 32.991 395.471 32.8654C395.455 32.6832 395.428 32.5109 395.393 32.3484C395.221 31.5474 394.837 30.9861 394.479 30.6644C394.386 30.5785 394.287 30.4987 394.183 30.4246Z" fill="#101010"/>
<path fill-rule="evenodd" clip-rule="evenodd" d="M363.865 50.0004L361.465 43.9524H358.841L356.393 50.0004H333.624L336.447 43.0004H338.572V37.7305L352.182 3.98441H358.934L360.306 0.282227L361.662 3.98441H368.439L379.887 33.0179V43.0004H383.823L386.583 50.0004H363.865ZM363.674 10.9844H356.906L343.994 43.0004H351.674L354.122 36.9524H366.218L368.618 43.0004H376.298L363.674 10.9844ZM360.266 20.5364L356.282 31.2884H364.202L360.266 20.5364Z" fill="#101010"/>
<path fill-rule="evenodd" clip-rule="evenodd" d="M338.572 17.2244H345.532V10.9844H324.22V17.2244H331.18V43.0004H338.572V17.2244ZM324.18 24.2244H317.22V17.2244H320.969V10.9844H317.22V3.98438H352.532V21.8311L351.567 24.2244H345.572V39.0889L343.994 43.0004H345.572V50.0004H324.18V24.2244Z" fill="#101010"/>
<path fill-rule="evenodd" clip-rule="evenodd" d="M314.009 17.2244H320.969V10.9844H299.657V17.2244H306.617V43.0004H314.009V17.2244ZM299.617 24.2244H293.801L292.657 21.3235V3.98438H327.969V10.9844H324.22V17.2244H327.969V24.2244H321.009V50.0004H299.617V43.0004H301.204L299.617 38.9749V24.2244Z" fill="#101010"/>
<path fill-rule="evenodd" clip-rule="evenodd" d="M288.771 50.0004L286.371 43.9524H283.747L281.299 50.0004H258.53L261.353 43.0004H265.314V33.179L277.088 3.98441H283.841L285.213 0.282227L286.568 3.98441H293.345L306.617 37.6447V43.0004H308.729L311.489 50.0004H288.771ZM288.581 10.9844H281.813L268.901 43.0004H276.581L279.029 36.9524H291.125L293.525 43.0004H301.205L288.581 10.9844ZM285.173 20.5364L281.189 31.2884H289.109L285.173 20.5364Z" fill="#101010"/>
<path fill-rule="evenodd" clip-rule="evenodd" d="M230.762 3.98438V10.9844H232.965L230.762 13.5636V39.1264L233.973 43.0004H230.762V50.0004H272.314V43.0004H268.901L272.314 34.5374V3.98438H230.762ZM245.154 10.9844H237.762V43.0004H245.154V29.4164H257.922V43.0004H265.314V10.9844H257.922V23.1764H245.154V10.9844Z" fill="#101010"/>
<path fill-rule="evenodd" clip-rule="evenodd" d="M212.997 10.9844H205.605V43.0004H212.997V28.7924L224.469 43.0004H233.973L220.005 26.1524L232.965 10.9844H223.941L212.997 24.3284V10.9844ZM229.155 26.2203L237.762 16.1468V10.9844H242.173L248.154 3.98438H220.629L219.997 4.75483V3.98438H198.605V50.0004H219.997V48.6045L221.125 50.0004H248.87L243.066 43.0004H237.762V36.6021L229.155 26.2203Z" fill="#101010"/>
<path fill-rule="evenodd" clip-rule="evenodd" d="M195.959 3.98438V24.2244H195.191V36.6564H185.591V50.0004H164.199V43.0004H167.611L164.199 34.3481V3.98438H195.959ZM188.191 29.6564V23.4164H178.591V17.2244H188.959V10.9844H171.199V43.0004H178.591V29.6564H188.191Z" fill="#101010"/>
<path fill-rule="evenodd" clip-rule="evenodd" d="M155.178 50.0004L152.778 43.9524H150.153L147.705 50.0004H124.936L127.759 43.0004H134.099L129.974 37.5075L143.494 3.98441H150.247L151.619 0.282227L152.974 3.98441H159.751L171.199 33.0179V43.0004H175.135L177.896 50.0004H155.178ZM154.987 10.9844H148.219L135.307 43.0004H142.987L145.435 36.9524H157.531L159.931 43.0004H167.611L154.987 10.9844ZM151.579 20.5364L147.595 31.2884H155.515L151.579 20.5364Z" fill="#101010"/>
<path fill-rule="evenodd" clip-rule="evenodd" d="M102.043 3.98438H120.275C126.047 3.98438 130.328 5.94756 133.223 8.66162L133.258 8.69529L133.294 8.72947C135.869 11.2131 138.219 15.286 138.219 20.9204C138.219 23.6825 137.66 27.9723 134.354 31.6821L137.944 36.4626L135.307 43.0004H142.853L148.109 50.0004H102.043V43.0004H102.048V10.9844H102.043V3.98438ZM116.435 30.3764L125.075 43.0004H134.099L124.259 29.8964C124.353 29.8735 124.446 29.8492 124.539 29.8235C125.462 29.5676 126.328 29.1719 127.094 28.6994C127.708 28.3209 128.258 27.8932 128.723 27.4484C128.824 27.3493 128.922 27.2491 129.016 27.1478C129.398 26.734 129.718 26.3029 129.983 25.862C130.976 24.2148 131.219 22.4326 131.219 20.9204C131.219 17.3684 129.779 15.0644 128.435 13.7684C128.096 13.4503 127.707 13.1368 127.264 12.8415C126.999 12.6653 126.715 12.4956 126.41 12.3351C126.398 12.3289 126.386 12.3226 126.374 12.3164C124.881 11.5385 122.895 10.9844 120.275 10.9844H109.043V43.0004H116.435V30.3764ZM116.435 25.5284H118.115C119.044 25.5284 120.202 25.4596 121.241 25.0049C121.705 24.8018 122.146 24.5217 122.531 24.1364C122.614 24.0531 122.701 23.9579 122.788 23.8504C123.018 23.5669 123.251 23.1979 123.427 22.7364C123.43 22.7299 123.432 22.7233 123.435 22.7167C123.612 22.2471 123.731 21.6827 123.731 21.0164C123.731 20.3451 123.614 19.7909 123.435 19.3346C123.292 18.9699 123.109 18.6677 122.915 18.4183C122.692 18.1316 122.454 17.9146 122.243 17.7524C121.686 17.3291 120.974 17.0816 120.275 16.9379C119.468 16.7719 118.677 16.7444 118.163 16.7444H116.435V25.5284Z" fill="#101010"/>
<path fill-rule="evenodd" clip-rule="evenodd" d="M67.4961 3.98438V13.1201C67.6402 13.2207 67.7847 13.3247 67.9295 13.4324L67.4961 14.1358V27.313C68.8158 28.9611 69.1775 30.9115 69.1775 32.5364C69.1775 35.0209 68.5292 37.2623 67.4961 38.9566V50.0004H109.048V43.0004H109.043V10.9844H109.048V3.98438H67.4961ZM81.8881 10.9844H74.4961V43.0004H81.8881V29.4164H94.6561V43.0004H102.048V10.9844H94.6561V23.1764H81.8881V10.9844Z" fill="#101010"/>
<path fill-rule="evenodd" clip-rule="evenodd" d="M74.496 16.1193L71.3465 21.2315C71.4519 21.3262 71.5563 21.423 71.6596 21.5219C72.9091 22.711 73.8271 24.0004 74.496 25.3006V40.652C73.7217 42.3869 72.6839 43.9719 71.3911 45.3087C66.4125 50.517 59.6195 50.7206 57.2734 50.7206C54.2248 50.7206 51.0605 50.2644 47.8069 48.6376C45.3083 47.3884 42.8373 45.376 41.2837 43.8224L40.4619 43.0006H44.517L41.0221 34.137L43.9598 30.0976C40.9648 26.4809 40.7214 22.3471 40.7214 20.3927C40.7214 15.9764 42.1396 11.7436 45.4949 8.30438L45.5038 8.29527C49.5591 4.15371 54.392 3.26465 58.4254 3.26465C61.5635 3.26465 66.7633 3.84242 72.1063 7.81541L76.3684 10.9846H74.496V16.1193ZM48.3773 24.0235C47.8256 22.7295 47.7214 21.4048 47.7214 20.3927C47.7214 17.5606 48.5854 15.1606 50.5054 13.1926C50.8794 12.8107 51.2652 12.475 51.6622 12.1806C53.6604 10.6989 55.9427 10.2646 58.4254 10.2646C58.6801 10.2646 58.9527 10.2698 59.2414 10.2831C59.9104 10.3139 60.6658 10.3888 61.4858 10.5463C62.6731 10.7742 63.9955 11.1752 65.3865 11.866C66.2146 12.2773 67.0669 12.7913 67.9294 13.4326L64.6174 18.8087C64.5836 18.7782 64.5499 18.7482 64.5163 18.7186C64.5153 18.7178 64.5144 18.717 64.5135 18.7162C64.408 18.6234 64.3032 18.5345 64.1991 18.4493C63.541 17.9106 62.9129 17.5204 62.3323 17.238C62.3286 17.2362 62.3248 17.2343 62.3211 17.2325C62.0381 17.0954 61.7664 16.9838 61.5082 16.8932C61.4331 16.8668 61.359 16.8422 61.2862 16.8192C61.0077 16.7314 60.7466 16.6677 60.5057 16.6217C60.4533 16.6117 60.4018 16.6025 60.3513 16.5941C59.8923 16.5176 59.515 16.5046 59.2414 16.5046C58.9818 16.5046 58.7062 16.5142 58.4254 16.5448C57.616 16.633 56.7629 16.8959 56.1214 17.6086C56.111 17.6191 56.1006 17.6296 56.0903 17.6403C55.627 18.12 55.3054 18.8264 55.3054 19.6246C55.3054 20.3926 55.5454 20.9687 56.0254 21.4007C56.4139 21.7649 56.8884 22.0185 57.5421 22.2859C57.9149 22.4384 58.346 22.5954 58.8527 22.7799C58.9067 22.7996 58.9616 22.8196 59.0174 22.8399C59.0612 22.8559 59.1056 22.8721 59.1505 22.8885C59.1806 22.8995 59.2109 22.9105 59.2414 22.9217C59.4955 23.0147 59.7669 23.1149 60.0574 23.2246L62.4574 24.1367C63.8494 24.6646 65.5774 25.3846 66.8254 26.5847C67.0967 26.842 67.3387 27.1104 67.5543 27.387C68.8264 29.0193 69.1774 30.9359 69.1774 32.5366C69.1774 35.8486 68.0254 38.7287 66.3454 40.4566C65.4776 41.3685 64.4882 42.0281 63.4723 42.5042C61.1729 43.5821 58.7383 43.7206 57.2734 43.7206C57.2092 43.7206 57.1452 43.7204 57.0814 43.7199C55.258 43.7047 53.6124 43.4703 51.9988 42.8465C51.7569 42.753 51.5157 42.6507 51.2748 42.5391C51.1623 42.487 51.0498 42.4329 50.9374 42.3766C50.5148 42.1654 50.0761 41.909 49.6372 41.6243C49.6315 41.6206 49.6258 41.6169 49.6201 41.6132C48.3696 40.7999 47.1187 39.7579 46.2334 38.8727L50.0734 33.5926C50.2916 33.8109 50.5441 34.0496 50.8135 34.2925C51.1143 34.5636 51.4361 34.8398 51.7547 35.0981C52.2179 35.4737 52.6744 35.8115 53.0494 36.0406C53.3235 36.2093 53.5999 36.3595 53.8802 36.4911C54.0257 36.5595 54.1723 36.6228 54.3202 36.6812C55.1838 37.0222 56.09 37.1926 57.0814 37.1926C57.1438 37.1926 57.2079 37.1918 57.2734 37.1901C58.1301 37.1669 59.2331 36.98 60.1686 36.3042C60.2613 36.2373 60.3524 36.1655 60.4414 36.0886C61.0654 35.5606 61.5934 34.6967 61.5934 33.4967C61.5934 32.4407 61.1614 31.7687 60.4894 31.1926C60.0956 30.8645 59.4724 30.5363 58.8244 30.2445C58.4076 30.0568 57.9805 29.8841 57.5975 29.7361C57.5933 29.7345 57.5891 29.7329 57.5849 29.7313C57.2779 29.6128 56.9999 29.5104 56.779 29.429L56.7454 29.4166L54.1054 28.5047C52.6174 27.9767 50.8894 27.3046 49.6414 25.9606C49.0684 25.3549 48.6629 24.6933 48.3773 24.0235Z" fill="#101010"/>
<path fill-rule="evenodd" clip-rule="evenodd" d="M32.084 50.0004L29.684 43.9524H27.0596L24.6115 50.0004H1.84229L20.4005 3.98441H27.1532L28.525 0.282227L29.8803 3.98441H36.6576L48.9444 35.1451L46.2336 38.8724C46.981 39.6199 47.9892 40.479 49.0377 41.218C49.6725 41.6654 50.3221 42.0687 50.9376 42.3764C51.2838 42.5495 51.63 42.7028 51.9777 42.838L54.8018 50.0004H32.084ZM31.8932 10.9844H25.1252L12.2132 43.0004H19.8932L22.3412 36.9524H34.4372L36.8372 43.0004H44.5172L31.8932 10.9844ZM28.4852 20.5364L24.5012 31.2884H32.4212L28.4852 20.5364Z" fill="#101010"/>
</svg>
