<svg fill="none" xmlns="http://www.w3.org/2000/svg" viewBox="0 0 165 205">
    <defs>
        <mask id="mask1" maskUnits="objectBoundingBox" maskContentUnits="objectBoundingBox">
            <path d="m160.542 1.748 2.96 1.917Zm-9.685-.339 2.379 2.605Zm-9.57-.28 1.571 3.164Zm-9.863-.049 1.348 3.263Zm-10.437.28 2.274 2.694Zm-10.58 1.077 3.485.539Zm-9.428 1.567 2.391-2.595Zm-8.35.419L91.773 1Zm-8.931-.738-2.944-1.946Zm-9.751-.49-3.39-.967Zm86.389 8.972 3.372 1.038Zm-9.872-.26 3.166 1.557Zm-9.877-.17 2.972 1.897Zm-10.078.19 3.178 1.527Zm-10.148.799 3.526-.07Zm-9.412 1.257 2.402-2.585Zm-8.378.43-.793-3.444Zm-8.78-.969-3.181-1.517Zm-9.818-.998-3.494.48Zm-10.01-.18-3.423.849Zm86.329 10.748 3.459-.688Zm-10.004-.23 3.519-.229Zm-9.978-.06 3.525-.119Zm-9.918.39 3.412-.888Zm-9.499.819 2.461-2.525Zm-8.686.498-.115-3.522Zm-8.627-.698-2.81-2.136Zm-9.624-1.228-3.512.32Zm-10.162-.648-3.135 1.616Zm-9.905.16-3.274 1.307Zm86.771 11.755 2.722-2.245Zm-10.185-.33 3.144-1.596Zm-10.022-.1 3.239-1.396Zm-9.773.35 2.837-2.096Zm-9.221.589 1.329-3.263Zm-8.666.01-1.287-3.283Zm-9.011-.918-3.214-1.447Zm-9.839-.988-3.486.529Zm-10.074-.38-3.285 1.278Zm-9.871.4-3.493.489Zm86.891 11.576 2.265-2.705Zm-10.415-.56 3.146-1.596Zm-10.085-.268 3.368-1.048Zm-9.846.309 3.111-1.667Zm-9.344.668 1.85-3.003Zm-8.769.24-.562-3.483Zm-8.939-.569-2.631-2.345Zm-9.58-.748-3.42-.859Zm-9.928-.28-3.514-.3Zm-10.057.41-3.348-1.108Zm86.621 10.388 2.95-1.936Zm-10.263-.998 3.526.06Zm-9.908-.45 3.394.959Zm-10.031.3 3.507.37Zm-9.828.908 3.214-1.447Zm-9.141.858 1.548-3.173Zm-8.865.15-.673-3.462Zm-9.21-.359L91.1 51.226Zm-9.69-.28-2.77-2.185Zm-10.08.12-2.559-2.425Zm86.737 8.572 3.506.38Zm-9.445-1.077 2.449 2.535Zm-9.612-.27 1.723 3.084Zm-10.293.23 2.362 2.624Zm-10.5.868 3.413.888Zm-9.849 1.227 3.161-1.566Zm-9.155.809 1.521-3.184Zm-9.03.16-.367-3.513Zm-9.342-.19-1.632-3.124Zm-9.76-.13-2.06-2.864Zm87.676 7.135 2.128 2.815Zm-8.93-.349.038 3.523Zm-9.751.01-.408 3.503Zm-10.617.04.876 3.423Zm-10.959.668 2.846 2.086Zm-10.298 1.288 3.492-.49Zm-9.394 1.078 2.331-2.645Zm-8.98.429.343-3.513Zm-9.078-.15-1.45-3.213Zm-9.45-.36-2.499-2.484Zm88.479 6.976.083 3.523Zm-9.226.14-1.413 3.233Zm-10.154-.06-1.054 3.363Zm-10.969-.02.935 3.403Zm-11.074.888 3.133 1.617Zm-10.054 1.447 3.292-1.267Zm-9.139.928 1.622-3.133Zm-8.89.18-.546-3.483Zm-9.083-.42-2.33-2.644ZM73.89 83.2l-3.276-1.307Zm88.444 7.585-.625 3.472Zm-9.705.07-1.164 3.332Zm-10.605-.09.097 3.522Zm-11.186.528 2.521 2.465Zm-10.449 1.547 3.47-.629Zm-9.091 1.228 1.704-3.084Zm-8.824.2-.598-3.483Zm-9.15-.38-2.246-2.724Zm-9.495-.629-3.206-1.467Zm-9.814-.688-3.525-.09Zm87.854 8.173.304 3.513Zm-10.188.03.732 3.453Zm-10.845.469 2.473 2.515Zm-10.49 1.457 3.504-.4Zm-8.98 1.397 1.516-3.184Zm-8.514.02-1.405-3.233Zm-9.251-.579-2.851-2.076Zm-9.741-.439L90.54 101.9Zm-9.889-.339-3.49-.509Zm-9.962-.4-3.514.28Zm86.932 8.732 2.161 2.785Zm-10.4.469 3.013 1.836Zm-10.208 1.208 3.479-.579Zm-8.987 1.307 1.504-3.193Zm-8.313-.08-1.819-3.023Zm-9.194-1.008-3.379-1.008Zm-9.902-.579-3.524.14Zm-9.976-.019-3.522.179Zm-9.972.129-3.526-.08Zm-9.974-.03-3.526-.01Zm86.303 9.521 3.407.908Zm-9.957.968 3.373-1.028Zm-9.126 1.037 1.676-3.103Zm-8.384.04-1.505-3.193Zm-9.024-1.137-3.405-.919Zm-9.997-.988-3.361 1.067Zm-10.08-.26-3.15 1.587Zm-9.858.3-3.384.988Zm-9.903.469-3.526.04Zm-9.989.249-3.496-.459Zm86.309 10.179 3.424-.848Zm-9.358.958 2.193-2.764Zm-8.696.369-.365-3.512Zm-8.725-.718-2.863-2.066Zm-9.649-1.188-3.513.3Zm-10.181-.688-3.101 1.686Zm-10.031-.09-2.989 1.866Zm-9.798.369-3.34 1.128Zm-9.882.579-3.526-.03Zm-10.016.369-3.443-.768Zm86.395 10.209 3.308-1.228Zm-9.271.868 1.9-2.974Zm-8.78.26-.488-3.493Zm-8.862-.619-2.714-2.256Zm-9.576-.958-3.51-.34Zm-10.015-.579-3.429.818Zm-9.995-.08-3.388.978Zm-9.917.29-3.504.399Zm-9.978.439-3.495-.469Zm-10.032.269-3.38-1.008Zm86.317 9.52 3.525-.1Zm-9.709.888 2.994-1.866Zm-9.192.679 1.429-3.223Zm-8.863.11-.792-3.443Zm-9.14-.459-2.462-2.525Zm-9.62-.489-3.171-1.547Zm-9.893-.2-3.333-1.147Zm-9.998.07-3.286-1.287Zm-10.025.11-3.186-1.517Zm-9.976 0-3.182-1.517Zm86.672 8.313 3.014 1.826Zm-10.195.558 3.454.709Zm-9.951.809 3.407-.918Zm-9.472.838 2.403-2.585Zm-9.162.429.777-3.443Zm-9.273.01-.625-3.473Zm-9.577-.12-1.42-3.233Zm-9.798-.089-1.772-3.054Zm-9.85-.08-2.022-2.894Zm-9.786-.15-2.398-2.585Zm87.694 7.155 1.754 3.064Zm-10.208.16 2.221 2.744Zm-10.369.449 3.009 1.836Zm-10.228.788 3.517.27Zm-9.823.858 3.214-1.457Zm-9.522.609 2.309-2.664Zm-9.504.29 1.369-3.254Zm-9.625.109.669-3.462Zm-9.704.03.13-3.522Zm-9.71-.01-.4-3.502Zm88.929 6.587 1.281 3.283Zm-10.048.03 1.429 3.223Zm-10.337.209 2.153 2.794Zm-10.416.499 3.037 1.796Zm-10.209.719 3.507.369Zm-9.913.678 3.383-.998Zm-9.762.469 2.957-1.926Zm-9.782.24 2.574-2.415Zm-9.868.109 2.36-2.624Zm-9.934.03 2.28-2.694Zm89.768 7.295 2.284 2.685Zm-9.988.01 2.31 2.665Zm-10.173.2 2.706 2.265Zm-10.227.399 3.212 1.457Zm-10.118.519 3.5.429Zm-9.973.439 3.497-.449Zm-9.926.239 3.401-.928Zm-9.972.01 3.394-.958Zm-10.013-.169 3.473-.609Zm-10-.25 3.525-.119Zm90.052 8.962 2.96 1.916Zm-9.685-.34 2.379 2.605Zm-9.57-.279 1.571 3.163Zm-9.863-.05 1.348 3.263Zm-10.437.28 2.274 2.694Zm-10.58 1.077 3.485.539Zm-9.428 1.567 2.391-2.595Zm-8.35.419-.856-3.423Zm-8.931-.738-2.944-1.946Zm-9.751-.489-3.39-.968ZM60.67 1.988l3.215 1.447Zm-9.913-.13 3.092 1.697Zm-9.868-.17 2.88 2.036Zm-9.775-.229 2.48 2.505Zm-9.68-.24 1.892 2.974Zm-9.722-.13 1.386 3.244Zm-9.95-.009L3.1 4.343Zm58.826 12.115 3.378-1.008Zm-10.045-.41 3.52-.189Zm-9.953-.389 3.476.59Zm-9.872-.359 3.273 1.307Zm-9.805-.33 2.933 1.957Zm-9.825-.189 2.634 2.345Zm-9.964-.01 2.614 2.365ZM61.44 24.222l1.675-3.104Zm-10.451-.38 2.629-2.354Zm-10.251-.409 3.18-1.526Zm-10.084-.299 3.401-.928Zm-10.017-.2 3.485-.538Zm-9.988-.11 3.512-.319Zm-9.974-.01 3.513-.299Zm61.908 11.567-.61-3.473Zm-10.634-.01.708-3.453Zm-10.407-.14 1.573-3.164Zm-10.095-.07 1.815-3.024Zm-9.928.03 1.72-3.084Zm-9.93.02 1.633-3.123Zm-9.973 0 1.629-3.133Zm61.718 9.83-2.113-2.824Zm-10.503.269-1.056-3.363Zm-10.289.07-.428-3.503Zm-9.905-.01-.566-3.483Zm-9.698-.07-1.119-3.343Zm-9.786-.08-1.496-3.193Zm-9.964 0-1.517-3.183Zm60.462 9.49-2.747-2.215Zm-10.338.34-2.02-2.894Zm-10.132.1-1.705-3.084Zm-9.783-.12-2.088-2.844Zm-9.659-.3-2.719-2.245Zm-9.805-.249-3.057-1.756Zm-9.97 0L.898 51.735Zm59.783 10.08-2.94-1.947Zm-10.206.279-2.476-2.515Zm-10.028.05-2.368-2.615Zm-9.78-.21-2.758-2.196Zm-9.75-.36-3.208-1.466Zm-9.888-.229-3.38-1.008Zm-10.004.09L.77 61.993ZM63.85 73.36l-3.144-1.597Zm-10.088.2-2.918-1.987Zm-9.998.03-2.872-2.047Zm-9.874-.16-3.072-1.737Zm-9.874-.21-3.273-1.317Zm-9.969-.01-3.284-1.287Zm-10.137.31L.95 71.602ZM64 82.93l-3.444-.769Zm-10.003.1-3.388-.978Zm-10.014.12-3.309-1.218Zm-10.005.08-3.248-1.368Zm-10.04.139-3.116-1.647Zm-10.175.3-2.715-2.256Zm-10.519.438-1.627-3.133Zm60.78 8.163-3.492.5Zm-9.968.06-3.505.39Zm-9.968.31-3.519-.23Zm-10.072.469-3.323-1.178Zm-10.305.569-2.662-2.316Zm-10.611.469-1.389-3.244Zm-10.965.12.591-3.483Zm61.722 7.454-3.16 1.566Zm-9.954.04-3.2 1.487Zm-9.824.538-3.502.41Zm-10.112.919-3.226-1.427Zm-10.747.838-1.68-3.104Zm-11.099.189.569-3.482Zm-10.983-.538 2.585-2.405Zm62.639 7.843-2.998 1.856Zm-9.91.12-3.129 1.627Zm-9.776.788-3.526.05Zm-10.443 1.218-2.588-2.395Zm-11.34.569.144-3.523Zm-11.181-.549 2.557-2.425Zm-10.445-.988 3.498-.449Zm63.267 9.191-3.343 1.117Zm-9.896.349-3.5.429Zm-10.19 1.078-3.07-1.737Zm-11.266.878-.485-3.493Zm-11.508-.539 2.58-2.405Zm-10.447-1.227 3.526.05Zm-9.753-.829 3.084 1.707Zm63.102 11.247-3.428-.828Zm-10.235.579-2.906-1.996Zm-11.115.738-.625-3.472Zm-11.583-.539 2.592-2.395Zm-10.403-1.566 3.45.738Zm-9.38-.978 2.26 2.704Zm-9.558-.26 1.428 3.224Zm61.474 13.093-1.828-3.014Zm-10.798.26-.18-3.523Zm-11.358-.569 2.587-2.395Zm-10.387-1.637 3.413.888Zm-9.041-1.148 1.545 3.174Zm-9.115-.169-.174 3.522Zm-9.861.01-.4 3.502Zm59.183 13.432.926-3.403Zm-10.797-.499 2.572-2.415Zm-10.44-1.407 3.503.409Zm-9.136-1.307 1.827 3.013Zm-8.78-.23-.562 3.483Zm-9.418.19-1.676 3.103Zm-10.08-.06L1.7 154.002Zm57.746 12.703 2.737-2.225Zm-10.348-.838 3.484-.549Zm-9.667-1.307 2.868 2.056Zm-8.882-.699.684 3.463Zm-9.048.07-1.17 3.323Zm-9.636.16-1.845 3.004Zm-10.137-.09-1.521 3.183Zm57.442 12.205 3.29-1.268Zm-10.092-.709 3.524.14Zm-9.628-.978 2.831 2.106Zm-9.185-.599 1.253 3.304Zm-9.28-.109-.136 3.522Zm-9.691.03-.703 3.462Zm-10.093-.02-.467 3.502Zm57.96 12.344 3.305-1.228Zm-10.062-.339 3.483-.549Zm-9.964-.619 3.461.678Zm-9.732-.609 2.976 1.896Zm-9.61-.409 2.248 2.714Zm-9.706-.18 1.711 3.084Zm-9.914-.04 1.59 3.154Zm59.115 12.445 3.052-1.767Zm-9.897.119 2.898-2.005Zm-10.035-.09 3.02-1.826Zm-10.114-.289 3.298-1.247Zm-10.078-.429 3.505-.389Zm-9.968-.439 3.493.489Zm-9.9-.319 3.345 1.117Zm59.91 9.819 3.216 1.447Zm-9.912-.13 3.092 1.697Zm-9.869-.169 2.881 2.036Zm-9.773-.23 2.478 2.505Zm-9.682-.239 1.893 2.974Zm-9.72-.13 1.385 3.243Zm-9.95-.01 1.336 3.263Z" fill="#fff" />
            <path d="m160.542 1.748 2.96 1.917m-12.645-2.256 2.379 2.605M141.287 1.13l1.571 3.163M131.424 1.08l1.348 3.263M120.987 1.36l2.274 2.695m-12.854-1.617 3.485.539m-12.913 1.028 2.391-2.595M92.629 4.423 91.773 1m-8.075 2.685-2.944-1.946m-6.807 1.457-3.39-.968m89.779 9.939 3.372 1.038m-13.244-1.298 3.166 1.557m-13.043-1.726 2.972 1.896m-13.05-1.707 3.178 1.527m-13.326-.728 3.526-.07m-12.938 1.327 2.402-2.585m-10.78 3.014-.793-3.443m-7.986 2.475-3.182-1.517m-6.637.52-3.494.478m-6.516-.658-3.423.848m89.752 9.9 3.459-.69m-13.463.46 3.519-.23m-13.497.17 3.525-.12m-13.443.51 3.412-.889m-12.911 1.707 2.461-2.525m-11.147 3.023-.115-3.522m-8.512 2.824-2.81-2.136m-6.814.908-3.512.32m-6.65-.968-3.135 1.616m-6.77-1.457-3.274 1.308m90.045 10.448 2.722-2.245m-12.907 1.916 3.144-1.597m-13.166 1.497 3.239-1.397m-13.012 1.746 2.837-2.096m-12.058 2.685 1.329-3.263m-9.995 3.273-1.287-3.283m-7.724 2.365-3.214-1.447m-6.625.459-3.486.529m-6.588-.908-3.285 1.277m-6.586-.878-3.493.489M160.89 43.98l2.265-2.705m-12.68 2.146 3.146-1.597m-13.231 1.328 3.368-1.048m-13.214 1.357 3.111-1.667m-12.455 2.335 1.85-3.003M112.43 44.37l-.562-3.483m-8.377 2.914-2.631-2.345m-6.95 1.597-3.42-.859m-6.507.58-3.514-.3m-6.543.708-3.348-1.107m89.969 11.496 2.95-1.936m-13.213.938 3.526.06m-13.434-.51 3.394.959m-13.425-.659 3.507.37m-13.335.538 3.214-1.447m-12.355 2.306 1.548-3.174m-10.413 3.323-.673-3.462m-8.537 3.103L91.1 51.226M83.61 53.7l-2.769-2.186m-7.31 2.305-2.559-2.425m89.296 10.997 3.506.38m-12.951-1.457 2.449 2.535m-12.061-2.805 1.723 3.084m-12.016-2.854 2.362 2.624m-12.862-1.756 3.413.888m-13.262.34 3.161-1.567m-12.316 2.375 1.521-3.184m-10.552 3.343-.366-3.512m-8.975 3.323-1.632-3.124M73.28 64.02l-2.058-2.864m89.735 10 2.128 2.814m-11.058-3.164.038 3.523m-9.789-3.513-.408 3.503m-10.209-3.463.876 3.423m-11.835-2.755 2.846 2.086m-13.144-.798 3.492-.49m-12.886 1.568 2.331-2.645m-11.31 3.074.342-3.513m-9.421 3.363-1.45-3.213m-8 2.854-2.499-2.485m90.978 9.46.083 3.523m-9.309-3.383-1.413 3.233m-8.741-3.293-1.054 3.363m-9.915-3.383.935 3.403m-12.009-2.515 3.133 1.617m-13.187-.17 3.292-1.267m-12.431 2.195 1.622-3.133m-10.512 3.313-.546-3.483m-8.537 3.064-2.33-2.645M73.89 83.2l-3.276-1.307m91.72 8.892-.625 3.472m-9.08-3.403-1.164 3.333m-9.441-3.423.097 3.523m-11.283-2.994 2.521 2.465m-12.97-.918 3.47-.629m-12.561 1.857 1.704-3.084m-10.528 3.283-.598-3.483m-8.552 3.104-2.246-2.724m-7.249 2.095-3.206-1.467m-6.609.779-3.524-.09m91.379 8.263.304 3.513m-10.492-3.483.732 3.453m-11.577-2.984 2.473 2.515m-12.963-1.058 3.504-.4m-12.484 1.797 1.516-3.184m-10.03 3.204-1.405-3.233m-7.846 2.654-2.851-2.076m-6.89 1.637L90.54 101.9m-6.57.859-3.49-.509m-6.471.109-3.516.28m90.447 8.452 2.161 2.785m-12.561-2.316 3.013 1.836m-13.221-.628 3.479-.579m-12.466 1.886 1.504-3.193m-9.817 3.113-1.819-3.023m-7.375 2.015-3.379-1.008m-6.523.429-3.524.14m-6.452-.159-3.522.179m-6.45-.05-3.526-.08m-6.447.05-3.528-.01m89.83 9.531 3.407.908m-13.364.06 3.373-1.028m-12.499 2.065 1.676-3.103m-10.06 3.143-1.505-3.193m-7.519 2.056-3.405-.919m-6.592-.069-3.361 1.067m-6.719-1.327-3.15 1.587m-6.707-1.287-3.385.988m-6.52-.519-3.525.04m-6.462.209-3.498-.459m89.806 10.638 3.424-.848m-12.782 1.806 2.193-2.764m-10.889 3.133-.365-3.512m-8.36 2.794-2.863-2.066m-6.786.878-3.513.3m-6.668-.988-3.101 1.686m-6.93-1.776-2.989 1.866m-6.81-1.497-3.339 1.128m-6.542-.549-3.526-.03m-6.49.399-3.443-.768m89.838 10.977 3.308-1.228m-12.579 2.096 1.9-2.974m-10.68 3.234-.488-3.493m-8.374 2.874-2.714-2.256m-6.862 1.298-3.51-.34m-6.505-.239-3.429.818m-6.566-.898-3.388.978m-6.529-.688-3.504.399m-6.474.04-3.495-.469m-6.537.738-3.38-1.008m89.697 10.528 3.525-.1m-13.234.988 2.994-1.866m-12.186 2.545 1.429-3.223m-10.292 3.333-.792-3.443m-8.348 2.984-2.462-2.525m-7.158 2.036-3.171-1.547m-6.722 1.347-3.333-1.147m-6.665 1.217-3.286-1.287m-6.739 1.397-3.186-1.517m-6.79 1.517-3.182-1.517m89.854 9.83 3.014 1.826m-13.209-1.268 3.454.709m-13.405.1 3.407-.918m-12.879 1.756 2.403-2.585m-11.565 3.014.777-3.443m-10.05 3.453-.625-3.473m-8.952 3.353-1.42-3.233m-8.378 3.144-1.772-3.054m-8.077 2.974-2.023-2.894m-7.764 2.744-2.398-2.585m90.092 9.74 1.754 3.064m-11.962-2.904 2.221 2.744m-12.59-2.295 3.009 1.836m-13.237-1.048 3.517.27m-13.34.588 3.214-1.457m-12.736 2.066 2.309-2.664m-11.813 2.954 1.369-3.254m-10.994 3.363.669-3.462m-10.373 3.492.13-3.522m-9.84 3.512-.4-3.502m89.329 10.089 1.281 3.283m-11.329-3.253 1.429 3.223m-11.766-3.014 2.153 2.794m-12.569-2.295 3.037 1.796m-13.246-1.077 3.507.369m-13.42.309 3.383-.998m-13.145 1.467 2.957-1.926m-12.739 2.166 2.574-2.415m-12.442 2.524 2.36-2.624m-12.294 2.654 2.28-2.694m87.488 9.989 2.284 2.685m-12.272-2.675 2.31 2.665m-12.483-2.465 2.706 2.265m-12.933-1.866 3.212 1.457m-13.33-.938 3.5.429m-13.473.01 3.497-.449m-13.423.688 3.401-.928m-13.373.938 3.394-.958m-13.407.789 3.473-.609m-13.473.359 3.525-.119m86.527 9.081 2.96 1.916m-12.645-2.256 2.379 2.605m-11.949-2.884 1.571 3.163m-11.434-3.213 1.348 3.263m-11.785-2.983 2.274 2.694m-12.854-1.617 3.485.539m-12.913 1.028 2.391-2.595m-10.741 3.014-.856-3.423m-8.075 2.685-2.944-1.946m-6.807 1.457-3.39-.968M60.67 1.988l3.215 1.447M50.757 1.858l3.092 1.697M40.89 1.689l2.88 2.035M31.115 1.46l2.478 2.505M21.433 1.22l1.893 2.973M11.712 1.09l1.386 3.243M1.763 1.08l1.336 3.263m57.489 8.852 3.378-1.008m-13.423.599 3.52-.19m-13.473-.2 3.476.59m-13.348-.949 3.273 1.307m-13.078-1.636 2.933 1.956m-12.758-2.146 2.634 2.345M1.124 11.508l2.614 2.365M61.44 24.222l1.675-3.104m-12.126 2.725 2.629-2.355m-12.88 1.945 3.18-1.526m-13.264 1.227 3.401-.928m-13.418.729 3.485-.54m-13.473.43 3.512-.32m-13.486.31 3.513-.3m58.395 11.866-.61-3.473m-10.024 3.463.708-3.453M41.542 34.23l1.573-3.164m-11.668 3.094 1.815-3.024m-11.743 3.054 1.72-3.084m-11.65 3.104 1.633-3.123M1.616 34.21l1.629-3.133M63.334 44.04l-2.113-2.824m-8.39 3.093-1.056-3.363m-9.233 3.433-.428-3.503m-9.477 3.493-.566-3.483M22.94 44.3l-1.119-3.343m-8.667 3.263-1.496-3.193M3.19 44.22l-1.517-3.183m61.98 12.674-2.748-2.216m-7.591 2.555-2.02-2.894m-8.112 2.994-1.705-3.084m-8.078 2.964-2.088-2.844m-7.57 2.544-2.72-2.245m-7.086 1.996-3.057-1.756M3.963 53.48.9 51.735M63.747 63.56l-2.94-1.946m-7.266 2.226-2.476-2.515m-7.552 2.564-2.368-2.614m-7.412 2.405-2.758-2.196m-6.991 1.837-3.209-1.467m-6.68 1.237-3.38-1.008M4.09 63.181.77 61.993M63.85 73.36l-3.144-1.597m-6.944 1.796-2.918-1.986m-7.08 2.016-2.872-2.046M33.89 73.43l-3.072-1.737m-6.802 1.527-3.273-1.317m-6.696 1.307-3.284-1.287M3.91 73.519.95 71.603M64 82.93l-3.444-.769m-6.56.869-3.387-.978m-6.626 1.097-3.309-1.217m-6.696 1.297-3.248-1.367m-6.792 1.507-3.116-1.647m-7.059 1.946-2.715-2.255m-7.804 2.694-1.627-3.133M64.023 92.27l-3.49.5m-6.477-.44-3.505.39m-6.463-.08-3.519-.23m-6.553.699-3.323-1.178m-6.983 1.746-2.66-2.315m-7.95 2.785-1.389-3.244m-9.576 3.363.591-3.483m61.13 10.938-3.158 1.566m-6.795-1.526-3.2 1.487m-6.624-.949-3.502.41m-6.61.509-3.226-1.427m-7.521 2.265-1.68-3.104m-9.419 3.293.569-3.482m-11.552 2.944 2.585-2.405m60.054 10.248-2.998 1.856m-6.912-1.736-3.129 1.627m-6.647-.839-3.526.05m-6.917 1.168-2.588-2.395m-8.753 2.964.145-3.523m-11.325 2.974 2.557-2.425M.682 112.708l3.498-.449m59.77 9.64-3.344 1.117m-6.553-.768-3.5.429m-6.69.649-3.07-1.737m-8.196 2.615-.485-3.493m-11.023 2.954 2.58-2.405m-13.027 1.178 3.526.05m-13.279-.879 3.084 1.707m60.018 9.54-3.428-.828m-6.807 1.407-2.906-1.996m-8.209 2.734-.625-3.472m-10.958 2.933 2.592-2.395m-12.995.829 3.45.738m-12.83-1.716 2.26 2.704M1.717 130.83l1.428 3.224m60.046 9.869-1.828-3.014m-8.97 3.274-.18-3.523m-11.178 2.954 2.587-2.395m-12.974.758 3.413.888m-12.454-2.036 1.545 3.174m-10.66-3.343-.174 3.522M2.63 140.67l-.4 3.502m59.583 9.93.926-3.403m-11.724 2.904 2.573-2.415m-13.012 1.008 3.503.409m-12.64-1.716 1.828 3.013m-10.607-3.243-.562 3.483m-8.856-3.293-1.676 3.103m-8.405-3.163L1.7 154.002m59.21 9.49 2.736-2.225m-13.085 1.387 3.484-.549m-13.15-.758 2.867 2.056m-11.75-2.755.684 3.463m-9.732-3.393-1.17 3.323m-8.466-3.163-1.845 3.004m-8.292-3.094-1.521 3.183m58.963 9.022 3.29-1.268m-13.382.559 3.524.14m-13.152-1.118 2.831 2.106m-12.016-2.705 1.253 3.304m-10.533-3.413-.136 3.522m-9.555-3.492-.703 3.462m-9.39-3.482-.467 3.502m58.428 8.842 3.304-1.228m-13.367.889 3.483-.549m-13.447-.07 3.461.678m-13.193-1.287 2.976 1.896m-12.586-2.305 2.248 2.714m-11.954-2.894 1.711 3.084m-11.625-3.124 1.59 3.154m57.526 9.291 3.05-1.767m-12.948 1.886 2.898-2.005M40.82 193.23l3.02-1.826m-13.134 1.537 3.298-1.247m-13.376.818 3.505-.389m-13.473-.05 3.493.489m-13.394-.808 3.346 1.117m56.566 8.702 3.215 1.447m-13.128-1.577 3.092 1.697m-12.96-1.866 2.88 2.036m-12.654-2.266 2.478 2.505m-12.16-2.744 1.893 2.974m-11.614-3.104 1.386 3.243m-11.335-3.253 1.336 3.263" stroke="#fff" stroke-linecap="round" />
        </mask>
    </defs>
</svg>