<svg width="814" height="468" viewBox="0 0 814 468" fill="none" xmlns="http://www.w3.org/2000/svg">
<g filter="url(#filter0_d_191_43409)">
<g clip-path="url(#clip0_191_43409)">
<rect x="32" y="31" width="750" height="397" rx="16" fill="white"/>
<mask id="path-3-inside-1_191_43409" fill="white">
<path d="M32 31H782V87H32V31Z"/>
</mask>
<path d="M32 31H782V87H32V31Z" fill="white"/>
<path d="M782 86H32V88H782V86Z" fill="#E1E1E1" mask="url(#path-3-inside-1_191_43409)"/>
<path d="M63.5 61H62.71L62.43 60.73C63.41 59.59 64 58.11 64 56.5C64 52.91 61.09 50 57.5 50C53.91 50 51 52.91 51 56.5C51 60.09 53.91 63 57.5 63C59.11 63 60.59 62.41 61.73 61.43L62 61.71V62.5L67 67.49L68.49 66L63.5 61V61ZM57.5 61C55.01 61 53 58.99 53 56.5C53 54.01 55.01 52 57.5 52C59.99 52 62 54.01 62 56.5C62 58.99 59.99 61 57.5 61Z" fill="#909090"/>
<path d="M86.08 65.16C85.472 65.16 84.8693 65.112 84.272 65.016C83.6853 64.92 83.1893 64.8027 82.784 64.664L83.056 63.384C83.4827 63.5013 83.9467 63.608 84.448 63.704C84.96 63.7893 85.4933 63.832 86.048 63.832C87.0187 63.832 87.7067 63.6667 88.112 63.336C88.528 63.0053 88.736 62.4827 88.736 61.768C88.736 61.5333 88.7093 61.32 88.656 61.128C88.6133 60.9253 88.5227 60.7493 88.384 60.6C88.256 60.44 88.0747 60.3067 87.84 60.2C87.6053 60.0933 87.3067 60.0133 86.944 59.96L85.696 59.8C84.7147 59.672 83.9947 59.3467 83.536 58.824C83.0773 58.2907 82.848 57.6027 82.848 56.76V56.632C82.848 55.5547 83.2053 54.7547 83.92 54.232C84.6453 53.7093 85.6907 53.448 87.056 53.448C87.7067 53.448 88.2667 53.5013 88.736 53.608C89.216 53.704 89.6427 53.8107 90.016 53.928L89.728 55.176C89.3653 55.0587 88.9547 54.9627 88.496 54.888C88.0373 54.8133 87.552 54.776 87.04 54.776C86.1013 54.776 85.4187 54.9253 84.992 55.224C84.576 55.5227 84.368 56.008 84.368 56.68C84.368 57.2027 84.5013 57.592 84.768 57.848C85.0453 58.104 85.504 58.2747 86.144 58.36L87.488 58.552C88.4373 58.6907 89.1467 59.0107 89.616 59.512C90.0853 60.0027 90.32 60.7173 90.32 61.656V61.816C90.32 62.936 89.952 63.7733 89.216 64.328C88.4907 64.8827 87.4453 65.16 86.08 65.16ZM93.6363 61.368C93.6469 61.848 93.6949 62.2533 93.7803 62.584C93.8763 62.904 94.0309 63.1707 94.2443 63.384C94.4576 63.5867 94.7456 63.736 95.1083 63.832C95.4709 63.9173 95.9349 63.96 96.5003 63.96C96.9483 63.96 97.3536 63.9333 97.7163 63.88C98.0896 63.8267 98.3989 63.7733 98.6443 63.72L98.4363 64.872C98.1696 64.968 97.8123 65.0427 97.3643 65.096C96.9163 65.16 96.4789 65.192 96.0523 65.192C95.3056 65.192 94.6763 65.1067 94.1643 64.936C93.6629 64.7547 93.2576 64.4987 92.9483 64.168C92.6496 63.8267 92.4309 63.4107 92.2923 62.92C92.1643 62.4187 92.1003 61.848 92.1003 61.208V60.552C92.1003 59.9547 92.1696 59.4107 92.3083 58.92C92.4469 58.4293 92.6603 58.008 92.9483 57.656C93.2469 57.304 93.6256 57.032 94.0843 56.84C94.5536 56.648 95.1083 56.552 95.7483 56.552C96.3669 56.552 96.8843 56.6427 97.3003 56.824C97.7269 57.0053 98.0683 57.2507 98.3243 57.56C98.5909 57.8587 98.7829 58.2107 98.9003 58.616C99.0176 59.0213 99.0763 59.448 99.0763 59.896V60.472C99.0763 60.8453 99.0176 61.0907 98.9003 61.208C98.7936 61.3147 98.5696 61.368 98.2283 61.368H93.6363ZM95.6843 57.736C94.9803 57.736 94.4629 57.9333 94.1323 58.328C93.8016 58.712 93.6309 59.3573 93.6203 60.264H97.6043V59.848C97.6043 59.1653 97.4603 58.6427 97.1723 58.28C96.8843 57.9173 96.3883 57.736 95.6843 57.736ZM102.145 62.536C102.145 63.016 102.278 63.3733 102.545 63.608C102.822 63.8427 103.292 63.96 103.953 63.96C104.252 63.96 104.524 63.9333 104.769 63.88C105.025 63.8267 105.244 63.7413 105.425 63.624C105.606 63.496 105.75 63.336 105.857 63.144C105.964 62.952 106.017 62.712 106.017 62.424V62.296C106.017 61.8693 105.868 61.544 105.569 61.32C105.281 61.0853 104.812 60.968 104.161 60.968H103.889C103.281 60.968 102.838 61.0853 102.561 61.32C102.284 61.544 102.145 61.9067 102.145 62.408V62.536ZM100.657 62.456C100.657 61.9653 100.732 61.56 100.881 61.24C101.03 60.9093 101.244 60.6427 101.521 60.44C101.798 60.2373 102.129 60.0933 102.513 60.008C102.897 59.9227 103.324 59.88 103.793 59.88C104.284 59.88 104.716 59.9333 105.089 60.04C105.462 60.136 105.772 60.312 106.017 60.568V59.928C106.017 59.5227 105.964 59.1813 105.857 58.904C105.75 58.6267 105.596 58.408 105.393 58.248C105.19 58.0773 104.94 57.9547 104.641 57.88C104.353 57.8053 104.022 57.768 103.649 57.768C103.276 57.768 102.886 57.8 102.481 57.864C102.086 57.9173 101.718 57.9867 101.377 58.072L101.585 56.872C101.884 56.7867 102.236 56.712 102.641 56.648C103.057 56.584 103.494 56.552 103.953 56.552C105.116 56.552 105.996 56.8133 106.593 57.336C107.201 57.8587 107.505 58.6373 107.505 59.672V65H106.177L106.049 64.12C105.782 64.504 105.43 64.776 104.993 64.936C104.566 65.0853 104.086 65.16 103.553 65.16C102.604 65.16 101.884 64.9573 101.393 64.552C100.902 64.1467 100.657 63.512 100.657 62.648V62.456ZM114.497 58.088C114.359 58.056 114.199 58.0293 114.017 58.008C113.847 57.976 113.676 57.96 113.505 57.96C113.196 57.96 112.908 58.0027 112.641 58.088C112.385 58.1627 112.161 58.296 111.969 58.488C111.777 58.68 111.628 58.9413 111.521 59.272C111.415 59.6027 111.361 60.0133 111.361 60.504V65H109.809V56.744H111.153L111.281 57.848C111.548 57.4427 111.879 57.1387 112.273 56.936C112.679 56.7333 113.169 56.632 113.745 56.632C114.151 56.632 114.497 56.6853 114.785 56.792L114.497 58.088ZM121.344 64.856C121.077 64.9413 120.773 65.0107 120.432 65.064C120.091 65.128 119.733 65.16 119.36 65.16C118.656 65.16 118.064 65.0693 117.584 64.888C117.104 64.7067 116.715 64.4453 116.416 64.104C116.128 63.7627 115.92 63.352 115.792 62.872C115.675 62.392 115.616 61.8533 115.616 61.256V60.488C115.616 59.88 115.691 59.336 115.84 58.856C115.989 58.376 116.219 57.9707 116.528 57.64C116.848 57.2987 117.253 57.0373 117.744 56.856C118.235 56.6747 118.827 56.584 119.52 56.584C119.925 56.584 120.293 56.616 120.624 56.68C120.965 56.7333 121.275 56.8027 121.552 56.888L121.28 58.04C120.747 57.8907 120.229 57.816 119.728 57.816C119.28 57.816 118.896 57.864 118.576 57.96C118.256 58.0453 117.995 58.2 117.792 58.424C117.589 58.6373 117.44 58.92 117.344 59.272C117.248 59.6133 117.2 60.04 117.2 60.552V61.128C117.2 61.6293 117.248 62.056 117.344 62.408C117.44 62.76 117.589 63.048 117.792 63.272C118.005 63.496 118.277 63.6613 118.608 63.768C118.939 63.864 119.344 63.912 119.824 63.912C120.123 63.912 120.416 63.8907 120.704 63.848C120.992 63.8053 121.269 63.7573 121.536 63.704L121.344 64.856ZM123.653 65V53.112H125.205V57.624C125.472 57.2827 125.824 57.0213 126.261 56.84C126.698 56.648 127.194 56.552 127.749 56.552C128.186 56.552 128.586 56.6107 128.949 56.728C129.322 56.8347 129.637 57.0107 129.893 57.256C130.16 57.4907 130.362 57.7893 130.501 58.152C130.65 58.5147 130.725 58.9467 130.725 59.448V65H129.173V59.96C129.173 59.192 129.034 58.648 128.757 58.328C128.48 57.9973 128.005 57.832 127.333 57.832C126.629 57.832 126.096 58.0133 125.733 58.376C125.381 58.728 125.205 59.32 125.205 60.152V65H123.653Z" fill="#909090"/>
<g clip-path="url(#clip1_191_43409)">
<rect width="750" height="341" transform="translate(32 87)" fill="white"/>
<g clip-path="url(#clip2_191_43409)">
<rect x="32" y="87" width="750" height="341" rx="16" fill="white"/>
<g filter="url(#filter1_d_191_43409)">
<rect x="207" y="56" width="400" height="400" rx="16" fill="white"/>
<rect x="207.5" y="56.5" width="399" height="399" rx="15.5" stroke="#DDDDDD"/>
</g>
<g filter="url(#filter2_d_191_43409)">
<rect x="232" y="81" width="350" height="350" rx="16" fill="white"/>
<rect x="232.5" y="81.5" width="349" height="349" rx="15.5" stroke="#DDDDDD"/>
</g>
<g filter="url(#filter3_d_191_43409)">
<rect x="257" y="106" width="300" height="300" rx="32" fill="white"/>
<rect x="257.5" y="106.5" width="299" height="299" rx="31.5" stroke="#DDDDDD"/>
</g>
<g filter="url(#filter4_d_191_43409)">
<rect x="282" y="133" width="251" height="251" rx="24" fill="white"/>
<rect x="282.5" y="133.5" width="250" height="250" rx="23.5" stroke="#DDDDDD"/>
</g>
<g filter="url(#filter5_d_191_43409)">
<rect x="307" y="156" width="200" height="200" rx="16" fill="white"/>
<rect x="307.5" y="156.5" width="199" height="199" rx="15.5" stroke="#DDDDDD"/>
</g>
<g filter="url(#filter6_f_191_43409)">
<circle cx="407" cy="246.91" r="245" stroke="white" stroke-width="140"/>
</g>
<rect x="74" y="285" width="665" height="143" fill="url(#paint0_linear_191_43409)"/>
<path d="M241.525 339.565C241.457 338.878 241.164 338.344 240.647 337.963C240.13 337.582 239.428 337.392 238.542 337.392C237.94 337.392 237.431 337.477 237.016 337.648C236.602 337.812 236.283 338.043 236.062 338.338C235.846 338.634 235.738 338.969 235.738 339.344C235.727 339.656 235.792 339.929 235.934 340.162C236.082 340.395 236.283 340.597 236.539 340.767C236.795 340.932 237.09 341.077 237.425 341.202C237.761 341.321 238.119 341.423 238.499 341.509L240.067 341.884C240.829 342.054 241.528 342.281 242.164 342.565C242.8 342.849 243.352 343.199 243.817 343.614C244.283 344.028 244.644 344.517 244.9 345.08C245.161 345.642 245.295 346.287 245.3 347.014C245.295 348.082 245.022 349.009 244.482 349.793C243.948 350.571 243.175 351.176 242.164 351.608C241.158 352.034 239.945 352.247 238.525 352.247C237.116 352.247 235.888 352.031 234.843 351.599C233.803 351.168 232.991 350.528 232.406 349.682C231.826 348.83 231.522 347.776 231.494 346.52H235.065C235.104 347.105 235.272 347.594 235.567 347.986C235.869 348.372 236.269 348.665 236.769 348.864C237.275 349.057 237.846 349.153 238.482 349.153C239.107 349.153 239.65 349.062 240.11 348.881C240.576 348.699 240.937 348.446 241.192 348.122C241.448 347.798 241.576 347.426 241.576 347.006C241.576 346.614 241.46 346.284 241.227 346.017C240.999 345.75 240.664 345.523 240.221 345.335C239.783 345.148 239.246 344.977 238.61 344.824L236.71 344.347C235.238 343.989 234.076 343.429 233.224 342.668C232.371 341.906 231.948 340.881 231.954 339.591C231.948 338.534 232.229 337.611 232.798 336.821C233.371 336.031 234.158 335.415 235.158 334.972C236.158 334.528 237.295 334.307 238.567 334.307C239.863 334.307 240.994 334.528 241.96 334.972C242.931 335.415 243.687 336.031 244.227 336.821C244.766 337.611 245.045 338.526 245.062 339.565H241.525ZM253.68 352.256C252.334 352.256 251.175 351.983 250.203 351.438C249.237 350.886 248.493 350.108 247.97 349.102C247.447 348.091 247.186 346.895 247.186 345.514C247.186 344.168 247.447 342.986 247.97 341.969C248.493 340.952 249.229 340.159 250.178 339.591C251.132 339.023 252.251 338.739 253.536 338.739C254.399 338.739 255.203 338.878 255.947 339.156C256.697 339.429 257.351 339.841 257.908 340.392C258.47 340.943 258.908 341.636 259.22 342.472C259.533 343.301 259.689 344.273 259.689 345.386V346.384H248.635V344.134H256.271C256.271 343.611 256.158 343.148 255.93 342.744C255.703 342.341 255.388 342.026 254.984 341.798C254.587 341.565 254.124 341.449 253.595 341.449C253.044 341.449 252.555 341.577 252.129 341.832C251.709 342.082 251.379 342.42 251.141 342.847C250.902 343.267 250.78 343.736 250.774 344.253V346.392C250.774 347.04 250.893 347.599 251.132 348.071C251.376 348.543 251.72 348.906 252.163 349.162C252.607 349.418 253.132 349.545 253.74 349.545C254.143 349.545 254.513 349.489 254.848 349.375C255.183 349.261 255.47 349.091 255.709 348.864C255.947 348.636 256.129 348.358 256.254 348.028L259.612 348.25C259.442 349.057 259.092 349.761 258.564 350.364C258.041 350.96 257.365 351.426 256.536 351.761C255.712 352.091 254.76 352.256 253.68 352.256ZM265.791 352.247C264.956 352.247 264.212 352.102 263.558 351.812C262.905 351.517 262.388 351.082 262.007 350.509C261.632 349.929 261.445 349.207 261.445 348.344C261.445 347.616 261.578 347.006 261.845 346.511C262.112 346.017 262.476 345.619 262.936 345.318C263.396 345.017 263.919 344.79 264.504 344.636C265.095 344.483 265.714 344.375 266.362 344.312C267.124 344.233 267.737 344.159 268.203 344.091C268.669 344.017 269.007 343.909 269.217 343.767C269.428 343.625 269.533 343.415 269.533 343.136V343.085C269.533 342.545 269.362 342.128 269.021 341.832C268.686 341.537 268.209 341.389 267.589 341.389C266.936 341.389 266.416 341.534 266.03 341.824C265.643 342.108 265.388 342.466 265.263 342.898L261.905 342.625C262.075 341.83 262.411 341.142 262.911 340.562C263.411 339.977 264.055 339.528 264.845 339.216C265.641 338.898 266.561 338.739 267.607 338.739C268.334 338.739 269.03 338.824 269.695 338.994C270.365 339.165 270.959 339.429 271.476 339.787C271.999 340.145 272.411 340.605 272.712 341.168C273.013 341.724 273.163 342.392 273.163 343.17V352H269.72V350.185H269.618C269.408 350.594 269.126 350.955 268.774 351.267C268.422 351.574 267.999 351.815 267.504 351.991C267.01 352.162 266.439 352.247 265.791 352.247ZM266.831 349.741C267.365 349.741 267.837 349.636 268.246 349.426C268.655 349.21 268.976 348.92 269.209 348.557C269.442 348.193 269.558 347.781 269.558 347.321V345.932C269.445 346.006 269.288 346.074 269.089 346.136C268.896 346.193 268.678 346.247 268.433 346.298C268.189 346.344 267.945 346.386 267.7 346.426C267.456 346.46 267.234 346.491 267.036 346.52C266.609 346.582 266.237 346.682 265.919 346.818C265.601 346.955 265.354 347.139 265.178 347.372C265.001 347.599 264.913 347.884 264.913 348.224C264.913 348.719 265.092 349.097 265.45 349.358C265.814 349.614 266.274 349.741 266.831 349.741ZM275.98 352V338.909H279.5V341.193H279.636C279.875 340.381 280.276 339.767 280.838 339.352C281.401 338.932 282.048 338.722 282.781 338.722C282.963 338.722 283.159 338.733 283.369 338.756C283.58 338.778 283.764 338.81 283.923 338.849V342.071C283.753 342.02 283.517 341.974 283.216 341.935C282.915 341.895 282.639 341.875 282.389 341.875C281.855 341.875 281.378 341.991 280.957 342.224C280.543 342.452 280.213 342.77 279.969 343.179C279.73 343.588 279.611 344.06 279.611 344.594V352H275.98ZM291.106 352.256C289.765 352.256 288.612 351.972 287.646 351.403C286.685 350.83 285.947 350.034 285.43 349.017C284.918 348 284.663 346.83 284.663 345.506C284.663 344.165 284.921 342.989 285.438 341.977C285.961 340.96 286.702 340.168 287.663 339.599C288.623 339.026 289.765 338.739 291.089 338.739C292.231 338.739 293.231 338.946 294.089 339.361C294.947 339.776 295.626 340.358 296.126 341.108C296.626 341.858 296.901 342.739 296.952 343.75H293.526C293.43 343.097 293.174 342.571 292.759 342.173C292.35 341.77 291.813 341.568 291.148 341.568C290.586 341.568 290.094 341.722 289.674 342.028C289.259 342.33 288.935 342.77 288.702 343.349C288.469 343.929 288.353 344.631 288.353 345.455C288.353 346.29 288.467 347 288.694 347.585C288.927 348.17 289.254 348.616 289.674 348.923C290.094 349.23 290.586 349.384 291.148 349.384C291.563 349.384 291.935 349.298 292.265 349.128C292.6 348.957 292.876 348.71 293.092 348.386C293.313 348.057 293.458 347.662 293.526 347.202H296.952C296.896 348.202 296.623 349.082 296.134 349.844C295.651 350.599 294.984 351.19 294.131 351.616C293.279 352.043 292.271 352.256 291.106 352.256ZM302.908 344.432V352H299.277V334.545H302.805V341.219H302.959C303.254 340.446 303.732 339.841 304.391 339.403C305.05 338.96 305.876 338.739 306.871 338.739C307.78 338.739 308.572 338.938 309.249 339.335C309.93 339.727 310.459 340.293 310.834 341.031C311.214 341.764 311.402 342.642 311.396 343.665V352H307.766V344.312C307.771 343.506 307.567 342.878 307.152 342.429C306.743 341.98 306.169 341.756 305.43 341.756C304.936 341.756 304.499 341.861 304.118 342.071C303.743 342.281 303.447 342.588 303.232 342.991C303.021 343.389 302.913 343.869 302.908 344.432ZM323.541 352.247C322.706 352.247 321.962 352.102 321.308 351.812C320.655 351.517 320.138 351.082 319.757 350.509C319.382 349.929 319.195 349.207 319.195 348.344C319.195 347.616 319.328 347.006 319.595 346.511C319.862 346.017 320.226 345.619 320.686 345.318C321.146 345.017 321.669 344.79 322.254 344.636C322.845 344.483 323.464 344.375 324.112 344.312C324.874 344.233 325.487 344.159 325.953 344.091C326.419 344.017 326.757 343.909 326.967 343.767C327.178 343.625 327.283 343.415 327.283 343.136V343.085C327.283 342.545 327.112 342.128 326.771 341.832C326.436 341.537 325.959 341.389 325.339 341.389C324.686 341.389 324.166 341.534 323.78 341.824C323.393 342.108 323.138 342.466 323.013 342.898L319.655 342.625C319.825 341.83 320.161 341.142 320.661 340.562C321.161 339.977 321.805 339.528 322.595 339.216C323.391 338.898 324.311 338.739 325.357 338.739C326.084 338.739 326.78 338.824 327.445 338.994C328.115 339.165 328.709 339.429 329.226 339.787C329.749 340.145 330.161 340.605 330.462 341.168C330.763 341.724 330.913 342.392 330.913 343.17V352H327.47V350.185H327.368C327.158 350.594 326.876 350.955 326.524 351.267C326.172 351.574 325.749 351.815 325.254 351.991C324.76 352.162 324.189 352.247 323.541 352.247ZM324.581 349.741C325.115 349.741 325.587 349.636 325.996 349.426C326.405 349.21 326.726 348.92 326.959 348.557C327.192 348.193 327.308 347.781 327.308 347.321V345.932C327.195 346.006 327.038 346.074 326.839 346.136C326.646 346.193 326.428 346.247 326.183 346.298C325.939 346.344 325.695 346.386 325.45 346.426C325.206 346.46 324.984 346.491 324.786 346.52C324.359 346.582 323.987 346.682 323.669 346.818C323.351 346.955 323.104 347.139 322.928 347.372C322.751 347.599 322.663 347.884 322.663 348.224C322.663 348.719 322.842 349.097 323.2 349.358C323.564 349.614 324.024 349.741 324.581 349.741ZM344.622 342.642L341.298 342.847C341.241 342.562 341.119 342.307 340.932 342.08C340.744 341.847 340.497 341.662 340.19 341.526C339.889 341.384 339.528 341.312 339.108 341.312C338.545 341.312 338.071 341.432 337.685 341.67C337.298 341.903 337.105 342.216 337.105 342.608C337.105 342.92 337.23 343.185 337.48 343.401C337.73 343.616 338.159 343.79 338.767 343.92L341.136 344.398C342.409 344.659 343.358 345.08 343.983 345.659C344.608 346.239 344.92 347 344.92 347.943C344.92 348.801 344.668 349.554 344.162 350.202C343.662 350.849 342.974 351.355 342.099 351.719C341.23 352.077 340.227 352.256 339.091 352.256C337.358 352.256 335.977 351.895 334.949 351.173C333.926 350.446 333.327 349.457 333.151 348.207L336.722 348.02C336.83 348.548 337.091 348.952 337.506 349.23C337.92 349.503 338.452 349.639 339.099 349.639C339.736 349.639 340.247 349.517 340.634 349.273C341.026 349.023 341.224 348.702 341.23 348.31C341.224 347.98 341.085 347.71 340.812 347.5C340.54 347.284 340.119 347.119 339.551 347.006L337.284 346.554C336.006 346.298 335.054 345.855 334.429 345.224C333.81 344.594 333.5 343.79 333.5 342.812C333.5 341.972 333.727 341.247 334.182 340.639C334.642 340.031 335.287 339.562 336.116 339.233C336.952 338.903 337.929 338.739 339.048 338.739C340.702 338.739 342.003 339.088 342.952 339.787C343.906 340.486 344.463 341.437 344.622 342.642ZM358.099 342.642L354.775 342.847C354.718 342.562 354.596 342.307 354.408 342.08C354.221 341.847 353.974 341.662 353.667 341.526C353.366 341.384 353.005 341.312 352.585 341.312C352.022 341.312 351.548 341.432 351.161 341.67C350.775 341.903 350.582 342.216 350.582 342.608C350.582 342.92 350.707 343.185 350.957 343.401C351.207 343.616 351.636 343.79 352.244 343.92L354.613 344.398C355.886 344.659 356.835 345.08 357.46 345.659C358.085 346.239 358.397 347 358.397 347.943C358.397 348.801 358.144 349.554 357.638 350.202C357.138 350.849 356.451 351.355 355.576 351.719C354.707 352.077 353.704 352.256 352.567 352.256C350.835 352.256 349.454 351.895 348.425 351.173C347.403 350.446 346.803 349.457 346.627 348.207L350.198 348.02C350.306 348.548 350.567 348.952 350.982 349.23C351.397 349.503 351.928 349.639 352.576 349.639C353.212 349.639 353.724 349.517 354.11 349.273C354.502 349.023 354.701 348.702 354.707 348.31C354.701 347.98 354.562 347.71 354.289 347.5C354.016 347.284 353.596 347.119 353.028 347.006L350.761 346.554C349.482 346.298 348.531 345.855 347.906 345.224C347.286 344.594 346.977 343.79 346.977 342.812C346.977 341.972 347.204 341.247 347.658 340.639C348.119 340.031 348.763 339.562 349.593 339.233C350.428 338.903 351.406 338.739 352.525 338.739C354.178 338.739 355.479 339.088 356.428 339.787C357.383 340.486 357.94 341.437 358.099 342.642ZM366.649 352.256C365.303 352.256 364.143 351.983 363.172 351.438C362.206 350.886 361.462 350.108 360.939 349.102C360.416 348.091 360.155 346.895 360.155 345.514C360.155 344.168 360.416 342.986 360.939 341.969C361.462 340.952 362.197 340.159 363.146 339.591C364.101 339.023 365.22 338.739 366.504 338.739C367.368 338.739 368.172 338.878 368.916 339.156C369.666 339.429 370.32 339.841 370.876 340.392C371.439 340.943 371.876 341.636 372.189 342.472C372.501 343.301 372.658 344.273 372.658 345.386V346.384H361.604V344.134H369.24C369.24 343.611 369.126 343.148 368.899 342.744C368.672 342.341 368.357 342.026 367.953 341.798C367.555 341.565 367.092 341.449 366.564 341.449C366.013 341.449 365.524 341.577 365.098 341.832C364.678 342.082 364.348 342.42 364.109 342.847C363.871 343.267 363.749 343.736 363.743 344.253V346.392C363.743 347.04 363.862 347.599 364.101 348.071C364.345 348.543 364.689 348.906 365.132 349.162C365.575 349.418 366.101 349.545 366.709 349.545C367.112 349.545 367.482 349.489 367.817 349.375C368.152 349.261 368.439 349.091 368.678 348.864C368.916 348.636 369.098 348.358 369.223 348.028L372.581 348.25C372.411 349.057 372.061 349.761 371.533 350.364C371.01 350.96 370.334 351.426 369.504 351.761C368.68 352.091 367.729 352.256 366.649 352.256ZM381.99 338.909V341.636H374.107V338.909H381.99ZM375.896 335.773H379.527V347.977C379.527 348.312 379.578 348.574 379.68 348.761C379.783 348.943 379.925 349.071 380.107 349.145C380.294 349.219 380.51 349.256 380.754 349.256C380.925 349.256 381.095 349.241 381.266 349.213C381.436 349.179 381.567 349.153 381.658 349.136L382.229 351.838C382.047 351.895 381.791 351.96 381.462 352.034C381.132 352.114 380.732 352.162 380.26 352.179C379.385 352.213 378.618 352.097 377.959 351.83C377.305 351.562 376.797 351.148 376.433 350.585C376.07 350.023 375.891 349.312 375.896 348.455V335.773ZM395.083 342.642L391.759 342.847C391.702 342.562 391.58 342.307 391.393 342.08C391.205 341.847 390.958 341.662 390.651 341.526C390.35 341.384 389.989 341.312 389.569 341.312C389.006 341.312 388.532 341.432 388.146 341.67C387.759 341.903 387.566 342.216 387.566 342.608C387.566 342.92 387.691 343.185 387.941 343.401C388.191 343.616 388.62 343.79 389.228 343.92L391.597 344.398C392.87 344.659 393.819 345.08 394.444 345.659C395.069 346.239 395.381 347 395.381 347.943C395.381 348.801 395.129 349.554 394.623 350.202C394.123 350.849 393.435 351.355 392.56 351.719C391.691 352.077 390.688 352.256 389.552 352.256C387.819 352.256 386.438 351.895 385.41 351.173C384.387 350.446 383.788 349.457 383.612 348.207L387.183 348.02C387.29 348.548 387.552 348.952 387.967 349.23C388.381 349.503 388.913 349.639 389.56 349.639C390.197 349.639 390.708 349.517 391.094 349.273C391.487 349.023 391.685 348.702 391.691 348.31C391.685 347.98 391.546 347.71 391.273 347.5C391.001 347.284 390.58 347.119 390.012 347.006L387.745 346.554C386.467 346.298 385.515 345.855 384.89 345.224C384.271 344.594 383.961 343.79 383.961 342.812C383.961 341.972 384.188 341.247 384.643 340.639C385.103 340.031 385.748 339.562 386.577 339.233C387.413 338.903 388.39 338.739 389.509 338.739C391.163 338.739 392.464 339.088 393.413 339.787C394.367 340.486 394.924 341.437 395.083 342.642ZM403.222 352V338.909H406.853V352H403.222ZM405.046 337.222C404.506 337.222 404.043 337.043 403.657 336.685C403.276 336.321 403.086 335.886 403.086 335.381C403.086 334.881 403.276 334.452 403.657 334.094C404.043 333.73 404.506 333.548 405.046 333.548C405.586 333.548 406.046 333.73 406.427 334.094C406.813 334.452 407.006 334.881 407.006 335.381C407.006 335.886 406.813 336.321 406.427 336.685C406.046 337.043 405.586 337.222 405.046 337.222ZM413.392 344.432V352H409.761V338.909H413.222V341.219H413.375C413.665 340.457 414.151 339.855 414.832 339.412C415.514 338.963 416.341 338.739 417.312 338.739C418.222 338.739 419.014 338.938 419.69 339.335C420.366 339.733 420.892 340.301 421.267 341.04C421.642 341.773 421.83 342.648 421.83 343.665V352H418.199V344.312C418.205 343.511 418 342.886 417.585 342.438C417.17 341.983 416.599 341.756 415.872 341.756C415.384 341.756 414.952 341.861 414.577 342.071C414.207 342.281 413.918 342.588 413.707 342.991C413.503 343.389 413.398 343.869 413.392 344.432ZM432.487 356.909C432.027 356.909 431.595 356.872 431.192 356.798C430.794 356.73 430.464 356.642 430.203 356.534L431.021 353.824C431.447 353.955 431.831 354.026 432.172 354.037C432.518 354.048 432.817 353.969 433.067 353.798C433.322 353.628 433.53 353.338 433.689 352.929L433.902 352.375L429.206 338.909H433.024L435.734 348.523H435.871L438.607 338.909H442.45L437.362 353.415C437.118 354.119 436.786 354.733 436.365 355.256C435.95 355.784 435.425 356.19 434.788 356.474C434.152 356.764 433.385 356.909 432.487 356.909ZM449.801 352.256C448.477 352.256 447.332 351.974 446.366 351.412C445.406 350.844 444.665 350.054 444.142 349.043C443.619 348.026 443.358 346.847 443.358 345.506C443.358 344.153 443.619 342.972 444.142 341.96C444.665 340.943 445.406 340.153 446.366 339.591C447.332 339.023 448.477 338.739 449.801 338.739C451.125 338.739 452.267 339.023 453.227 339.591C454.193 340.153 454.938 340.943 455.46 341.96C455.983 342.972 456.244 344.153 456.244 345.506C456.244 346.847 455.983 348.026 455.46 349.043C454.938 350.054 454.193 350.844 453.227 351.412C452.267 351.974 451.125 352.256 449.801 352.256ZM449.818 349.443C450.42 349.443 450.923 349.273 451.327 348.932C451.73 348.585 452.034 348.114 452.239 347.517C452.449 346.92 452.554 346.241 452.554 345.48C452.554 344.719 452.449 344.04 452.239 343.443C452.034 342.847 451.73 342.375 451.327 342.028C450.923 341.682 450.42 341.509 449.818 341.509C449.21 341.509 448.699 341.682 448.284 342.028C447.875 342.375 447.565 342.847 447.355 343.443C447.151 344.04 447.048 344.719 447.048 345.48C447.048 346.241 447.151 346.92 447.355 347.517C447.565 348.114 447.875 348.585 448.284 348.932C448.699 349.273 449.21 349.443 449.818 349.443ZM467 346.426V338.909H470.631V352H467.145V349.622H467.009C466.713 350.389 466.222 351.006 465.534 351.472C464.852 351.937 464.02 352.17 463.037 352.17C462.162 352.17 461.392 351.972 460.727 351.574C460.063 351.176 459.543 350.611 459.168 349.878C458.798 349.145 458.611 348.267 458.605 347.244V338.909H462.236V346.597C462.241 347.369 462.449 347.98 462.858 348.429C463.267 348.878 463.815 349.102 464.503 349.102C464.94 349.102 465.349 349.003 465.73 348.804C466.111 348.599 466.418 348.298 466.651 347.901C466.889 347.503 467.006 347.011 467 346.426ZM473.535 352V338.909H477.055V341.193H477.191C477.43 340.381 477.83 339.767 478.393 339.352C478.955 338.932 479.603 338.722 480.336 338.722C480.518 338.722 480.714 338.733 480.924 338.756C481.134 338.778 481.319 338.81 481.478 338.849V342.071C481.308 342.02 481.072 341.974 480.771 341.935C480.469 341.895 480.194 341.875 479.944 341.875C479.41 341.875 478.933 341.991 478.512 342.224C478.097 342.452 477.768 342.77 477.523 343.179C477.285 343.588 477.165 344.06 477.165 344.594V352H473.535ZM492.643 352.247C491.808 352.247 491.063 352.102 490.41 351.812C489.756 351.517 489.239 351.082 488.859 350.509C488.484 349.929 488.296 349.207 488.296 348.344C488.296 347.616 488.43 347.006 488.697 346.511C488.964 346.017 489.327 345.619 489.788 345.318C490.248 345.017 490.771 344.79 491.356 344.636C491.947 344.483 492.566 344.375 493.214 344.312C493.975 344.233 494.589 344.159 495.055 344.091C495.521 344.017 495.859 343.909 496.069 343.767C496.279 343.625 496.384 343.415 496.384 343.136V343.085C496.384 342.545 496.214 342.128 495.873 341.832C495.538 341.537 495.06 341.389 494.441 341.389C493.788 341.389 493.268 341.534 492.881 341.824C492.495 342.108 492.239 342.466 492.114 342.898L488.756 342.625C488.927 341.83 489.262 341.142 489.762 340.562C490.262 339.977 490.907 339.528 491.697 339.216C492.492 338.898 493.413 338.739 494.458 338.739C495.185 338.739 495.881 338.824 496.546 338.994C497.217 339.165 497.81 339.429 498.327 339.787C498.85 340.145 499.262 340.605 499.563 341.168C499.864 341.724 500.015 342.392 500.015 343.17V352H496.572V350.185H496.469C496.259 350.594 495.978 350.955 495.626 351.267C495.273 351.574 494.85 351.815 494.356 351.991C493.862 352.162 493.29 352.247 492.643 352.247ZM493.683 349.741C494.217 349.741 494.688 349.636 495.097 349.426C495.506 349.21 495.827 348.92 496.06 348.557C496.293 348.193 496.41 347.781 496.41 347.321V345.932C496.296 346.006 496.14 346.074 495.941 346.136C495.748 346.193 495.529 346.247 495.285 346.298C495.04 346.344 494.796 346.386 494.552 346.426C494.308 346.46 494.086 346.491 493.887 346.52C493.461 346.582 493.089 346.682 492.771 346.818C492.452 346.955 492.205 347.139 492.029 347.372C491.853 347.599 491.765 347.884 491.765 348.224C491.765 348.719 491.944 349.097 492.302 349.358C492.665 349.614 493.126 349.741 493.683 349.741ZM508.746 352.256C507.406 352.256 506.252 351.972 505.286 351.403C504.326 350.83 503.587 350.034 503.07 349.017C502.559 348 502.303 346.83 502.303 345.506C502.303 344.165 502.562 342.989 503.079 341.977C503.602 340.96 504.343 340.168 505.303 339.599C506.263 339.026 507.406 338.739 508.729 338.739C509.871 338.739 510.871 338.946 511.729 339.361C512.587 339.776 513.266 340.358 513.766 341.108C514.266 341.858 514.542 342.739 514.593 343.75H511.167C511.07 343.097 510.815 342.571 510.4 342.173C509.991 341.77 509.454 341.568 508.789 341.568C508.227 341.568 507.735 341.722 507.315 342.028C506.9 342.33 506.576 342.77 506.343 343.349C506.11 343.929 505.994 344.631 505.994 345.455C505.994 346.29 506.107 347 506.335 347.585C506.567 348.17 506.894 348.616 507.315 348.923C507.735 349.23 508.227 349.384 508.789 349.384C509.204 349.384 509.576 349.298 509.906 349.128C510.241 348.957 510.516 348.71 510.732 348.386C510.954 348.057 511.099 347.662 511.167 347.202H514.593C514.536 348.202 514.263 349.082 513.775 349.844C513.292 350.599 512.624 351.19 511.772 351.616C510.92 352.043 509.911 352.256 508.746 352.256ZM522.832 352.256C521.491 352.256 520.338 351.972 519.372 351.403C518.412 350.83 517.673 350.034 517.156 349.017C516.645 348 516.389 346.83 516.389 345.506C516.389 344.165 516.648 342.989 517.165 341.977C517.688 340.96 518.429 340.168 519.389 339.599C520.349 339.026 521.491 338.739 522.815 338.739C523.957 338.739 524.957 338.946 525.815 339.361C526.673 339.776 527.352 340.358 527.852 341.108C528.352 341.858 528.628 342.739 528.679 343.75H525.253C525.156 343.097 524.901 342.571 524.486 342.173C524.077 341.77 523.54 341.568 522.875 341.568C522.312 341.568 521.821 341.722 521.401 342.028C520.986 342.33 520.662 342.77 520.429 343.349C520.196 343.929 520.08 344.631 520.08 345.455C520.08 346.29 520.193 347 520.42 347.585C520.653 348.17 520.98 348.616 521.401 348.923C521.821 349.23 522.312 349.384 522.875 349.384C523.29 349.384 523.662 349.298 523.991 349.128C524.327 348.957 524.602 348.71 524.818 348.386C525.04 348.057 525.185 347.662 525.253 347.202H528.679C528.622 348.202 528.349 349.082 527.861 349.844C527.378 350.599 526.71 351.19 525.858 351.616C525.006 352.043 523.997 352.256 522.832 352.256ZM536.918 352.256C535.594 352.256 534.45 351.974 533.484 351.412C532.523 350.844 531.782 350.054 531.259 349.043C530.737 348.026 530.475 346.847 530.475 345.506C530.475 344.153 530.737 342.972 531.259 341.96C531.782 340.943 532.523 340.153 533.484 339.591C534.45 339.023 535.594 338.739 536.918 338.739C538.242 338.739 539.384 339.023 540.344 339.591C541.31 340.153 542.055 340.943 542.577 341.96C543.1 342.972 543.362 344.153 543.362 345.506C543.362 346.847 543.1 348.026 542.577 349.043C542.055 350.054 541.31 350.844 540.344 351.412C539.384 351.974 538.242 352.256 536.918 352.256ZM536.935 349.443C537.538 349.443 538.04 349.273 538.444 348.932C538.847 348.585 539.151 348.114 539.356 347.517C539.566 346.92 539.671 346.241 539.671 345.48C539.671 344.719 539.566 344.04 539.356 343.443C539.151 342.847 538.847 342.375 538.444 342.028C538.04 341.682 537.538 341.509 536.935 341.509C536.327 341.509 535.816 341.682 535.401 342.028C534.992 342.375 534.683 342.847 534.472 343.443C534.268 344.04 534.165 344.719 534.165 345.48C534.165 346.241 534.268 346.92 534.472 347.517C534.683 348.114 534.992 348.585 535.401 348.932C535.816 349.273 536.327 349.443 536.935 349.443ZM554.117 346.426V338.909H557.748V352H554.262V349.622H554.126C553.83 350.389 553.339 351.006 552.651 351.472C551.969 351.937 551.137 352.17 550.154 352.17C549.279 352.17 548.509 351.972 547.844 351.574C547.18 351.176 546.66 350.611 546.285 349.878C545.915 349.145 545.728 348.267 545.722 347.244V338.909H549.353V346.597C549.359 347.369 549.566 347.98 549.975 348.429C550.384 348.878 550.933 349.102 551.62 349.102C552.058 349.102 552.467 349.003 552.847 348.804C553.228 348.599 553.535 348.298 553.768 347.901C554.006 347.503 554.123 347.011 554.117 346.426ZM564.283 344.432V352H560.652V338.909H564.112V341.219H564.266C564.555 340.457 565.041 339.855 565.723 339.412C566.405 338.963 567.232 338.739 568.203 338.739C569.112 338.739 569.905 338.938 570.581 339.335C571.257 339.733 571.783 340.301 572.158 341.04C572.533 341.773 572.72 342.648 572.72 343.665V352H569.089V344.312C569.095 343.511 568.891 342.886 568.476 342.438C568.061 341.983 567.49 341.756 566.763 341.756C566.274 341.756 565.842 341.861 565.467 342.071C565.098 342.281 564.808 342.588 564.598 342.991C564.393 343.389 564.288 343.869 564.283 344.432ZM582.545 338.909V341.636H574.661V338.909H582.545ZM576.451 335.773H580.082V347.977C580.082 348.312 580.133 348.574 580.235 348.761C580.337 348.943 580.479 349.071 580.661 349.145C580.849 349.219 581.065 349.256 581.309 349.256C581.479 349.256 581.65 349.241 581.82 349.213C581.991 349.179 582.121 349.153 582.212 349.136L582.783 351.838C582.602 351.895 582.346 351.96 582.016 352.034C581.687 352.114 581.286 352.162 580.815 352.179C579.94 352.213 579.173 352.097 578.513 351.83C577.86 351.562 577.352 351.148 576.988 350.585C576.624 350.023 576.445 349.312 576.451 348.455V335.773Z" fill="#333333"/>
<path d="M201.913 369.818V380H200.68V369.818H201.913ZM205.4 375.406V380H204.226V372.364H205.36V373.557H205.459C205.638 373.169 205.91 372.857 206.275 372.622C206.639 372.384 207.11 372.264 207.686 372.264C208.203 372.264 208.656 372.37 209.044 372.582C209.431 372.791 209.733 373.109 209.949 373.537C210.164 373.961 210.272 374.498 210.272 375.148V380H209.098V375.227C209.098 374.627 208.943 374.16 208.631 373.825C208.319 373.487 207.892 373.318 207.348 373.318C206.974 373.318 206.639 373.399 206.344 373.562C206.052 373.724 205.822 373.961 205.653 374.273C205.484 374.584 205.4 374.962 205.4 375.406ZM215.518 380.159C214.802 380.159 214.186 379.99 213.669 379.652C213.151 379.314 212.754 378.848 212.475 378.255C212.197 377.662 212.058 376.984 212.058 376.222C212.058 375.446 212.2 374.762 212.485 374.168C212.774 373.572 213.175 373.106 213.688 372.771C214.205 372.433 214.809 372.264 215.498 372.264C216.035 372.264 216.519 372.364 216.95 372.562C217.381 372.761 217.734 373.04 218.009 373.398C218.284 373.756 218.454 374.173 218.521 374.651H217.347C217.258 374.303 217.059 373.994 216.751 373.726C216.446 373.454 216.035 373.318 215.518 373.318C215.061 373.318 214.66 373.437 214.315 373.676C213.973 373.911 213.707 374.245 213.514 374.675C213.325 375.103 213.231 375.605 213.231 376.182C213.231 376.772 213.324 377.286 213.509 377.723C213.698 378.161 213.963 378.5 214.305 378.742C214.65 378.984 215.054 379.105 215.518 379.105C215.823 379.105 216.1 379.052 216.348 378.946C216.597 378.84 216.807 378.688 216.98 378.489C217.152 378.29 217.275 378.051 217.347 377.773H218.521C218.454 378.223 218.29 378.629 218.029 378.991C217.77 379.349 217.427 379.634 216.999 379.846C216.575 380.055 216.081 380.159 215.518 380.159ZM221.409 369.818V380H220.236V369.818H221.409ZM228.371 376.878V372.364H229.544V380H228.371V378.707H228.291C228.112 379.095 227.834 379.425 227.456 379.697C227.078 379.965 226.601 380.099 226.024 380.099C225.547 380.099 225.123 379.995 224.751 379.786C224.38 379.574 224.089 379.256 223.876 378.832C223.664 378.404 223.558 377.866 223.558 377.216V372.364H224.732V377.136C224.732 377.693 224.887 378.137 225.199 378.469C225.514 378.8 225.915 378.966 226.402 378.966C226.694 378.966 226.99 378.891 227.292 378.742C227.597 378.593 227.852 378.364 228.058 378.056C228.266 377.748 228.371 377.355 228.371 376.878ZM234.577 380.159C233.94 380.159 233.378 379.998 232.891 379.677C232.404 379.352 232.023 378.895 231.748 378.305C231.473 377.711 231.335 377.01 231.335 376.202C231.335 375.4 231.473 374.704 231.748 374.114C232.023 373.524 232.406 373.068 232.896 372.746C233.387 372.425 233.953 372.264 234.596 372.264C235.094 372.264 235.486 372.347 235.775 372.513C236.066 372.675 236.288 372.861 236.441 373.07C236.597 373.275 236.718 373.444 236.804 373.577H236.903V369.818H238.077V380H236.943V378.827H236.804C236.718 378.966 236.595 379.142 236.436 379.354C236.277 379.562 236.05 379.75 235.755 379.915C235.46 380.078 235.067 380.159 234.577 380.159ZM234.736 379.105C235.206 379.105 235.604 378.982 235.929 378.737C236.254 378.489 236.501 378.146 236.67 377.708C236.839 377.267 236.923 376.759 236.923 376.182C236.923 375.612 236.84 375.113 236.675 374.685C236.509 374.254 236.264 373.92 235.939 373.681C235.614 373.439 235.213 373.318 234.736 373.318C234.238 373.318 233.824 373.446 233.493 373.701C233.165 373.953 232.918 374.296 232.752 374.73C232.59 375.161 232.508 375.645 232.508 376.182C232.508 376.725 232.591 377.219 232.757 377.663C232.926 378.104 233.175 378.455 233.503 378.717C233.834 378.976 234.245 379.105 234.736 379.105ZM240.388 380V372.364H241.562V380H240.388ZM240.985 371.091C240.756 371.091 240.559 371.013 240.393 370.857C240.231 370.701 240.15 370.514 240.15 370.295C240.15 370.077 240.231 369.889 240.393 369.734C240.559 369.578 240.756 369.5 240.985 369.5C241.214 369.5 241.409 369.578 241.572 369.734C241.737 369.889 241.82 370.077 241.82 370.295C241.82 370.514 241.737 370.701 241.572 370.857C241.409 371.013 241.214 371.091 240.985 371.091ZM244.884 375.406V380H243.711V372.364H244.844V373.557H244.944C245.123 373.169 245.394 372.857 245.759 372.622C246.123 372.384 246.594 372.264 247.171 372.264C247.688 372.264 248.14 372.37 248.528 372.582C248.916 372.791 249.217 373.109 249.433 373.537C249.648 373.961 249.756 374.498 249.756 375.148V380H248.583V375.227C248.583 374.627 248.427 374.16 248.115 373.825C247.804 373.487 247.376 373.318 246.833 373.318C246.458 373.318 246.123 373.399 245.828 373.562C245.537 373.724 245.306 373.961 245.137 374.273C244.968 374.584 244.884 374.962 244.884 375.406ZM254.982 383.023C254.416 383.023 253.928 382.95 253.521 382.804C253.113 382.661 252.773 382.473 252.502 382.237C252.233 382.005 252.019 381.757 251.86 381.491L252.795 380.835C252.901 380.974 253.035 381.134 253.198 381.312C253.36 381.495 253.582 381.652 253.864 381.785C254.149 381.921 254.522 381.989 254.982 381.989C255.599 381.989 256.108 381.839 256.509 381.541C256.91 381.243 257.11 380.776 257.11 380.139V378.588H257.011C256.925 378.727 256.802 378.9 256.643 379.105C256.487 379.307 256.262 379.488 255.967 379.647C255.675 379.803 255.281 379.881 254.784 379.881C254.167 379.881 253.614 379.735 253.123 379.443C252.636 379.152 252.25 378.727 251.965 378.17C251.683 377.614 251.542 376.937 251.542 376.142C251.542 375.36 251.68 374.679 251.955 374.099C252.23 373.515 252.613 373.065 253.103 372.746C253.594 372.425 254.16 372.264 254.803 372.264C255.301 372.264 255.695 372.347 255.987 372.513C256.282 372.675 256.507 372.861 256.663 373.07C256.822 373.275 256.945 373.444 257.031 373.577H257.15V372.364H258.284V380.219C258.284 380.875 258.134 381.409 257.836 381.82C257.541 382.234 257.143 382.537 256.643 382.729C256.146 382.925 255.592 383.023 254.982 383.023ZM254.943 378.827C255.413 378.827 255.811 378.719 256.136 378.504C256.461 378.288 256.708 377.978 256.877 377.574C257.046 377.17 257.13 376.686 257.13 376.122C257.13 375.572 257.047 375.086 256.882 374.665C256.716 374.245 256.471 373.915 256.146 373.676C255.821 373.437 255.42 373.318 254.943 373.318C254.445 373.318 254.031 373.444 253.7 373.696C253.372 373.948 253.125 374.286 252.959 374.71C252.797 375.134 252.715 375.605 252.715 376.122C252.715 376.652 252.798 377.121 252.964 377.529C253.133 377.933 253.382 378.252 253.71 378.484C254.041 378.712 254.452 378.827 254.943 378.827ZM264.369 380V372.364H265.502V373.557H265.602C265.761 373.149 266.018 372.833 266.372 372.607C266.727 372.379 267.153 372.264 267.65 372.264C268.154 372.264 268.573 372.379 268.908 372.607C269.246 372.833 269.509 373.149 269.698 373.557H269.778C269.973 373.162 270.267 372.849 270.658 372.617C271.049 372.382 271.518 372.264 272.065 372.264C272.748 372.264 273.306 372.478 273.74 372.906C274.174 373.33 274.392 373.991 274.392 374.889V380H273.218V374.889C273.218 374.326 273.064 373.923 272.756 373.681C272.448 373.439 272.085 373.318 271.667 373.318C271.13 373.318 270.714 373.481 270.419 373.805C270.124 374.127 269.977 374.535 269.977 375.028V380H268.784V374.77C268.784 374.336 268.643 373.986 268.361 373.721C268.079 373.452 267.716 373.318 267.272 373.318C266.967 373.318 266.682 373.399 266.417 373.562C266.155 373.724 265.943 373.95 265.781 374.238C265.622 374.523 265.542 374.853 265.542 375.227V380H264.369ZM279.738 380.159C279.003 380.159 278.368 379.997 277.834 379.672C277.304 379.344 276.895 378.886 276.606 378.3C276.321 377.71 276.179 377.024 276.179 376.241C276.179 375.459 276.321 374.77 276.606 374.173C276.895 373.573 277.296 373.106 277.809 372.771C278.327 372.433 278.93 372.264 279.619 372.264C280.017 372.264 280.41 372.33 280.797 372.463C281.185 372.596 281.538 372.811 281.856 373.109C282.175 373.404 282.428 373.795 282.617 374.283C282.806 374.77 282.9 375.37 282.9 376.082V376.58H277.014V375.565H281.707C281.707 375.134 281.621 374.75 281.449 374.412C281.28 374.074 281.038 373.807 280.723 373.612C280.411 373.416 280.043 373.318 279.619 373.318C279.152 373.318 278.747 373.434 278.406 373.666C278.068 373.895 277.808 374.193 277.626 374.561C277.443 374.929 277.352 375.323 277.352 375.744V376.42C277.352 376.997 277.452 377.486 277.65 377.887C277.853 378.285 278.133 378.588 278.491 378.797C278.849 379.002 279.265 379.105 279.738 379.105C280.047 379.105 280.325 379.062 280.574 378.976C280.826 378.886 281.043 378.754 281.225 378.578C281.407 378.399 281.548 378.177 281.648 377.912L282.781 378.23C282.662 378.615 282.461 378.953 282.18 379.244C281.898 379.533 281.55 379.758 281.135 379.92C280.721 380.08 280.256 380.159 279.738 380.159ZM288.006 372.364V373.358H284.049V372.364H288.006ZM285.202 370.534H286.376V377.812C286.376 378.144 286.424 378.393 286.52 378.558C286.619 378.721 286.745 378.83 286.898 378.886C287.053 378.939 287.217 378.966 287.39 378.966C287.519 378.966 287.625 378.959 287.708 378.946C287.791 378.929 287.857 378.916 287.907 378.906L288.145 379.96C288.066 379.99 287.955 380.02 287.812 380.05C287.67 380.083 287.489 380.099 287.27 380.099C286.939 380.099 286.614 380.028 286.296 379.886C285.981 379.743 285.719 379.526 285.51 379.234C285.305 378.943 285.202 378.575 285.202 378.131V370.534ZM289.771 380V372.364H290.905V373.517H290.984C291.123 373.139 291.375 372.833 291.74 372.597C292.104 372.362 292.515 372.244 292.973 372.244C293.059 372.244 293.167 372.246 293.296 372.249C293.425 372.253 293.523 372.258 293.589 372.264V373.457C293.55 373.447 293.458 373.433 293.316 373.413C293.177 373.389 293.029 373.378 292.873 373.378C292.502 373.378 292.171 373.456 291.879 373.612C291.591 373.764 291.362 373.976 291.193 374.248C291.027 374.516 290.944 374.823 290.944 375.168V380H289.771ZM294.98 380V372.364H296.153V380H294.98ZM295.577 371.091C295.348 371.091 295.151 371.013 294.985 370.857C294.823 370.701 294.741 370.514 294.741 370.295C294.741 370.077 294.823 369.889 294.985 369.734C295.151 369.578 295.348 369.5 295.577 369.5C295.805 369.5 296.001 369.578 296.163 369.734C296.329 369.889 296.412 370.077 296.412 370.295C296.412 370.514 296.329 370.701 296.163 370.857C296.001 371.013 295.805 371.091 295.577 371.091ZM301.405 380.159C300.689 380.159 300.072 379.99 299.555 379.652C299.038 379.314 298.64 378.848 298.362 378.255C298.084 377.662 297.944 376.984 297.944 376.222C297.944 375.446 298.087 374.762 298.372 374.168C298.66 373.572 299.061 373.106 299.575 372.771C300.092 372.433 300.695 372.264 301.385 372.264C301.922 372.264 302.406 372.364 302.836 372.562C303.267 372.761 303.62 373.04 303.895 373.398C304.171 373.756 304.341 374.173 304.407 374.651H303.234C303.145 374.303 302.946 373.994 302.638 373.726C302.333 373.454 301.922 373.318 301.405 373.318C300.947 373.318 300.546 373.437 300.202 373.676C299.86 373.911 299.593 374.245 299.401 374.675C299.212 375.103 299.118 375.605 299.118 376.182C299.118 376.772 299.211 377.286 299.396 377.723C299.585 378.161 299.85 378.5 300.192 378.742C300.536 378.984 300.941 379.105 301.405 379.105C301.71 379.105 301.986 379.052 302.235 378.946C302.483 378.84 302.694 378.688 302.866 378.489C303.039 378.29 303.161 378.051 303.234 377.773H304.407C304.341 378.223 304.177 378.629 303.915 378.991C303.657 379.349 303.314 379.634 302.886 379.846C302.462 380.055 301.968 380.159 301.405 380.159ZM311.532 374.074L310.478 374.372C310.412 374.196 310.314 374.026 310.184 373.86C310.059 373.691 309.886 373.552 309.667 373.442C309.449 373.333 309.169 373.278 308.827 373.278C308.36 373.278 307.97 373.386 307.659 373.602C307.351 373.814 307.197 374.084 307.197 374.412C307.197 374.704 307.303 374.934 307.515 375.103C307.727 375.272 308.058 375.413 308.509 375.526L309.643 375.804C310.325 375.97 310.834 376.223 311.169 376.565C311.504 376.903 311.671 377.339 311.671 377.872C311.671 378.31 311.545 378.701 311.293 379.045C311.045 379.39 310.697 379.662 310.249 379.861C309.802 380.06 309.281 380.159 308.688 380.159C307.909 380.159 307.265 379.99 306.754 379.652C306.244 379.314 305.921 378.82 305.785 378.17L306.898 377.892C307.004 378.303 307.205 378.611 307.5 378.817C307.798 379.022 308.188 379.125 308.668 379.125C309.215 379.125 309.649 379.009 309.971 378.777C310.296 378.542 310.458 378.26 310.458 377.932C310.458 377.667 310.365 377.445 310.18 377.266C309.994 377.083 309.709 376.947 309.324 376.858L308.052 376.56C307.352 376.394 306.839 376.137 306.51 375.789C306.186 375.438 306.023 374.999 306.023 374.472C306.023 374.041 306.144 373.66 306.386 373.328C306.631 372.997 306.965 372.737 307.385 372.548C307.81 372.359 308.29 372.264 308.827 372.264C309.583 372.264 310.176 372.43 310.607 372.761C311.041 373.093 311.349 373.53 311.532 374.074ZM315.187 378.608L315.108 379.145C315.051 379.523 314.965 379.927 314.849 380.358C314.736 380.789 314.619 381.195 314.496 381.576C314.373 381.957 314.272 382.26 314.193 382.486H313.298C313.341 382.274 313.397 381.994 313.467 381.646C313.537 381.298 313.606 380.908 313.676 380.477C313.749 380.05 313.808 379.612 313.855 379.165L313.914 378.608H315.187ZM324.182 380.159C323.546 380.159 322.984 379.998 322.497 379.677C322.009 379.352 321.628 378.895 321.353 378.305C321.078 377.711 320.941 377.01 320.941 376.202C320.941 375.4 321.078 374.704 321.353 374.114C321.628 373.524 322.011 373.068 322.502 372.746C322.992 372.425 323.559 372.264 324.202 372.264C324.699 372.264 325.092 372.347 325.38 372.513C325.672 372.675 325.894 372.861 326.046 373.07C326.202 373.275 326.323 373.444 326.409 373.577H326.509V369.818H327.682V380H326.548V378.827H326.409C326.323 378.966 326.2 379.142 326.041 379.354C325.882 379.562 325.655 379.75 325.36 379.915C325.065 380.078 324.673 380.159 324.182 380.159ZM324.341 379.105C324.812 379.105 325.209 378.982 325.534 378.737C325.859 378.489 326.106 378.146 326.275 377.708C326.444 377.267 326.529 376.759 326.529 376.182C326.529 375.612 326.446 375.113 326.28 374.685C326.114 374.254 325.869 373.92 325.544 373.681C325.219 373.439 324.818 373.318 324.341 373.318C323.844 373.318 323.43 373.446 323.098 373.701C322.77 373.953 322.523 374.296 322.357 374.73C322.195 375.161 322.114 375.645 322.114 376.182C322.114 376.725 322.197 377.219 322.362 377.663C322.531 378.104 322.78 378.455 323.108 378.717C323.44 378.976 323.851 379.105 324.341 379.105ZM332.241 380.179C331.757 380.179 331.318 380.088 330.923 379.906C330.529 379.72 330.216 379.453 329.984 379.105C329.752 378.754 329.636 378.33 329.636 377.832C329.636 377.395 329.722 377.04 329.894 376.768C330.067 376.493 330.297 376.278 330.585 376.122C330.874 375.966 331.192 375.85 331.54 375.774C331.891 375.695 332.244 375.632 332.599 375.585C333.063 375.526 333.439 375.481 333.727 375.451C334.019 375.418 334.231 375.363 334.364 375.287C334.5 375.211 334.568 375.078 334.568 374.889V374.849C334.568 374.359 334.433 373.978 334.165 373.706C333.9 373.434 333.497 373.298 332.957 373.298C332.397 373.298 331.958 373.421 331.639 373.666C331.321 373.911 331.097 374.173 330.968 374.452L329.855 374.054C330.053 373.59 330.319 373.229 330.65 372.97C330.985 372.708 331.349 372.526 331.744 372.423C332.142 372.317 332.533 372.264 332.917 372.264C333.162 372.264 333.444 372.294 333.762 372.354C334.084 372.41 334.394 372.528 334.692 372.707C334.994 372.886 335.244 373.156 335.443 373.517C335.642 373.878 335.741 374.362 335.741 374.969V380H334.568V378.966H334.508C334.428 379.132 334.296 379.309 334.11 379.498C333.925 379.687 333.678 379.848 333.369 379.98C333.061 380.113 332.685 380.179 332.241 380.179ZM332.42 379.125C332.884 379.125 333.275 379.034 333.593 378.852C333.915 378.669 334.157 378.434 334.319 378.146C334.485 377.857 334.568 377.554 334.568 377.236V376.162C334.518 376.222 334.409 376.276 334.24 376.326C334.074 376.372 333.882 376.414 333.663 376.45C333.447 376.483 333.237 376.513 333.031 376.54C332.829 376.563 332.665 376.583 332.539 376.599C332.234 376.639 331.949 376.704 331.684 376.793C331.422 376.879 331.21 377.01 331.048 377.186C330.889 377.358 330.809 377.594 330.809 377.892C330.809 378.3 330.96 378.608 331.262 378.817C331.566 379.022 331.953 379.125 332.42 379.125ZM343.292 374.074L342.238 374.372C342.171 374.196 342.074 374.026 341.944 373.86C341.818 373.691 341.646 373.552 341.427 373.442C341.208 373.333 340.928 373.278 340.587 373.278C340.12 373.278 339.73 373.386 339.419 373.602C339.11 373.814 338.956 374.084 338.956 374.412C338.956 374.704 339.062 374.934 339.275 375.103C339.487 375.272 339.818 375.413 340.269 375.526L341.402 375.804C342.085 375.97 342.594 376.223 342.929 376.565C343.263 376.903 343.431 377.339 343.431 377.872C343.431 378.31 343.305 378.701 343.053 379.045C342.804 379.39 342.456 379.662 342.009 379.861C341.561 380.06 341.041 380.159 340.448 380.159C339.669 380.159 339.024 379.99 338.514 379.652C338.003 379.314 337.68 378.82 337.544 378.17L338.658 377.892C338.764 378.303 338.965 378.611 339.26 378.817C339.558 379.022 339.947 379.125 340.428 379.125C340.975 379.125 341.409 379.009 341.73 378.777C342.055 378.542 342.218 378.26 342.218 377.932C342.218 377.667 342.125 377.445 341.939 377.266C341.754 377.083 341.469 376.947 341.084 376.858L339.811 376.56C339.112 376.394 338.598 376.137 338.27 375.789C337.945 375.438 337.783 374.999 337.783 374.472C337.783 374.041 337.904 373.66 338.146 373.328C338.391 372.997 338.724 372.737 339.145 372.548C339.569 372.359 340.05 372.264 340.587 372.264C341.343 372.264 341.936 372.43 342.367 372.761C342.801 373.093 343.109 373.53 343.292 374.074ZM346.37 375.406V380H345.197V369.818H346.37V373.557H346.47C346.649 373.162 346.917 372.849 347.275 372.617C347.636 372.382 348.117 372.264 348.717 372.264C349.237 372.264 349.693 372.369 350.084 372.577C350.475 372.783 350.778 373.099 350.994 373.527C351.213 373.951 351.322 374.491 351.322 375.148V380H350.149V375.227C350.149 374.621 349.991 374.152 349.676 373.82C349.365 373.486 348.932 373.318 348.379 373.318C347.994 373.318 347.65 373.399 347.345 373.562C347.043 373.724 346.804 373.961 346.629 374.273C346.456 374.584 346.37 374.962 346.37 375.406ZM353.627 380V369.818H354.801V373.577H354.9C354.986 373.444 355.106 373.275 355.258 373.07C355.414 372.861 355.636 372.675 355.924 372.513C356.216 372.347 356.61 372.264 357.108 372.264C357.751 372.264 358.317 372.425 358.808 372.746C359.298 373.068 359.681 373.524 359.956 374.114C360.231 374.704 360.369 375.4 360.369 376.202C360.369 377.01 360.231 377.711 359.956 378.305C359.681 378.895 359.3 379.352 358.813 379.677C358.326 379.998 357.764 380.159 357.127 380.159C356.637 380.159 356.244 380.078 355.949 379.915C355.654 379.75 355.427 379.562 355.268 379.354C355.109 379.142 354.986 378.966 354.9 378.827H354.761V380H353.627ZM354.781 376.182C354.781 376.759 354.865 377.267 355.034 377.708C355.203 378.146 355.45 378.489 355.775 378.737C356.1 378.982 356.498 379.105 356.968 379.105C357.459 379.105 357.868 378.976 358.196 378.717C358.528 378.455 358.776 378.104 358.942 377.663C359.111 377.219 359.196 376.725 359.196 376.182C359.196 375.645 359.113 375.161 358.947 374.73C358.785 374.296 358.538 373.953 358.206 373.701C357.878 373.446 357.466 373.318 356.968 373.318C356.491 373.318 356.09 373.439 355.765 373.681C355.44 373.92 355.195 374.254 355.029 374.685C354.864 375.113 354.781 375.612 354.781 376.182ZM365.266 380.159C364.577 380.159 363.972 379.995 363.451 379.667C362.934 379.339 362.53 378.88 362.238 378.29C361.95 377.7 361.806 377.01 361.806 376.222C361.806 375.426 361.95 374.732 362.238 374.138C362.53 373.545 362.934 373.085 363.451 372.756C363.972 372.428 364.577 372.264 365.266 372.264C365.955 372.264 366.559 372.428 367.076 372.756C367.596 373.085 368 373.545 368.289 374.138C368.58 374.732 368.726 375.426 368.726 376.222C368.726 377.01 368.58 377.7 368.289 378.29C368 378.88 367.596 379.339 367.076 379.667C366.559 379.995 365.955 380.159 365.266 380.159ZM365.266 379.105C365.79 379.105 366.221 378.971 366.559 378.702C366.897 378.434 367.147 378.081 367.309 377.643C367.472 377.206 367.553 376.732 367.553 376.222C367.553 375.711 367.472 375.236 367.309 374.795C367.147 374.354 366.897 373.998 366.559 373.726C366.221 373.454 365.79 373.318 365.266 373.318C364.742 373.318 364.311 373.454 363.973 373.726C363.635 373.998 363.385 374.354 363.223 374.795C363.06 375.236 362.979 375.711 362.979 376.222C362.979 376.732 363.06 377.206 363.223 377.643C363.385 378.081 363.635 378.434 363.973 378.702C364.311 378.971 364.742 379.105 365.266 379.105ZM372.764 380.179C372.28 380.179 371.841 380.088 371.447 379.906C371.052 379.72 370.739 379.453 370.507 379.105C370.275 378.754 370.159 378.33 370.159 377.832C370.159 377.395 370.245 377.04 370.418 376.768C370.59 376.493 370.82 376.278 371.109 376.122C371.397 375.966 371.715 375.85 372.063 375.774C372.415 375.695 372.768 375.632 373.122 375.585C373.586 375.526 373.963 375.481 374.251 375.451C374.543 375.418 374.755 375.363 374.887 375.287C375.023 375.211 375.091 375.078 375.091 374.889V374.849C375.091 374.359 374.957 373.978 374.688 373.706C374.423 373.434 374.021 373.298 373.48 373.298C372.92 373.298 372.481 373.421 372.163 373.666C371.845 373.911 371.621 374.173 371.492 374.452L370.378 374.054C370.577 373.59 370.842 373.229 371.173 372.97C371.508 372.708 371.873 372.526 372.267 372.423C372.665 372.317 373.056 372.264 373.441 372.264C373.686 372.264 373.968 372.294 374.286 372.354C374.607 372.41 374.917 372.528 375.215 372.707C375.517 372.886 375.767 373.156 375.966 373.517C376.165 373.878 376.264 374.362 376.264 374.969V380H375.091V378.966H375.031C374.952 379.132 374.819 379.309 374.634 379.498C374.448 379.687 374.201 379.848 373.893 379.98C373.585 380.113 373.209 380.179 372.764 380.179ZM372.943 379.125C373.407 379.125 373.798 379.034 374.117 378.852C374.438 378.669 374.68 378.434 374.843 378.146C375.008 377.857 375.091 377.554 375.091 377.236V376.162C375.041 376.222 374.932 376.276 374.763 376.326C374.597 376.372 374.405 376.414 374.186 376.45C373.971 376.483 373.76 376.513 373.555 376.54C373.353 376.563 373.189 376.583 373.063 376.599C372.758 376.639 372.473 376.704 372.208 376.793C371.946 376.879 371.734 377.01 371.571 377.186C371.412 377.358 371.333 377.594 371.333 377.892C371.333 378.3 371.483 378.608 371.785 378.817C372.09 379.022 372.476 379.125 372.943 379.125ZM378.406 380V372.364H379.539V373.517H379.619C379.758 373.139 380.01 372.833 380.375 372.597C380.739 372.362 381.15 372.244 381.608 372.244C381.694 372.244 381.801 372.246 381.931 372.249C382.06 372.253 382.158 372.258 382.224 372.264V373.457C382.184 373.447 382.093 373.433 381.951 373.413C381.811 373.389 381.664 373.378 381.508 373.378C381.137 373.378 380.806 373.456 380.514 373.612C380.225 373.764 379.997 373.976 379.828 374.248C379.662 374.516 379.579 374.823 379.579 375.168V380H378.406ZM386.266 380.159C385.63 380.159 385.068 379.998 384.581 379.677C384.093 379.352 383.712 378.895 383.437 378.305C383.162 377.711 383.025 377.01 383.025 376.202C383.025 375.4 383.162 374.704 383.437 374.114C383.712 373.524 384.095 373.068 384.586 372.746C385.076 372.425 385.643 372.264 386.286 372.264C386.783 372.264 387.176 372.347 387.464 372.513C387.756 372.675 387.978 372.861 388.13 373.07C388.286 373.275 388.407 373.444 388.493 373.577H388.593V369.818H389.766V380H388.632V378.827H388.493C388.407 378.966 388.284 379.142 388.125 379.354C387.966 379.562 387.739 379.75 387.444 379.915C387.149 380.078 386.757 380.159 386.266 380.159ZM386.425 379.105C386.896 379.105 387.293 378.982 387.618 378.737C387.943 378.489 388.19 378.146 388.359 377.708C388.528 377.267 388.613 376.759 388.613 376.182C388.613 375.612 388.53 375.113 388.364 374.685C388.198 374.254 387.953 373.92 387.628 373.681C387.303 373.439 386.902 373.318 386.425 373.318C385.928 373.318 385.514 373.446 385.182 373.701C384.854 373.953 384.607 374.296 384.441 374.73C384.279 375.161 384.198 375.645 384.198 376.182C384.198 376.725 384.281 377.219 384.446 377.663C384.615 378.104 384.864 378.455 385.192 378.717C385.524 378.976 385.935 379.105 386.425 379.105ZM397.487 374.074L396.433 374.372C396.367 374.196 396.269 374.026 396.14 373.86C396.014 373.691 395.841 373.552 395.623 373.442C395.404 373.333 395.124 373.278 394.782 373.278C394.315 373.278 393.926 373.386 393.614 373.602C393.306 373.814 393.152 374.084 393.152 374.412C393.152 374.704 393.258 374.934 393.47 375.103C393.682 375.272 394.013 375.413 394.464 375.526L395.598 375.804C396.28 375.97 396.789 376.223 397.124 376.565C397.459 376.903 397.626 377.339 397.626 377.872C397.626 378.31 397.5 378.701 397.248 379.045C397 379.39 396.652 379.662 396.204 379.861C395.757 380.06 395.236 380.159 394.643 380.159C393.864 380.159 393.22 379.99 392.709 379.652C392.199 379.314 391.876 378.82 391.74 378.17L392.853 377.892C392.959 378.303 393.16 378.611 393.455 378.817C393.753 379.022 394.143 379.125 394.623 379.125C395.17 379.125 395.604 379.009 395.926 378.777C396.251 378.542 396.413 378.26 396.413 377.932C396.413 377.667 396.32 377.445 396.135 377.266C395.949 377.083 395.664 376.947 395.279 376.858L394.007 376.56C393.307 376.394 392.794 376.137 392.466 375.789C392.141 375.438 391.978 374.999 391.978 374.472C391.978 374.041 392.099 373.66 392.341 373.328C392.587 372.997 392.92 372.737 393.341 372.548C393.765 372.359 394.245 372.264 394.782 372.264C395.538 372.264 396.131 372.43 396.562 372.761C396.996 373.093 397.305 373.53 397.487 374.074ZM401.142 378.608L401.063 379.145C401.006 379.523 400.92 379.927 400.804 380.358C400.691 380.789 400.574 381.195 400.451 381.576C400.329 381.957 400.227 382.26 400.148 382.486H399.253C399.296 382.274 399.352 381.994 399.422 381.646C399.492 381.298 399.561 380.908 399.631 380.477C399.704 380.05 399.763 379.612 399.81 379.165L399.869 378.608H401.142ZM410.137 380.159C409.501 380.159 408.939 379.998 408.452 379.677C407.964 379.352 407.583 378.895 407.308 378.305C407.033 377.711 406.896 377.01 406.896 376.202C406.896 375.4 407.033 374.704 407.308 374.114C407.583 373.524 407.966 373.068 408.457 372.746C408.947 372.425 409.514 372.264 410.157 372.264C410.654 372.264 411.047 372.347 411.335 372.513C411.627 372.675 411.849 372.861 412.001 373.07C412.157 373.275 412.278 373.444 412.364 373.577H412.464V369.818H413.637V380H412.504V378.827H412.364C412.278 378.966 412.156 379.142 411.996 379.354C411.837 379.562 411.61 379.75 411.315 379.915C411.02 380.078 410.628 380.159 410.137 380.159ZM410.296 379.105C410.767 379.105 411.165 378.982 411.489 378.737C411.814 378.489 412.061 378.146 412.23 377.708C412.399 377.267 412.484 376.759 412.484 376.182C412.484 375.612 412.401 375.113 412.235 374.685C412.069 374.254 411.824 373.92 411.499 373.681C411.174 373.439 410.773 373.318 410.296 373.318C409.799 373.318 409.385 373.446 409.053 373.701C408.725 373.953 408.478 374.296 408.312 374.73C408.15 375.161 408.069 375.645 408.069 376.182C408.069 376.725 408.152 377.219 408.317 377.663C408.487 378.104 408.735 378.455 409.063 378.717C409.395 378.976 409.806 379.105 410.296 379.105ZM418.196 380.179C417.712 380.179 417.273 380.088 416.879 379.906C416.484 379.72 416.171 379.453 415.939 379.105C415.707 378.754 415.591 378.33 415.591 377.832C415.591 377.395 415.677 377.04 415.849 376.768C416.022 376.493 416.252 376.278 416.54 376.122C416.829 375.966 417.147 375.85 417.495 375.774C417.846 375.695 418.199 375.632 418.554 375.585C419.018 375.526 419.394 375.481 419.683 375.451C419.974 375.418 420.186 375.363 420.319 375.287C420.455 375.211 420.523 375.078 420.523 374.889V374.849C420.523 374.359 420.388 373.978 420.12 373.706C419.855 373.434 419.452 373.298 418.912 373.298C418.352 373.298 417.913 373.421 417.594 373.666C417.276 373.911 417.053 374.173 416.923 374.452L415.81 374.054C416.009 373.59 416.274 373.229 416.605 372.97C416.94 372.708 417.304 372.526 417.699 372.423C418.097 372.317 418.488 372.264 418.872 372.264C419.117 372.264 419.399 372.294 419.717 372.354C420.039 372.41 420.349 372.528 420.647 372.707C420.949 372.886 421.199 373.156 421.398 373.517C421.597 373.878 421.696 374.362 421.696 374.969V380H420.523V378.966H420.463C420.384 379.132 420.251 379.309 420.065 379.498C419.88 379.687 419.633 379.848 419.325 379.98C419.016 380.113 418.64 380.179 418.196 380.179ZM418.375 379.125C418.839 379.125 419.23 379.034 419.548 378.852C419.87 378.669 420.112 378.434 420.274 378.146C420.44 377.857 420.523 377.554 420.523 377.236V376.162C420.473 376.222 420.364 376.276 420.195 376.326C420.029 376.372 419.837 376.414 419.618 376.45C419.402 376.483 419.192 376.513 418.987 376.54C418.784 376.563 418.62 376.583 418.494 376.599C418.189 376.639 417.904 376.704 417.639 376.793C417.377 376.879 417.165 377.01 417.003 377.186C416.844 377.358 416.764 377.594 416.764 377.892C416.764 378.3 416.915 378.608 417.217 378.817C417.522 379.022 417.908 379.125 418.375 379.125ZM427.159 372.364V373.358H423.201V372.364H427.159ZM424.355 370.534H425.528V377.812C425.528 378.144 425.576 378.393 425.672 378.558C425.771 378.721 425.897 378.83 426.05 378.886C426.206 378.939 426.37 378.966 426.542 378.966C426.671 378.966 426.777 378.959 426.86 378.946C426.943 378.929 427.009 378.916 427.059 378.906L427.298 379.96C427.218 379.99 427.107 380.02 426.965 380.05C426.822 380.083 426.642 380.099 426.423 380.099C426.091 380.099 425.767 380.028 425.448 379.886C425.133 379.743 424.872 379.526 424.663 379.234C424.457 378.943 424.355 378.575 424.355 378.131V370.534ZM431.171 380.179C430.687 380.179 430.248 380.088 429.853 379.906C429.459 379.72 429.146 379.453 428.914 379.105C428.682 378.754 428.566 378.33 428.566 377.832C428.566 377.395 428.652 377.04 428.824 376.768C428.996 376.493 429.227 376.278 429.515 376.122C429.803 375.966 430.122 375.85 430.47 375.774C430.821 375.695 431.174 375.632 431.529 375.585C431.993 375.526 432.369 375.481 432.657 375.451C432.949 375.418 433.161 375.363 433.294 375.287C433.429 375.211 433.497 375.078 433.497 374.889V374.849C433.497 374.359 433.363 373.978 433.095 373.706C432.829 373.434 432.427 373.298 431.887 373.298C431.326 373.298 430.887 373.421 430.569 373.666C430.251 373.911 430.027 374.173 429.898 374.452L428.784 374.054C428.983 373.59 429.248 373.229 429.58 372.97C429.914 372.708 430.279 372.526 430.673 372.423C431.071 372.317 431.462 372.264 431.847 372.264C432.092 372.264 432.374 372.294 432.692 372.354C433.013 372.41 433.323 372.528 433.622 372.707C433.923 372.886 434.173 373.156 434.372 373.517C434.571 373.878 434.671 374.362 434.671 374.969V380H433.497V378.966H433.438C433.358 379.132 433.226 379.309 433.04 379.498C432.854 379.687 432.607 379.848 432.299 379.98C431.991 380.113 431.615 380.179 431.171 380.179ZM431.35 379.125C431.814 379.125 432.205 379.034 432.523 378.852C432.844 378.669 433.086 378.434 433.249 378.146C433.414 377.857 433.497 377.554 433.497 377.236V376.162C433.448 376.222 433.338 376.276 433.169 376.326C433.003 376.372 432.811 376.414 432.593 376.45C432.377 376.483 432.167 376.513 431.961 376.54C431.759 376.563 431.595 376.583 431.469 376.599C431.164 376.639 430.879 376.704 430.614 376.793C430.352 376.879 430.14 377.01 429.977 377.186C429.818 377.358 429.739 377.594 429.739 377.892C429.739 378.3 429.89 378.608 430.191 378.817C430.496 379.022 430.882 379.125 431.35 379.125ZM444.15 372.364V373.358H440.034V372.364H444.15ZM441.267 380V371.31C441.267 370.872 441.369 370.508 441.575 370.216C441.78 369.924 442.047 369.705 442.375 369.56C442.703 369.414 443.05 369.341 443.414 369.341C443.703 369.341 443.938 369.364 444.12 369.411C444.303 369.457 444.439 369.5 444.528 369.54L444.19 370.554C444.13 370.534 444.047 370.509 443.941 370.479C443.839 370.45 443.703 370.435 443.534 370.435C443.146 370.435 442.866 370.532 442.694 370.728C442.525 370.924 442.44 371.21 442.44 371.588V380H441.267ZM448.682 380.159C447.946 380.159 447.311 379.997 446.778 379.672C446.247 379.344 445.838 378.886 445.55 378.3C445.265 377.71 445.122 377.024 445.122 376.241C445.122 375.459 445.265 374.77 445.55 374.173C445.838 373.573 446.239 373.106 446.753 372.771C447.27 372.433 447.873 372.264 448.562 372.264C448.96 372.264 449.353 372.33 449.741 372.463C450.129 372.596 450.482 372.811 450.8 373.109C451.118 373.404 451.371 373.795 451.56 374.283C451.749 374.77 451.844 375.37 451.844 376.082V376.58H445.957V375.565H450.651C450.651 375.134 450.564 374.75 450.392 374.412C450.223 374.074 449.981 373.807 449.666 373.612C449.355 373.416 448.987 373.318 448.562 373.318C448.095 373.318 447.691 373.434 447.349 373.666C447.011 373.895 446.751 374.193 446.569 374.561C446.387 374.929 446.295 375.323 446.295 375.744V376.42C446.295 376.997 446.395 377.486 446.594 377.887C446.796 378.285 447.076 378.588 447.434 378.797C447.792 379.002 448.208 379.105 448.682 379.105C448.99 379.105 449.268 379.062 449.517 378.976C449.769 378.886 449.986 378.754 450.168 378.578C450.351 378.399 450.491 378.177 450.591 377.912L451.724 378.23C451.605 378.615 451.405 378.953 451.123 379.244C450.841 379.533 450.493 379.758 450.079 379.92C449.665 380.08 449.199 380.159 448.682 380.159ZM456.83 380.159C456.094 380.159 455.46 379.997 454.926 379.672C454.396 379.344 453.987 378.886 453.698 378.3C453.413 377.71 453.271 377.024 453.271 376.241C453.271 375.459 453.413 374.77 453.698 374.173C453.987 373.573 454.388 373.106 454.901 372.771C455.418 372.433 456.022 372.264 456.711 372.264C457.109 372.264 457.501 372.33 457.889 372.463C458.277 372.596 458.63 372.811 458.948 373.109C459.266 373.404 459.52 373.795 459.709 374.283C459.898 374.77 459.992 375.37 459.992 376.082V376.58H454.106V375.565H458.799C458.799 375.134 458.713 374.75 458.54 374.412C458.371 374.074 458.129 373.807 457.815 373.612C457.503 373.416 457.135 373.318 456.711 373.318C456.244 373.318 455.839 373.434 455.498 373.666C455.16 373.895 454.9 374.193 454.717 374.561C454.535 374.929 454.444 375.323 454.444 375.744V376.42C454.444 376.997 454.543 377.486 454.742 377.887C454.944 378.285 455.224 378.588 455.582 378.797C455.94 379.002 456.356 379.105 456.83 379.105C457.138 379.105 457.417 379.062 457.665 378.976C457.917 378.886 458.134 378.754 458.317 378.578C458.499 378.399 458.64 378.177 458.739 377.912L459.873 378.23C459.754 378.615 459.553 378.953 459.271 379.244C458.99 379.533 458.642 379.758 458.227 379.92C457.813 380.08 457.347 380.159 456.83 380.159ZM464.661 380.159C464.024 380.159 463.462 379.998 462.975 379.677C462.488 379.352 462.107 378.895 461.832 378.305C461.557 377.711 461.419 377.01 461.419 376.202C461.419 375.4 461.557 374.704 461.832 374.114C462.107 373.524 462.49 373.068 462.98 372.746C463.471 372.425 464.037 372.264 464.68 372.264C465.178 372.264 465.57 372.347 465.859 372.513C466.15 372.675 466.372 372.861 466.525 373.07C466.681 373.275 466.802 373.444 466.888 373.577H466.987V369.818H468.161V380H467.027V378.827H466.888C466.802 378.966 466.679 379.142 466.52 379.354C466.361 379.562 466.134 379.75 465.839 379.915C465.544 380.078 465.151 380.159 464.661 380.159ZM464.82 379.105C465.29 379.105 465.688 378.982 466.013 378.737C466.338 378.489 466.585 378.146 466.754 377.708C466.923 377.267 467.007 376.759 467.007 376.182C467.007 375.612 466.924 375.113 466.759 374.685C466.593 374.254 466.348 373.92 466.023 373.681C465.698 373.439 465.297 373.318 464.82 373.318C464.322 373.318 463.908 373.446 463.577 373.701C463.249 373.953 463.002 374.296 462.836 374.73C462.674 375.161 462.592 375.645 462.592 376.182C462.592 376.725 462.675 377.219 462.841 377.663C463.01 378.104 463.259 378.455 463.587 378.717C463.918 378.976 464.329 379.105 464.82 379.105ZM475.881 374.074L474.827 374.372C474.761 374.196 474.663 374.026 474.534 373.86C474.408 373.691 474.236 373.552 474.017 373.442C473.798 373.333 473.518 373.278 473.177 373.278C472.71 373.278 472.32 373.386 472.009 373.602C471.7 373.814 471.546 374.084 471.546 374.412C471.546 374.704 471.652 374.934 471.864 375.103C472.076 375.272 472.408 375.413 472.859 375.526L473.992 375.804C474.675 375.97 475.184 376.223 475.518 376.565C475.853 376.903 476.021 377.339 476.021 377.872C476.021 378.31 475.895 378.701 475.643 379.045C475.394 379.39 475.046 379.662 474.599 379.861C474.151 380.06 473.631 380.159 473.038 380.159C472.259 380.159 471.614 379.99 471.104 379.652C470.593 379.314 470.27 378.82 470.134 378.17L471.248 377.892C471.354 378.303 471.554 378.611 471.849 378.817C472.148 379.022 472.537 379.125 473.018 379.125C473.565 379.125 473.999 379.009 474.32 378.777C474.645 378.542 474.808 378.26 474.808 377.932C474.808 377.667 474.715 377.445 474.529 377.266C474.344 377.083 474.058 376.947 473.674 376.858L472.401 376.56C471.702 376.394 471.188 376.137 470.86 375.789C470.535 375.438 470.373 374.999 470.373 374.472C470.373 374.041 470.494 373.66 470.736 373.328C470.981 372.997 471.314 372.737 471.735 372.548C472.159 372.359 472.64 372.264 473.177 372.264C473.933 372.264 474.526 372.43 474.957 372.761C475.391 373.093 475.699 373.53 475.881 374.074ZM479.537 378.608L479.457 379.145C479.401 379.523 479.315 379.927 479.199 380.358C479.086 380.789 478.968 381.195 478.846 381.576C478.723 381.957 478.622 382.26 478.542 382.486H477.648C477.691 382.274 477.747 381.994 477.817 381.646C477.886 381.298 477.956 380.908 478.025 380.477C478.098 380.05 478.158 379.612 478.204 379.165L478.264 378.608H479.537ZM485.648 382.864V372.364H486.782V373.577H486.921C487.007 373.444 487.126 373.275 487.279 373.07C487.435 372.861 487.657 372.675 487.945 372.513C488.237 372.347 488.631 372.264 489.128 372.264C489.771 372.264 490.338 372.425 490.828 372.746C491.319 373.068 491.702 373.524 491.977 374.114C492.252 374.704 492.39 375.4 492.39 376.202C492.39 377.01 492.252 377.711 491.977 378.305C491.702 378.895 491.321 379.352 490.833 379.677C490.346 379.998 489.784 380.159 489.148 380.159C488.658 380.159 488.265 380.078 487.97 379.915C487.675 379.75 487.448 379.562 487.289 379.354C487.13 379.142 487.007 378.966 486.921 378.827H486.821V382.864H485.648ZM486.801 376.182C486.801 376.759 486.886 377.267 487.055 377.708C487.224 378.146 487.471 378.489 487.796 378.737C488.121 378.982 488.518 379.105 488.989 379.105C489.48 379.105 489.889 378.976 490.217 378.717C490.548 378.455 490.797 378.104 490.963 377.663C491.132 377.219 491.216 376.725 491.216 376.182C491.216 375.645 491.133 375.161 490.968 374.73C490.805 374.296 490.558 373.953 490.227 373.701C489.899 373.446 489.486 373.318 488.989 373.318C488.512 373.318 488.111 373.439 487.786 373.681C487.461 373.92 487.216 374.254 487.05 374.685C486.884 375.113 486.801 375.612 486.801 376.182ZM496.426 380.179C495.943 380.179 495.503 380.088 495.109 379.906C494.715 379.72 494.401 379.453 494.169 379.105C493.937 378.754 493.821 378.33 493.821 377.832C493.821 377.395 493.908 377.04 494.08 376.768C494.252 376.493 494.483 376.278 494.771 376.122C495.059 375.966 495.377 375.85 495.725 375.774C496.077 375.695 496.43 375.632 496.784 375.585C497.248 375.526 497.625 375.481 497.913 375.451C498.205 375.418 498.417 375.363 498.549 375.287C498.685 375.211 498.753 375.078 498.753 374.889V374.849C498.753 374.359 498.619 373.978 498.35 373.706C498.085 373.434 497.683 373.298 497.142 373.298C496.582 373.298 496.143 373.421 495.825 373.666C495.507 373.911 495.283 374.173 495.154 374.452L494.04 374.054C494.239 373.59 494.504 373.229 494.836 372.97C495.17 372.708 495.535 372.526 495.929 372.423C496.327 372.317 496.718 372.264 497.103 372.264C497.348 372.264 497.63 372.294 497.948 372.354C498.269 372.41 498.579 372.528 498.877 372.707C499.179 372.886 499.429 373.156 499.628 373.517C499.827 373.878 499.926 374.362 499.926 374.969V380H498.753V378.966H498.694C498.614 379.132 498.481 379.309 498.296 379.498C498.11 379.687 497.863 379.848 497.555 379.98C497.247 380.113 496.871 380.179 496.426 380.179ZM496.605 379.125C497.069 379.125 497.461 379.034 497.779 378.852C498.1 378.669 498.342 378.434 498.505 378.146C498.67 377.857 498.753 377.554 498.753 377.236V376.162C498.703 376.222 498.594 376.276 498.425 376.326C498.259 376.372 498.067 376.414 497.848 376.45C497.633 376.483 497.422 376.513 497.217 376.54C497.015 376.563 496.851 376.583 496.725 376.599C496.42 376.639 496.135 376.704 495.87 376.793C495.608 376.879 495.396 377.01 495.233 377.186C495.074 377.358 494.995 377.594 494.995 377.892C494.995 378.3 495.145 378.608 495.447 378.817C495.752 379.022 496.138 379.125 496.605 379.125ZM505.15 383.023C504.584 383.023 504.096 382.95 503.689 382.804C503.281 382.661 502.941 382.473 502.67 382.237C502.401 382.005 502.187 381.757 502.028 381.491L502.963 380.835C503.069 380.974 503.203 381.134 503.366 381.312C503.528 381.495 503.75 381.652 504.032 381.785C504.317 381.921 504.69 381.989 505.15 381.989C505.767 381.989 506.276 381.839 506.677 381.541C507.078 381.243 507.278 380.776 507.278 380.139V378.588H507.179C507.093 378.727 506.97 378.9 506.811 379.105C506.655 379.307 506.43 379.488 506.135 379.647C505.843 379.803 505.449 379.881 504.952 379.881C504.335 379.881 503.782 379.735 503.291 379.443C502.804 379.152 502.418 378.727 502.133 378.17C501.851 377.614 501.71 376.937 501.71 376.142C501.71 375.36 501.848 374.679 502.123 374.099C502.398 373.515 502.781 373.065 503.271 372.746C503.762 372.425 504.328 372.264 504.971 372.264C505.469 372.264 505.863 372.347 506.155 372.513C506.45 372.675 506.675 372.861 506.831 373.07C506.99 373.275 507.113 373.444 507.199 373.577H507.318V372.364H508.452V380.219C508.452 380.875 508.302 381.409 508.004 381.82C507.709 382.234 507.311 382.537 506.811 382.729C506.314 382.925 505.76 383.023 505.15 383.023ZM505.111 378.827C505.581 378.827 505.979 378.719 506.304 378.504C506.629 378.288 506.876 377.978 507.045 377.574C507.214 377.17 507.298 376.686 507.298 376.122C507.298 375.572 507.215 375.086 507.05 374.665C506.884 374.245 506.639 373.915 506.314 373.676C505.989 373.437 505.588 373.318 505.111 373.318C504.613 373.318 504.199 373.444 503.868 373.696C503.54 373.948 503.293 374.286 503.127 374.71C502.965 375.134 502.883 375.605 502.883 376.122C502.883 376.652 502.966 377.121 503.132 377.529C503.301 377.933 503.55 378.252 503.878 378.484C504.209 378.712 504.62 378.827 505.111 378.827ZM513.801 380.159C513.065 380.159 512.43 379.997 511.897 379.672C511.367 379.344 510.957 378.886 510.669 378.3C510.384 377.71 510.241 377.024 510.241 376.241C510.241 375.459 510.384 374.77 510.669 374.173C510.957 373.573 511.358 373.106 511.872 372.771C512.389 372.433 512.992 372.264 513.682 372.264C514.079 372.264 514.472 372.33 514.86 372.463C515.248 372.596 515.601 372.811 515.919 373.109C516.237 373.404 516.491 373.795 516.68 374.283C516.868 374.77 516.963 375.37 516.963 376.082V376.58H511.077V375.565H515.77C515.77 375.134 515.684 374.75 515.511 374.412C515.342 374.074 515.1 373.807 514.785 373.612C514.474 373.416 514.106 373.318 513.682 373.318C513.214 373.318 512.81 373.434 512.469 373.666C512.131 373.895 511.87 374.193 511.688 374.561C511.506 374.929 511.415 375.323 511.415 375.744V376.42C511.415 376.997 511.514 377.486 511.713 377.887C511.915 378.285 512.195 378.588 512.553 378.797C512.911 379.002 513.327 379.105 513.801 379.105C514.109 379.105 514.388 379.062 514.636 378.976C514.888 378.886 515.105 378.754 515.287 378.578C515.47 378.399 515.611 378.177 515.71 377.912L516.844 378.23C516.724 378.615 516.524 378.953 516.242 379.244C515.96 379.533 515.612 379.758 515.198 379.92C514.784 380.08 514.318 380.159 513.801 380.159ZM524.157 374.074L523.103 374.372C523.037 374.196 522.939 374.026 522.809 373.86C522.684 373.691 522.511 373.552 522.292 373.442C522.074 373.333 521.794 373.278 521.452 373.278C520.985 373.278 520.595 373.386 520.284 373.602C519.976 373.814 519.822 374.084 519.822 374.412C519.822 374.704 519.928 374.934 520.14 375.103C520.352 375.272 520.683 375.413 521.134 375.526L522.268 375.804C522.95 375.97 523.459 376.223 523.794 376.565C524.129 376.903 524.296 377.339 524.296 377.872C524.296 378.31 524.17 378.701 523.918 379.045C523.67 379.39 523.322 379.662 522.874 379.861C522.427 380.06 521.906 380.159 521.313 380.159C520.534 380.159 519.89 379.99 519.379 379.652C518.869 379.314 518.546 378.82 518.41 378.17L519.523 377.892C519.629 378.303 519.83 378.611 520.125 378.817C520.423 379.022 520.813 379.125 521.293 379.125C521.84 379.125 522.274 379.009 522.596 378.777C522.921 378.542 523.083 378.26 523.083 377.932C523.083 377.667 522.99 377.445 522.805 377.266C522.619 377.083 522.334 376.947 521.949 376.858L520.677 376.56C519.977 376.394 519.464 376.137 519.135 375.789C518.811 375.438 518.648 374.999 518.648 374.472C518.648 374.041 518.769 373.66 519.011 373.328C519.256 372.997 519.59 372.737 520.01 372.548C520.435 372.359 520.915 372.264 521.452 372.264C522.208 372.264 522.801 372.43 523.232 372.761C523.666 373.093 523.974 373.53 524.157 374.074ZM527.812 378.608L527.733 379.145C527.676 379.523 527.59 379.927 527.474 380.358C527.361 380.789 527.244 381.195 527.121 381.576C526.998 381.957 526.897 382.26 526.818 382.486H525.923C525.966 382.274 526.022 381.994 526.092 381.646C526.162 381.298 526.231 380.908 526.301 380.477C526.374 380.05 526.433 379.612 526.48 379.165L526.539 378.608H527.812ZM536.171 380.179C535.687 380.179 535.248 380.088 534.853 379.906C534.459 379.72 534.146 379.453 533.914 379.105C533.682 378.754 533.566 378.33 533.566 377.832C533.566 377.395 533.652 377.04 533.824 376.768C533.996 376.493 534.227 376.278 534.515 376.122C534.803 375.966 535.122 375.85 535.47 375.774C535.821 375.695 536.174 375.632 536.529 375.585C536.993 375.526 537.369 375.481 537.657 375.451C537.949 375.418 538.161 375.363 538.294 375.287C538.429 375.211 538.497 375.078 538.497 374.889V374.849C538.497 374.359 538.363 373.978 538.095 373.706C537.829 373.434 537.427 373.298 536.887 373.298C536.326 373.298 535.887 373.421 535.569 373.666C535.251 373.911 535.027 374.173 534.898 374.452L533.784 374.054C533.983 373.59 534.248 373.229 534.58 372.97C534.914 372.708 535.279 372.526 535.673 372.423C536.071 372.317 536.462 372.264 536.847 372.264C537.092 372.264 537.374 372.294 537.692 372.354C538.013 372.41 538.323 372.528 538.622 372.707C538.923 372.886 539.173 373.156 539.372 373.517C539.571 373.878 539.671 374.362 539.671 374.969V380H538.497V378.966H538.438C538.358 379.132 538.226 379.309 538.04 379.498C537.854 379.687 537.607 379.848 537.299 379.98C536.991 380.113 536.615 380.179 536.171 380.179ZM536.35 379.125C536.814 379.125 537.205 379.034 537.523 378.852C537.844 378.669 538.086 378.434 538.249 378.146C538.414 377.857 538.497 377.554 538.497 377.236V376.162C538.448 376.222 538.338 376.276 538.169 376.326C538.003 376.372 537.811 376.414 537.593 376.45C537.377 376.483 537.167 376.513 536.961 376.54C536.759 376.563 536.595 376.583 536.469 376.599C536.164 376.639 535.879 376.704 535.614 376.793C535.352 376.879 535.14 377.01 534.977 377.186C534.818 377.358 534.739 377.594 534.739 377.892C534.739 378.3 534.89 378.608 535.191 378.817C535.496 379.022 535.882 379.125 536.35 379.125ZM542.985 375.406V380H541.812V372.364H542.946V373.557H543.045C543.224 373.169 543.496 372.857 543.86 372.622C544.225 372.384 544.696 372.264 545.272 372.264C545.789 372.264 546.242 372.37 546.63 372.582C547.017 372.791 547.319 373.109 547.534 373.537C547.75 373.961 547.858 374.498 547.858 375.148V380H546.684V375.227C546.684 374.627 546.529 374.16 546.217 373.825C545.905 373.487 545.478 373.318 544.934 373.318C544.56 373.318 544.225 373.399 543.93 373.562C543.638 373.724 543.408 373.961 543.239 374.273C543.07 374.584 542.985 374.962 542.985 375.406ZM552.885 380.159C552.249 380.159 551.687 379.998 551.2 379.677C550.713 379.352 550.331 378.895 550.056 378.305C549.781 377.711 549.644 377.01 549.644 376.202C549.644 375.4 549.781 374.704 550.056 374.114C550.331 373.524 550.714 373.068 551.205 372.746C551.695 372.425 552.262 372.264 552.905 372.264C553.402 372.264 553.795 372.347 554.083 372.513C554.375 372.675 554.597 372.861 554.749 373.07C554.905 373.275 555.026 373.444 555.112 373.577H555.212V369.818H556.385V380H555.252V378.827H555.112C555.026 378.966 554.904 379.142 554.744 379.354C554.585 379.562 554.358 379.75 554.063 379.915C553.768 380.078 553.376 380.159 552.885 380.159ZM553.044 379.105C553.515 379.105 553.913 378.982 554.237 378.737C554.562 378.489 554.809 378.146 554.978 377.708C555.147 377.267 555.232 376.759 555.232 376.182C555.232 375.612 555.149 375.113 554.983 374.685C554.817 374.254 554.572 373.92 554.247 373.681C553.923 373.439 553.521 373.318 553.044 373.318C552.547 373.318 552.133 373.446 551.801 373.701C551.473 373.953 551.226 374.296 551.061 374.73C550.898 375.161 550.817 375.645 550.817 376.182C550.817 376.725 550.9 377.219 551.066 377.663C551.235 378.104 551.483 378.455 551.811 378.717C552.143 378.976 552.554 379.105 553.044 379.105ZM568.044 374.074L566.99 374.372C566.923 374.196 566.825 374.026 566.696 373.86C566.57 373.691 566.398 373.552 566.179 373.442C565.96 373.333 565.68 373.278 565.339 373.278C564.872 373.278 564.482 373.386 564.171 373.602C563.862 373.814 563.708 374.084 563.708 374.412C563.708 374.704 563.814 374.934 564.026 375.103C564.239 375.272 564.57 375.413 565.021 375.526L566.154 375.804C566.837 375.97 567.346 376.223 567.681 376.565C568.015 376.903 568.183 377.339 568.183 377.872C568.183 378.31 568.057 378.701 567.805 379.045C567.556 379.39 567.208 379.662 566.761 379.861C566.313 380.06 565.793 380.159 565.2 380.159C564.421 380.159 563.776 379.99 563.266 379.652C562.755 379.314 562.432 378.82 562.296 378.17L563.41 377.892C563.516 378.303 563.717 378.611 564.012 378.817C564.31 379.022 564.699 379.125 565.18 379.125C565.727 379.125 566.161 379.009 566.482 378.777C566.807 378.542 566.97 378.26 566.97 377.932C566.97 377.667 566.877 377.445 566.691 377.266C566.506 377.083 566.221 376.947 565.836 376.858L564.563 376.56C563.864 376.394 563.35 376.137 563.022 375.789C562.697 375.438 562.535 374.999 562.535 374.472C562.535 374.041 562.656 373.66 562.898 373.328C563.143 372.997 563.476 372.737 563.897 372.548C564.321 372.359 564.802 372.264 565.339 372.264C566.095 372.264 566.688 372.43 567.119 372.761C567.553 373.093 567.861 373.53 568.044 374.074ZM573.151 380.159C572.415 380.159 571.78 379.997 571.246 379.672C570.716 379.344 570.307 378.886 570.018 378.3C569.733 377.71 569.591 377.024 569.591 376.241C569.591 375.459 569.733 374.77 570.018 374.173C570.307 373.573 570.708 373.106 571.222 372.771C571.739 372.433 572.342 372.264 573.031 372.264C573.429 372.264 573.822 372.33 574.21 372.463C574.597 372.596 574.95 372.811 575.268 373.109C575.587 373.404 575.84 373.795 576.029 374.283C576.218 374.77 576.312 375.37 576.312 376.082V376.58H570.426V375.565H575.119C575.119 375.134 575.033 374.75 574.861 374.412C574.692 374.074 574.45 373.807 574.135 373.612C573.823 373.416 573.455 373.318 573.031 373.318C572.564 373.318 572.16 373.434 571.818 373.666C571.48 373.895 571.22 374.193 571.038 374.561C570.855 374.929 570.764 375.323 570.764 375.744V376.42C570.764 376.997 570.864 377.486 571.062 377.887C571.265 378.285 571.545 378.588 571.903 378.797C572.261 379.002 572.677 379.105 573.151 379.105C573.459 379.105 573.737 379.062 573.986 378.976C574.238 378.886 574.455 378.754 574.637 378.578C574.819 378.399 574.96 378.177 575.06 377.912L576.193 378.23C576.074 378.615 575.873 378.953 575.592 379.244C575.31 379.533 574.962 379.758 574.548 379.92C574.133 380.08 573.668 380.159 573.151 380.159ZM581.418 372.364V373.358H577.461V372.364H581.418ZM578.614 370.534H579.788V377.812C579.788 378.144 579.836 378.393 579.932 378.558C580.031 378.721 580.157 378.83 580.31 378.886C580.465 378.939 580.629 378.966 580.802 378.966C580.931 378.966 581.037 378.959 581.12 378.946C581.203 378.929 581.269 378.916 581.319 378.906L581.558 379.96C581.478 379.99 581.367 380.02 581.224 380.05C581.082 380.083 580.901 380.099 580.683 380.099C580.351 380.099 580.026 380.028 579.708 379.886C579.393 379.743 579.131 379.526 578.923 379.234C578.717 378.943 578.614 378.575 578.614 378.131V370.534ZM586.504 372.364V373.358H582.547V372.364H586.504ZM583.7 370.534H584.874V377.812C584.874 378.144 584.922 378.393 585.018 378.558C585.117 378.721 585.243 378.83 585.396 378.886C585.551 378.939 585.715 378.966 585.888 378.966C586.017 378.966 586.123 378.959 586.206 378.946C586.289 378.929 586.355 378.916 586.405 378.906L586.643 379.96C586.564 379.99 586.453 380.02 586.31 380.05C586.168 380.083 585.987 380.099 585.768 380.099C585.437 380.099 585.112 380.028 584.794 379.886C584.479 379.743 584.217 379.526 584.009 379.234C583.803 378.943 583.7 378.575 583.7 378.131V370.534ZM588.269 380V372.364H589.442V380H588.269ZM588.866 371.091C588.637 371.091 588.44 371.013 588.274 370.857C588.112 370.701 588.031 370.514 588.031 370.295C588.031 370.077 588.112 369.889 588.274 369.734C588.44 369.578 588.637 369.5 588.866 369.5C589.094 369.5 589.29 369.578 589.452 369.734C589.618 369.889 589.701 370.077 589.701 370.295C589.701 370.514 589.618 370.701 589.452 370.857C589.29 371.013 589.094 371.091 588.866 371.091ZM592.765 375.406V380H591.591V372.364H592.725V373.557H592.824C593.003 373.169 593.275 372.857 593.64 372.622C594.004 372.384 594.475 372.264 595.052 372.264C595.569 372.264 596.021 372.37 596.409 372.582C596.797 372.791 597.098 373.109 597.314 373.537C597.529 373.961 597.637 374.498 597.637 375.148V380H596.464V375.227C596.464 374.627 596.308 374.16 595.996 373.825C595.685 373.487 595.257 373.318 594.714 373.318C594.339 373.318 594.004 373.399 593.709 373.562C593.418 373.724 593.187 373.961 593.018 374.273C592.849 374.584 592.765 374.962 592.765 375.406ZM602.863 383.023C602.297 383.023 601.809 382.95 601.402 382.804C600.994 382.661 600.654 382.473 600.382 382.237C600.114 382.005 599.9 381.757 599.741 381.491L600.676 380.835C600.782 380.974 600.916 381.134 601.078 381.312C601.241 381.495 601.463 381.652 601.745 381.785C602.03 381.921 602.403 381.989 602.863 381.989C603.48 381.989 603.989 381.839 604.39 381.541C604.791 381.243 604.991 380.776 604.991 380.139V378.588H604.892C604.806 378.727 604.683 378.9 604.524 379.105C604.368 379.307 604.143 379.488 603.848 379.647C603.556 379.803 603.162 379.881 602.664 379.881C602.048 379.881 601.494 379.735 601.004 379.443C600.517 379.152 600.131 378.727 599.846 378.17C599.564 377.614 599.423 376.937 599.423 376.142C599.423 375.36 599.56 374.679 599.836 374.099C600.111 373.515 600.493 373.065 600.984 372.746C601.475 372.425 602.041 372.264 602.684 372.264C603.181 372.264 603.576 372.347 603.868 372.513C604.163 372.675 604.388 372.861 604.544 373.07C604.703 373.275 604.825 373.444 604.912 373.577H605.031V372.364H606.164V380.219C606.164 380.875 606.015 381.409 605.717 381.82C605.422 382.234 605.024 382.537 604.524 382.729C604.027 382.925 603.473 383.023 602.863 383.023ZM602.824 378.827C603.294 378.827 603.692 378.719 604.017 378.504C604.342 378.288 604.588 377.978 604.757 377.574C604.926 377.17 605.011 376.686 605.011 376.122C605.011 375.572 604.928 375.086 604.762 374.665C604.597 374.245 604.351 373.915 604.027 373.676C603.702 373.437 603.301 373.318 602.824 373.318C602.326 373.318 601.912 373.444 601.581 373.696C601.252 373.948 601.006 374.286 600.84 374.71C600.677 375.134 600.596 375.605 600.596 376.122C600.596 376.652 600.679 377.121 600.845 377.529C601.014 377.933 601.262 378.252 601.591 378.484C601.922 378.712 602.333 378.827 602.824 378.827ZM613.721 374.074L612.667 374.372C612.601 374.196 612.503 374.026 612.374 373.86C612.248 373.691 612.076 373.552 611.857 373.442C611.638 373.333 611.358 373.278 611.017 373.278C610.549 373.278 610.16 373.386 609.848 373.602C609.54 373.814 609.386 374.084 609.386 374.412C609.386 374.704 609.492 374.934 609.704 375.103C609.916 375.272 610.248 375.413 610.699 375.526L611.832 375.804C612.515 375.97 613.024 376.223 613.358 376.565C613.693 376.903 613.86 377.339 613.86 377.872C613.86 378.31 613.734 378.701 613.483 379.045C613.234 379.39 612.886 379.662 612.439 379.861C611.991 380.06 611.471 380.159 610.877 380.159C610.099 380.159 609.454 379.99 608.944 379.652C608.433 379.314 608.11 378.82 607.974 378.17L609.088 377.892C609.194 378.303 609.394 378.611 609.689 378.817C609.988 379.022 610.377 379.125 610.858 379.125C611.404 379.125 611.839 379.009 612.16 378.777C612.485 378.542 612.647 378.26 612.647 377.932C612.647 377.667 612.555 377.445 612.369 377.266C612.183 377.083 611.898 376.947 611.514 376.858L610.241 376.56C609.542 376.394 609.028 376.137 608.7 375.789C608.375 375.438 608.213 374.999 608.213 374.472C608.213 374.041 608.334 373.66 608.576 373.328C608.821 372.997 609.154 372.737 609.575 372.548C609.999 372.359 610.48 372.264 611.017 372.264C611.772 372.264 612.366 372.43 612.797 372.761C613.231 373.093 613.539 373.53 613.721 374.074Z" fill="#020202"/>
<g filter="url(#filter7_d_191_43409)">
<rect x="344" y="191" width="56" height="56" rx="16" fill="white" shape-rendering="crispEdges"/>
<rect x="344.5" y="191.5" width="55" height="55" rx="15.5" stroke="#DDDDDD" shape-rendering="crispEdges"/>
<path d="M360 217.5H366V229.5H369V207H375V229.5H378V219H384V229.5H387V231H357V229.5H360V217.5Z" fill="#DDDDDD"/>
</g>
<g filter="url(#filter8_d_191_43409)">
<rect x="413" y="191" width="56" height="56" rx="16" fill="white" shape-rendering="crispEdges"/>
<rect x="413.5" y="191.5" width="55" height="55" rx="15.5" stroke="#DDDDDD" shape-rendering="crispEdges"/>
<path d="M451.5 208.5V211.5H445.5V208.5H451.5ZM436.5 208.5V217.5H430.5V208.5H436.5ZM451.5 220.5V229.5H445.5V220.5H451.5ZM436.5 226.5V229.5H430.5V226.5H436.5ZM454.5 205.5H442.5V214.5H454.5V205.5ZM439.5 205.5H427.5V220.5H439.5V205.5ZM454.5 217.5H442.5V232.5H454.5V217.5ZM439.5 223.5H427.5V232.5H439.5V223.5Z" fill="#DDDDDD"/>
</g>
<g filter="url(#filter9_d_191_43409)">
<rect x="344" y="257" width="56" height="56" rx="16" fill="white" shape-rendering="crispEdges"/>
<rect x="344.5" y="257.5" width="55" height="55" rx="15.5" stroke="#DDDDDD" shape-rendering="crispEdges"/>
<path d="M372 276C375.93 276 379.32 278.79 380.085 282.645L380.535 284.895L382.83 285.06C385.17 285.21 387 287.175 387 289.5C387 291.975 384.975 294 382.5 294H363C359.685 294 357 291.315 357 288C357 284.925 359.295 282.36 362.34 282.045L363.945 281.88L364.695 280.455C366.12 277.71 368.91 276 372 276ZM372 273C367.665 273 363.9 275.46 362.025 279.06C357.51 279.54 354 283.365 354 288C354 292.965 358.035 297 363 297H382.5C386.64 297 390 293.64 390 289.5C390 285.54 386.925 282.33 383.025 282.06C382.005 276.885 377.46 273 372 273Z" fill="#DDDDDD"/>
</g>
<g filter="url(#filter10_d_191_43409)">
<rect x="413" y="257" width="56" height="56" rx="16" fill="white" shape-rendering="crispEdges"/>
<rect x="413.5" y="257.5" width="55" height="55" rx="15.5" stroke="#DDDDDD" shape-rendering="crispEdges"/>
<path d="M444 270H432C430.335 270 429 271.35 429 273V297C429 298.665 430.335 300 432 300H450C451.665 300 453 298.665 453 297V279L444 270ZM450 297H432V273H442.5V280.5H450V297Z" fill="#DDDDDD"/>
</g>
</g>
</g>
</g>
<rect x="32.5" y="31.5" width="749" height="396" rx="15.5" stroke="#E1E1E1"/>
</g>
<defs>
<filter id="filter0_d_191_43409" x="0" y="7" width="814" height="461" filterUnits="userSpaceOnUse" color-interpolation-filters="sRGB">
<feFlood flood-opacity="0" result="BackgroundImageFix"/>
<feColorMatrix in="SourceAlpha" type="matrix" values="0 0 0 0 0 0 0 0 0 0 0 0 0 0 0 0 0 0 127 0" result="hardAlpha"/>
<feOffset dy="8"/>
<feGaussianBlur stdDeviation="16"/>
<feComposite in2="hardAlpha" operator="out"/>
<feColorMatrix type="matrix" values="0 0 0 0 0 0 0 0 0 0 0 0 0 0 0 0 0 0 0.32 0"/>
<feBlend mode="normal" in2="BackgroundImageFix" result="effect1_dropShadow_191_43409"/>
<feBlend mode="normal" in="SourceGraphic" in2="effect1_dropShadow_191_43409" result="shape"/>
</filter>
<filter id="filter1_d_191_43409" x="107" y="-40" width="600" height="600" filterUnits="userSpaceOnUse" color-interpolation-filters="sRGB">
<feFlood flood-opacity="0" result="BackgroundImageFix"/>
<feColorMatrix in="SourceAlpha" type="matrix" values="0 0 0 0 0 0 0 0 0 0 0 0 0 0 0 0 0 0 127 0" result="hardAlpha"/>
<feOffset dy="4"/>
<feGaussianBlur stdDeviation="50"/>
<feComposite in2="hardAlpha" operator="out"/>
<feColorMatrix type="matrix" values="0 0 0 0 0 0 0 0 0 0 0 0 0 0 0 0 0 0 0.08 0"/>
<feBlend mode="normal" in2="BackgroundImageFix" result="effect1_dropShadow_191_43409"/>
<feBlend mode="normal" in="SourceGraphic" in2="effect1_dropShadow_191_43409" result="shape"/>
</filter>
<filter id="filter2_d_191_43409" x="132" y="-15" width="550" height="550" filterUnits="userSpaceOnUse" color-interpolation-filters="sRGB">
<feFlood flood-opacity="0" result="BackgroundImageFix"/>
<feColorMatrix in="SourceAlpha" type="matrix" values="0 0 0 0 0 0 0 0 0 0 0 0 0 0 0 0 0 0 127 0" result="hardAlpha"/>
<feOffset dy="4"/>
<feGaussianBlur stdDeviation="50"/>
<feComposite in2="hardAlpha" operator="out"/>
<feColorMatrix type="matrix" values="0 0 0 0 0 0 0 0 0 0 0 0 0 0 0 0 0 0 0.08 0"/>
<feBlend mode="normal" in2="BackgroundImageFix" result="effect1_dropShadow_191_43409"/>
<feBlend mode="normal" in="SourceGraphic" in2="effect1_dropShadow_191_43409" result="shape"/>
</filter>
<filter id="filter3_d_191_43409" x="157" y="10" width="500" height="500" filterUnits="userSpaceOnUse" color-interpolation-filters="sRGB">
<feFlood flood-opacity="0" result="BackgroundImageFix"/>
<feColorMatrix in="SourceAlpha" type="matrix" values="0 0 0 0 0 0 0 0 0 0 0 0 0 0 0 0 0 0 127 0" result="hardAlpha"/>
<feOffset dy="4"/>
<feGaussianBlur stdDeviation="50"/>
<feComposite in2="hardAlpha" operator="out"/>
<feColorMatrix type="matrix" values="0 0 0 0 0 0 0 0 0 0 0 0 0 0 0 0 0 0 0.08 0"/>
<feBlend mode="normal" in2="BackgroundImageFix" result="effect1_dropShadow_191_43409"/>
<feBlend mode="normal" in="SourceGraphic" in2="effect1_dropShadow_191_43409" result="shape"/>
</filter>
<filter id="filter4_d_191_43409" x="182" y="37" width="451" height="451" filterUnits="userSpaceOnUse" color-interpolation-filters="sRGB">
<feFlood flood-opacity="0" result="BackgroundImageFix"/>
<feColorMatrix in="SourceAlpha" type="matrix" values="0 0 0 0 0 0 0 0 0 0 0 0 0 0 0 0 0 0 127 0" result="hardAlpha"/>
<feOffset dy="4"/>
<feGaussianBlur stdDeviation="50"/>
<feComposite in2="hardAlpha" operator="out"/>
<feColorMatrix type="matrix" values="0 0 0 0 0 0 0 0 0 0 0 0 0 0 0 0 0 0 0.08 0"/>
<feBlend mode="normal" in2="BackgroundImageFix" result="effect1_dropShadow_191_43409"/>
<feBlend mode="normal" in="SourceGraphic" in2="effect1_dropShadow_191_43409" result="shape"/>
</filter>
<filter id="filter5_d_191_43409" x="207" y="60" width="400" height="400" filterUnits="userSpaceOnUse" color-interpolation-filters="sRGB">
<feFlood flood-opacity="0" result="BackgroundImageFix"/>
<feColorMatrix in="SourceAlpha" type="matrix" values="0 0 0 0 0 0 0 0 0 0 0 0 0 0 0 0 0 0 127 0" result="hardAlpha"/>
<feOffset dy="4"/>
<feGaussianBlur stdDeviation="50"/>
<feComposite in2="hardAlpha" operator="out"/>
<feColorMatrix type="matrix" values="0 0 0 0 0 0 0 0 0 0 0 0 0 0 0 0 0 0 0.08 0"/>
<feBlend mode="normal" in2="BackgroundImageFix" result="effect1_dropShadow_191_43409"/>
<feBlend mode="normal" in="SourceGraphic" in2="effect1_dropShadow_191_43409" result="shape"/>
</filter>
<filter id="filter6_f_191_43409" x="12" y="-148.09" width="790" height="790" filterUnits="userSpaceOnUse" color-interpolation-filters="sRGB">
<feFlood flood-opacity="0" result="BackgroundImageFix"/>
<feBlend mode="normal" in="SourceGraphic" in2="BackgroundImageFix" result="shape"/>
<feGaussianBlur stdDeviation="40" result="effect1_foregroundBlur_191_43409"/>
</filter>
<filter id="filter7_d_191_43409" x="320" y="181" width="104" height="104" filterUnits="userSpaceOnUse" color-interpolation-filters="sRGB">
<feFlood flood-opacity="0" result="BackgroundImageFix"/>
<feColorMatrix in="SourceAlpha" type="matrix" values="0 0 0 0 0 0 0 0 0 0 0 0 0 0 0 0 0 0 127 0" result="hardAlpha"/>
<feOffset dy="14"/>
<feGaussianBlur stdDeviation="12"/>
<feComposite in2="hardAlpha" operator="out"/>
<feColorMatrix type="matrix" values="0 0 0 0 0.866667 0 0 0 0 0.866667 0 0 0 0 0.866667 0 0 0 0.45 0"/>
<feBlend mode="normal" in2="BackgroundImageFix" result="effect1_dropShadow_191_43409"/>
<feBlend mode="normal" in="SourceGraphic" in2="effect1_dropShadow_191_43409" result="shape"/>
</filter>
<filter id="filter8_d_191_43409" x="389" y="181" width="104" height="104" filterUnits="userSpaceOnUse" color-interpolation-filters="sRGB">
<feFlood flood-opacity="0" result="BackgroundImageFix"/>
<feColorMatrix in="SourceAlpha" type="matrix" values="0 0 0 0 0 0 0 0 0 0 0 0 0 0 0 0 0 0 127 0" result="hardAlpha"/>
<feOffset dy="14"/>
<feGaussianBlur stdDeviation="12"/>
<feComposite in2="hardAlpha" operator="out"/>
<feColorMatrix type="matrix" values="0 0 0 0 0.866667 0 0 0 0 0.866667 0 0 0 0 0.866667 0 0 0 0.45 0"/>
<feBlend mode="normal" in2="BackgroundImageFix" result="effect1_dropShadow_191_43409"/>
<feBlend mode="normal" in="SourceGraphic" in2="effect1_dropShadow_191_43409" result="shape"/>
</filter>
<filter id="filter9_d_191_43409" x="320" y="247" width="104" height="104" filterUnits="userSpaceOnUse" color-interpolation-filters="sRGB">
<feFlood flood-opacity="0" result="BackgroundImageFix"/>
<feColorMatrix in="SourceAlpha" type="matrix" values="0 0 0 0 0 0 0 0 0 0 0 0 0 0 0 0 0 0 127 0" result="hardAlpha"/>
<feOffset dy="14"/>
<feGaussianBlur stdDeviation="12"/>
<feComposite in2="hardAlpha" operator="out"/>
<feColorMatrix type="matrix" values="0 0 0 0 0.866667 0 0 0 0 0.866667 0 0 0 0 0.866667 0 0 0 0.45 0"/>
<feBlend mode="normal" in2="BackgroundImageFix" result="effect1_dropShadow_191_43409"/>
<feBlend mode="normal" in="SourceGraphic" in2="effect1_dropShadow_191_43409" result="shape"/>
</filter>
<filter id="filter10_d_191_43409" x="389" y="247" width="104" height="104" filterUnits="userSpaceOnUse" color-interpolation-filters="sRGB">
<feFlood flood-opacity="0" result="BackgroundImageFix"/>
<feColorMatrix in="SourceAlpha" type="matrix" values="0 0 0 0 0 0 0 0 0 0 0 0 0 0 0 0 0 0 127 0" result="hardAlpha"/>
<feOffset dy="14"/>
<feGaussianBlur stdDeviation="12"/>
<feComposite in2="hardAlpha" operator="out"/>
<feColorMatrix type="matrix" values="0 0 0 0 0.866667 0 0 0 0 0.866667 0 0 0 0 0.866667 0 0 0 0.45 0"/>
<feBlend mode="normal" in2="BackgroundImageFix" result="effect1_dropShadow_191_43409"/>
<feBlend mode="normal" in="SourceGraphic" in2="effect1_dropShadow_191_43409" result="shape"/>
</filter>
<linearGradient id="paint0_linear_191_43409" x1="398.646" y1="290.453" x2="398.646" y2="332.199" gradientUnits="userSpaceOnUse">
<stop stop-color="white" stop-opacity="0"/>
<stop offset="1" stop-color="white"/>
</linearGradient>
<clipPath id="clip0_191_43409">
<rect x="32" y="31" width="750" height="397" rx="16" fill="white"/>
</clipPath>
<clipPath id="clip1_191_43409">
<rect width="750" height="341" fill="white" transform="translate(32 87)"/>
</clipPath>
<clipPath id="clip2_191_43409">
<rect x="32" y="87" width="750" height="341" rx="16" fill="white"/>
</clipPath>
</defs>
</svg>
