<svg width="450" height="450" viewBox="0 0 450 450" fill="none" xmlns="http://www.w3.org/2000/svg">
<rect width="450" height="450" fill="#1A1A1A"/>
<mask id="mask0_114_60318" style="mask-type:alpha" maskUnits="userSpaceOnUse" x="50" y="50" width="350" height="350">
<circle cx="225" cy="225" r="175" fill="#D9D9D9"/>
</mask>
<g mask="url(#mask0_114_60318)">
<path d="M161 300.5H219C223.142 300.5 226.5 303.858 226.5 308V472.5H153.5V308C153.5 303.858 156.858 300.5 161 300.5Z" stroke="white"/>
<path d="M88 354.5H146C150.142 354.5 153.5 357.858 153.5 362V472.5H80.5V362C80.5 357.858 83.8579 354.5 88 354.5Z" stroke="white"/>
<path d="M234 237.5H292C296.142 237.5 299.5 240.858 299.5 245V472.5H226.5V245C226.5 240.858 229.858 237.5 234 237.5Z" stroke="white"/>
<path d="M363 203.5H308C303.858 203.5 300.5 206.858 300.5 211V472.5H370.5V211C370.5 206.858 367.142 203.5 363 203.5Z" stroke="white"/>
<path d="M290 148.5H232C227.858 148.5 224.5 145.142 224.5 141V-23.5H297.5V141C297.5 145.142 294.142 148.5 290 148.5Z" stroke="white"/>
<path d="M363 94.5H305C300.858 94.5 297.5 91.1421 297.5 87V-23.5H370.5V87C370.5 91.1421 367.142 94.5 363 94.5Z" stroke="white"/>
<path d="M217 211.5H159C154.858 211.5 151.5 208.142 151.5 204V-23.5H224.5V204C224.5 208.142 221.142 211.5 217 211.5Z" stroke="white"/>
<path d="M88 245.5H143C147.142 245.5 150.5 242.142 150.5 238V3.5H80.5V238C80.5 242.142 83.8579 245.5 88 245.5Z" stroke="white"/>
<path d="M113.5 343V297.5C113.5 290.32 119.32 284.5 126.5 284.5H176C183.18 284.5 189 278.68 189 271.5V238.5C189 231.32 194.82 225.5 202 225.5H249.5C256.68 225.5 262.5 219.68 262.5 212.5V179.5C262.5 172.32 268.32 166.5 275.5 166.5H325.5C332.68 166.5 338.5 160.68 338.5 153.5V114.5" stroke="white" stroke-width="2"/>
</g>
</svg>
