<svg width="450" height="450" viewBox="0 0 450 450" fill="none" xmlns="http://www.w3.org/2000/svg">
<rect width="450" height="450" fill="#1A1A1A"/>
<path d="M370 174H308C300.82 174 295 179.82 295 187V211C295 218.18 289.18 224 282 224H227.5C220.32 224 214.5 229.82 214.5 237V261C214.5 268.18 208.68 274 201.5 274H158C150.82 274 145 279.82 145 287V311C145 318.18 139.18 324 132 324H82" stroke="white" stroke-width="2"/>
<circle cx="107.5" cy="298" r="16" fill="#D9D9D9" fill-opacity="0.1"/>
<circle cx="137.5" cy="237" r="16" fill="#D9D9D9" fill-opacity="0.25"/>
<circle cx="188.5" cy="190" r="16" fill="#D9D9D9" fill-opacity="0.65"/>
<circle cx="260.5" cy="156" r="16" fill="#D9D9D9" fill-opacity="0.75"/>
<circle cx="336.5" cy="149" r="16" fill="#D9D9D9"/>
</svg>
