<svg width="450" height="450" viewBox="0 0 450 450" fill="none" xmlns="http://www.w3.org/2000/svg">
<rect width="450" height="450" fill="#1A1A1A"/>
<mask id="mask0_114_60261" style="mask-type:alpha" maskUnits="userSpaceOnUse" x="50" y="50" width="350" height="350">
<circle cx="225" cy="225" r="175" fill="#D9D9D9"/>
</mask>
<g mask="url(#mask0_114_60261)">
<rect x="125.25" y="141.5" width="199" height="199" rx="7.5" stroke="white"/>
<path d="M124.75 191H324.75" stroke="#B2B2B2" stroke-width="2"/>
<path d="M124.75 241H324.75" stroke="#B2B2B2" stroke-width="2"/>
<path d="M124.75 291H324.75" stroke="#B2B2B2" stroke-width="2"/>
<path d="M274.75 141L274.75 341" stroke="#B2B2B2" stroke-width="2"/>
<path d="M224.75 141L224.75 341" stroke="#B2B2B2" stroke-width="2"/>
<path d="M174.75 141L174.75 341" stroke="#B2B2B2" stroke-width="2"/>
<rect x="134.75" y="250" width="32" height="32" fill="#D9D9D9"/>
<path d="M126.25 123.5H326.25" stroke="white"/>
<mask id="path-11-outside-1_114_60261" maskUnits="userSpaceOnUse" x="198.75" y="108" width="58" height="26" fill="black">
<rect fill="white" x="198.75" y="108" width="58" height="26"/>
<path d="M202.37 126V123.784L207.548 118.99C207.988 118.564 208.358 118.18 208.656 117.839C208.959 117.499 209.189 117.165 209.345 116.838C209.501 116.507 209.579 116.149 209.579 115.766C209.579 115.339 209.482 114.973 209.288 114.665C209.094 114.352 208.829 114.113 208.493 113.947C208.156 113.777 207.775 113.692 207.349 113.692C206.904 113.692 206.516 113.782 206.184 113.962C205.853 114.142 205.597 114.4 205.417 114.736C205.237 115.072 205.147 115.472 205.147 115.936H202.228C202.228 114.984 202.444 114.158 202.875 113.457C203.306 112.757 203.909 112.214 204.686 111.831C205.462 111.447 206.357 111.256 207.37 111.256C208.412 111.256 209.319 111.44 210.091 111.81C210.867 112.174 211.471 112.681 211.902 113.33C212.333 113.978 212.548 114.722 212.548 115.56C212.548 116.109 212.439 116.651 212.221 117.186C212.008 117.721 211.627 118.315 211.078 118.969C210.529 119.617 209.754 120.396 208.755 121.305L206.632 123.386V123.486H212.74V126H202.37ZM220.671 126.32C219.45 126.315 218.398 126.014 217.518 125.418C216.642 124.821 215.967 123.957 215.494 122.825C215.025 121.694 214.793 120.332 214.798 118.741C214.798 117.155 215.032 115.804 215.501 114.686C215.974 113.569 216.649 112.719 217.525 112.136C218.406 111.549 219.454 111.256 220.671 111.256C221.888 111.256 222.934 111.549 223.81 112.136C224.691 112.723 225.368 113.576 225.842 114.693C226.315 115.806 226.549 117.155 226.545 118.741C226.545 120.337 226.308 121.701 225.835 122.832C225.366 123.964 224.693 124.828 223.817 125.425C222.942 126.021 221.893 126.32 220.671 126.32ZM220.671 123.77C221.504 123.77 222.17 123.351 222.667 122.513C223.164 121.675 223.41 120.418 223.406 118.741C223.406 117.638 223.292 116.72 223.065 115.986C222.842 115.252 222.525 114.7 222.113 114.331C221.706 113.962 221.225 113.777 220.671 113.777C219.843 113.777 219.18 114.191 218.683 115.02C218.185 115.848 217.934 117.089 217.93 118.741C217.93 119.859 218.041 120.792 218.263 121.54C218.491 122.283 218.81 122.842 219.222 123.216C219.634 123.585 220.117 123.77 220.671 123.77ZM228.766 130.091V115.091H231.749V116.923H231.884C232.016 116.63 232.208 116.331 232.459 116.028C232.715 115.721 233.046 115.465 233.453 115.261C233.865 115.053 234.377 114.949 234.988 114.949C235.783 114.949 236.517 115.157 237.189 115.574C237.862 115.986 238.399 116.608 238.801 117.442C239.204 118.27 239.405 119.31 239.405 120.56C239.405 121.777 239.209 122.804 238.816 123.642C238.427 124.475 237.897 125.107 237.225 125.538C236.557 125.964 235.809 126.178 234.98 126.178C234.393 126.178 233.894 126.08 233.482 125.886C233.075 125.692 232.741 125.448 232.48 125.155C232.22 124.857 232.021 124.556 231.884 124.253H231.792V130.091H228.766ZM231.728 120.545C231.728 121.194 231.818 121.76 231.998 122.243C232.177 122.726 232.438 123.102 232.779 123.372C233.12 123.637 233.534 123.77 234.022 123.77C234.514 123.77 234.931 123.635 235.272 123.365C235.613 123.09 235.871 122.712 236.046 122.229C236.226 121.741 236.316 121.18 236.316 120.545C236.316 119.916 236.228 119.362 236.053 118.884C235.878 118.405 235.62 118.031 235.279 117.761C234.938 117.491 234.519 117.357 234.022 117.357C233.529 117.357 233.113 117.487 232.772 117.747C232.435 118.008 232.177 118.377 231.998 118.855C231.818 119.333 231.728 119.897 231.728 120.545ZM243.56 115.091L245.563 118.905L247.615 115.091H250.719L247.559 120.545L250.804 126H247.715L245.563 122.229L243.446 126H240.321L243.56 120.545L240.435 115.091H243.56Z"/>
</mask>
<path d="M202.37 126V123.784L207.548 118.99C207.988 118.564 208.358 118.18 208.656 117.839C208.959 117.499 209.189 117.165 209.345 116.838C209.501 116.507 209.579 116.149 209.579 115.766C209.579 115.339 209.482 114.973 209.288 114.665C209.094 114.352 208.829 114.113 208.493 113.947C208.156 113.777 207.775 113.692 207.349 113.692C206.904 113.692 206.516 113.782 206.184 113.962C205.853 114.142 205.597 114.4 205.417 114.736C205.237 115.072 205.147 115.472 205.147 115.936H202.228C202.228 114.984 202.444 114.158 202.875 113.457C203.306 112.757 203.909 112.214 204.686 111.831C205.462 111.447 206.357 111.256 207.37 111.256C208.412 111.256 209.319 111.44 210.091 111.81C210.867 112.174 211.471 112.681 211.902 113.33C212.333 113.978 212.548 114.722 212.548 115.56C212.548 116.109 212.439 116.651 212.221 117.186C212.008 117.721 211.627 118.315 211.078 118.969C210.529 119.617 209.754 120.396 208.755 121.305L206.632 123.386V123.486H212.74V126H202.37ZM220.671 126.32C219.45 126.315 218.398 126.014 217.518 125.418C216.642 124.821 215.967 123.957 215.494 122.825C215.025 121.694 214.793 120.332 214.798 118.741C214.798 117.155 215.032 115.804 215.501 114.686C215.974 113.569 216.649 112.719 217.525 112.136C218.406 111.549 219.454 111.256 220.671 111.256C221.888 111.256 222.934 111.549 223.81 112.136C224.691 112.723 225.368 113.576 225.842 114.693C226.315 115.806 226.549 117.155 226.545 118.741C226.545 120.337 226.308 121.701 225.835 122.832C225.366 123.964 224.693 124.828 223.817 125.425C222.942 126.021 221.893 126.32 220.671 126.32ZM220.671 123.77C221.504 123.77 222.17 123.351 222.667 122.513C223.164 121.675 223.41 120.418 223.406 118.741C223.406 117.638 223.292 116.72 223.065 115.986C222.842 115.252 222.525 114.7 222.113 114.331C221.706 113.962 221.225 113.777 220.671 113.777C219.843 113.777 219.18 114.191 218.683 115.02C218.185 115.848 217.934 117.089 217.93 118.741C217.93 119.859 218.041 120.792 218.263 121.54C218.491 122.283 218.81 122.842 219.222 123.216C219.634 123.585 220.117 123.77 220.671 123.77ZM228.766 130.091V115.091H231.749V116.923H231.884C232.016 116.63 232.208 116.331 232.459 116.028C232.715 115.721 233.046 115.465 233.453 115.261C233.865 115.053 234.377 114.949 234.988 114.949C235.783 114.949 236.517 115.157 237.189 115.574C237.862 115.986 238.399 116.608 238.801 117.442C239.204 118.27 239.405 119.31 239.405 120.56C239.405 121.777 239.209 122.804 238.816 123.642C238.427 124.475 237.897 125.107 237.225 125.538C236.557 125.964 235.809 126.178 234.98 126.178C234.393 126.178 233.894 126.08 233.482 125.886C233.075 125.692 232.741 125.448 232.48 125.155C232.22 124.857 232.021 124.556 231.884 124.253H231.792V130.091H228.766ZM231.728 120.545C231.728 121.194 231.818 121.76 231.998 122.243C232.177 122.726 232.438 123.102 232.779 123.372C233.12 123.637 233.534 123.77 234.022 123.77C234.514 123.77 234.931 123.635 235.272 123.365C235.613 123.09 235.871 122.712 236.046 122.229C236.226 121.741 236.316 121.18 236.316 120.545C236.316 119.916 236.228 119.362 236.053 118.884C235.878 118.405 235.62 118.031 235.279 117.761C234.938 117.491 234.519 117.357 234.022 117.357C233.529 117.357 233.113 117.487 232.772 117.747C232.435 118.008 232.177 118.377 231.998 118.855C231.818 119.333 231.728 119.897 231.728 120.545ZM243.56 115.091L245.563 118.905L247.615 115.091H250.719L247.559 120.545L250.804 126H247.715L245.563 122.229L243.446 126H240.321L243.56 120.545L240.435 115.091H243.56Z" fill="white"/>
<path d="M202.37 126H199.37V129H202.37V126ZM202.37 123.784L200.332 121.583L199.37 122.473V123.784H202.37ZM207.548 118.99L209.586 121.191L209.61 121.169L209.634 121.146L207.548 118.99ZM208.656 117.839L206.414 115.846L206.406 115.855L206.398 115.864L208.656 117.839ZM209.345 116.838L212.051 118.132L212.055 118.125L212.058 118.117L209.345 116.838ZM209.288 114.665L206.74 116.248L206.745 116.257L206.751 116.265L209.288 114.665ZM208.493 113.947L207.136 116.623L207.151 116.631L207.166 116.638L208.493 113.947ZM205.417 114.736L208.062 116.151L208.062 116.151L205.417 114.736ZM205.147 115.936V118.936H208.147V115.936H205.147ZM202.228 115.936H199.228V118.936H202.228V115.936ZM202.875 113.457L205.43 115.029L205.43 115.029L202.875 113.457ZM204.686 111.831L203.357 109.141L203.357 109.141L204.686 111.831ZM210.091 111.81L208.796 114.516L208.806 114.521L208.816 114.525L210.091 111.81ZM211.902 113.33L209.403 114.989L209.403 114.989L211.902 113.33ZM212.221 117.186L209.443 116.055L209.438 116.066L209.434 116.076L212.221 117.186ZM211.078 118.969L213.367 120.907L213.374 120.899L211.078 118.969ZM208.755 121.305L206.736 119.087L206.695 119.124L206.656 119.163L208.755 121.305ZM206.632 123.386L204.532 121.244L203.632 122.126V123.386H206.632ZM206.632 123.486H203.632V126.486H206.632V123.486ZM212.74 123.486H215.74V120.486H212.74V123.486ZM212.74 126V129H215.74V126H212.74ZM205.37 126V123.784H199.37V126H205.37ZM204.409 125.985L209.586 121.191L205.51 116.789L200.332 121.583L204.409 125.985ZM209.634 121.146C210.115 120.681 210.546 120.236 210.914 119.815L206.398 115.864C206.17 116.125 205.862 116.447 205.462 116.834L209.634 121.146ZM210.898 119.833C211.342 119.333 211.747 118.768 212.051 118.132L206.638 115.544C206.63 115.561 206.576 115.664 206.414 115.846L210.898 119.833ZM212.058 118.117C212.412 117.367 212.579 116.57 212.579 115.766H206.579C206.579 115.752 206.581 115.722 206.59 115.681C206.599 115.639 206.613 115.597 206.631 115.559L212.058 118.117ZM212.579 115.766C212.579 114.872 212.37 113.928 211.825 113.064L206.751 116.265C206.678 116.15 206.632 116.036 206.606 115.938C206.581 115.843 206.579 115.78 206.579 115.766H212.579ZM211.836 113.082C211.341 112.284 210.648 111.665 209.819 111.257L207.166 116.638C207.099 116.605 207.017 116.553 206.934 116.479C206.852 116.404 206.787 116.323 206.74 116.248L211.836 113.082ZM209.849 111.272C209.041 110.862 208.185 110.692 207.349 110.692V116.692C207.362 116.692 207.343 116.693 207.3 116.683C207.256 116.674 207.198 116.655 207.136 116.623L209.849 111.272ZM207.349 110.692C206.494 110.692 205.597 110.867 204.753 111.325L207.616 116.598C207.531 116.644 207.455 116.669 207.401 116.682C207.349 116.694 207.328 116.692 207.349 116.692V110.692ZM204.753 111.325C203.9 111.788 203.226 112.473 202.772 113.32L208.062 116.151C208.022 116.226 207.961 116.315 207.875 116.402C207.789 116.489 207.698 116.554 207.616 116.598L204.753 111.325ZM202.772 113.32C202.314 114.177 202.147 115.084 202.147 115.936H208.147C208.147 115.86 208.161 115.967 208.062 116.151L202.772 113.32ZM205.147 112.936H202.228V118.936H205.147V112.936ZM205.228 115.936C205.228 115.451 205.333 115.187 205.43 115.029L200.319 111.886C199.554 113.13 199.228 114.518 199.228 115.936H205.228ZM205.43 115.029C205.549 114.835 205.716 114.668 206.014 114.521L203.357 109.141C202.103 109.761 201.062 110.679 200.319 111.886L205.43 115.029ZM206.014 114.521C206.313 114.373 206.74 114.256 207.37 114.256V108.256C205.974 108.256 204.612 108.522 203.357 109.141L206.014 114.521ZM207.37 114.256C208.06 114.256 208.506 114.377 208.796 114.516L211.386 109.104C210.131 108.503 208.764 108.256 207.37 108.256V114.256ZM208.816 114.525C209.147 114.681 209.306 114.844 209.403 114.989L214.401 111.67C213.636 110.518 212.587 109.668 211.366 109.094L208.816 114.525ZM209.403 114.989C209.482 115.108 209.548 115.265 209.548 115.56H215.548C215.548 114.178 215.183 112.848 214.401 111.67L209.403 114.989ZM209.548 115.56C209.548 115.701 209.522 115.86 209.443 116.055L215 118.317C215.356 117.442 215.548 116.517 215.548 115.56H209.548ZM209.434 116.076C209.382 116.207 209.214 116.524 208.781 117.038L213.374 120.899C214.04 120.107 214.634 119.235 215.008 118.296L209.434 116.076ZM208.788 117.03C208.357 117.54 207.688 118.22 206.736 119.087L210.774 123.524C211.821 122.572 212.7 121.695 213.367 120.907L208.788 117.03ZM206.656 119.163L204.532 121.244L208.731 125.529L210.855 123.448L206.656 119.163ZM203.632 123.386V123.486H209.632V123.386H203.632ZM206.632 126.486H212.74V120.486H206.632V126.486ZM209.74 123.486V126H215.74V123.486H209.74ZM212.74 123H202.37V129H212.74V123ZM220.671 126.32L220.66 129.32H220.671V126.32ZM217.518 125.418L215.829 127.897L215.835 127.901L217.518 125.418ZM215.494 122.825L212.722 123.973L212.726 123.983L215.494 122.825ZM214.798 118.741L217.798 118.75V118.741H214.798ZM215.501 114.686L212.738 113.516L212.734 113.526L215.501 114.686ZM217.525 112.136L219.186 114.635L219.189 114.633L217.525 112.136ZM223.81 112.136L222.14 114.628L222.146 114.633L223.81 112.136ZM225.842 114.693L223.079 115.864L223.081 115.868L225.842 114.693ZM226.545 118.741L223.545 118.733V118.741H226.545ZM225.835 122.832L223.067 121.674L223.063 121.684L225.835 122.832ZM223.817 125.425L225.506 127.904L225.506 127.904L223.817 125.425ZM222.667 122.513L225.247 124.043L225.247 124.043L222.667 122.513ZM223.406 118.741L220.406 118.741L220.406 118.75L223.406 118.741ZM223.065 115.986L220.194 116.856L220.196 116.865L220.199 116.873L223.065 115.986ZM222.113 114.331L220.097 116.553L220.104 116.559L220.11 116.565L222.113 114.331ZM218.683 115.02L216.11 113.476L216.11 113.476L218.683 115.02ZM217.93 118.741L214.93 118.733V118.741H217.93ZM218.263 121.54L215.388 122.395L215.391 122.406L215.395 122.417L218.263 121.54ZM219.222 123.216L217.206 125.437L217.213 125.443L217.22 125.45L219.222 123.216ZM220.683 123.32C219.966 123.317 219.517 123.149 219.2 122.934L215.835 127.901C217.28 128.88 218.933 129.313 220.66 129.32L220.683 123.32ZM219.207 122.938C218.882 122.717 218.547 122.35 218.261 121.667L212.726 123.983C213.388 125.564 214.401 126.925 215.829 127.897L219.207 122.938ZM218.265 121.677C217.986 121.004 217.794 120.058 217.798 118.75L211.798 118.733C211.792 120.607 212.063 122.383 212.722 123.973L218.265 121.677ZM217.798 118.741C217.798 117.437 217.992 116.502 218.267 115.847L212.734 113.526C212.072 115.105 211.798 116.874 211.798 118.741H217.798ZM218.263 115.857C218.543 115.195 218.871 114.844 219.186 114.635L215.864 109.638C214.427 110.594 213.405 111.943 212.738 113.516L218.263 115.857ZM219.189 114.633C219.506 114.421 219.955 114.256 220.671 114.256V108.256C218.953 108.256 217.305 108.677 215.861 109.64L219.189 114.633ZM220.671 114.256C221.387 114.256 221.831 114.421 222.14 114.628L225.481 109.644C224.038 108.677 222.389 108.256 220.671 108.256V114.256ZM222.146 114.633C222.471 114.849 222.8 115.205 223.079 115.864L228.604 113.523C227.936 111.947 226.911 110.598 225.474 109.64L222.146 114.633ZM223.081 115.868C223.354 116.509 223.549 117.432 223.545 118.733L229.545 118.75C229.55 116.878 229.276 115.102 228.602 113.519L223.081 115.868ZM223.545 118.741C223.545 120.054 223.348 121.002 223.067 121.674L228.602 123.99C229.268 122.4 229.545 120.621 229.545 118.741H223.545ZM223.063 121.684C222.782 122.362 222.45 122.726 222.129 122.945L225.506 127.904C226.937 126.93 227.949 125.566 228.606 123.98L223.063 121.684ZM222.129 122.945C221.824 123.153 221.385 123.32 220.671 123.32V129.32C222.4 129.32 224.059 128.89 225.506 127.904L222.129 122.945ZM220.671 126.77C222.76 126.77 224.318 125.61 225.247 124.043L220.087 120.982C220.024 121.088 220.042 121.015 220.196 120.917C220.273 120.869 220.362 120.829 220.457 120.802C220.55 120.776 220.626 120.77 220.671 120.77V126.77ZM225.247 124.043C226.154 122.514 226.411 120.609 226.406 118.733L220.406 118.75C220.41 120.227 220.174 120.835 220.087 120.982L225.247 124.043ZM226.406 118.741C226.406 117.457 226.276 116.215 225.93 115.098L220.199 116.873C220.308 117.224 220.406 117.82 220.406 118.741H226.406ZM225.936 115.115C225.613 114.05 225.065 112.948 224.116 112.097L220.11 116.565C220.046 116.507 220.036 116.477 220.059 116.517C220.084 116.56 220.136 116.664 220.194 116.856L225.936 115.115ZM224.128 112.109C223.165 111.235 221.964 110.777 220.671 110.777V116.777C220.608 116.777 220.5 116.765 220.371 116.716C220.242 116.666 220.15 116.601 220.097 116.553L224.128 112.109ZM220.671 110.777C218.597 110.777 217.043 111.922 216.11 113.476L221.255 116.563C221.316 116.461 221.297 116.535 221.143 116.632C221.066 116.679 220.978 116.719 220.884 116.745C220.791 116.771 220.716 116.777 220.671 116.777V110.777ZM216.11 113.476C215.201 114.991 214.935 116.877 214.93 118.733L220.93 118.75C220.934 117.301 221.17 116.706 221.255 116.563L216.11 113.476ZM214.93 118.741C214.93 120.035 215.056 121.278 215.388 122.395L221.139 120.684C221.026 120.305 220.93 119.683 220.93 118.741H214.93ZM215.395 122.417C215.72 123.481 216.266 124.583 217.206 125.437L221.239 120.995C221.299 121.05 221.305 121.075 221.278 121.027C221.249 120.976 221.194 120.863 221.132 120.663L215.395 122.417ZM217.22 125.45C218.183 126.313 219.379 126.77 220.671 126.77V120.77C220.734 120.77 220.841 120.782 220.965 120.829C221.089 120.877 221.177 120.939 221.225 120.982L217.22 125.45ZM228.766 130.091H225.766V133.091H228.766V130.091ZM228.766 115.091V112.091H225.766V115.091H228.766ZM231.749 115.091H234.749V112.091H231.749V115.091ZM231.749 116.923H228.749V119.923H231.749V116.923ZM231.884 116.923V119.923H233.821L234.618 118.158L231.884 116.923ZM232.459 116.028L230.152 114.111L230.149 114.115L232.459 116.028ZM233.453 115.261L234.795 117.945L234.807 117.938L233.453 115.261ZM237.189 115.574L235.609 118.124L235.615 118.128L235.622 118.132L237.189 115.574ZM238.801 117.442L236.1 118.746L236.103 118.752L238.801 117.442ZM238.816 123.642L236.099 122.368L236.096 122.375L238.816 123.642ZM237.225 125.538L238.839 128.067L238.843 128.064L237.225 125.538ZM233.482 125.886L232.191 128.594L232.203 128.6L233.482 125.886ZM232.48 125.155L230.221 127.128L230.228 127.137L230.236 127.146L232.48 125.155ZM231.884 124.253L234.616 123.015L233.818 121.253H231.884V124.253ZM231.792 124.253V121.253H228.792V124.253H231.792ZM231.792 130.091V133.091H234.792V130.091H231.792ZM232.779 123.372L230.917 125.724L230.927 125.732L230.937 125.74L232.779 123.372ZM235.272 123.365L237.134 125.717L237.144 125.709L237.154 125.701L235.272 123.365ZM236.046 122.229L233.231 121.19L233.228 121.198L233.226 121.206L236.046 122.229ZM236.053 118.884L238.87 117.852L238.87 117.852L236.053 118.884ZM235.279 117.761L237.141 115.409L237.141 115.409L235.279 117.761ZM232.772 117.747L230.951 115.363L230.942 115.369L230.934 115.376L232.772 117.747ZM231.998 118.855L229.19 117.799L229.19 117.799L231.998 118.855ZM231.766 130.091V115.091H225.766V130.091H231.766ZM228.766 118.091H231.749V112.091H228.766V118.091ZM228.749 115.091V116.923H234.749V115.091H228.749ZM231.749 119.923H231.884V113.923H231.749V119.923ZM234.618 118.158C234.618 118.158 234.627 118.139 234.651 118.102C234.675 118.064 234.713 118.011 234.77 117.942L230.149 114.115C229.763 114.581 229.414 115.104 229.15 115.689L234.618 118.158ZM234.767 117.945C234.757 117.957 234.749 117.966 234.742 117.972C234.739 117.975 234.737 117.977 234.735 117.979C234.733 117.98 234.732 117.981 234.732 117.981C234.732 117.981 234.736 117.978 234.746 117.971C234.756 117.965 234.772 117.956 234.795 117.945L232.112 112.578C231.384 112.942 230.707 113.443 230.152 114.111L234.767 117.945ZM234.807 117.938C234.746 117.97 234.718 117.972 234.745 117.967C234.773 117.961 234.85 117.949 234.988 117.949V111.949C234.052 111.949 233.044 112.106 232.1 112.584L234.807 117.938ZM234.988 117.949C235.228 117.949 235.414 118.003 235.609 118.124L238.77 113.024C237.62 112.311 236.338 111.949 234.988 111.949V117.949ZM235.622 118.132C235.724 118.194 235.903 118.339 236.1 118.746L241.503 116.137C240.895 114.877 239.999 113.777 238.757 113.016L235.622 118.132ZM236.103 118.752C236.249 119.054 236.405 119.61 236.405 120.56H242.405C242.405 119.009 242.159 117.487 241.5 116.131L236.103 118.752ZM236.405 120.56C236.405 121.469 236.256 122.034 236.1 122.368L241.532 124.916C242.161 123.574 242.405 122.084 242.405 120.56H236.405ZM236.096 122.375C235.911 122.773 235.731 122.933 235.606 123.013L238.843 128.064C240.064 127.282 240.944 126.178 241.535 124.909L236.096 122.375ZM235.611 123.01C235.448 123.113 235.265 123.178 234.98 123.178V129.178C236.353 129.178 237.666 128.816 238.839 128.067L235.611 123.01ZM234.98 123.178C234.712 123.178 234.675 123.132 234.761 123.173L232.203 128.6C233.113 129.029 234.074 129.178 234.98 129.178V123.178ZM234.773 123.178C234.722 123.154 234.699 123.138 234.696 123.135C234.693 123.133 234.705 123.142 234.725 123.164L230.236 127.146C230.8 127.781 231.475 128.253 232.191 128.594L234.773 123.178ZM234.74 123.182C234.637 123.063 234.613 123.006 234.616 123.015L229.151 125.491C229.43 126.106 229.803 126.65 230.221 127.128L234.74 123.182ZM231.884 121.253H231.792V127.253H231.884V121.253ZM228.792 124.253V130.091H234.792V124.253H228.792ZM231.792 127.091H228.766V133.091H231.792V127.091ZM228.728 120.545C228.728 121.463 228.854 122.398 229.186 123.29L234.809 121.196C234.781 121.122 234.728 120.925 234.728 120.545H228.728ZM229.186 123.29C229.522 124.191 230.072 125.056 230.917 125.724L234.641 121.02C234.715 121.079 234.765 121.138 234.795 121.181C234.823 121.221 234.823 121.233 234.809 121.196L229.186 123.29ZM230.937 125.74C231.872 126.467 232.958 126.77 234.022 126.77V120.77C234.051 120.77 234.138 120.774 234.259 120.813C234.385 120.853 234.511 120.919 234.621 121.004L230.937 125.74ZM234.022 126.77C235.096 126.77 236.193 126.462 237.134 125.717L233.41 121.013C233.521 120.924 233.65 120.856 233.779 120.815C233.904 120.774 233.993 120.77 234.022 120.77V126.77ZM237.154 125.701C237.991 125.027 238.537 124.159 238.866 123.252L233.226 121.206C233.213 121.24 233.214 121.227 233.242 121.186C233.271 121.143 233.32 121.085 233.39 121.029L237.154 125.701ZM238.86 123.267C239.187 122.383 239.316 121.459 239.316 120.545H233.316C233.316 120.901 233.265 121.099 233.231 121.19L238.86 123.267ZM239.316 120.545C239.316 119.644 239.191 118.728 238.87 117.852L233.236 119.915C233.265 119.995 233.316 120.188 233.316 120.545H239.316ZM238.87 117.852C238.537 116.944 237.985 116.078 237.141 115.409L233.417 120.113C233.343 120.055 233.291 119.995 233.259 119.948C233.228 119.903 233.225 119.886 233.236 119.915L238.87 117.852ZM237.141 115.409C236.195 114.661 235.093 114.357 234.022 114.357V120.357C233.998 120.357 233.912 120.353 233.789 120.313C233.661 120.272 233.531 120.204 233.417 120.114L237.141 115.409ZM234.022 114.357C232.973 114.357 231.89 114.646 230.951 115.363L234.593 120.131C234.48 120.217 234.355 120.28 234.235 120.318C234.119 120.354 234.041 120.357 234.022 120.357V114.357ZM230.934 115.376C230.078 116.039 229.525 116.906 229.19 117.799L234.805 119.912C234.819 119.876 234.817 119.892 234.785 119.938C234.751 119.986 234.694 120.053 234.609 120.119L230.934 115.376ZM229.19 117.799C228.854 118.692 228.728 119.629 228.728 120.545H234.728C234.728 120.165 234.782 119.975 234.805 119.912L229.19 117.799ZM243.56 115.091L246.216 113.696L245.373 112.091H243.56V115.091ZM245.563 118.905L242.907 120.3L245.53 125.296L248.205 120.327L245.563 118.905ZM247.615 115.091V112.091H245.823L244.974 113.669L247.615 115.091ZM250.719 115.091L253.315 116.595L255.925 112.091H250.719V115.091ZM247.559 120.545L244.963 119.041L244.08 120.566L244.981 122.08L247.559 120.545ZM250.804 126V129H256.08L253.382 124.466L250.804 126ZM247.715 126L245.109 127.487L245.973 129H247.715V126ZM245.563 122.229L248.168 120.742L245.541 116.137L242.947 120.76L245.563 122.229ZM243.446 126V129H245.203L246.063 127.468L243.446 126ZM240.321 126L237.742 124.468L235.051 129H240.321V126ZM243.56 120.545L246.14 122.077L247.033 120.572L246.163 119.054L243.56 120.545ZM240.435 115.091V112.091H235.259L237.832 116.582L240.435 115.091ZM240.904 116.486L242.907 120.3L248.219 117.51L246.216 113.696L240.904 116.486ZM248.205 120.327L250.257 116.513L244.974 113.669L242.921 117.483L248.205 120.327ZM247.615 118.091H250.719V112.091H247.615V118.091ZM248.123 113.587L244.963 119.041L250.154 122.049L253.315 116.595L248.123 113.587ZM244.981 122.08L248.226 127.534L253.382 124.466L250.137 119.011L244.981 122.08ZM250.804 123H247.715V129H250.804V123ZM250.32 124.513L248.168 120.742L242.957 123.716L245.109 127.487L250.32 124.513ZM242.947 120.76L240.83 124.532L246.063 127.468L248.179 123.697L242.947 120.76ZM243.446 123H240.321V129H243.446V123ZM242.901 127.532L246.14 122.077L240.98 119.014L237.742 124.468L242.901 127.532ZM246.163 119.054L243.038 113.6L237.832 116.582L240.957 122.037L246.163 119.054ZM240.435 118.091H243.56V112.091H240.435V118.091Z" fill="#1A1A1A" mask="url(#path-11-outside-1_114_60261)"/>
<rect x="125.5" y="348.5" width="199" height="199" rx="7.5" stroke="white"/>
<rect x="333.5" y="141.5" width="199" height="199" rx="7.5" stroke="white"/>
<rect x="126.5" y="-102.5" width="199" height="199" rx="7.5" stroke="white"/>
<rect x="-81.5" y="141.5" width="199" height="199" rx="7.5" stroke="white"/>
<rect x="-81.5" y="348.5" width="199" height="199" rx="7.5" stroke="white"/>
<rect x="332.5" y="348.5" width="199" height="199" rx="7.5" stroke="white"/>
</g>
</svg>
