<svg width="446" height="1265" viewBox="0 0 446 1265" fill="none" xmlns="http://www.w3.org/2000/svg">
<path fill-rule="evenodd" clip-rule="evenodd" d="M16.0106 149.906C15.877 148.245 17.0395 146.785 18.6071 146.643L38.622 144.837C40.1897 144.695 41.5687 145.927 41.7023 147.587C41.8359 149.247 40.6734 150.707 39.1058 150.849L19.0909 152.656C17.5233 152.797 16.1442 151.566 16.0106 149.906ZM16.0632 692.455C15.8629 690.802 16.9656 689.29 18.5261 689.078L38.4557 686.369C40.0162 686.157 41.4436 687.324 41.6439 688.977C41.8442 690.63 40.7416 692.142 39.1811 692.354L19.2515 695.063C17.691 695.275 16.2636 694.108 16.0632 692.455ZM16.6243 1168.08C17.1229 1166.5 18.7367 1165.65 20.2289 1166.18L39.2892 1172.92C40.7814 1173.45 41.5869 1175.16 41.0884 1176.74C40.5899 1178.32 38.976 1179.17 37.4838 1178.64L18.4236 1171.9C16.9313 1171.37 16.1258 1169.66 16.6243 1168.08ZM16.7122 385.04C17.242 383.471 18.8724 382.654 20.3538 383.215L39.272 390.38C40.7534 390.941 41.5248 392.668 40.9951 394.237C40.4653 395.806 38.8349 396.623 37.3534 396.062L18.4352 388.896C16.9538 388.335 16.1824 386.609 16.7122 385.04ZM17.5781 744.323C18.3398 742.865 20.0733 742.337 21.4499 743.143L39.0212 753.44C40.3978 754.247 40.8963 756.083 40.1346 757.541C39.373 758.999 37.6395 759.527 36.2629 758.72L18.6916 748.423C17.315 747.616 16.8164 745.781 17.5781 744.323ZM17.6527 322.66C18.4317 321.213 20.1713 320.708 21.5382 321.533L38.9958 332.07C40.3627 332.896 40.8392 334.738 40.0602 336.186C39.2812 337.633 37.5416 338.138 36.1747 337.313L18.7171 326.775C17.3502 325.95 16.8737 324.108 17.6527 322.66ZM18.0319 442.403C18.8869 441.004 20.6507 440.604 21.9713 441.51L38.8324 453.072C40.1531 453.977 40.5305 455.845 39.6754 457.244C38.8204 458.643 37.0566 459.043 35.736 458.137L18.8749 446.575C17.5542 445.67 17.1768 443.802 18.0319 442.403ZM19.2999 79.4005C20.3556 78.1651 22.1571 78.07 23.3236 79.188L38.2126 93.459C39.3791 94.5771 39.4689 96.485 38.4132 97.7205C37.3575 98.9559 35.5561 99.0509 34.3896 97.9329L19.5005 83.662C18.334 82.5439 18.2442 80.6359 19.2999 79.4005ZM19.4061 639.811C18.3342 638.592 18.399 636.682 19.5508 635.547L34.2749 621.035C35.4267 619.9 37.2292 619.969 38.301 621.189C39.3728 622.408 39.308 624.317 38.1563 625.453L23.4321 639.965C22.2804 641.1 20.4779 641.031 19.4061 639.811ZM22.8996 221.092C21.5037 220.323 20.9603 218.502 21.6859 217.023L30.9662 198.116C31.6919 196.637 33.4118 196.062 34.8077 196.83C36.2037 197.599 36.7471 199.42 36.0214 200.899L26.7411 219.807C26.0155 221.285 24.2956 221.86 22.8996 221.092ZM22.9066 497.907C24.3029 497.14 26.0226 497.716 26.7475 499.195L36.0163 518.103C36.7413 519.581 36.197 521.403 34.8007 522.17C33.4043 522.938 31.6847 522.362 30.9598 520.883L21.691 501.975C20.966 500.497 21.5103 498.675 22.9066 497.907ZM23.0447 1099.99C24.4496 1099.24 26.1626 1099.83 26.8709 1101.32L35.9293 1120.35C36.6376 1121.84 36.0729 1123.65 34.6681 1124.4C33.2633 1125.15 31.5502 1124.55 30.8419 1123.07L21.7835 1104.04C21.0752 1102.55 21.6399 1100.74 23.0447 1099.99ZM23.2922 1004.12C21.8727 1003.4 21.2717 1001.6 21.9501 1000.1L30.6164 980.888C31.2947 979.385 32.9954 978.749 34.4149 979.467C35.8345 980.185 36.4354 981.987 35.7571 983.49L27.0907 1002.7C26.4124 1004.2 24.7118 1004.84 23.2922 1004.12ZM23.3062 256.88C24.7265 256.163 26.4265 256.801 27.1034 258.305L35.7471 277.513C36.424 279.017 35.8214 280.818 34.4011 281.535C32.9809 282.252 31.2808 281.614 30.604 280.109L21.9602 260.901C21.2833 259.397 21.886 257.597 23.3062 256.88ZM23.511 943.988C22.079 943.298 21.4464 941.509 22.098 939.993L30.4291 920.604C31.0807 919.087 32.7699 918.417 34.2018 919.107C35.6338 919.797 36.2664 921.586 35.6148 923.103L27.2837 942.492C26.6321 944.009 24.943 944.679 23.511 943.988ZM23.6334 798.664C25.0718 797.989 26.7545 798.677 27.3919 800.2L35.5298 819.649C36.1672 821.173 35.5179 822.955 34.0795 823.63C32.6411 824.305 30.9583 823.617 30.3209 822.094L22.1831 802.645C21.5457 801.121 22.195 799.339 23.6334 798.664ZM23.9691 1220.02C25.425 1219.39 27.0887 1220.12 27.685 1221.67L35.2999 1241.36C35.8963 1242.9 35.1994 1244.66 33.7435 1245.29C32.2876 1245.92 30.6239 1245.19 30.0276 1243.64L22.4127 1223.95C21.8164 1222.41 22.5132 1220.65 23.9691 1220.02ZM23.9693 15.7081C25.4252 15.0766 27.0889 15.8146 27.6852 17.3566L35.3001 37.0471C35.8964 38.5891 35.1996 40.3511 33.7437 40.9827C32.2878 41.6142 30.6241 40.8762 30.0278 39.3342L22.4129 19.6436C21.8166 18.1016 22.5134 16.3397 23.9693 15.7081ZM26.6917 583.767C25.1406 583.488 24.0968 581.93 24.3602 580.287L27.7301 559.272C27.9935 557.63 29.4645 556.524 31.0155 556.803C32.5666 557.082 33.6105 558.64 33.3471 560.283L29.9772 581.298C29.7138 582.94 28.2428 584.046 26.6917 583.767ZM27.1438 1065.57C25.5843 1065.35 24.489 1063.83 24.6973 1062.18L27.3626 1041.04C27.5709 1039.39 29.0039 1038.23 30.5634 1038.45C32.1228 1038.67 33.2182 1040.19 33.0099 1041.84L30.3445 1062.98C30.1362 1064.63 28.7032 1065.79 27.1438 1065.57ZM27.3974 884.928C25.8342 884.739 24.7114 883.244 24.8894 881.589L27.1625 860.453C27.3406 858.798 28.7521 857.609 30.3153 857.797C31.8785 857.986 33.0014 859.481 32.8233 861.136L30.5502 882.272C30.3722 883.927 28.9606 885.117 27.3974 884.928ZM72.7891 750.738C72.8113 749.072 74.1047 747.741 75.6778 747.764L95.7667 748.066C97.3398 748.089 98.5971 749.459 98.5748 751.125C98.5525 752.791 97.2592 754.123 95.686 754.099L75.5971 753.798C74.024 753.774 72.7668 752.404 72.7891 750.738ZM72.8403 149.983C72.6978 148.324 73.8525 146.856 75.4193 146.705L95.4287 144.778C96.9955 144.627 98.3812 145.85 98.5237 147.509C98.6662 149.169 97.5116 150.636 95.9447 150.787L75.9353 152.714C74.3685 152.865 72.9828 151.642 72.8403 149.983ZM72.9129 1170.55C73.131 1168.9 74.5709 1167.75 76.129 1167.98L96.0304 1170.93C97.5885 1171.16 98.6748 1172.68 98.4567 1174.33C98.2386 1175.98 96.7987 1177.13 95.2405 1176.9L75.3392 1173.95C73.7811 1173.72 72.6948 1172.2 72.9129 1170.55ZM73.3225 385.735C73.772 384.139 75.3587 383.23 76.8664 383.706L96.1256 389.788C97.6333 390.264 98.491 391.945 98.0415 393.541C97.5919 395.138 96.0053 396.047 94.4976 395.571L75.2384 389.489C73.7307 389.013 72.8729 387.332 73.3225 385.735ZM73.6729 444.869C74.247 443.318 75.8999 442.553 77.3647 443.161L96.0783 450.929C97.5431 451.537 98.2651 453.287 97.691 454.839C97.1169 456.39 95.464 457.155 93.9992 456.547L75.2857 448.779C73.8209 448.171 73.0988 446.42 73.6729 444.869ZM74.5088 322.591C75.2927 321.146 77.034 320.648 78.3981 321.478L95.8103 332.076C97.1743 332.906 97.6446 334.75 96.8607 336.195C96.0768 337.64 94.3355 338.138 92.9714 337.308L75.5593 326.71C74.1952 325.879 73.7249 324.035 74.5088 322.591ZM75.7592 501.307C76.7645 500.025 78.5606 499.85 79.7708 500.914L95.2394 514.523C96.4496 515.588 96.6157 517.49 95.6104 518.771C94.6051 520.053 92.8091 520.229 91.5989 519.164L76.1303 505.556C74.92 504.491 74.7539 502.589 75.7592 501.307ZM76.05 79.479C77.0961 78.2345 78.8968 78.1237 80.0719 79.2316L95.0805 93.3821C96.2556 94.49 96.3601 96.3971 95.314 97.6416C94.2679 98.8862 92.4672 98.997 91.2921 97.8891L76.2836 83.7385C75.1085 82.6306 75.0039 80.7236 76.05 79.479ZM76.3322 700.108C75.2497 698.899 75.2976 696.989 76.4392 695.843L91.01 681.21C92.1516 680.064 93.9547 680.114 95.0372 681.323C96.1198 682.532 96.0718 684.442 94.9302 685.589L80.3594 700.221C79.2178 701.368 77.4147 701.317 76.3322 700.108ZM77.4198 800.673C78.6272 799.604 80.4237 799.775 81.4324 801.054L94.3039 817.372C95.3125 818.651 95.1514 820.553 93.944 821.622C92.7366 822.69 90.9401 822.519 89.9314 821.24L77.0599 804.922C76.0513 803.643 76.2124 801.741 77.4198 800.673ZM78.9369 1003.43C77.5964 1002.55 77.1772 1000.7 78.0007 999.277L88.514 981.152C89.3376 979.732 91.0919 979.288 92.4324 980.16C93.773 981.032 94.1921 982.89 93.3686 984.31L82.8553 1002.44C82.0318 1003.86 80.2775 1004.3 78.9369 1003.43ZM79.4263 1100.28C80.8019 1099.47 82.536 1100 83.2996 1101.46L93.0513 1120.06C93.8149 1121.52 93.3187 1123.36 91.9431 1124.17C90.5676 1124.97 88.8334 1124.45 88.0699 1122.99L78.3182 1104.39C77.5546 1102.93 78.0507 1101.09 79.4263 1100.28ZM79.5514 943.596C78.1672 942.803 77.6513 940.973 78.3992 939.507L87.952 920.78C88.6998 919.314 90.4282 918.768 91.8124 919.56C93.1966 920.352 93.7125 922.182 92.9646 923.648L83.4118 942.375C82.664 943.841 80.9356 944.388 79.5514 943.596ZM79.7102 221.089C78.3161 220.316 77.7772 218.493 78.5064 217.017L87.8149 198.169C88.5441 196.693 90.2654 196.122 91.6595 196.894C93.0536 197.667 93.5926 199.49 92.8634 200.966L83.5548 219.813C82.8256 221.29 81.1043 221.861 79.7102 221.089ZM80.2148 256.81C81.6397 256.104 83.3355 256.754 84.0027 258.263L92.5211 277.532C93.1883 279.041 92.574 280.837 91.1492 281.544C89.7243 282.25 88.0284 281.6 87.3613 280.091L78.8428 260.822C78.1757 259.313 78.79 257.517 80.2148 256.81ZM80.6084 557.727C82.0547 557.071 83.7292 557.781 84.3483 559.313L92.2588 578.883C92.8779 580.414 92.2074 582.188 90.7611 582.843C89.3147 583.499 87.6403 582.789 87.0211 581.257L79.1107 561.687C78.4915 560.156 79.1621 558.382 80.6084 557.727ZM80.6161 1220.1C82.0629 1219.44 83.7368 1220.15 84.3548 1221.69L92.2483 1241.26C92.8664 1242.79 92.1945 1244.56 90.7477 1245.21C89.3009 1245.87 87.627 1245.16 87.0089 1243.63L79.1155 1224.06C78.4974 1222.52 79.1693 1220.75 80.6161 1220.1ZM80.6163 15.7855C82.0631 15.131 83.737 15.8425 84.355 17.3749L92.2485 36.9452C92.8665 38.4775 92.1947 40.2503 90.7479 40.9048C89.3011 41.5593 87.6272 40.8478 87.0091 39.3154L79.1156 19.7452C78.4976 18.213 79.1694 16.4401 80.6163 15.7855ZM83.1181 1065.41C81.5762 1065.08 80.5797 1063.49 80.8924 1061.86L84.8932 1040.96C85.2059 1039.33 86.7093 1038.27 88.2512 1038.6C89.7931 1038.94 90.7896 1040.53 90.4769 1042.16L86.4761 1063.06C86.1635 1064.69 84.66 1065.74 83.1181 1065.41ZM83.6062 643.986C82.0535 643.717 81.0002 642.166 81.2537 640.522L84.4929 619.507C84.7464 617.862 86.2106 616.747 87.7634 617.015C89.3161 617.284 90.3694 618.835 90.1159 620.479L86.8767 641.494C86.6232 643.139 85.159 644.254 83.6062 643.986ZM85.0436 885.004C83.4723 884.922 82.2616 883.506 82.3394 881.841L83.334 860.585C83.4118 858.921 84.7488 857.639 86.3202 857.721C87.8915 857.804 89.1023 859.22 89.0244 860.884L88.0298 882.14C87.952 883.804 86.615 885.086 85.0436 885.004ZM129.697 1173.95C129.523 1172.29 130.65 1170.8 132.214 1170.62L152.183 1168.27C153.747 1168.08 155.155 1169.28 155.329 1170.93C155.503 1172.59 154.376 1174.08 152.812 1174.26L132.843 1176.61C131.279 1176.8 129.871 1175.6 129.697 1173.95ZM129.77 150.833C129.53 149.186 130.595 147.645 132.15 147.39L152 144.139C153.555 143.884 155.01 145.012 155.251 146.659C155.491 148.306 154.426 149.847 152.871 150.102L133.021 153.354C131.466 153.608 130.011 152.48 129.77 150.833ZM129.902 808.258C130.231 806.628 131.745 805.59 133.284 805.939L152.935 810.394C154.474 810.743 155.454 812.347 155.124 813.976C154.795 815.606 153.281 816.644 151.742 816.295L132.091 811.839C130.553 811.49 129.573 809.887 129.902 808.258ZM130.545 444.723C131.133 443.177 132.792 442.428 134.251 443.051L152.897 450.999C154.356 451.622 155.063 453.379 154.476 454.925C153.888 456.471 152.229 457.219 150.769 456.597L132.124 448.648C130.664 448.026 129.958 446.269 130.545 444.723ZM130.779 383.958C131.433 382.443 133.123 381.776 134.554 382.469L152.836 391.32C154.266 392.013 154.896 393.803 154.242 395.319C153.588 396.834 151.898 397.501 150.467 396.808L132.185 387.957C130.754 387.264 130.124 385.474 130.779 383.958ZM131.118 503.692C131.853 502.218 133.576 501.655 134.967 502.434L152.721 512.369C154.112 513.148 154.643 514.973 153.908 516.446C153.173 517.92 151.45 518.483 150.059 517.704L132.306 507.769C130.915 506.99 130.383 505.165 131.118 503.692ZM131.784 80.9561C132.656 79.5697 134.425 79.1952 135.734 80.1195L152.447 91.9213C153.756 92.8457 154.11 94.7188 153.237 96.1052C152.364 97.4916 150.596 97.8662 149.287 96.9419L132.573 85.14C131.264 84.2156 130.911 82.3425 131.784 80.9561ZM132.571 320.727C133.573 319.443 135.368 319.261 136.581 320.322L152.073 333.871C153.286 334.932 153.457 336.834 152.455 338.118C151.454 339.403 149.658 339.585 148.445 338.524L132.954 324.975C131.74 323.914 131.569 322.012 132.571 320.727ZM132.783 561.289C133.816 560.032 135.615 559.9 136.802 560.993L151.964 574.964C153.151 576.058 153.276 577.963 152.243 579.22C151.21 580.477 149.411 580.61 148.224 579.516L133.062 565.546C131.875 564.452 131.75 562.546 132.783 561.289ZM133.076 760.244C132.003 759.025 132.066 757.116 133.217 755.98L147.919 741.468C149.07 740.332 150.872 740.399 151.945 741.618C153.018 742.837 152.954 744.746 151.803 745.882L137.102 760.394C135.951 761.53 134.148 761.463 133.076 760.244ZM134.291 1101.68C135.503 1100.62 137.299 1100.8 138.302 1102.08L151.111 1118.46C152.115 1119.74 151.946 1121.64 150.735 1122.71C149.523 1123.77 147.727 1123.59 146.724 1122.31L133.915 1105.93C132.911 1104.65 133.08 1102.74 134.291 1101.68ZM135.591 1221.11C136.918 1220.21 138.679 1220.63 139.523 1222.03L150.304 1239.98C151.148 1241.38 150.757 1243.25 149.43 1244.14C148.102 1245.04 146.342 1244.62 145.497 1243.22L134.717 1225.27C133.872 1223.87 134.263 1222 135.591 1221.11ZM135.591 16.7976C136.918 15.9031 138.679 16.3176 139.524 17.7234L150.304 35.6676C151.149 37.0735 150.757 38.9383 149.43 39.8328C148.102 40.7273 146.342 40.3128 145.497 38.907L134.717 20.9628C133.872 19.5569 134.264 17.6921 135.591 16.7976ZM136.221 220.929C134.847 220.117 134.355 218.28 135.121 216.824L144.924 198.218C145.691 196.763 147.426 196.242 148.8 197.054C150.174 197.866 150.666 199.703 149.899 201.158L140.096 219.765C139.33 221.22 137.595 221.741 136.221 220.929ZM136.366 618.484C137.749 617.69 139.478 618.235 140.227 619.7L149.803 638.427C150.552 639.892 150.038 641.723 148.655 642.517C147.271 643.31 145.542 642.766 144.793 641.3L135.217 622.573C134.468 621.108 134.982 619.277 136.366 618.484ZM136.862 859.046C138.277 858.316 139.982 858.939 140.67 860.438L149.473 879.586C150.162 881.084 149.573 882.89 148.159 883.619C146.744 884.348 145.039 883.725 144.35 882.227L135.548 863.079C134.859 861.581 135.447 859.775 136.862 859.046ZM138.231 1004.66C136.747 1004.11 135.968 1002.39 136.49 1000.82L143.156 980.766C143.679 979.194 145.305 978.368 146.789 978.922C148.273 979.475 149.053 981.198 148.53 982.77L141.864 1002.82C141.342 1004.39 139.715 1005.22 138.231 1004.66ZM138.422 256.26C139.914 255.731 141.528 256.584 142.027 258.164L148.397 278.336C148.896 279.916 148.091 281.626 146.599 282.154C145.107 282.683 143.493 281.83 142.994 280.25L136.624 260.078C136.124 258.498 136.929 256.788 138.422 256.26ZM140.456 945.064C138.903 944.798 137.847 943.25 138.098 941.605L141.303 920.589C141.554 918.944 143.017 917.826 144.57 918.092C146.123 918.358 147.179 919.906 146.928 921.551L143.723 942.567C143.472 944.212 142.009 945.33 140.456 945.064ZM141.981 704.359C140.409 704.29 139.187 702.885 139.252 701.221L140.076 679.964C140.141 678.299 141.467 677.005 143.039 677.074C144.611 677.142 145.833 678.547 145.769 680.212L144.945 701.468C144.88 703.133 143.553 704.427 141.981 704.359ZM142.017 1065.65C140.445 1065.59 139.22 1064.19 139.28 1062.52L140.053 1041.26C140.113 1039.6 141.437 1038.3 143.009 1038.37C144.581 1038.43 145.807 1039.83 145.746 1041.5L144.973 1062.75C144.913 1064.42 143.589 1065.72 142.017 1065.65ZM186.861 867.923C187.257 866.31 188.813 865.343 190.335 865.763L209.782 871.122C211.305 871.542 212.218 873.189 211.822 874.802C211.425 876.414 209.87 877.381 208.347 876.962L188.901 871.602C187.378 871.183 186.465 869.535 186.861 867.923ZM186.904 152.371C186.49 150.763 187.384 149.104 188.902 148.666L208.281 143.065C209.799 142.626 211.365 143.574 211.779 145.181C212.193 146.789 211.298 148.448 209.781 148.886L190.402 154.487C188.884 154.925 187.318 153.978 186.904 152.371ZM187.189 565.695C187.714 564.124 189.342 563.302 190.825 563.859L209.76 570.963C211.243 571.52 212.02 573.244 211.494 574.815C210.969 576.385 209.341 577.207 207.858 576.651L188.923 569.546C187.44 568.99 186.663 567.266 187.189 565.695ZM187.278 1177.27C186.721 1175.71 187.463 1173.97 188.934 1173.38L207.727 1165.85C209.199 1165.27 210.843 1166.05 211.4 1167.61C211.956 1169.17 211.214 1170.91 209.743 1171.5L190.95 1179.03C189.478 1179.61 187.834 1178.83 187.278 1177.27ZM187.37 83.4977C187.954 81.9503 189.611 81.1969 191.073 81.8148L209.724 89.7033C211.185 90.3213 211.896 92.0766 211.313 93.6241C210.729 95.1714 209.072 95.9249 207.61 95.3069L188.96 87.4185C187.498 86.8005 186.787 85.0452 187.37 83.4977ZM187.458 504.774C188.069 503.238 189.739 502.517 191.189 503.163L209.698 511.413C211.148 512.059 211.829 513.828 211.219 515.364C210.608 516.9 208.938 517.621 207.488 516.975L188.979 508.725C187.529 508.079 186.848 506.31 187.458 504.774ZM187.541 624.974C188.178 623.45 189.86 622.761 191.299 623.435L209.683 632.046C211.122 632.72 211.772 634.502 211.136 636.026C210.5 637.55 208.817 638.239 207.378 637.565L188.994 628.954C187.556 628.28 186.905 626.498 187.541 624.974ZM188.11 443.101C188.884 441.65 190.622 441.139 191.992 441.959L209.495 452.436C210.864 453.256 211.347 455.097 210.573 456.547C209.799 457.998 208.061 458.509 206.691 457.689L189.188 447.212C187.819 446.392 187.336 444.551 188.11 443.101ZM188.46 1104.85C189.306 1103.45 191.067 1103.03 192.393 1103.93L209.345 1115.37C210.672 1116.27 211.062 1118.13 210.217 1119.54C209.371 1120.94 207.61 1121.35 206.284 1120.46L189.332 1109.02C188.005 1108.12 187.615 1106.26 188.46 1104.85ZM189.253 381.105C190.233 379.802 192.025 379.586 193.256 380.624L208.969 393.871C210.2 394.909 210.404 396.807 209.424 398.111C208.444 399.415 206.652 399.63 205.421 398.592L189.708 385.345C188.477 384.307 188.274 382.409 189.253 381.105ZM189.861 820.39C188.794 819.166 188.865 817.257 190.021 816.126L204.79 801.675C205.946 800.544 207.748 800.619 208.816 801.843C209.883 803.067 209.812 804.976 208.656 806.107L193.887 820.558C192.731 821.689 190.929 821.614 189.861 820.39ZM189.874 681.41C190.943 680.187 192.745 680.113 193.9 681.245L208.647 695.697C209.802 696.829 209.872 698.738 208.803 699.961C207.734 701.184 205.932 701.258 204.777 700.126L190.03 685.674C188.876 684.542 188.806 682.633 189.874 681.41ZM190.274 1222.95C191.392 1221.78 193.196 1221.79 194.302 1222.98L208.424 1238.09C209.531 1239.28 209.522 1241.19 208.403 1242.36C207.285 1243.53 205.481 1243.52 204.375 1242.33L190.253 1227.22C189.146 1226.04 189.156 1224.13 190.274 1222.95ZM190.274 18.6437C191.392 17.4717 193.196 17.4817 194.303 18.666L208.425 33.7799C209.531 34.9644 209.522 36.8747 208.403 38.0468C207.285 39.2188 205.481 39.2087 204.375 38.0243L190.253 22.9104C189.146 21.726 189.156 19.8158 190.274 18.6437ZM191.706 318.41C192.974 317.424 194.757 317.713 195.688 319.056L207.582 336.218C208.513 337.561 208.24 339.449 206.971 340.435C205.703 341.421 203.92 341.132 202.989 339.788L191.095 322.627C190.164 321.284 190.438 319.396 191.706 318.41ZM192.659 919.876C194.004 919.012 195.756 919.466 196.572 920.891L206.983 939.076C207.798 940.501 207.369 942.357 206.024 943.22C204.678 944.084 202.927 943.63 202.111 942.205L191.7 924.02C190.884 922.595 191.314 920.74 192.659 919.876ZM192.704 220.701C191.355 219.844 190.918 217.99 191.728 216.562L202.071 198.316C202.88 196.888 204.63 196.425 205.979 197.282C207.328 198.14 207.765 199.993 206.955 201.422L196.612 219.668C195.803 221.096 194.053 221.559 192.704 220.701ZM194.762 1039.22C196.234 1038.63 197.878 1039.42 198.436 1040.97L205.574 1060.91C206.132 1062.46 205.391 1064.21 203.92 1064.8C202.449 1065.39 200.805 1064.6 200.247 1063.04L193.109 1043.11C192.551 1041.56 193.291 1039.81 194.762 1039.22ZM196.84 978.386C198.383 978.063 199.882 979.127 200.187 980.761L204.085 1001.66C204.39 1003.29 203.386 1004.88 201.843 1005.2C200.299 1005.52 198.801 1004.46 198.496 1002.83L194.597 981.931C194.292 980.296 195.296 978.709 196.84 978.386ZM197.271 255.722C198.824 255.455 200.287 256.572 200.539 258.216L203.762 279.231C204.014 280.876 202.959 282.426 201.406 282.693C199.853 282.96 198.39 281.843 198.138 280.198L194.916 259.183C194.664 257.539 195.718 255.989 197.271 255.722ZM197.569 737.375C199.127 737.146 200.566 738.298 200.782 739.949L203.544 761.024C203.76 762.675 202.672 764.198 201.114 764.427C199.556 764.656 198.117 763.504 197.901 761.854L195.139 740.778C194.923 739.128 196.01 737.604 197.569 737.375ZM243.274 690.91C243.252 689.243 244.509 687.874 246.082 687.85L266.171 687.548C267.744 687.525 269.038 688.856 269.06 690.522C269.082 692.188 267.825 693.558 266.252 693.582L246.163 693.884C244.59 693.907 243.296 692.576 243.274 690.91ZM243.303 569.396C243.405 567.733 244.761 566.473 246.331 566.582L266.38 567.967C267.95 568.075 269.139 569.511 269.037 571.174C268.935 572.836 267.579 574.096 266.009 573.988L245.96 572.603C244.39 572.495 243.2 571.059 243.303 569.396ZM243.361 929.993C243.544 928.338 244.958 927.153 246.521 927.347L266.479 929.816C268.042 930.009 269.161 931.507 268.978 933.162C268.796 934.817 267.381 936.002 265.818 935.809L245.86 933.34C244.297 933.147 243.179 931.648 243.361 929.993ZM243.361 632.085C243.179 630.43 244.297 628.931 245.86 628.738L265.813 626.269C267.375 626.075 268.79 627.26 268.973 628.915C269.155 630.57 268.036 632.069 266.474 632.262L246.521 634.731C244.959 634.925 243.544 633.74 243.361 632.085ZM243.456 86.2802C243.719 84.6373 245.189 83.5311 246.74 83.8094L266.545 87.362C268.096 87.6402 269.141 89.1975 268.878 90.8404C268.615 92.4832 267.145 93.5896 265.594 93.3113L245.789 89.7587C244.238 89.4805 243.193 87.923 243.456 86.2802ZM243.514 1109.57C243.817 1107.93 245.314 1106.87 246.858 1107.19L266.577 1111.28C268.121 1111.6 269.128 1113.19 268.825 1114.82C268.522 1116.46 267.025 1117.52 265.481 1117.2L245.762 1113.11C244.218 1112.79 243.212 1111.2 243.514 1109.57ZM244.068 505.325C244.612 503.761 246.249 502.959 247.726 503.535L266.581 510.881C268.058 511.456 268.814 513.19 268.271 514.754C267.728 516.318 266.091 517.119 264.614 516.544L245.758 509.198C244.282 508.622 243.525 506.888 244.068 505.325ZM244.538 154.688C243.857 153.186 244.455 151.384 245.873 150.663L263.996 141.45C265.414 140.729 267.116 141.362 267.796 142.864C268.477 144.366 267.879 146.168 266.461 146.89L248.338 156.103C246.92 156.824 245.218 156.191 244.538 154.688ZM244.938 744.178C245.713 742.727 247.451 742.216 248.82 743.036L266.318 753.514C267.687 754.334 268.17 756.174 267.395 757.625C266.621 759.075 264.883 759.586 263.514 758.766L246.016 748.289C244.647 747.469 244.164 745.628 244.938 744.178ZM245.128 1179.51C244.314 1178.08 244.746 1176.23 246.092 1175.37L263.3 1164.35C264.646 1163.49 266.397 1163.94 267.211 1165.37C268.025 1166.8 267.594 1168.65 266.247 1169.51L249.04 1180.53C247.693 1181.39 245.942 1180.94 245.128 1179.51ZM245.637 1224.74C246.545 1223.38 248.323 1223.06 249.608 1224.02L266.02 1236.3C267.305 1237.27 267.61 1239.15 266.702 1240.51C265.794 1241.87 264.016 1242.19 262.732 1241.23L246.32 1228.95C245.035 1227.99 244.729 1226.1 245.637 1224.74ZM245.638 20.4318C246.546 19.0711 248.323 18.7475 249.608 19.7091L266.02 31.9936C267.305 32.9553 267.61 34.8379 266.702 36.1986C265.794 37.5594 264.017 37.8828 262.732 36.9212L246.32 24.6369C245.035 23.6752 244.729 21.7925 245.638 20.4318ZM245.666 441.931C246.579 440.574 248.358 440.258 249.639 441.224L266 453.569C267.282 454.536 267.58 456.42 266.668 457.777C265.755 459.134 263.976 459.45 262.695 458.483L246.334 446.139C245.052 445.172 244.754 443.288 245.666 441.931ZM245.683 983.803C246.599 982.449 248.379 982.138 249.658 983.109L265.996 995.514C267.274 996.485 267.568 998.369 266.651 999.724C265.734 1001.08 263.955 1001.39 262.676 1000.42L246.338 988.013C245.059 987.042 244.766 985.157 245.683 983.803ZM245.82 1043.86C246.759 1042.52 248.544 1042.24 249.806 1043.24L265.934 1055.94C267.196 1056.93 267.458 1058.82 266.519 1060.16C265.58 1061.5 263.796 1061.78 262.534 1060.78L246.406 1048.08C245.143 1047.08 244.881 1045.19 245.82 1043.86ZM246.709 880.607C245.64 879.385 245.709 877.476 246.864 876.344L261.605 861.892C262.76 860.76 264.562 860.834 265.631 862.057C266.7 863.28 266.63 865.188 265.476 866.32L250.734 880.772C249.58 881.904 247.777 881.83 246.709 880.607ZM247.512 379.484C248.678 378.365 250.48 378.46 251.536 379.694L265.027 395.471C266.083 396.706 265.994 398.614 264.828 399.733C263.661 400.851 261.86 400.757 260.804 399.522L247.313 383.745C246.257 382.51 246.346 380.602 247.512 379.484ZM249.933 317.479C251.31 316.673 253.043 317.201 253.804 318.659L263.516 337.266C264.277 338.724 263.778 340.56 262.401 341.366C261.024 342.172 259.291 341.644 258.53 340.185L248.818 321.579C248.057 320.121 248.556 318.285 249.933 317.479ZM250.418 221.237C249.009 220.496 248.435 218.685 249.135 217.193L258.097 198.104C258.798 196.612 260.507 196.004 261.916 196.746C263.325 197.487 263.899 199.298 263.199 200.79L254.237 219.879C253.536 221.371 251.827 221.979 250.418 221.237ZM253.881 797.67C255.429 797.375 256.91 798.465 257.189 800.105L260.752 821.06C261.031 822.7 260.002 824.268 258.453 824.564C256.905 824.859 255.424 823.769 255.145 822.129L251.582 801.174C251.303 799.534 252.332 797.965 253.881 797.67ZM254.603 255.645C256.164 255.443 257.585 256.62 257.776 258.274L260.214 279.409C260.404 281.063 259.293 282.568 257.731 282.77C256.17 282.972 254.749 281.795 254.558 280.141L252.12 259.005C251.93 257.351 253.041 255.847 254.603 255.645ZM300.11 1051.44C300.172 1049.77 301.497 1048.48 303.069 1048.54L323.147 1049.39C324.719 1049.45 325.943 1050.85 325.88 1052.52C325.818 1054.18 324.493 1055.48 322.921 1055.41L302.844 1054.57C301.272 1054.51 300.048 1053.1 300.11 1051.44ZM300.123 89.2948C300.039 87.631 301.244 86.2095 302.815 86.1199L322.875 84.976C324.446 84.8864 325.788 86.1627 325.873 87.8266C325.957 89.4904 324.753 90.9119 323.181 91.0015L303.121 92.1454C301.55 92.235 300.208 90.9587 300.123 89.2948ZM300.182 571.792C300.008 570.136 301.135 568.644 302.699 568.46L322.668 566.112C324.232 565.928 325.64 567.121 325.814 568.777C325.988 570.433 324.861 571.925 323.297 572.109L303.328 574.458C301.764 574.641 300.356 573.448 300.182 571.792ZM300.197 752.593C300.006 750.939 301.116 749.434 302.678 749.231L322.619 746.642C324.181 746.439 325.602 747.615 325.793 749.269C325.985 750.923 324.874 752.428 323.313 752.631L303.371 755.22C301.81 755.423 300.389 754.247 300.197 752.593ZM300.256 993.919C300.011 992.273 301.073 990.729 302.627 990.469L322.477 987.157C324.031 986.898 325.489 988.022 325.734 989.668C325.979 991.314 324.918 992.859 323.364 993.118L303.513 996.43C301.959 996.689 300.501 995.565 300.256 993.919ZM300.262 1114.35C300.017 1112.7 301.078 1111.16 302.632 1110.9L322.477 1107.59C324.031 1107.33 325.489 1108.45 325.734 1110.1C325.979 1111.74 324.918 1113.29 323.364 1113.55L303.519 1116.86C301.965 1117.12 300.507 1116 300.262 1114.35ZM300.612 506.252C301.048 504.651 302.627 503.728 304.139 504.19L323.438 510.091C324.949 510.554 325.821 512.226 325.385 513.827C324.948 515.428 323.369 516.351 321.857 515.889L302.559 509.987C301.047 509.525 300.175 507.853 300.612 506.252ZM301.294 636.258C300.631 634.746 301.25 632.952 302.677 632.25L320.913 623.278C322.34 622.576 324.034 623.232 324.697 624.744C325.36 626.255 324.74 628.049 323.314 628.751L305.077 637.723C303.65 638.425 301.956 637.769 301.294 636.258ZM301.554 697.015C300.829 695.536 301.372 693.715 302.768 692.946L320.595 683.131C321.991 682.362 323.711 682.938 324.436 684.416C325.162 685.895 324.619 687.716 323.223 688.485L305.396 698.3C304 699.069 302.28 698.493 301.554 697.015ZM301.692 1226.06C302.449 1224.6 304.18 1224.06 305.56 1224.86L323.177 1235.1C324.556 1235.9 325.061 1237.73 324.304 1239.19C323.547 1240.66 321.816 1241.19 320.436 1240.39L302.819 1230.15C301.44 1229.35 300.935 1227.52 301.692 1226.06ZM301.692 21.7458C302.449 20.2849 304.181 19.7503 305.56 20.5518L323.177 30.7881C324.556 31.5895 325.061 33.4235 324.304 34.8843C323.547 36.3452 321.816 36.8797 320.436 36.0782L302.82 25.842C301.44 25.0406 300.935 23.2066 301.692 21.7458ZM302.329 442.165C303.214 440.788 304.986 440.431 306.287 441.368L322.915 453.351C324.215 454.288 324.552 456.165 323.667 457.543C322.782 458.92 321.01 459.277 319.709 458.34L303.082 446.357C301.781 445.42 301.444 443.543 302.329 442.165ZM302.37 803.387C303.26 802.014 305.034 801.665 306.331 802.608L322.891 814.651C324.187 815.595 324.517 817.473 323.626 818.846C322.736 820.22 320.962 820.569 319.665 819.626L303.106 807.582C301.809 806.639 301.479 804.761 302.37 803.387ZM302.398 1180.21C301.503 1178.84 301.826 1176.96 303.12 1176.01L319.634 1163.91C320.928 1162.96 322.702 1163.3 323.598 1164.67C324.493 1166.04 324.17 1167.92 322.876 1168.87L306.362 1180.97C305.068 1181.92 303.294 1181.58 302.398 1180.21ZM303.386 157.864C302.337 156.623 302.436 154.715 303.608 153.604L318.588 139.393C319.759 138.281 321.56 138.386 322.61 139.628C323.66 140.869 323.561 142.776 322.389 143.888L307.409 158.098C306.237 159.21 304.436 159.105 303.386 157.864ZM303.59 940.899C302.513 939.684 302.57 937.775 303.717 936.634L318.373 922.062C319.521 920.921 321.323 920.981 322.4 922.196C323.477 923.411 323.42 925.32 322.273 926.461L307.617 941.033C306.47 942.174 304.667 942.114 303.59 940.899ZM303.947 379.871C305.069 378.702 306.872 378.717 307.976 379.905L322.081 395.079C323.184 396.266 323.17 398.176 322.049 399.345C320.928 400.514 319.124 400.499 318.021 399.312L303.916 384.138C302.812 382.95 302.826 381.04 303.947 379.871ZM305.617 318.187C306.908 317.233 308.683 317.568 309.584 318.935L321.086 336.398C321.986 337.764 321.669 339.645 320.379 340.598C319.089 341.552 317.313 341.217 316.413 339.85L304.911 322.387C304.011 321.021 304.327 319.14 305.617 318.187ZM309.133 256.182C310.634 255.683 312.233 256.567 312.704 258.157L318.722 278.449C319.194 280.039 318.359 281.732 316.858 282.232C315.357 282.731 313.758 281.847 313.287 280.257L307.269 259.965C306.797 258.375 307.632 256.682 309.133 256.182ZM310.408 222.334C308.867 222 307.874 220.405 308.19 218.773L312.225 197.938C312.541 196.306 314.047 195.254 315.588 195.589C317.129 195.924 318.122 197.518 317.806 199.151L313.771 219.985C313.455 221.617 311.95 222.669 310.408 222.334ZM312.342 857.721C313.913 857.637 315.252 858.917 315.332 860.581L316.355 881.837C316.435 883.501 315.226 884.919 313.655 885.004C312.083 885.089 310.745 883.808 310.665 882.144L309.642 860.888C309.562 859.224 310.77 857.806 312.342 857.721ZM357.061 572.187C356.839 570.538 357.921 569.009 359.478 568.774L379.368 565.763C380.926 565.527 382.369 566.673 382.591 568.323C382.814 569.972 381.732 571.5 380.175 571.736L360.285 574.747C358.727 574.983 357.284 573.837 357.061 572.187ZM357.238 507.094C357.58 505.468 359.103 504.444 360.638 504.806L380.255 509.443C381.791 509.806 382.758 511.419 382.415 513.045C382.073 514.671 380.55 515.695 379.014 515.332L359.397 510.696C357.862 510.333 356.895 508.72 357.238 507.094ZM357.289 807.939C357.658 806.32 359.197 805.324 360.727 805.715L380.258 810.713C381.788 811.104 382.728 812.734 382.358 814.354C381.989 815.974 380.45 816.97 378.92 816.578L359.389 811.581C357.859 811.189 356.919 809.559 357.289 807.939ZM357.47 92.4643C357.02 90.8676 357.878 89.187 359.385 88.7106L378.633 82.6287C380.141 82.1523 381.728 83.0604 382.177 84.6572C382.627 86.2539 381.77 87.9344 380.262 88.4108L361.014 94.4927C359.507 94.9691 357.92 94.061 357.47 92.4643ZM357.6 755.23C357.101 753.649 357.907 751.94 359.399 751.412L378.448 744.668C379.94 744.139 381.554 744.992 382.053 746.572C382.551 748.153 381.746 749.862 380.254 750.39L361.205 757.135C359.713 757.663 358.099 756.81 357.6 755.23ZM357.739 1116.98C357.192 1115.42 357.943 1113.68 359.418 1113.1L378.245 1105.69C379.72 1105.11 381.36 1105.91 381.908 1107.47C382.455 1109.03 381.704 1110.77 380.229 1111.35L361.402 1118.76C359.927 1119.34 358.287 1118.54 357.739 1116.98ZM357.797 1056.92C357.231 1055.36 357.963 1053.62 359.431 1053.02L378.173 1045.37C379.641 1044.77 381.29 1045.55 381.856 1047.1C382.421 1048.66 381.69 1050.4 380.221 1051L361.48 1058.65C360.011 1059.25 358.363 1058.47 357.797 1056.92ZM358.068 1227.05C358.714 1225.53 360.4 1224.86 361.835 1225.54L380.151 1234.27C381.585 1234.95 382.225 1236.74 381.579 1238.26C380.933 1239.78 379.247 1240.46 377.812 1239.77L359.496 1231.04C358.062 1230.36 357.422 1228.57 358.068 1227.05ZM358.068 22.7416C358.714 21.2222 360.4 20.5448 361.835 21.2287L380.151 29.9598C381.585 30.6437 382.225 32.4299 381.579 33.9493C380.933 35.4688 379.247 36.1461 377.812 35.4622L359.497 26.7311C358.062 26.0472 357.422 24.261 358.068 22.7416ZM358.273 636.567C357.574 635.075 358.15 633.264 359.559 632.524L377.557 623.07C378.966 622.33 380.675 622.94 381.374 624.433C382.074 625.926 381.498 627.736 380.088 628.476L362.091 637.93C360.681 638.67 358.972 638.06 358.273 636.567ZM358.33 443.64C359.043 442.154 360.757 441.562 362.16 442.316L380.072 451.951C381.475 452.705 382.035 454.521 381.322 456.007C380.61 457.492 378.895 458.085 377.493 457.331L359.58 447.696C358.178 446.942 357.618 445.126 358.33 443.64ZM358.666 1179.28C357.878 1177.84 358.343 1175.99 359.704 1175.16L377.088 1164.5C378.45 1163.67 380.193 1164.16 380.981 1165.6C381.769 1167.04 381.304 1168.89 379.943 1169.72L362.559 1180.38C361.197 1181.22 359.454 1180.72 358.666 1179.28ZM358.863 697.874C358.035 696.457 358.448 694.597 359.786 693.72L376.868 682.52C378.206 681.643 379.962 682.081 380.79 683.497C381.618 684.914 381.205 686.774 379.867 687.651L362.785 698.851C361.447 699.728 359.691 699.29 358.863 697.874ZM359.075 382.102C359.943 380.713 361.711 380.332 363.022 381.252L379.77 392.994C381.082 393.913 381.441 395.785 380.573 397.175C379.704 398.564 377.937 398.945 376.625 398.025L359.877 386.283C358.566 385.364 358.206 383.491 359.075 382.102ZM359.784 320.815C360.771 319.518 362.565 319.314 363.789 320.361L379.44 333.728C380.665 334.774 380.857 336.673 379.869 337.97C378.882 339.267 377.088 339.471 375.863 338.425L360.213 325.058C358.988 324.012 358.796 322.112 359.784 320.815ZM359.819 1000.41C358.827 999.118 359.012 997.218 360.232 996.167L375.826 982.739C377.047 981.688 378.841 981.883 379.834 983.176C380.826 984.469 380.641 986.369 379.42 987.421L363.827 1000.85C362.606 1001.9 360.812 1001.7 359.819 1000.41ZM362.102 258.271C363.362 257.273 365.147 257.545 366.09 258.88L378.126 275.92C379.068 277.255 378.811 279.145 377.551 280.143C376.291 281.141 374.506 280.869 373.563 279.535L361.527 262.494C360.585 261.16 360.842 259.269 362.102 258.271ZM363.138 859.66C364.483 858.796 366.235 859.25 367.051 860.675L377.467 878.86C378.283 880.285 377.854 882.14 376.509 883.005C375.164 883.869 373.412 883.415 372.596 881.99L362.18 863.805C361.364 862.38 361.793 860.524 363.138 859.66ZM363.7 160.795C362.316 160.004 361.799 158.173 362.546 156.707L372.087 137.98C372.835 136.513 374.563 135.966 375.947 136.757C377.332 137.549 377.849 139.379 377.101 140.845L367.56 159.572C366.813 161.039 365.085 161.586 363.7 160.795ZM366.435 944.756C364.917 944.318 364.022 942.66 364.435 941.052L369.715 920.518C370.128 918.91 371.694 917.962 373.212 918.4C374.73 918.838 375.625 920.496 375.212 922.104L369.933 942.637C369.519 944.245 367.953 945.193 366.435 944.756ZM367.594 195.513C369.144 195.224 370.621 196.321 370.893 197.962L374.371 218.917C374.644 220.558 373.608 222.122 372.059 222.411C370.509 222.699 369.032 221.603 368.76 219.962L365.282 199.007C365.01 197.366 366.045 195.801 367.594 195.513ZM413.759 690.677C413.763 689.011 415.042 687.664 416.616 687.669L436.71 687.729C438.283 687.734 439.555 689.088 439.551 690.755C439.546 692.421 438.267 693.768 436.694 693.763L416.599 693.703C415.026 693.698 413.754 692.344 413.759 690.677ZM413.766 1172.87C413.713 1171.21 414.944 1169.81 416.516 1169.76L436.6 1169.03C438.172 1168.98 439.49 1170.28 439.543 1171.95C439.597 1173.61 438.365 1175.01 436.793 1175.06L416.71 1175.79C415.137 1175.84 413.82 1174.54 413.766 1172.87ZM413.765 569.937C413.806 568.271 415.113 566.955 416.686 566.998L436.769 567.539C438.342 567.582 439.584 568.967 439.544 570.632C439.504 572.298 438.197 573.614 436.624 573.572L416.541 573.03C414.968 572.987 413.725 571.603 413.765 569.937ZM413.802 631.553C413.677 629.892 414.848 628.438 416.416 628.306L436.442 626.62C438.01 626.487 439.383 627.727 439.508 629.388C439.632 631.049 438.462 632.503 436.894 632.635L416.867 634.321C415.299 634.453 413.927 633.214 413.802 631.553ZM413.868 749.124C414.073 747.472 415.504 746.308 417.064 746.525L436.987 749.295C438.547 749.512 439.646 751.027 439.441 752.679C439.236 754.331 437.806 755.494 436.246 755.278L416.322 752.508C414.762 752.291 413.664 750.776 413.868 749.124ZM413.883 210.885C413.665 209.235 414.751 207.71 416.309 207.479L436.205 204.529C437.763 204.298 439.203 205.448 439.421 207.098C439.639 208.749 438.553 210.273 436.995 210.504L417.099 213.455C415.541 213.686 414.101 212.536 413.883 210.885ZM414.066 808.171C414.409 806.545 415.931 805.521 417.467 805.884L437.078 810.521C438.614 810.884 439.581 812.497 439.238 814.123C438.895 815.749 437.373 816.773 435.837 816.41L416.225 811.773C414.69 811.41 413.723 809.798 414.066 808.171ZM414.138 91.8454C413.76 90.2281 414.691 88.592 416.218 88.1911L435.716 83.0731C437.243 82.6723 438.788 83.6584 439.166 85.2757C439.545 86.893 438.613 88.5291 437.086 88.93L417.588 94.048C416.061 94.4488 414.517 93.4627 414.138 91.8454ZM414.255 1228.91C414.687 1227.3 416.263 1226.38 417.776 1226.83L437.092 1232.67C438.605 1233.13 439.481 1234.8 439.049 1236.4C438.617 1238.01 437.041 1238.93 435.528 1238.48L416.212 1232.64C414.699 1232.18 413.823 1230.51 414.255 1228.91ZM414.255 24.5967C414.687 22.9945 416.263 22.0666 417.776 22.524L437.092 28.3647C438.605 28.8221 439.481 30.4918 439.049 32.0941C438.617 33.6963 437.041 34.6244 435.528 34.1669L416.212 28.3262C414.699 27.8688 413.823 26.199 414.255 24.5967ZM414.298 867.459C414.748 865.863 416.335 864.954 417.842 865.43L437.096 871.512C438.603 871.989 439.461 873.669 439.011 875.266C438.562 876.863 436.975 877.771 435.467 877.295L416.214 871.213C414.706 870.737 413.849 869.056 414.298 867.459ZM414.415 264.917C414.909 263.336 416.52 262.478 418.014 263.001L437.086 269.685C438.579 270.208 439.389 271.915 438.895 273.497C438.401 275.079 436.789 275.937 435.296 275.413L416.224 268.73C414.73 268.206 413.92 266.499 414.415 264.917ZM414.678 505.007C415.261 503.459 416.918 502.705 418.38 503.323L437.042 511.212C438.503 511.829 439.215 513.585 438.632 515.132C438.049 516.68 436.391 517.434 434.93 516.816L416.268 508.927C414.806 508.309 414.095 506.554 414.678 505.007ZM414.684 153.84C414.1 152.292 414.812 150.537 416.273 149.919L434.924 142.03C436.385 141.412 438.042 142.166 438.626 143.713C439.209 145.261 438.498 147.016 437.037 147.634L418.386 155.522C416.925 156.14 415.267 155.387 414.684 153.84ZM415.019 925.673C415.696 924.169 417.396 923.531 418.816 924.248L436.945 933.401C438.365 934.118 438.967 935.918 438.29 937.423C437.613 938.927 435.913 939.565 434.493 938.848L416.365 929.695C414.945 928.978 414.342 927.177 415.019 925.673ZM417.296 320.031C418.378 318.821 420.181 318.77 421.323 319.917L435.9 334.549C437.042 335.695 437.09 337.605 436.008 338.814C434.925 340.024 433.122 340.075 431.98 338.928L417.404 324.296C416.262 323.15 416.214 321.24 417.296 320.031ZM417.514 440.23C418.623 439.048 420.427 439.043 421.543 440.217L435.784 455.211C436.9 456.386 436.905 458.296 435.796 459.478C434.686 460.66 432.883 460.665 431.767 459.491L417.526 444.497C416.41 443.322 416.405 441.412 417.514 440.23ZM417.887 981.784C419.04 980.65 420.842 980.722 421.912 981.943L435.574 997.539C436.644 998.761 436.576 1000.67 435.423 1001.8C434.27 1002.94 432.467 1002.86 431.397 1001.64L417.736 986.047C416.666 984.826 416.733 982.917 417.887 981.784ZM418.319 1122.63C417.118 1121.55 416.968 1119.65 417.984 1118.38L430.97 1102.12C431.986 1100.84 433.783 1100.69 434.984 1101.76C436.186 1102.84 436.336 1104.74 435.32 1106.01L422.334 1122.27C421.318 1123.54 419.521 1123.7 418.319 1122.63ZM419.127 378.547C420.405 377.575 422.185 377.883 423.103 379.236L434.833 396.518C435.751 397.871 435.46 399.756 434.182 400.729C432.905 401.701 431.125 401.393 430.206 400.04L418.477 382.758C417.559 381.405 417.85 379.52 419.127 378.547ZM425.188 1038.44C426.752 1038.25 428.164 1039.44 428.343 1041.1L430.627 1062.23C430.806 1063.89 429.684 1065.39 428.121 1065.57C426.558 1065.76 425.146 1064.58 424.967 1062.92L422.682 1041.78C422.503 1040.13 423.625 1038.63 425.188 1038.44ZM470.587 811.031C470.601 809.365 471.887 808.025 473.46 808.04L493.549 808.22C495.122 808.235 496.387 809.597 496.373 811.263C496.36 812.929 495.074 814.268 493.5 814.254L473.412 814.073C471.838 814.059 470.574 812.697 470.587 811.031ZM470.587 751.056C470.569 749.39 471.83 748.024 473.404 748.005L493.492 747.764C495.066 747.745 496.355 749.081 496.373 750.747C496.391 752.413 495.13 753.779 493.557 753.798L473.468 754.039C471.895 754.058 470.605 752.722 470.587 751.056ZM470.588 690.377C470.623 688.711 471.927 687.391 473.5 687.429L493.589 687.91C495.162 687.948 496.408 689.329 496.373 690.994C496.337 692.66 495.033 693.98 493.46 693.942L473.371 693.461C471.798 693.423 470.552 692.042 470.588 690.377ZM470.632 268.018C470.765 266.358 472.144 265.126 473.712 265.268L493.732 267.075C495.3 267.216 496.463 268.677 496.329 270.337C496.195 271.997 494.816 273.228 493.249 273.087L473.228 271.28C471.661 271.139 470.498 269.678 470.632 268.018ZM470.703 869.546C470.912 867.895 472.346 866.736 473.906 866.957L493.818 869.787C495.378 870.009 496.472 871.527 496.263 873.179C496.053 874.83 494.62 875.989 493.06 875.768L473.148 872.938C471.588 872.716 470.494 871.198 470.703 869.546ZM470.704 90.3854C470.491 88.7346 471.581 87.2129 473.14 86.9866L493.047 84.0966C494.606 83.8703 496.043 85.0251 496.256 86.676C496.47 88.3268 495.379 89.8486 493.821 90.0748L473.914 92.9648C472.355 93.1911 470.918 92.0363 470.704 90.3854ZM470.719 628.53C470.946 626.881 472.392 625.739 473.949 625.98L493.833 629.051C495.39 629.291 496.468 630.823 496.241 632.472C496.014 634.12 494.568 635.262 493.011 635.022L473.127 631.95C471.57 631.71 470.492 630.178 470.719 628.53ZM470.783 1174.8C470.512 1173.16 471.548 1171.59 473.098 1171.3L492.885 1167.63C494.435 1167.34 495.911 1168.44 496.183 1170.08C496.454 1171.72 495.418 1173.29 493.869 1173.58L474.081 1177.25C472.531 1177.54 471.055 1176.44 470.783 1174.8ZM471.468 213.909C470.898 212.356 471.625 210.607 473.091 210.004L491.811 202.296C493.277 201.692 494.928 202.461 495.498 204.014C496.068 205.567 495.342 207.316 493.875 207.92L475.156 215.628C473.689 216.231 472.039 215.462 471.468 213.909ZM471.755 564.604C472.409 563.089 474.099 562.422 475.53 563.115L493.8 571.967C495.231 572.66 495.86 574.45 495.206 575.966C494.551 577.481 492.861 578.147 491.43 577.454L473.16 568.603C471.729 567.91 471.1 566.119 471.755 564.604ZM471.835 925.675C472.512 924.17 474.212 923.531 475.632 924.247L493.783 933.4C495.204 934.117 495.807 935.917 495.131 937.421C494.454 938.926 492.754 939.565 491.334 938.848L473.183 929.696C471.762 928.979 471.159 927.179 471.835 925.675ZM472.018 155.006C471.297 153.525 471.846 151.705 473.244 150.942L491.111 141.187C492.51 140.423 494.228 141.005 494.949 142.486C495.669 143.967 495.12 145.787 493.722 146.55L475.855 156.305C474.457 157.068 472.739 156.487 472.018 155.006ZM472.719 1225.12C473.586 1223.73 475.354 1223.35 476.666 1224.27L493.436 1236.01C494.749 1236.93 495.109 1238.8 494.242 1240.19C493.374 1241.58 491.607 1241.96 490.294 1241.04L473.524 1229.3C472.212 1228.38 471.851 1226.51 472.719 1225.12ZM472.719 20.8105C473.587 19.4206 475.354 19.0387 476.666 19.9576L493.436 31.6994C494.749 32.6184 495.109 34.4901 494.242 35.8801C493.374 37.27 491.607 37.6519 490.294 36.733L473.524 24.9912C472.212 24.0722 471.851 22.2005 472.719 20.8105ZM473.353 320.961C474.328 319.653 476.119 319.429 477.354 320.461L493.135 333.648C494.371 334.68 494.582 336.577 493.607 337.885C492.633 339.193 490.842 339.417 489.606 338.385L473.825 325.198C472.59 324.166 472.379 322.269 473.353 320.961ZM474.855 1122.39C473.686 1121.27 473.59 1119.36 474.642 1118.13L488.087 1102.29C489.139 1101.05 490.941 1100.95 492.11 1102.06C493.28 1103.18 493.376 1105.08 492.324 1106.32L478.878 1122.16C477.827 1123.4 476.025 1123.5 474.855 1122.39ZM474.962 499.827C476.143 498.725 477.943 498.846 478.983 500.096L492.258 516.053C493.298 517.303 493.184 519.21 492.004 520.311C490.823 521.413 489.023 521.292 487.983 520.042L474.708 504.085C473.668 502.835 473.782 500.928 474.962 499.827ZM476.089 980.559C477.378 979.604 479.154 979.938 480.056 981.303L491.58 998.766C492.482 1000.13 492.167 1002.01 490.878 1002.97C489.588 1003.92 487.812 1003.59 486.911 1002.22L475.386 984.76C474.484 983.395 474.799 981.514 476.089 980.559ZM477.509 377.54C478.904 376.769 480.625 377.34 481.353 378.817L490.656 397.664C491.385 399.141 490.846 400.964 489.451 401.736C488.057 402.508 486.336 401.936 485.607 400.46L476.304 381.612C475.575 380.135 476.115 378.312 477.509 377.54ZM478.18 437.379C479.615 436.694 481.302 437.37 481.948 438.889L490.206 458.278C490.852 459.797 490.214 461.583 488.78 462.268C487.346 462.954 485.659 462.278 485.012 460.759L476.755 441.37C476.108 439.851 476.746 438.064 478.18 437.379ZM483.009 1065.65C481.437 1065.59 480.209 1064.19 480.267 1062.53L481.006 1041.27C481.064 1039.6 482.385 1038.3 483.957 1038.37C485.53 1038.43 486.757 1039.83 486.699 1041.49L485.961 1062.75C485.903 1064.41 484.581 1065.71 483.009 1065.65ZM527.431 691.381C527.35 689.717 528.559 688.299 530.131 688.215L550.197 687.131C551.768 687.046 553.106 688.327 553.187 689.991C553.267 691.655 552.058 693.073 550.487 693.157L530.421 694.241C528.849 694.326 527.511 693.045 527.431 691.381ZM527.467 149.983C527.324 148.324 528.479 146.856 530.046 146.705L550.055 144.778C551.622 144.627 553.008 145.85 553.15 147.509C553.293 149.169 552.138 150.636 550.571 150.787L530.562 152.714C528.995 152.865 527.61 151.643 527.467 149.983ZM527.496 872.878C527.318 871.222 528.441 869.727 530.004 869.539L549.968 867.13C551.531 866.942 552.943 868.131 553.121 869.786C553.299 871.442 552.176 872.937 550.613 873.125L530.649 875.534C529.086 875.723 527.674 874.533 527.496 872.878ZM527.561 211.04C527.325 209.393 528.395 207.855 529.95 207.605L549.812 204.413C551.368 204.163 552.82 205.296 553.056 206.944C553.292 208.591 552.222 210.129 550.667 210.379L530.805 213.571C529.25 213.821 527.797 212.688 527.561 211.04ZM527.802 265.853C528.185 264.237 529.733 263.256 531.259 263.661L550.745 268.84C552.271 269.245 553.198 270.884 552.815 272.5C552.432 274.116 550.885 275.098 549.359 274.692L529.872 269.514C528.346 269.108 527.42 267.469 527.802 265.853ZM527.898 1176.12C527.47 1174.52 528.351 1172.85 529.865 1172.4L549.204 1166.62C550.718 1166.16 552.292 1167.1 552.719 1168.7C553.147 1170.3 552.266 1171.97 550.752 1172.42L531.413 1178.2C529.899 1178.66 528.325 1177.72 527.898 1176.12ZM527.933 754.758C527.492 753.158 528.359 751.483 529.869 751.016L549.151 745.055C550.661 744.588 552.243 745.506 552.684 747.105C553.125 748.705 552.258 750.38 550.748 750.847L531.466 756.808C529.956 757.275 528.374 756.357 527.933 754.758ZM528.099 815.514C527.596 813.936 528.396 812.224 529.887 811.691L548.913 804.886C550.404 804.353 552.02 805.201 552.523 806.779C553.027 808.358 552.226 810.07 550.736 810.603L531.71 817.407C530.219 817.941 528.603 817.093 528.099 815.514ZM528.176 625.834C528.71 624.266 530.342 623.454 531.822 624.02L550.729 631.245C552.209 631.811 552.976 633.54 552.442 635.107C551.908 636.674 550.275 637.487 548.795 636.921L529.888 629.696C528.408 629.13 527.642 627.401 528.176 625.834ZM528.299 926.593C528.873 925.042 530.526 924.277 531.991 924.885L550.71 932.653C552.175 933.261 552.897 935.011 552.323 936.563C551.749 938.114 550.097 938.879 548.632 938.271L529.913 930.503C528.448 929.895 527.725 928.145 528.299 926.593ZM528.676 82.6558C529.353 81.1517 531.053 80.5137 532.473 81.2308L550.602 90.3839C552.022 91.1009 552.624 92.9015 551.947 94.4056C551.27 95.9097 549.57 96.5477 548.15 95.8307L530.022 86.6776C528.601 85.9605 527.999 84.1599 528.676 82.6558ZM530.903 1121.54C529.827 1120.33 529.884 1118.42 531.031 1117.28L545.693 1102.71C546.84 1101.57 548.643 1101.63 549.72 1102.84C550.796 1104.06 550.739 1105.97 549.592 1107.11L534.93 1121.68C533.783 1122.82 531.98 1122.76 530.903 1121.54ZM532.1 559.738C533.314 558.678 535.11 558.861 536.11 560.146L548.908 576.585C549.909 577.871 549.737 579.772 548.523 580.832C547.309 581.892 545.513 581.709 544.512 580.424L531.715 563.985C530.714 562.7 530.886 560.798 532.1 559.738ZM532.259 318.726C533.488 317.686 535.281 317.898 536.263 319.199L548.805 335.819C549.787 337.12 549.587 339.019 548.358 340.059C547.129 341.1 545.337 340.888 544.354 339.586L531.812 322.967C530.83 321.665 531.03 319.767 532.259 318.726ZM533.836 979.941C535.196 979.104 536.94 979.595 537.729 981.036L547.822 999.463C548.611 1000.9 548.148 1002.75 546.787 1003.59C545.426 1004.42 543.683 1003.93 542.894 1002.49L532.801 984.064C532.011 982.623 532.475 980.777 533.836 979.941ZM537.182 1219.4C538.709 1219 540.255 1219.98 540.637 1221.6L545.513 1242.25C545.894 1243.87 544.966 1245.51 543.44 1245.91C541.914 1246.31 540.367 1245.33 539.986 1243.71L535.11 1223.06C534.728 1221.44 535.656 1219.81 537.182 1219.4ZM537.183 15.0908C538.709 14.6866 540.256 15.6693 540.637 17.2858L545.513 37.9404C545.895 39.5569 544.967 41.195 543.44 41.5991C541.914 42.0033 540.367 41.0204 539.986 39.4039L535.11 18.7495C534.728 17.133 535.656 15.4949 537.183 15.0908ZM537.861 1065.42C536.317 1065.1 535.306 1063.52 535.605 1061.88L539.418 1040.99C539.717 1039.35 541.211 1038.28 542.756 1038.6C544.3 1038.92 545.311 1040.5 545.012 1042.13L541.199 1063.03C540.9 1064.66 539.406 1065.73 537.861 1065.42ZM538.313 496.581C539.867 496.323 541.325 497.448 541.568 499.094L544.683 520.109C544.927 521.755 543.864 523.299 542.31 523.558C540.756 523.816 539.298 522.691 539.054 521.045L535.94 500.03C535.696 498.383 536.758 496.84 538.313 496.581ZM538.971 376.01C540.535 375.837 541.936 377.04 542.099 378.698L544.185 399.894C544.348 401.551 543.211 403.034 541.647 403.207C540.082 403.38 538.681 402.176 538.518 400.519L536.433 379.323C536.27 377.666 537.406 376.182 538.971 376.01ZM539.057 463.424C537.491 463.262 536.346 461.787 536.499 460.128L538.454 438.932C538.607 437.274 540 436.061 541.566 436.223C543.132 436.385 544.277 437.861 544.124 439.519L542.169 460.715C542.016 462.373 540.623 463.586 539.057 463.424ZM584.252 691.226C584.189 689.562 585.413 688.158 586.985 688.092L607.063 687.249C608.635 687.183 609.96 688.479 610.022 690.144C610.084 691.809 608.861 693.213 607.288 693.279L587.211 694.122C585.639 694.188 584.314 692.891 584.252 691.226ZM584.702 1176.03C584.288 1174.43 585.183 1172.77 586.7 1172.33L606.079 1166.73C607.597 1166.29 609.163 1167.24 609.577 1168.85C609.991 1170.45 609.097 1172.11 607.579 1172.55L588.2 1178.15C586.683 1178.59 585.116 1177.64 584.702 1176.03ZM584.748 875.119C584.311 873.519 585.183 871.846 586.695 871.384L605.999 865.483C607.511 865.021 609.09 865.945 609.526 867.545C609.962 869.146 609.091 870.819 607.579 871.281L588.275 877.182C586.763 877.644 585.184 876.72 584.748 875.119ZM584.95 927.133C585.462 925.558 587.083 924.72 588.571 925.263L607.563 932.188C609.051 932.73 609.841 934.447 609.329 936.023C608.817 937.598 607.196 938.436 605.708 937.893L586.716 930.968C585.229 930.426 584.438 928.709 584.95 927.133ZM585.387 203.388C586.033 201.868 587.72 201.191 589.154 201.875L607.464 210.606C608.899 211.291 609.538 213.077 608.892 214.596C608.247 216.115 606.56 216.793 605.125 216.108L586.815 207.377C585.381 206.693 584.741 204.907 585.387 203.388ZM585.622 757.076C584.915 755.588 585.48 753.773 586.885 753.024L604.831 743.45C606.236 742.7 607.949 743.299 608.657 744.787C609.365 746.275 608.799 748.089 607.394 748.839L589.448 758.413C588.043 759.162 586.33 758.564 585.622 757.076ZM586.205 818.374C585.372 816.961 585.778 815.1 587.113 814.218L604.144 802.957C605.479 802.075 607.236 802.506 608.069 803.919C608.902 805.333 608.496 807.194 607.161 808.076L590.13 819.336C588.795 820.219 587.038 819.788 586.205 818.374ZM586.325 1119.68C585.466 1118.29 585.839 1116.42 587.157 1115.51L604.007 1103.89C605.325 1102.98 607.09 1103.37 607.949 1104.77C608.807 1106.16 608.435 1108.03 607.116 1108.94L590.267 1120.56C588.948 1121.47 587.184 1121.08 586.325 1119.68ZM586.716 622.432C587.642 621.085 589.424 620.788 590.696 621.769L606.937 634.293C608.209 635.274 608.49 637.161 607.563 638.508C606.637 639.855 604.856 640.152 603.584 639.171L587.342 626.647C586.07 625.666 585.79 623.779 586.716 622.432ZM586.865 140.477C587.817 139.151 589.604 138.893 590.856 139.901L606.865 152.787C608.118 153.795 608.361 155.688 607.409 157.014C606.457 158.341 604.67 158.599 603.417 157.591L587.409 144.705C586.156 143.697 585.913 141.804 586.865 140.477ZM587.518 260.125C588.564 258.881 590.365 258.771 591.54 259.88L606.531 274.03C607.705 275.139 607.809 277.046 606.762 278.29C605.715 279.534 603.915 279.643 602.74 278.535L587.749 264.384C586.574 263.276 586.471 261.369 587.518 260.125ZM588.396 1242.67C587.239 1241.54 587.165 1239.63 588.231 1238.41L601.853 1222.75C602.919 1221.53 604.721 1221.45 605.878 1222.58C607.035 1223.71 607.109 1225.62 606.043 1226.84L592.421 1242.5C591.355 1243.72 589.553 1243.8 588.396 1242.67ZM588.396 38.3614C587.239 37.2323 587.165 35.3235 588.231 34.0982L601.853 18.4422C602.919 17.2168 604.721 17.1389 605.878 18.268C607.035 19.3971 607.109 21.3059 606.043 22.5312L592.421 38.1872C591.355 39.4126 589.553 39.4906 588.396 38.3614ZM588.613 460.096C587.433 458.994 587.319 457.087 588.36 455.837L601.64 439.88C602.681 438.63 604.481 438.51 605.661 439.612C606.841 440.713 606.955 442.62 605.914 443.87L592.634 459.827C591.593 461.077 589.793 461.197 588.613 460.096ZM591.21 522.172C589.813 521.406 589.266 519.586 589.99 518.106L599.23 499.198C599.953 497.719 601.672 497.14 603.069 497.906C604.467 498.672 605.013 500.492 604.29 501.972L595.049 520.88C594.326 522.36 592.607 522.938 591.21 522.172ZM591.576 401.965C590.156 401.247 589.555 399.445 590.234 397.942L598.9 378.733C599.578 377.23 601.279 376.594 602.698 377.312C604.118 378.03 604.719 379.832 604.04 381.335L595.374 400.543C594.696 402.047 592.995 402.683 591.576 401.965ZM591.948 979.246C593.388 978.576 595.069 979.269 595.702 980.795L603.794 1000.3C604.427 1001.83 603.772 1003.61 602.332 1004.28C600.891 1004.95 599.211 1004.26 598.578 1002.73L590.485 983.222C589.853 981.696 590.507 979.916 591.948 979.246ZM592.137 1064.58C590.687 1063.93 590.005 1062.16 590.615 1060.62L598.412 1040.99C599.022 1039.46 600.693 1038.74 602.143 1039.38C603.593 1040.03 604.274 1041.8 603.664 1043.33L595.867 1062.96C595.257 1064.5 593.587 1065.22 592.137 1064.58ZM594.239 75.2339C595.772 74.8599 597.301 75.873 597.654 77.4967L602.172 98.2708C602.525 99.8946 601.569 101.514 600.035 101.888C598.502 102.262 596.973 101.249 596.62 99.6252L592.102 78.851C591.749 77.2273 592.705 75.6079 594.239 75.2339ZM594.675 316.014C596.22 315.696 597.715 316.764 598.015 318.4L601.851 339.294C602.152 340.93 601.143 342.514 599.599 342.832C598.054 343.15 596.559 342.082 596.259 340.446L592.423 319.552C592.122 317.916 593.131 316.332 594.675 316.014ZM594.953 556.804C596.504 556.522 597.976 557.625 598.242 559.267L601.647 580.282C601.913 581.925 600.871 583.484 599.321 583.766C597.77 584.048 596.297 582.945 596.031 581.303L592.627 560.288C592.361 558.645 593.403 557.086 594.953 556.804ZM641.181 1174.18C640.98 1172.53 642.083 1171.01 643.643 1170.8L663.567 1168.09C665.128 1167.88 666.555 1169.05 666.756 1170.7C666.956 1172.35 665.853 1173.87 664.293 1174.08L644.369 1176.79C642.808 1177 641.381 1175.83 641.181 1174.18ZM641.196 451.748C640.978 450.098 642.064 448.572 643.622 448.341L663.518 445.391C665.076 445.16 666.516 446.31 666.734 447.96C666.952 449.61 665.866 451.135 664.308 451.366L644.413 454.317C642.854 454.548 641.414 453.398 641.196 451.748ZM641.225 1230.54C641.465 1228.89 642.921 1227.76 644.475 1228.02L664.331 1231.27C665.886 1231.52 666.952 1233.07 666.711 1234.71C666.471 1236.36 665.015 1237.49 663.461 1237.23L643.605 1233.98C642.05 1233.73 640.984 1232.19 641.225 1230.54ZM641.225 26.228C641.465 24.5814 642.921 23.4528 644.476 23.7075L664.332 26.9595C665.886 27.2141 666.952 28.7555 666.711 30.4022C666.471 32.0488 665.016 33.1774 663.461 32.9227L643.605 29.6706C642.05 29.416 640.985 27.8747 641.225 26.228ZM641.428 874.502C641.063 872.881 642.008 871.254 643.538 870.867L663.076 865.929C664.606 865.542 666.143 866.542 666.508 868.163C666.873 869.784 665.929 871.411 664.398 871.798L644.861 876.736C643.33 877.123 641.794 876.123 641.428 874.502ZM641.598 1116.06C641.152 1114.46 642.015 1112.78 643.524 1112.31L662.8 1106.29C664.309 1105.82 665.893 1106.73 666.338 1108.33C666.783 1109.93 665.921 1111.61 664.412 1112.08L645.136 1118.1C643.627 1118.57 642.043 1117.66 641.598 1116.06ZM641.612 686.813C642.061 685.216 643.648 684.308 645.156 684.784L664.409 690.866C665.917 691.342 666.774 693.022 666.325 694.619C665.875 696.216 664.288 697.124 662.781 696.648L643.527 690.566C642.02 690.09 641.162 688.41 641.612 686.813ZM641.677 755.066C641.201 753.478 642.031 751.781 643.53 751.277L662.681 744.834C664.181 744.33 665.782 745.208 666.259 746.797C666.735 748.385 665.905 750.081 664.406 750.585L645.255 757.028C643.755 757.532 642.154 756.654 641.677 755.066ZM641.927 514.977C641.362 513.422 642.094 511.676 643.562 511.078L662.321 503.43C663.79 502.832 665.438 503.607 666.003 505.162C666.568 506.717 665.836 508.463 664.368 509.062L645.609 516.709C644.141 517.308 642.492 516.532 641.927 514.977ZM642.372 925.588C643.062 924.091 644.767 923.469 646.181 924.2L664.247 933.534C665.661 934.264 666.248 936.07 665.558 937.568C664.868 939.066 663.163 939.687 661.749 938.957L643.683 929.623C642.269 928.892 641.682 927.086 642.372 925.588ZM642.409 395.705C641.71 394.212 642.286 392.402 643.696 391.662L661.705 382.208C663.114 381.468 664.823 382.079 665.522 383.572C666.221 385.065 665.644 386.875 664.235 387.615L646.226 397.068C644.816 397.808 643.107 397.198 642.409 395.705ZM642.629 817.676C641.877 816.213 642.388 814.381 643.77 813.585L661.438 803.409C662.82 802.613 664.55 803.154 665.302 804.618C666.053 806.082 665.542 807.914 664.16 808.71L646.492 818.886C645.11 819.682 643.38 819.14 642.629 817.676ZM645.187 98.5683C644.034 97.434 643.968 95.525 645.039 94.3044L658.723 78.7088C659.794 77.4882 661.597 77.4182 662.749 78.5525C663.902 79.6868 663.968 81.5958 662.897 82.8164L649.213 98.412C648.142 99.6326 646.339 99.7026 645.187 98.5683ZM645.522 1062.33C644.333 1061.24 644.204 1059.33 645.234 1058.07L658.39 1041.99C659.421 1040.73 661.22 1040.6 662.409 1041.69C663.598 1042.78 663.726 1044.69 662.696 1045.95L649.54 1062.02C648.51 1063.28 646.711 1063.42 645.522 1062.33ZM647.737 582.229C646.36 581.423 645.861 579.587 646.622 578.129L656.328 559.523C657.089 558.064 658.822 557.535 660.199 558.341C661.576 559.147 662.076 560.982 661.315 562.441L651.608 581.047C650.848 582.505 649.114 583.034 647.737 582.229ZM648.309 341.679C646.895 340.948 646.308 339.142 646.998 337.644L655.818 318.496C656.508 316.998 658.213 316.377 659.627 317.107C661.041 317.838 661.628 319.644 660.938 321.142L652.119 340.29C651.429 341.787 649.723 342.409 648.309 341.679ZM648.826 617.949C650.269 617.284 651.947 617.985 652.574 619.513L660.581 639.023C661.208 640.551 660.547 642.328 659.104 642.992C657.661 643.657 655.983 642.956 655.356 641.428L647.349 621.918C646.722 620.39 647.383 618.613 648.826 617.949ZM649.263 196.277C650.728 195.669 652.381 196.434 652.955 197.985L660.286 217.797C660.86 219.348 660.138 221.099 658.673 221.707C657.208 222.315 655.555 221.55 654.981 219.998L647.65 200.187C647.076 198.636 647.798 196.885 649.263 196.277ZM651.679 978.317C653.227 978.021 654.708 979.111 654.987 980.751L658.55 1001.71C658.829 1003.35 657.8 1004.91 656.252 1005.21C654.703 1005.51 653.222 1004.42 652.943 1002.78L649.38 981.821C649.101 980.181 650.13 978.612 651.679 978.317ZM651.912 255.721C653.465 255.456 654.927 256.575 655.178 258.22L658.377 279.235C658.628 280.88 657.572 282.428 656.019 282.693C654.465 282.959 653.003 281.84 652.753 280.195L649.553 259.18C649.303 257.535 650.359 255.987 651.912 255.721ZM653.546 135.133C655.118 135.078 656.434 136.385 656.486 138.05L657.139 159.306C657.191 160.972 655.957 162.366 654.385 162.42C652.812 162.474 651.496 161.168 651.445 159.503L650.791 138.246C650.74 136.581 651.973 135.187 653.546 135.133ZM697.901 88.8308C697.87 87.1648 699.12 85.7877 700.693 85.7546L720.782 85.3332C722.355 85.3003 723.655 86.6242 723.686 88.29C723.717 89.956 722.467 91.3331 720.895 91.3662L700.806 91.7876C699.233 91.8205 697.932 90.4967 697.901 88.8308ZM697.951 812.277C697.817 810.616 698.979 809.156 700.547 809.014L720.562 807.207C722.13 807.066 723.509 808.297 723.642 809.957C723.776 811.618 722.613 813.078 721.046 813.22L701.031 815.027C699.463 815.168 698.084 813.937 697.951 812.277ZM697.959 870.018C698.11 868.36 699.503 867.145 701.069 867.306L721.067 869.353C722.633 869.513 723.779 870.987 723.628 872.646C723.477 874.304 722.085 875.519 720.519 875.359L700.52 873.312C698.954 873.151 697.808 871.677 697.959 870.018ZM697.973 1110.79C698.138 1109.14 699.54 1107.94 701.104 1108.11L721.085 1110.34C722.65 1110.51 723.785 1112 723.62 1113.65C723.455 1115.31 722.053 1116.51 720.489 1116.34L700.508 1114.11C698.943 1113.94 697.808 1112.45 697.973 1110.79ZM697.995 1170.78C698.187 1169.12 699.608 1167.95 701.17 1168.15L721.111 1170.74C722.672 1170.94 723.783 1172.45 723.592 1174.1C723.4 1175.76 721.979 1176.93 720.417 1176.73L700.476 1174.14C698.915 1173.94 697.804 1172.43 697.995 1170.78ZM698.105 572.72C697.825 571.08 698.852 569.51 700.4 569.213L720.171 565.419C721.719 565.122 723.201 566.21 723.482 567.85C723.762 569.49 722.735 571.059 721.187 571.357L701.416 575.15C699.868 575.447 698.386 574.359 698.105 572.72ZM698.316 386.199C698.712 384.586 700.268 383.619 701.791 384.039L721.237 389.398C722.76 389.818 723.673 391.465 723.277 393.078C722.881 394.69 721.325 395.657 719.802 395.238L700.356 389.878C698.833 389.459 697.92 387.811 698.316 386.199ZM698.345 747.345C698.755 745.737 700.318 744.784 701.837 745.218L721.239 750.758C722.758 751.192 723.657 752.848 723.248 754.456C722.838 756.065 721.274 757.018 719.755 756.584L700.354 751.044C698.835 750.61 697.936 748.954 698.345 747.345ZM699.047 1057.62C698.397 1056.1 699.032 1054.31 700.465 1053.63L718.775 1044.84C720.208 1044.15 721.896 1044.82 722.546 1046.34C723.195 1047.86 722.561 1049.64 721.128 1050.33L702.818 1059.12C701.385 1059.81 699.696 1059.14 699.047 1057.62ZM699.044 335.027C698.398 333.508 699.037 331.721 700.472 331.037L718.782 322.306C720.217 321.622 721.903 322.299 722.549 323.819C723.195 325.338 722.556 327.124 721.121 327.808L702.811 336.539C701.376 337.224 699.69 336.546 699.044 335.027ZM699.337 503.778C700.059 502.297 701.777 501.716 703.175 502.48L721.025 512.235C722.423 512.999 722.972 514.819 722.25 516.3C721.529 517.781 719.81 518.362 718.412 517.598L700.562 507.843C699.164 507.079 698.616 505.259 699.337 503.778ZM700.389 441.778C701.319 440.434 703.102 440.143 704.371 441.128L720.589 453.712C721.859 454.697 722.134 456.585 721.204 457.929C720.274 459.273 718.491 459.565 717.222 458.58L701.004 445.995C699.734 445.01 699.459 443.122 700.389 441.778ZM701.795 921.801C702.921 920.637 704.725 920.662 705.823 921.855L719.849 937.089C720.947 938.282 720.924 940.192 719.798 941.356C718.671 942.519 716.868 942.495 715.769 941.302L701.744 926.067C700.646 924.874 700.669 922.964 701.795 921.801ZM701.796 158.554C700.669 157.391 700.646 155.481 701.744 154.288L715.763 139.053C716.862 137.86 718.665 137.835 719.792 138.998C720.918 140.161 720.942 142.071 719.844 143.265L705.824 158.499C704.726 159.693 702.922 159.717 701.796 158.554ZM702.48 1222.19C703.683 1221.12 705.48 1221.28 706.495 1222.55L719.452 1238.81C720.466 1240.08 720.314 1241.99 719.112 1243.06C717.91 1244.13 716.113 1243.97 715.098 1242.7L702.141 1226.44C701.126 1225.17 701.278 1223.27 702.48 1222.19ZM702.481 17.8806C703.683 16.8059 705.48 16.9668 706.495 18.2401L719.452 34.4979C720.467 35.7713 720.315 37.6749 719.112 38.7496C717.91 39.8243 716.113 39.6633 715.098 38.39L702.141 22.1322C701.126 20.8588 701.278 18.9554 702.481 17.8806ZM704.029 280.839C702.689 279.965 702.272 278.106 703.097 276.688L713.639 258.563C714.464 257.144 716.219 256.702 717.559 257.576C718.898 258.45 719.315 260.309 718.49 261.727L707.948 279.852C707.123 281.271 705.368 281.713 704.029 280.839ZM704.146 679.008C705.494 678.149 707.244 678.611 708.055 680.039L718.415 698.284C719.225 699.712 718.79 701.566 717.441 702.424C716.093 703.283 714.343 702.822 713.532 701.394L703.172 683.148C702.362 681.72 702.797 679.867 704.146 679.008ZM705.253 642.829C703.832 642.112 703.229 640.312 703.906 638.807L712.544 619.599C713.22 618.095 714.92 617.456 716.34 618.173C717.761 618.889 718.364 620.689 717.687 622.194L709.049 641.402C708.373 642.906 706.673 643.545 705.253 642.829ZM705.931 221.631C704.474 221.002 703.774 219.242 704.368 217.699L711.943 198.008C712.537 196.465 714.199 195.724 715.656 196.353C717.113 196.981 717.813 198.742 717.219 200.285L709.644 219.976C709.051 221.519 707.388 222.26 705.931 221.631ZM707.953 1005.12C706.418 1004.76 705.455 1003.14 705.801 1001.52L710.228 980.743C710.575 979.117 712.1 978.097 713.634 978.464C715.169 978.831 716.132 980.446 715.786 982.071L711.359 1002.85C711.013 1004.47 709.488 1005.49 707.953 1005.12ZM754.765 1050.97C754.886 1049.3 756.255 1048.06 757.823 1048.19L777.861 1049.81C779.43 1049.94 780.604 1051.39 780.484 1053.05C780.364 1054.71 778.995 1055.96 777.426 1055.83L757.388 1054.2C755.819 1054.08 754.645 1052.63 754.765 1050.97ZM754.801 327.993C754.966 326.336 756.368 325.134 757.933 325.308L777.913 327.536C779.478 327.71 780.613 329.195 780.448 330.852C780.284 332.509 778.882 333.711 777.317 333.537L757.336 331.309C755.772 331.135 754.637 329.65 754.801 327.993ZM754.81 632.016C754.631 630.36 755.754 628.866 757.318 628.677L777.281 626.268C778.844 626.079 780.256 627.268 780.434 628.924C780.612 630.58 779.489 632.075 777.926 632.263L757.962 634.672C756.399 634.861 754.988 633.672 754.81 632.016ZM755.145 152.216C754.748 150.603 755.661 148.956 757.184 148.536L776.625 143.177C778.147 142.757 779.703 143.724 780.099 145.337C780.496 146.949 779.583 148.597 778.06 149.016L758.619 154.375C757.097 154.795 755.541 153.828 755.145 152.216ZM755.875 1166.77C756.525 1165.25 758.213 1164.58 759.646 1165.27L777.951 1174.06C779.383 1174.75 780.018 1176.53 779.368 1178.05C778.719 1179.57 777.03 1180.24 775.598 1179.55L757.293 1170.76C755.86 1170.07 755.226 1168.29 755.875 1166.77ZM755.999 82.6479C756.68 81.146 758.382 80.5131 759.8 81.2346L777.911 90.4478C779.329 91.1691 779.927 92.9717 779.245 94.4736C778.564 95.9756 776.862 96.6084 775.444 95.887L757.333 86.6737C755.915 85.9523 755.317 84.1499 755.999 82.6479ZM756.248 275.66C755.506 274.191 756.028 272.362 757.414 271.576L775.139 261.519C776.526 260.733 778.253 261.285 778.996 262.754C779.738 264.223 779.216 266.052 777.829 266.838L760.105 276.895C758.718 277.681 756.991 277.129 756.248 275.66ZM756.524 1105.24C757.325 1103.8 759.072 1103.33 760.426 1104.18L777.725 1115.02C779.079 1115.87 779.527 1117.72 778.726 1119.15C777.925 1120.58 776.178 1121.06 774.824 1120.21L757.525 1109.37C756.171 1108.52 755.723 1106.67 756.524 1105.24ZM757.16 803.149C758.081 801.798 759.861 801.493 761.137 802.468L777.446 814.932C778.722 815.907 779.01 817.793 778.09 819.144C777.169 820.496 775.388 820.801 774.113 819.826L757.803 807.361C756.527 806.386 756.239 804.5 757.16 803.149ZM757.253 217.077C756.318 215.736 756.586 213.847 757.851 212.857L774.013 200.212C775.278 199.222 777.062 199.506 777.997 200.846C778.932 202.186 778.664 204.075 777.398 205.065L761.237 217.711C759.971 218.701 758.187 218.417 757.253 217.077ZM757.7 862.6C758.705 861.318 760.501 861.143 761.711 862.208L777.174 875.817C778.384 876.882 778.55 878.784 777.544 880.065C776.539 881.347 774.743 881.522 773.533 880.457L758.07 866.848C756.86 865.783 756.694 863.881 757.7 862.6ZM758.404 560.739C759.504 559.548 761.308 559.526 762.433 560.691L776.799 575.564C777.924 576.729 777.945 578.639 776.845 579.83C775.745 581.022 773.942 581.044 772.817 579.879L758.45 565.006C757.325 563.841 757.305 561.931 758.404 560.739ZM758.837 1001.8C757.685 1000.67 757.619 998.756 758.691 997.536L772.387 981.941C773.458 980.721 775.261 980.651 776.413 981.786C777.565 982.921 777.63 984.83 776.559 986.05L762.863 1001.65C761.791 1002.87 759.989 1002.94 758.837 1001.8ZM758.991 379.477C760.16 378.363 761.961 378.463 763.014 379.702L776.471 395.538C777.523 396.777 777.428 398.684 776.259 399.799C775.089 400.914 773.288 400.813 772.236 399.575L758.779 383.738C757.726 382.5 757.821 380.592 758.991 379.477ZM762.126 738.538C763.549 737.828 765.247 738.474 765.917 739.981L774.487 759.25C775.157 760.757 774.547 762.555 773.123 763.265C771.7 763.975 770.003 763.329 769.332 761.821L760.763 742.553C760.092 741.045 760.703 739.248 762.126 738.538ZM762.127 703.05C760.703 702.34 760.093 700.543 760.763 699.035L769.326 679.767C769.996 678.259 771.694 677.612 773.117 678.322C774.541 679.031 775.151 680.829 774.481 682.336L765.917 701.605C765.247 703.113 763.55 703.76 762.127 703.05ZM762.696 1220.02C764.15 1219.39 765.816 1220.12 766.416 1221.66L774.094 1241.35C774.694 1242.89 774.002 1244.65 772.548 1245.29C771.094 1245.93 769.428 1245.19 768.828 1243.65L761.15 1223.96C760.55 1222.42 761.242 1220.66 762.696 1220.02ZM762.696 15.7115C764.15 15.0755 765.816 15.8085 766.416 17.3486L774.094 37.0393C774.694 38.5794 774.002 40.3434 772.548 40.9794C771.094 41.6154 769.428 40.8825 768.828 39.3424L761.15 19.6517C760.55 18.1116 761.242 16.3475 762.696 15.7115ZM764.204 496.893C765.721 496.451 767.289 497.396 767.706 499.002L773.037 519.536C773.454 521.143 772.562 522.803 771.045 523.245C769.528 523.687 767.96 522.742 767.543 521.136L762.213 500.602C761.796 498.995 762.687 497.335 764.204 496.893ZM764.417 436.604C765.941 436.19 767.494 437.164 767.884 438.778L772.879 459.432C773.27 461.046 772.351 462.69 770.826 463.104C769.302 463.517 767.75 462.544 767.36 460.93L762.365 440.275C761.974 438.661 762.893 437.017 764.417 436.604ZM764.73 918.251C766.263 917.877 767.792 918.891 768.145 920.515L772.657 941.289C773.01 942.913 772.053 944.532 770.519 944.905C768.986 945.279 767.457 944.265 767.105 942.641L762.592 921.868C762.24 920.244 763.197 918.625 764.73 918.251ZM811.564 149.21C811.511 147.545 812.742 146.149 814.315 146.092L834.398 145.37C835.97 145.313 837.288 146.617 837.342 148.282C837.395 149.948 836.164 151.343 834.591 151.4L814.508 152.123C812.936 152.179 811.618 150.875 811.564 149.21ZM811.732 692.927C811.474 691.283 812.523 689.729 814.075 689.456L833.896 685.963C835.448 685.69 836.916 686.801 837.174 688.445C837.432 690.088 836.383 691.642 834.831 691.916L815.01 695.408C813.458 695.681 811.99 694.571 811.732 692.927ZM811.996 995.319C811.587 993.71 812.486 992.054 814.005 991.62L833.412 986.08C834.931 985.646 836.495 986.599 836.904 988.208C837.314 989.817 836.414 991.473 834.895 991.906L815.488 997.446C813.969 997.88 812.406 996.927 811.996 995.319ZM812.045 325.683C812.473 324.079 814.046 323.146 815.561 323.599L834.894 329.38C836.408 329.832 837.289 331.499 836.861 333.103C836.434 334.707 834.86 335.639 833.346 335.187L814.013 329.406C812.498 328.953 811.618 327.286 812.045 325.683ZM812.14 273.266C811.673 271.674 812.512 269.983 814.014 269.488L833.199 263.165C834.701 262.67 836.298 263.558 836.766 265.149C837.233 266.74 836.394 268.432 834.892 268.927L815.707 275.25C814.205 275.745 812.608 274.857 812.14 273.266ZM812.608 214.372C811.985 212.842 812.651 211.066 814.096 210.406L832.548 201.976C833.992 201.316 835.669 202.021 836.292 203.551C836.915 205.081 836.249 206.856 834.805 207.516L816.353 215.947C814.908 216.607 813.232 215.902 812.608 214.372ZM813.446 1044.87C814.265 1043.45 816.018 1043 817.361 1043.86L834.506 1054.94C835.85 1055.81 836.274 1057.67 835.454 1059.09C834.635 1060.51 832.882 1060.96 831.539 1060.09L814.394 1049.01C813.051 1048.15 812.626 1046.29 813.446 1044.87ZM813.584 81.1874C814.43 79.7825 816.191 79.3702 817.518 80.2664L834.452 91.7073C835.779 92.6034 836.168 94.4687 835.322 95.8734C834.476 97.2783 832.715 97.6906 831.388 96.7944L814.454 85.3535C813.127 84.4574 812.738 82.5921 813.584 81.1874ZM814.557 1163.67C815.567 1162.39 817.364 1162.22 818.57 1163.29L833.988 1176.96C835.194 1178.03 835.353 1179.93 834.343 1181.21C833.333 1182.49 831.537 1182.66 830.33 1181.59L814.913 1167.92C813.706 1166.85 813.547 1164.95 814.557 1163.67ZM815.409 620.732C816.531 619.564 818.335 619.58 819.438 620.768L833.525 635.943C834.629 637.131 834.613 639.041 833.491 640.209C832.369 641.377 830.566 641.361 829.463 640.173L815.375 624.998C814.272 623.81 814.287 621.9 815.409 620.732ZM816.577 1101.37C817.823 1100.36 819.611 1100.6 820.572 1101.92L832.841 1118.78C833.802 1120.1 833.57 1122 832.324 1123.01C831.077 1124.03 829.289 1123.79 828.328 1122.47L816.059 1105.61C815.099 1104.29 815.33 1102.39 816.577 1101.37ZM818.154 377.701C819.527 376.888 821.263 377.409 822.03 378.863L831.844 397.47C832.612 398.924 832.12 400.762 830.747 401.575C829.373 402.388 827.638 401.867 826.87 400.413L817.056 381.806C816.289 380.352 816.78 378.514 818.154 377.701ZM818.326 762.95C816.942 762.158 816.425 760.328 817.173 758.861L826.72 740.135C827.468 738.668 829.196 738.122 830.58 738.913C831.965 739.705 832.481 741.535 831.733 743.001L822.186 761.728C821.439 763.194 819.711 763.741 818.326 762.95ZM818.708 1220.41C820.117 1219.67 821.827 1220.28 822.526 1221.77L831.477 1240.86C832.177 1242.35 831.601 1244.16 830.192 1244.9C828.783 1245.64 827.074 1245.03 826.374 1243.54L817.424 1224.45C816.724 1222.96 817.299 1221.15 818.708 1220.41ZM818.708 16.0985C820.117 15.3573 821.827 15.9665 822.526 17.4589L831.477 36.5474C832.177 38.0397 831.602 39.8502 830.192 40.5913C828.783 41.3325 827.074 40.7235 826.374 39.2311L817.424 20.1426C816.724 18.6503 817.299 16.8396 818.708 16.0985ZM819.224 944.061C817.785 943.385 817.136 941.603 817.774 940.08L825.918 920.63C826.556 919.107 828.239 918.42 829.677 919.095C831.115 919.771 831.764 921.553 831.126 923.077L822.982 942.526C822.345 944.049 820.662 944.736 819.224 944.061ZM820.601 523.095C819.1 522.597 818.264 520.904 818.734 519.314L824.735 499.021C825.205 497.431 826.804 496.546 828.305 497.044C829.806 497.542 830.642 499.234 830.172 500.824L824.171 521.117C823.701 522.707 822.102 523.593 820.601 523.095ZM822.666 857.807C824.224 857.576 825.664 858.727 825.882 860.377L828.667 881.452C828.885 883.102 827.798 884.627 826.24 884.858C824.682 885.089 823.242 883.939 823.024 882.288L820.24 861.213C820.022 859.563 821.108 858.038 822.666 857.807ZM822.958 463.418C821.395 463.225 820.276 461.727 820.459 460.072L822.789 438.936C822.971 437.281 824.386 436.096 825.948 436.29C827.511 436.483 828.63 437.981 828.448 439.636L826.118 460.772C825.935 462.427 824.52 463.612 822.958 463.418ZM823.119 797.518C824.683 797.346 826.084 798.55 826.247 800.207L828.326 821.403C828.489 823.06 827.352 824.544 825.787 824.716C824.223 824.888 822.822 823.684 822.66 822.027L820.58 800.831C820.417 799.174 821.554 797.69 823.119 797.518ZM824.096 556.641C825.669 556.595 826.979 557.908 827.022 559.574L827.574 580.83C827.617 582.496 826.377 583.883 824.804 583.929C823.231 583.975 821.921 582.662 821.878 580.996L821.327 559.74C821.284 558.074 822.524 556.687 824.096 556.641ZM868.386 329.161C868.413 327.495 869.709 326.167 871.283 326.195L891.371 326.557C892.944 326.585 894.198 327.959 894.171 329.625C894.144 331.291 892.848 332.619 891.274 332.59L871.186 332.229C869.613 332.2 868.359 330.827 868.386 329.161ZM868.414 149.665C868.312 148.002 869.502 146.566 871.072 146.458L891.121 145.073C892.69 144.965 894.046 146.225 894.149 147.888C894.251 149.55 893.061 150.986 891.491 151.095L871.442 152.479C869.873 152.588 868.517 151.328 868.414 149.665ZM868.648 989.05C868.964 987.418 870.47 986.366 872.011 986.701L891.691 990.976C893.232 991.31 894.225 992.905 893.909 994.537C893.593 996.17 892.087 997.222 890.546 996.887L870.866 992.612C869.325 992.277 868.332 990.682 868.648 989.05ZM868.947 754.912C868.488 753.318 869.337 751.632 870.842 751.147L890.061 744.944C891.565 744.459 893.157 745.357 893.616 746.951C894.074 748.545 893.226 750.231 891.721 750.716L872.502 756.919C870.997 757.404 869.405 756.506 868.947 754.912ZM869.707 82.5025C870.401 81.0072 872.108 80.3911 873.52 81.1264L891.557 90.5204C892.969 91.2557 893.551 93.0638 892.856 94.5591C892.162 96.0544 890.455 96.6705 889.043 95.9352L871.006 86.5412C869.594 85.8059 869.012 83.9977 869.707 82.5025ZM869.779 275.36C869.067 273.874 869.627 272.058 871.03 271.304L888.954 261.669C890.357 260.915 892.071 261.508 892.783 262.994C893.495 264.48 892.935 266.296 891.532 267.05L873.609 276.685C872.206 277.439 870.491 276.846 869.779 275.36ZM869.785 215.145C869.073 213.659 869.633 211.843 871.035 211.089L888.948 201.454C890.35 200.7 892.065 201.293 892.777 202.778C893.49 204.264 892.93 206.08 891.527 206.834L873.615 216.469C872.213 217.223 870.498 216.631 869.785 215.145ZM870.268 683.576C871.087 682.153 872.84 681.702 874.183 682.57L891.345 693.649C892.689 694.516 893.114 696.373 892.295 697.795C891.476 699.218 889.723 699.669 888.38 698.801L871.218 687.722C869.874 686.855 869.449 684.998 870.268 683.576ZM870.334 938.804C869.502 937.39 869.909 935.529 871.245 934.648L888.299 923.387C889.634 922.506 891.391 922.938 892.223 924.352C893.055 925.766 892.648 927.626 891.313 928.508L874.259 939.768C872.924 940.65 871.167 940.218 870.334 938.804ZM872.323 379.791C873.454 378.633 875.258 378.666 876.351 379.864L890.308 395.159C891.402 396.357 891.371 398.267 890.239 399.425C889.108 400.583 887.305 400.551 886.211 399.353L872.254 384.057C871.161 382.859 871.192 380.949 872.323 379.791ZM872.581 1222.57C873.742 1221.45 875.544 1221.53 876.605 1222.76L890.159 1238.48C891.22 1239.71 891.138 1241.62 889.977 1242.74C888.815 1243.86 887.013 1243.78 885.952 1242.55L872.398 1226.83C871.337 1225.6 871.419 1223.69 872.581 1222.57ZM872.581 18.259C873.742 17.1353 875.544 17.2218 876.605 18.4522L890.159 34.1686C891.22 35.3989 891.138 37.3072 889.977 38.4309C888.815 39.5547 887.013 39.4682 885.952 38.2378L872.398 22.5214C871.337 21.2911 871.419 19.3828 872.581 18.259ZM872.834 1162.12C874.023 1161.03 875.822 1161.17 876.853 1162.42L890.015 1178.5C891.045 1179.76 890.917 1181.67 889.728 1182.76C888.54 1183.85 886.74 1183.71 885.71 1182.46L872.548 1166.38C871.518 1165.12 871.646 1163.21 872.834 1162.12ZM873.165 1041.38C874.388 1040.34 876.182 1040.54 877.171 1041.83L889.821 1058.39C890.81 1059.69 890.621 1061.59 889.398 1062.63C888.175 1063.68 886.381 1063.48 885.392 1062.19L872.742 1045.63C871.752 1044.33 871.942 1042.43 873.165 1041.38ZM873.266 821.851C872.033 820.816 871.826 818.918 872.804 817.612L885.295 800.932C886.273 799.627 888.064 799.408 889.297 800.443C890.53 801.479 890.736 803.377 889.759 804.682L877.268 821.362C876.29 822.667 874.498 822.886 873.266 821.851ZM874.332 882.847C873.006 881.95 872.618 880.084 873.465 878.68L884.291 860.736C885.138 859.332 886.899 858.921 888.225 859.818C889.551 860.715 889.939 862.581 889.092 863.985L878.266 881.929C877.419 883.333 875.658 883.744 874.332 882.847ZM876.058 1099.74C877.497 1099.07 879.18 1099.75 879.817 1101.28L887.955 1120.73C888.592 1122.25 887.943 1124.03 886.504 1124.71C885.066 1125.38 883.383 1124.7 882.746 1123.17L874.608 1103.72C873.971 1102.2 874.62 1100.42 876.058 1099.74ZM876.118 522.559C874.676 521.892 874.018 520.113 874.648 518.586L882.695 499.077C883.324 497.55 885.004 496.853 886.445 497.52C887.887 498.187 888.545 499.965 887.915 501.492L879.869 521.002C879.239 522.529 877.559 523.226 876.118 522.559ZM877.023 583.159C875.538 582.609 874.755 580.889 875.273 579.316L881.905 559.204C882.424 557.631 884.048 556.801 885.534 557.35C887.019 557.9 887.803 559.62 887.284 561.193L880.652 581.305C880.133 582.878 878.509 583.708 877.023 583.159ZM878.605 617.102C880.144 616.756 881.656 617.797 881.983 619.427L886.154 640.262C886.48 641.892 885.497 643.493 883.958 643.839C882.419 644.185 880.907 643.144 880.58 641.514L876.409 620.679C876.083 619.049 877.066 617.447 878.605 617.102ZM881.143 436.209C882.716 436.191 884.005 437.527 884.022 439.193L884.238 460.45C884.255 462.116 882.993 463.481 881.42 463.499C879.847 463.517 878.558 462.181 878.541 460.515L878.325 439.258C878.308 437.592 879.57 436.227 881.143 436.209ZM925.22 931.934C925.176 930.269 926.415 928.88 927.987 928.833L948.071 928.231C949.643 928.184 950.954 929.496 950.999 931.161C951.043 932.827 949.804 934.215 948.232 934.263L928.149 934.865C926.576 934.912 925.265 933.6 925.22 931.934ZM925.287 388.14C925.456 386.483 926.861 385.285 928.426 385.465L948.401 387.753C949.965 387.932 951.096 389.42 950.927 391.077C950.758 392.733 949.353 393.931 947.788 393.752L927.813 391.464C926.249 391.284 925.118 389.796 925.287 388.14ZM925.462 151.443C925.155 149.809 926.157 148.22 927.7 147.895L947.408 143.74C948.951 143.415 950.451 144.476 950.758 146.11C951.065 147.744 950.063 149.333 948.52 149.658L928.812 153.813C927.269 154.138 925.769 153.077 925.462 151.443ZM925.587 814.431C925.209 812.814 926.14 811.178 927.667 810.777L947.177 805.659C948.704 805.258 950.248 806.245 950.627 807.862C951.005 809.48 950.074 811.116 948.546 811.516L929.037 816.634C927.51 817.035 925.966 816.049 925.587 814.431ZM925.651 747.414C926.056 745.804 927.617 744.847 929.137 745.276L948.55 750.756C950.07 751.185 950.974 752.838 950.569 754.448C950.164 756.058 948.603 757.015 947.082 756.586L927.67 751.107C926.15 750.677 925.246 749.024 925.651 747.414ZM925.783 84.5117C926.246 82.9192 927.84 82.0257 929.344 82.516L948.552 88.7787C950.056 89.2689 950.899 90.9573 950.436 92.5498C949.973 94.1424 948.379 95.036 946.876 94.5457L927.668 88.2829C926.164 87.7927 925.32 86.1042 925.783 84.5117ZM926.017 876.116C925.469 874.553 926.221 872.817 927.696 872.237L946.541 864.831C948.016 864.251 949.655 865.048 950.203 866.61C950.75 868.172 949.998 869.908 948.523 870.488L929.679 877.894C928.204 878.474 926.564 877.678 926.017 876.116ZM927.087 984.72C927.902 983.295 929.654 982.84 930.999 983.703L948.172 994.722C949.518 995.586 949.948 997.441 949.133 998.866C948.318 1000.29 946.566 1000.75 945.22 999.883L928.047 988.864C926.701 988.001 926.271 986.145 927.087 984.72ZM927.285 1225.2C928.14 1223.81 929.903 1223.41 931.224 1224.31L948.091 1235.87C949.412 1236.78 949.789 1238.65 948.935 1240.05C948.08 1241.44 946.316 1241.84 944.995 1240.94L928.128 1229.38C926.808 1228.47 926.43 1226.6 927.285 1225.2ZM927.285 20.8948C928.14 19.4959 929.904 19.0959 931.224 20.0012L948.091 31.563C949.412 32.4684 949.79 34.3364 948.935 35.7351C948.08 37.134 946.316 37.534 944.995 36.6287L928.129 25.0669C926.808 24.1616 926.43 22.2936 927.285 20.8948ZM927.323 336.889C926.46 335.496 926.827 333.625 928.142 332.711L944.952 321.03C946.267 320.116 948.033 320.504 948.896 321.897C949.76 323.29 949.393 325.161 948.077 326.075L931.268 337.756C929.952 338.67 928.186 338.282 927.323 336.889ZM928.155 217.686C927.154 216.401 927.326 214.499 928.54 213.439L944.049 199.89C945.262 198.83 947.058 199.013 948.059 200.298C949.06 201.583 948.888 203.485 947.674 204.545L932.165 218.094C930.952 219.154 929.156 218.971 928.155 217.686ZM929.757 1162.04C930.955 1160.96 932.753 1161.12 933.772 1162.39L946.786 1178.58C947.806 1179.85 947.661 1181.76 946.463 1182.84C945.265 1183.92 943.467 1183.76 942.447 1182.49L929.433 1166.3C928.414 1165.03 928.558 1163.12 929.757 1162.04ZM929.825 279.68C928.619 278.61 928.46 276.707 929.47 275.429L942.376 259.111C943.386 257.834 945.183 257.666 946.389 258.736C947.595 259.806 947.754 261.708 946.744 262.986L933.838 279.304C932.828 280.581 931.031 280.75 929.825 279.68ZM930.203 679.933C931.446 678.911 933.235 679.15 934.2 680.466L946.514 697.266C947.479 698.582 947.254 700.478 946.011 701.499C944.768 702.521 942.979 702.283 942.014 700.966L929.699 684.166C928.735 682.85 928.96 680.954 930.203 679.933ZM930.328 438.927C931.582 437.922 933.369 438.184 934.318 439.513L946.446 456.494C947.395 457.823 947.147 459.715 945.892 460.721C944.637 461.726 942.851 461.463 941.902 460.134L929.774 443.153C928.825 441.824 929.073 439.932 930.328 438.927ZM931.699 1040.15C933.065 1039.32 934.805 1039.82 935.587 1041.27L945.577 1059.75C946.359 1061.2 945.885 1063.04 944.52 1063.87C943.154 1064.7 941.414 1064.2 940.632 1062.75L930.642 1044.26C929.861 1042.82 930.334 1040.98 931.699 1040.15ZM933.426 1099.51C934.892 1098.9 936.543 1099.67 937.115 1101.22L944.412 1121.03C944.984 1122.59 944.259 1124.34 942.793 1124.94C941.327 1125.55 939.676 1124.78 939.104 1123.23L931.807 1103.42C931.236 1101.86 931.96 1100.11 933.426 1099.51ZM935.82 583.702C934.272 583.406 933.243 581.837 933.522 580.197L937.085 559.243C937.364 557.603 938.845 556.513 940.393 556.808C941.942 557.104 942.971 558.673 942.692 560.312L939.129 581.267C938.85 582.907 937.369 583.997 935.82 583.702ZM936.994 616.866C938.562 616.723 939.943 617.952 940.078 619.612L941.811 640.808C941.947 642.468 940.787 643.931 939.219 644.074C937.652 644.218 936.271 642.989 936.135 641.329L934.402 620.133C934.266 618.473 935.427 617.01 936.994 616.866ZM937.804 496.425C939.377 496.386 940.682 497.705 940.719 499.37L941.191 520.627C941.228 522.293 939.983 523.675 938.41 523.714C936.837 523.753 935.532 522.434 935.495 520.769L935.023 499.512C934.986 497.846 936.231 496.464 937.804 496.425Z" fill="#555555"/>
</svg>
