<svg width="433" height="780" viewBox="0 0 433 780" fill="none" xmlns="http://www.w3.org/2000/svg">
<path fill-rule="evenodd" clip-rule="evenodd" d="M-501.989 -335.095C-502.123 -336.755 -500.96 -338.215 -499.393 -338.357L-479.378 -340.163C-477.81 -340.305 -476.431 -339.074 -476.298 -337.413C-476.164 -335.753 -477.327 -334.292 -478.894 -334.151L-498.909 -332.344C-500.477 -332.203 -501.856 -333.434 -501.989 -335.095ZM-501.937 207.455C-502.137 205.802 -501.034 204.29 -499.474 204.078L-479.544 201.369C-477.984 201.157 -476.556 202.324 -476.356 203.977C-476.156 205.63 -477.258 207.142 -478.819 207.354L-498.749 210.063C-500.309 210.275 -501.736 209.108 -501.937 207.455ZM-501.376 683.082C-500.877 681.501 -499.263 680.648 -497.771 681.176L-478.711 687.92C-477.219 688.448 -476.413 690.157 -476.912 691.738C-477.41 693.318 -479.024 694.171 -480.516 693.643L-499.576 686.899C-501.069 686.371 -501.874 684.662 -501.376 683.082ZM-501.288 -99.9603C-500.758 -101.529 -499.128 -102.346 -497.646 -101.785L-478.728 -94.6197C-477.247 -94.0586 -476.475 -92.3319 -477.005 -90.7629C-477.535 -89.1939 -479.165 -88.377 -480.647 -88.9381L-499.565 -96.1035C-501.046 -96.6646 -501.818 -98.3913 -501.288 -99.9603ZM-500.422 259.323C-499.66 257.865 -497.927 257.337 -496.55 258.143L-478.979 268.44C-477.602 269.247 -477.104 271.083 -477.865 272.541C-478.627 273.999 -480.36 274.527 -481.737 273.72L-499.308 263.423C-500.685 262.616 -501.184 260.781 -500.422 259.323ZM-500.347 -162.34C-499.568 -163.787 -497.829 -164.292 -496.462 -163.467L-479.004 -152.93C-477.637 -152.104 -477.161 -150.262 -477.94 -148.814C-478.719 -147.367 -480.458 -146.862 -481.825 -147.687L-499.283 -158.225C-500.65 -159.05 -501.126 -160.892 -500.347 -162.34ZM-499.968 -42.5971C-499.113 -43.9958 -497.349 -44.3956 -496.029 -43.4899L-479.168 -31.9282C-477.847 -31.0227 -477.47 -29.1546 -478.325 -27.7559C-479.18 -26.3573 -480.943 -25.9575 -482.264 -26.8631L-499.125 -38.4248C-500.446 -39.3304 -500.823 -41.1984 -499.968 -42.5971ZM-498.7 -405.599C-497.644 -406.835 -495.843 -406.93 -494.676 -405.812L-479.787 -391.541C-478.621 -390.423 -478.531 -388.515 -479.587 -387.28C-480.642 -386.044 -482.444 -385.949 -483.61 -387.067L-498.499 -401.338C-499.666 -402.456 -499.756 -404.364 -498.7 -405.599ZM-498.594 154.811C-499.666 153.592 -499.601 151.682 -498.449 150.547L-483.725 136.035C-482.573 134.9 -480.771 134.969 -479.699 136.189C-478.627 137.408 -478.692 139.317 -479.844 140.452L-494.568 154.965C-495.72 156.1 -497.522 156.031 -498.594 154.811ZM-495.1 -263.908C-496.496 -264.677 -497.04 -266.498 -496.314 -267.977L-487.034 -286.884C-486.308 -288.363 -484.588 -288.938 -483.192 -288.17C-481.796 -287.401 -481.253 -285.58 -481.979 -284.101L-491.259 -265.193C-491.985 -263.715 -493.704 -263.139 -495.1 -263.908ZM-495.093 12.9075C-493.697 12.1397 -491.977 12.7161 -491.252 14.1949L-481.984 33.1026C-481.259 34.5814 -481.803 36.4026 -483.199 37.1704C-484.596 37.9382 -486.315 37.3618 -487.04 35.883L-496.309 16.9753C-497.034 15.4965 -496.49 13.6753 -495.093 12.9075ZM-494.955 614.986C-493.55 614.236 -491.837 614.834 -491.129 616.322L-482.071 635.35C-481.362 636.838 -481.927 638.652 -483.332 639.402C-484.737 640.152 -486.45 639.554 -487.158 638.067L-496.216 619.038C-496.925 617.55 -496.36 615.736 -494.955 614.986ZM-494.708 519.12C-496.127 518.402 -496.728 516.6 -496.05 515.097L-487.384 495.888C-486.705 494.385 -485.005 493.749 -483.585 494.467C-482.166 495.185 -481.565 496.987 -482.243 498.49L-490.909 517.699C-491.588 519.202 -493.288 519.838 -494.708 519.12ZM-494.694 -228.12C-493.274 -228.837 -491.573 -228.199 -490.897 -226.695L-482.253 -207.487C-481.576 -205.982 -482.179 -204.182 -483.599 -203.465C-485.019 -202.748 -486.719 -203.386 -487.396 -204.891L-496.04 -224.099C-496.717 -225.603 -496.114 -227.403 -494.694 -228.12ZM-494.489 458.988C-495.921 458.298 -496.554 456.509 -495.902 454.993L-487.571 435.604C-486.919 434.087 -485.23 433.417 -483.798 434.107C-482.366 434.797 -481.734 436.586 -482.385 438.103L-490.716 457.492C-491.368 459.009 -493.057 459.679 -494.489 458.988ZM-494.367 313.664C-492.928 312.989 -491.245 313.677 -490.608 315.2L-482.47 334.649C-481.833 336.173 -482.482 337.955 -483.921 338.63C-485.359 339.305 -487.042 338.617 -487.679 337.094L-495.817 317.645C-496.454 316.121 -495.805 314.339 -494.367 313.664ZM-494.031 735.018C-492.575 734.387 -490.911 735.125 -490.315 736.667L-482.7 756.357C-482.104 757.899 -482.801 759.661 -484.256 760.293C-485.712 760.924 -487.376 760.186 -487.972 758.644L-495.587 738.954C-496.184 737.412 -495.487 735.65 -494.031 735.018ZM-494.031 -469.292C-492.575 -469.923 -490.911 -469.185 -490.315 -467.643L-482.7 -447.953C-482.104 -446.411 -482.8 -444.649 -484.256 -444.017C-485.712 -443.386 -487.376 -444.124 -487.972 -445.666L-495.587 -465.356C-496.183 -466.898 -495.487 -468.66 -494.031 -469.292ZM-491.308 98.767C-492.859 98.488 -493.903 96.9301 -493.64 95.2873L-490.27 74.2723C-490.006 72.6296 -488.536 71.5241 -486.984 71.803C-485.433 72.082 -484.39 73.6399 -484.653 75.2826L-488.023 96.2977C-488.286 97.9404 -489.757 99.0459 -491.308 98.767ZM-490.856 580.568C-492.416 580.347 -493.511 578.829 -493.303 577.178L-490.637 556.042C-490.429 554.39 -488.996 553.23 -487.437 553.451C-485.877 553.671 -484.782 555.189 -484.99 556.841L-487.655 577.976C-487.864 579.628 -489.297 580.788 -490.856 580.568ZM-490.603 399.928C-492.166 399.739 -493.289 398.244 -493.111 396.589L-490.837 375.453C-490.659 373.798 -489.248 372.609 -487.685 372.797C-486.121 372.986 -484.999 374.481 -485.177 376.136L-487.45 397.272C-487.628 398.927 -489.039 400.117 -490.603 399.928ZM-445.211 265.738C-445.189 264.072 -443.895 262.741 -442.322 262.764L-422.233 263.066C-420.66 263.089 -419.403 264.459 -419.425 266.125C-419.447 267.791 -420.741 269.123 -422.314 269.099L-442.403 268.798C-443.976 268.774 -445.233 267.404 -445.211 265.738ZM-445.16 -335.017C-445.302 -336.676 -444.148 -338.144 -442.581 -338.295L-422.571 -340.222C-421.004 -340.373 -419.619 -339.15 -419.476 -337.491C-419.334 -335.831 -420.488 -334.364 -422.055 -334.213L-442.065 -332.286C-443.632 -332.135 -445.017 -333.358 -445.16 -335.017ZM-445.087 685.547C-444.869 683.897 -443.429 682.746 -441.871 682.977L-421.97 685.927C-420.412 686.158 -419.325 687.683 -419.543 689.334C-419.761 690.984 -421.201 692.134 -422.759 691.903L-442.661 688.953C-444.219 688.722 -445.305 687.197 -445.087 685.547ZM-444.678 -99.2646C-444.228 -100.861 -442.641 -101.77 -441.134 -101.294L-421.874 -95.2119C-420.367 -94.7358 -419.509 -93.0553 -419.959 -91.4585C-420.408 -89.8617 -421.995 -88.9533 -423.502 -89.4294L-442.762 -95.5113C-444.269 -95.9874 -445.127 -97.6679 -444.678 -99.2646ZM-444.327 -40.131C-443.753 -41.6825 -442.1 -42.4471 -440.635 -41.8391L-421.922 -34.0711C-420.457 -33.463 -419.735 -31.7126 -420.309 -30.1612C-420.883 -28.6098 -422.536 -27.8451 -424.001 -28.4532L-442.714 -36.2212C-444.179 -36.8292 -444.901 -38.5797 -444.327 -40.131ZM-443.491 -162.41C-442.707 -163.854 -440.966 -164.352 -439.602 -163.522L-422.19 -152.924C-420.826 -152.094 -420.355 -150.25 -421.139 -148.805C-421.923 -147.36 -423.665 -146.862 -425.029 -147.692L-442.441 -158.29C-443.805 -159.121 -444.275 -160.965 -443.491 -162.41ZM-442.241 16.3072C-441.235 15.0254 -439.439 14.8495 -438.229 15.9142L-422.761 29.5229C-421.55 30.5876 -421.384 32.4898 -422.39 33.7715C-423.395 35.0532 -425.191 35.2291 -426.401 34.1645L-441.87 20.5558C-443.08 19.491 -443.246 17.5889 -442.241 16.3072ZM-441.95 -405.521C-440.904 -406.766 -439.103 -406.876 -437.928 -405.768L-422.92 -391.618C-421.744 -390.51 -421.64 -388.603 -422.686 -387.358C-423.732 -386.114 -425.533 -386.003 -426.708 -387.111L-441.716 -401.261C-442.892 -402.369 -442.996 -404.276 -441.95 -405.521ZM-441.668 215.108C-442.75 213.899 -442.702 211.989 -441.561 210.843L-426.99 196.21C-425.848 195.064 -424.045 195.114 -422.963 196.323C-421.88 197.532 -421.928 199.442 -423.07 200.589L-437.641 215.221C-438.782 216.368 -440.585 216.317 -441.668 215.108ZM-440.58 315.673C-439.373 314.604 -437.576 314.775 -436.568 316.054L-423.696 332.372C-422.687 333.651 -422.849 335.553 -424.056 336.622C-425.263 337.69 -427.06 337.519 -428.069 336.24L-440.94 319.922C-441.949 318.643 -441.788 316.741 -440.58 315.673ZM-439.063 518.427C-440.404 517.555 -440.823 515.697 -439.999 514.277L-429.486 496.152C-428.662 494.732 -426.908 494.288 -425.568 495.16C-424.227 496.032 -423.808 497.89 -424.631 499.31L-435.145 517.435C-435.968 518.855 -437.723 519.299 -439.063 518.427ZM-438.574 615.283C-437.198 614.474 -435.464 615 -434.7 616.457L-424.949 635.063C-424.185 636.52 -424.681 638.357 -426.057 639.165C-427.432 639.974 -429.167 639.449 -429.93 637.992L-439.682 619.385C-440.445 617.928 -439.949 616.092 -438.574 615.283ZM-438.449 458.596C-439.833 457.803 -440.349 455.973 -439.601 454.507L-430.048 435.78C-429.3 434.314 -427.572 433.768 -426.188 434.56C-424.803 435.352 -424.288 437.182 -425.035 438.648L-434.588 457.375C-435.336 458.841 -437.064 459.388 -438.449 458.596ZM-438.29 -263.912C-439.684 -264.684 -440.223 -266.507 -439.494 -267.983L-430.185 -286.831C-429.456 -288.307 -427.735 -288.878 -426.34 -288.106C-424.946 -287.333 -424.407 -285.51 -425.137 -284.034L-434.445 -265.187C-435.174 -263.71 -436.896 -263.139 -438.29 -263.912ZM-437.785 -228.19C-436.36 -228.896 -434.664 -228.246 -433.997 -226.737L-425.479 -207.468C-424.812 -205.959 -425.426 -204.163 -426.851 -203.456C-428.276 -202.75 -429.972 -203.4 -430.639 -204.909L-439.157 -224.178C-439.824 -225.687 -439.21 -227.483 -437.785 -228.19ZM-437.392 72.7265C-435.945 72.0707 -434.271 72.7809 -433.652 74.3127L-425.741 93.8826C-425.122 95.4144 -425.793 97.1877 -427.239 97.8435C-428.685 98.4993 -430.36 97.7891 -430.979 96.2573L-438.889 76.6874C-439.508 75.1556 -438.838 73.3823 -437.392 72.7265ZM-437.384 735.096C-435.937 734.442 -434.263 735.153 -433.645 736.685L-425.752 756.255C-425.134 757.788 -425.805 759.56 -427.252 760.215C-428.699 760.87 -430.373 760.158 -430.991 758.626L-438.885 739.056C-439.503 737.524 -438.831 735.751 -437.384 735.096ZM-437.384 -469.214C-435.937 -469.869 -434.263 -469.157 -433.645 -467.625L-425.751 -448.055C-425.133 -446.523 -425.805 -444.75 -427.252 -444.095C-428.699 -443.441 -430.373 -444.152 -430.991 -445.685L-438.884 -465.255C-439.502 -466.787 -438.831 -468.56 -437.384 -469.214ZM-434.882 580.413C-436.424 580.082 -437.42 578.49 -437.108 576.857L-433.107 555.962C-432.794 554.329 -431.291 553.274 -429.749 553.605C-428.207 553.936 -427.21 555.528 -427.523 557.161L-431.524 578.056C-431.837 579.689 -433.34 580.744 -434.882 580.413ZM-434.394 158.986C-435.947 158.717 -437 157.166 -436.746 155.522L-433.507 134.507C-433.254 132.862 -431.789 131.747 -430.237 132.015C-428.684 132.284 -427.631 133.835 -427.884 135.479L-431.123 156.494C-431.377 158.139 -432.841 159.254 -434.394 158.986ZM-432.956 400.004C-434.528 399.922 -435.738 398.506 -435.661 396.841L-434.666 375.585C-434.588 373.921 -433.251 372.639 -431.68 372.721C-430.108 372.804 -428.898 374.22 -428.976 375.884L-429.97 397.14C-430.048 398.804 -431.385 400.086 -432.956 400.004ZM-388.303 688.947C-388.477 687.291 -387.35 685.799 -385.786 685.615L-365.817 683.267C-364.253 683.083 -362.845 684.276 -362.671 685.932C-362.497 687.589 -363.624 689.08 -365.188 689.264L-385.157 691.613C-386.721 691.797 -388.129 690.603 -388.303 688.947ZM-388.23 -334.167C-388.47 -335.814 -387.405 -337.355 -385.85 -337.61L-366 -340.861C-364.445 -341.116 -362.99 -339.987 -362.749 -338.341C-362.509 -336.694 -363.574 -335.153 -365.129 -334.898L-384.979 -331.646C-386.534 -331.392 -387.989 -332.52 -388.23 -334.167ZM-388.098 323.258C-387.769 321.628 -386.255 320.59 -384.716 320.939L-365.065 325.394C-363.526 325.743 -362.546 327.347 -362.876 328.976C-363.205 330.606 -364.719 331.644 -366.258 331.295L-385.909 326.839C-387.447 326.49 -388.427 324.887 -388.098 323.258ZM-387.455 -40.2771C-386.867 -41.8229 -385.208 -42.5715 -383.749 -41.9494L-365.103 -34.0005C-363.644 -33.3783 -362.937 -31.6208 -363.524 -30.0751C-364.112 -28.5294 -365.771 -27.7808 -367.231 -28.4029L-385.876 -36.3517C-387.336 -36.9739 -388.042 -38.7314 -387.455 -40.2771ZM-387.221 -101.042C-386.567 -102.557 -384.877 -103.224 -383.446 -102.531L-365.164 -93.6798C-363.734 -92.9869 -363.104 -91.1969 -363.758 -89.6814C-364.412 -88.166 -366.102 -87.4991 -367.533 -88.1919L-385.815 -97.0434C-387.246 -97.7362 -387.876 -99.5263 -387.221 -101.042ZM-386.882 18.6915C-386.147 17.2183 -384.424 16.6551 -383.033 17.4336L-365.279 27.3694C-363.888 28.1479 -363.357 29.9732 -364.092 31.4464C-364.827 32.9197 -366.55 33.4829 -367.941 32.7043L-385.694 22.7686C-387.085 21.9901 -387.617 20.1647 -386.882 18.6915ZM-386.216 -404.044C-385.344 -405.43 -383.575 -405.805 -382.266 -404.881L-365.553 -393.079C-364.244 -392.154 -363.89 -390.281 -364.763 -388.895C-365.636 -387.508 -367.404 -387.134 -368.713 -388.058L-385.427 -399.86C-386.736 -400.784 -387.089 -402.658 -386.216 -404.044ZM-385.429 -164.272C-384.427 -165.557 -382.632 -165.739 -381.419 -164.678L-365.927 -151.129C-364.714 -150.068 -364.543 -148.166 -365.545 -146.882C-366.546 -145.597 -368.342 -145.415 -369.555 -146.476L-385.046 -160.025C-386.26 -161.086 -386.431 -162.988 -385.429 -164.272ZM-385.217 76.2893C-384.184 75.0323 -382.385 74.8998 -381.198 75.9935L-366.036 89.9638C-364.849 91.0575 -364.724 92.9632 -365.757 94.2203C-366.79 95.4774 -368.589 95.6098 -369.776 94.5162L-384.938 80.5458C-386.125 79.4521 -386.25 77.5464 -385.217 76.2893ZM-384.924 275.244C-385.997 274.025 -385.934 272.116 -384.783 270.98L-370.081 256.468C-368.93 255.332 -367.128 255.399 -366.055 256.618C-364.982 257.837 -365.046 259.746 -366.197 260.882L-380.898 275.394C-382.049 276.53 -383.852 276.463 -384.924 275.244ZM-383.709 616.682C-382.497 615.619 -380.701 615.798 -379.698 617.081L-366.889 633.459C-365.885 634.742 -366.054 636.644 -367.265 637.707C-368.477 638.77 -370.273 638.591 -371.276 637.308L-384.085 620.93C-385.089 619.647 -384.92 617.745 -383.709 616.682ZM-382.409 736.108C-381.082 735.213 -379.321 735.628 -378.477 737.034L-367.696 754.978C-366.852 756.384 -367.243 758.248 -368.57 759.143C-369.898 760.037 -371.658 759.623 -372.503 758.217L-383.283 740.273C-384.128 738.867 -383.737 737.002 -382.409 736.108ZM-382.409 -468.202C-381.082 -469.097 -379.321 -468.682 -378.476 -467.277L-367.696 -449.332C-366.851 -447.926 -367.243 -446.062 -368.57 -445.167C-369.898 -444.273 -371.658 -444.687 -372.503 -446.093L-383.283 -464.037C-384.128 -465.443 -383.736 -467.308 -382.409 -468.202ZM-381.779 -264.071C-383.153 -264.883 -383.645 -266.72 -382.879 -268.175L-373.076 -286.782C-372.309 -288.237 -370.574 -288.758 -369.2 -287.946C-367.826 -287.135 -367.334 -285.297 -368.101 -283.842L-377.904 -265.235C-378.67 -263.78 -380.405 -263.259 -381.779 -264.071ZM-381.634 133.484C-380.251 132.69 -378.522 133.235 -377.773 134.7L-368.197 153.427C-367.448 154.892 -367.962 156.723 -369.345 157.517C-370.729 158.31 -372.458 157.766 -373.207 156.3L-382.783 137.573C-383.532 136.108 -383.018 134.277 -381.634 133.484ZM-381.138 374.046C-379.723 373.316 -378.018 373.939 -377.33 375.438L-368.527 394.586C-367.838 396.084 -368.427 397.89 -369.841 398.619C-371.256 399.348 -372.961 398.725 -373.65 397.227L-382.452 378.079C-383.141 376.581 -382.553 374.775 -381.138 374.046ZM-379.769 519.665C-381.253 519.112 -382.032 517.389 -381.51 515.817L-374.844 495.766C-374.321 494.194 -372.695 493.368 -371.211 493.922C-369.727 494.475 -368.947 496.198 -369.47 497.77L-376.136 517.821C-376.658 519.393 -378.285 520.218 -379.769 519.665ZM-379.578 -228.74C-378.086 -229.269 -376.472 -228.416 -375.973 -226.836L-369.603 -206.664C-369.104 -205.084 -369.909 -203.374 -371.401 -202.846C-372.893 -202.317 -374.507 -203.17 -375.006 -204.75L-381.376 -224.922C-381.876 -226.502 -381.071 -228.212 -379.578 -228.74ZM-377.544 460.064C-379.097 459.798 -380.153 458.25 -379.902 456.605L-376.697 435.589C-376.446 433.944 -374.983 432.826 -373.43 433.092C-371.877 433.358 -370.821 434.906 -371.072 436.551L-374.277 457.567C-374.528 459.212 -375.991 460.33 -377.544 460.064ZM-376.019 219.359C-377.591 219.29 -378.813 217.885 -378.748 216.221L-377.924 194.964C-377.859 193.299 -376.533 192.005 -374.961 192.074C-373.389 192.142 -372.167 193.547 -372.231 195.212L-373.055 216.468C-373.12 218.133 -374.447 219.427 -376.019 219.359ZM-375.983 580.652C-377.555 580.588 -378.78 579.186 -378.72 577.521L-377.947 556.265C-377.887 554.6 -376.563 553.302 -374.991 553.366C-373.419 553.43 -372.193 554.832 -372.254 556.497L-373.027 577.753C-373.087 579.418 -374.411 580.716 -375.983 580.652ZM-331.139 382.923C-330.743 381.31 -329.187 380.343 -327.665 380.763L-308.218 386.122C-306.695 386.542 -305.782 388.189 -306.178 389.802C-306.575 391.414 -308.13 392.381 -309.653 391.962L-329.099 386.602C-330.622 386.183 -331.535 384.535 -331.139 382.923ZM-331.096 -332.63C-331.51 -334.237 -330.616 -335.896 -329.098 -336.334L-309.719 -341.935C-308.201 -342.374 -306.635 -341.426 -306.221 -339.819C-305.807 -338.211 -306.702 -336.552 -308.219 -336.114L-327.598 -330.513C-329.116 -330.074 -330.682 -331.022 -331.096 -332.63ZM-330.811 80.695C-330.286 79.1244 -328.658 78.3022 -327.175 78.8586L-308.24 85.9633C-306.757 86.5198 -305.98 88.2441 -306.506 89.8147C-307.031 91.3853 -308.659 92.2075 -310.142 91.651L-329.077 84.5463C-330.56 83.9899 -331.337 82.2656 -330.811 80.695ZM-330.722 692.271C-331.279 690.712 -330.537 688.971 -329.066 688.382L-310.273 680.855C-308.801 680.265 -307.157 681.051 -306.6 682.61C-306.044 684.168 -306.786 685.909 -308.257 686.499L-327.05 694.025C-328.522 694.615 -330.166 693.829 -330.722 692.271ZM-330.63 -401.502C-330.046 -403.05 -328.389 -403.803 -326.927 -403.185L-308.276 -395.297C-306.815 -394.679 -306.104 -392.923 -306.687 -391.376C-307.271 -389.829 -308.928 -389.075 -310.389 -389.693L-329.04 -397.581C-330.502 -398.199 -331.213 -399.955 -330.63 -401.502ZM-330.542 19.7739C-329.931 18.238 -328.261 17.517 -326.811 18.1633L-308.302 26.413C-306.852 27.0594 -306.171 28.8284 -306.781 30.3641C-307.392 31.9 -309.062 32.621 -310.512 31.9747L-329.021 23.725C-330.471 23.0786 -331.152 21.3096 -330.542 19.7739ZM-330.459 139.974C-329.822 138.45 -328.14 137.761 -326.701 138.435L-308.317 147.046C-306.878 147.72 -306.228 149.502 -306.864 151.026C-307.5 152.55 -309.183 153.239 -310.622 152.565L-329.006 143.954C-330.444 143.28 -331.095 141.498 -330.459 139.974ZM-329.89 -41.8994C-329.116 -43.35 -327.378 -43.8612 -326.008 -43.0414L-308.505 -32.5639C-307.136 -31.744 -306.653 -29.9034 -307.427 -28.4528C-308.201 -27.0023 -309.939 -26.491 -311.309 -27.3108L-328.812 -37.7883C-330.181 -38.6082 -330.664 -40.4488 -329.89 -41.8994ZM-329.54 619.852C-328.694 618.447 -326.933 618.034 -325.607 618.929L-308.655 630.37C-307.328 631.266 -306.938 633.131 -307.783 634.536C-308.629 635.941 -310.39 636.354 -311.716 635.459L-328.668 624.018C-329.995 623.122 -330.385 621.257 -329.54 619.852ZM-328.747 -103.894C-327.767 -105.198 -325.975 -105.414 -324.744 -104.376L-309.031 -91.1285C-307.8 -90.0908 -307.596 -88.1927 -308.576 -86.8891C-309.556 -85.5854 -311.348 -85.3699 -312.579 -86.4076L-328.292 -99.655C-329.523 -100.693 -329.726 -102.591 -328.747 -103.894ZM-328.139 335.39C-329.206 334.166 -329.135 332.257 -327.979 331.126L-313.21 316.675C-312.054 315.544 -310.252 315.619 -309.184 316.843C-308.117 318.067 -308.188 319.976 -309.343 321.107L-324.113 335.558C-325.269 336.689 -327.071 336.614 -328.139 335.39ZM-328.126 196.41C-327.057 195.187 -325.255 195.113 -324.1 196.245L-309.353 210.697C-308.198 211.829 -308.128 213.738 -309.197 214.961C-310.266 216.184 -312.068 216.258 -313.223 215.126L-327.97 200.674C-329.124 199.542 -329.194 197.633 -328.126 196.41ZM-327.726 737.954C-326.608 736.782 -324.804 736.792 -323.698 737.976L-309.576 753.091C-308.469 754.275 -308.478 756.185 -309.597 757.357C-310.715 758.529 -312.519 758.519 -313.625 757.335L-327.747 742.221C-328.854 741.036 -328.844 739.126 -327.726 737.954ZM-327.726 -466.356C-326.608 -467.528 -324.804 -467.518 -323.697 -466.334L-309.575 -451.22C-308.469 -450.036 -308.478 -448.125 -309.597 -446.953C-310.715 -445.781 -312.519 -445.791 -313.625 -446.976L-327.747 -462.09C-328.854 -463.274 -328.844 -465.184 -327.726 -466.356ZM-326.294 -166.59C-325.026 -167.576 -323.243 -167.287 -322.312 -165.944L-310.418 -148.782C-309.487 -147.439 -309.76 -145.551 -311.029 -144.565C-312.297 -143.579 -314.08 -143.868 -315.011 -145.212L-326.905 -162.373C-327.836 -163.716 -327.562 -165.604 -326.294 -166.59ZM-325.341 434.876C-323.996 434.012 -322.244 434.466 -321.428 435.891L-311.017 454.076C-310.202 455.501 -310.631 457.357 -311.976 458.22C-313.322 459.084 -315.073 458.63 -315.889 457.205L-326.3 439.02C-327.116 437.595 -326.686 435.74 -325.341 434.876ZM-325.296 -264.299C-326.645 -265.156 -327.082 -267.01 -326.272 -268.438L-315.929 -286.684C-315.12 -288.112 -313.37 -288.575 -312.021 -287.718C-310.672 -286.86 -310.235 -285.007 -311.045 -283.578L-321.388 -265.332C-322.197 -263.904 -323.947 -263.441 -325.296 -264.299ZM-323.238 554.222C-321.766 553.632 -320.122 554.416 -319.564 555.974L-312.426 575.905C-311.868 577.463 -312.609 579.205 -314.08 579.796C-315.551 580.387 -317.195 579.603 -317.753 578.045L-324.891 558.113C-325.449 556.555 -324.709 554.813 -323.238 554.222ZM-321.16 493.386C-319.617 493.063 -318.118 494.127 -317.813 495.761L-313.915 516.656C-313.61 518.291 -314.614 519.878 -316.157 520.201C-317.701 520.524 -319.199 519.46 -319.504 517.826L-323.403 496.931C-323.708 495.296 -322.704 493.709 -321.16 493.386ZM-320.729 -229.278C-319.176 -229.545 -317.713 -228.428 -317.461 -226.784L-314.238 -205.769C-313.986 -204.124 -315.041 -202.574 -316.594 -202.307C-318.147 -202.04 -319.61 -203.157 -319.862 -204.802L-323.084 -225.817C-323.336 -227.461 -322.282 -229.011 -320.729 -229.278ZM-320.431 252.375C-318.873 252.146 -317.434 253.298 -317.218 254.949L-314.456 276.024C-314.24 277.675 -315.328 279.198 -316.886 279.427C-318.444 279.656 -319.883 278.504 -320.099 276.854L-322.861 255.778C-323.077 254.128 -321.99 252.604 -320.431 252.375ZM-274.726 205.91C-274.748 204.243 -273.491 202.874 -271.918 202.85L-251.829 202.548C-250.256 202.525 -248.963 203.856 -248.94 205.522C-248.918 207.188 -250.175 208.558 -251.748 208.582L-271.837 208.884C-273.41 208.907 -274.704 207.576 -274.726 205.91ZM-274.697 84.3961C-274.595 82.7334 -273.239 81.4734 -271.669 81.5818L-251.62 82.9666C-250.05 83.075 -248.861 84.5108 -248.963 86.1736C-249.065 87.8363 -250.421 89.0963 -251.991 88.9879L-272.04 87.6031C-273.61 87.4947 -274.8 86.0589 -274.697 84.3961ZM-274.639 444.993C-274.456 443.338 -273.042 442.153 -271.479 442.347L-251.521 444.816C-249.958 445.009 -248.839 446.507 -249.022 448.162C-249.204 449.817 -250.619 451.002 -252.182 450.809L-272.14 448.34C-273.703 448.147 -274.821 446.648 -274.639 444.993ZM-274.639 147.085C-274.821 145.43 -273.703 143.931 -272.14 143.738L-252.187 141.269C-250.625 141.075 -249.21 142.26 -249.027 143.915C-248.845 145.57 -249.964 147.069 -251.526 147.262L-271.479 149.731C-273.041 149.924 -274.456 148.74 -274.639 147.085ZM-274.544 -398.72C-274.281 -400.363 -272.811 -401.469 -271.26 -401.191L-251.455 -397.638C-249.904 -397.36 -248.859 -395.802 -249.122 -394.16C-249.385 -392.517 -250.855 -391.41 -252.406 -391.689L-272.211 -395.241C-273.762 -395.519 -274.807 -397.077 -274.544 -398.72ZM-274.486 624.567C-274.183 622.932 -272.686 621.866 -271.142 622.187L-251.423 626.281C-249.879 626.601 -248.872 628.187 -249.175 629.822C-249.478 631.457 -250.975 632.523 -252.519 632.202L-272.238 628.108C-273.782 627.787 -274.788 626.202 -274.486 624.567ZM-273.932 20.3246C-273.388 18.7608 -271.751 17.9594 -270.274 18.5347L-251.419 25.881C-249.942 26.4563 -249.186 28.1903 -249.729 29.7541C-250.272 31.3179 -251.909 32.1193 -253.386 31.544L-272.242 24.1977C-273.718 23.6225 -274.475 21.8884 -273.932 20.3246ZM-273.462 -330.312C-274.143 -331.814 -273.545 -333.616 -272.127 -334.337L-254.004 -343.55C-252.586 -344.271 -250.884 -343.638 -250.204 -342.136C-249.523 -340.634 -250.121 -338.832 -251.539 -338.11L-269.662 -328.897C-271.08 -328.176 -272.782 -328.809 -273.462 -330.312ZM-273.062 259.178C-272.287 257.727 -270.549 257.216 -269.18 258.036L-251.682 268.514C-250.313 269.334 -249.83 271.174 -250.605 272.625C-251.379 274.075 -253.117 274.586 -254.486 273.766L-271.984 263.289C-273.353 262.469 -273.836 260.628 -273.062 259.178ZM-272.872 694.51C-273.686 693.084 -273.254 691.23 -271.908 690.367L-254.7 679.349C-253.354 678.486 -251.603 678.943 -250.789 680.369C-249.975 681.795 -250.406 683.65 -251.753 684.512L-268.96 695.531C-270.307 696.393 -272.058 695.936 -272.872 694.51ZM-272.363 739.742C-271.455 738.382 -269.677 738.058 -268.392 739.02L-251.98 751.304C-250.695 752.265 -250.39 754.148 -251.298 755.509C-252.206 756.87 -253.984 757.193 -255.268 756.231L-271.68 743.947C-272.965 742.986 -273.271 741.103 -272.363 739.742ZM-272.362 -464.568C-271.454 -465.929 -269.677 -466.252 -268.392 -465.291L-251.98 -453.006C-250.695 -452.045 -250.39 -450.162 -251.298 -448.801C-252.206 -447.441 -253.983 -447.117 -255.268 -448.079L-271.68 -460.363C-272.965 -461.325 -273.271 -463.207 -272.362 -464.568ZM-272.334 -43.0689C-271.421 -44.4259 -269.642 -44.7424 -268.361 -43.7755L-252 -31.4312C-250.718 -30.4644 -250.42 -28.5805 -251.332 -27.2233C-252.245 -25.8663 -254.024 -25.5498 -255.305 -26.5167L-271.666 -38.861C-272.948 -39.8278 -273.246 -41.7117 -272.334 -43.0689ZM-272.317 498.803C-271.401 497.449 -269.621 497.138 -268.342 498.109L-252.004 510.514C-250.726 511.485 -250.432 513.369 -251.349 514.724C-252.266 516.078 -254.045 516.389 -255.324 515.418L-271.662 503.013C-272.941 502.042 -273.234 500.157 -272.317 498.803ZM-272.18 558.855C-271.241 557.518 -269.456 557.241 -268.194 558.235L-252.066 570.941C-250.804 571.935 -250.542 573.825 -251.481 575.162C-252.42 576.499 -254.204 576.777 -255.466 575.782L-271.594 563.077C-272.857 562.082 -273.119 560.192 -272.18 558.855ZM-271.291 395.607C-272.36 394.385 -272.291 392.476 -271.136 391.344L-256.395 376.892C-255.24 375.76 -253.438 375.834 -252.369 377.057C-251.3 378.28 -251.37 380.188 -252.524 381.32L-267.266 395.772C-268.42 396.904 -270.223 396.83 -271.291 395.607ZM-270.488 -105.516C-269.322 -106.635 -267.52 -106.54 -266.464 -105.306L-252.973 -89.529C-251.917 -88.294 -252.006 -86.3861 -253.172 -85.2675C-254.339 -84.149 -256.14 -84.2434 -257.196 -85.4784L-270.687 -101.255C-271.743 -102.49 -271.654 -104.398 -270.488 -105.516ZM-268.067 -167.521C-266.69 -168.327 -264.957 -167.799 -264.196 -166.341L-254.484 -147.734C-253.723 -146.276 -254.222 -144.44 -255.599 -143.634C-256.976 -142.828 -258.709 -143.356 -259.47 -144.815L-269.182 -163.421C-269.943 -164.879 -269.444 -166.715 -268.067 -167.521ZM-267.582 -263.763C-268.991 -264.504 -269.565 -266.315 -268.865 -267.807L-259.903 -286.896C-259.202 -288.388 -257.493 -288.996 -256.084 -288.254C-254.675 -287.513 -254.101 -285.702 -254.801 -284.21L-263.763 -265.121C-264.464 -263.629 -266.173 -263.021 -267.582 -263.763ZM-264.119 312.67C-262.571 312.375 -261.09 313.465 -260.811 315.105L-257.248 336.06C-256.969 337.7 -257.998 339.268 -259.547 339.564C-261.095 339.859 -262.576 338.769 -262.855 337.129L-266.418 316.174C-266.697 314.534 -265.668 312.965 -264.119 312.67ZM-263.397 -229.355C-261.836 -229.557 -260.415 -228.38 -260.224 -226.726L-257.786 -205.591C-257.596 -203.937 -258.707 -202.432 -260.269 -202.23C-261.83 -202.028 -263.251 -203.205 -263.442 -204.859L-265.88 -225.995C-266.07 -227.649 -264.959 -229.153 -263.397 -229.355ZM-217.89 566.438C-217.828 564.773 -216.503 563.476 -214.931 563.542L-194.853 564.385C-193.281 564.452 -192.057 565.855 -192.12 567.52C-192.182 569.185 -193.507 570.481 -195.079 570.415L-215.156 569.572C-216.728 569.506 -217.952 568.103 -217.89 566.438ZM-217.877 -395.705C-217.961 -397.369 -216.756 -398.79 -215.185 -398.88L-195.125 -400.024C-193.554 -400.114 -192.212 -398.837 -192.127 -397.173C-192.042 -395.51 -193.247 -394.088 -194.818 -393.999L-214.879 -392.855C-216.45 -392.765 -217.792 -394.041 -217.877 -395.705ZM-217.818 86.7919C-217.992 85.1359 -216.865 83.6443 -215.301 83.4603L-195.332 81.1118C-193.768 80.9279 -192.36 82.1213 -192.186 83.7774C-192.012 85.4335 -193.139 86.9251 -194.703 87.109L-214.672 89.4576C-216.236 89.6415 -217.644 88.4481 -217.818 86.7919ZM-217.803 267.593C-217.994 265.939 -216.884 264.434 -215.322 264.231L-195.381 261.642C-193.819 261.439 -192.398 262.615 -192.207 264.269C-192.015 265.923 -193.126 267.428 -194.687 267.631L-214.629 270.22C-216.19 270.423 -217.611 269.247 -217.803 267.593ZM-217.744 508.919C-217.989 507.273 -216.927 505.729 -215.373 505.469L-195.523 502.157C-193.969 501.898 -192.511 503.022 -192.266 504.668C-192.021 506.314 -193.082 507.859 -194.636 508.118L-214.487 511.43C-216.041 511.689 -217.499 510.565 -217.744 508.919ZM-217.738 629.35C-217.983 627.704 -216.922 626.16 -215.368 625.9L-195.523 622.588C-193.969 622.329 -192.511 623.453 -192.266 625.099C-192.021 626.745 -193.082 628.29 -194.636 628.549L-214.481 631.861C-216.035 632.12 -217.493 630.996 -217.738 629.35ZM-217.388 21.2519C-216.952 19.651 -215.373 18.728 -213.861 19.1902L-194.562 25.0913C-193.051 25.5535 -192.179 27.2259 -192.615 28.8268C-193.052 30.4277 -194.631 31.3508 -196.143 30.8886L-215.441 24.9874C-216.953 24.5252 -217.825 22.8528 -217.388 21.2519ZM-216.706 151.258C-217.369 149.746 -216.75 147.952 -215.323 147.25L-197.087 138.278C-195.66 137.576 -193.966 138.232 -193.303 139.743C-192.64 141.255 -193.26 143.049 -194.686 143.751L-212.923 152.723C-214.35 153.425 -216.044 152.769 -216.706 151.258ZM-216.446 212.015C-217.171 210.536 -216.628 208.715 -215.232 207.946L-197.405 198.131C-196.009 197.362 -194.289 197.938 -193.564 199.416C-192.838 200.895 -193.381 202.716 -194.777 203.485L-212.604 213.3C-214 214.069 -215.72 213.493 -216.446 212.015ZM-216.308 741.056C-215.551 739.595 -213.82 739.061 -212.44 739.862L-194.823 750.099C-193.444 750.9 -192.939 752.734 -193.696 754.195C-194.453 755.656 -196.184 756.19 -197.564 755.389L-215.181 745.153C-216.56 744.351 -217.065 742.517 -216.308 741.056ZM-216.308 -463.254C-215.551 -464.715 -213.819 -465.25 -212.44 -464.448L-194.823 -454.212C-193.444 -453.41 -192.939 -451.576 -193.696 -450.116C-194.453 -448.655 -196.184 -448.12 -197.564 -448.922L-215.18 -459.158C-216.56 -459.959 -217.065 -461.793 -216.308 -463.254ZM-215.671 -42.8347C-214.786 -44.2123 -213.014 -44.5692 -211.713 -43.6318L-195.085 -31.6491C-193.785 -30.7118 -193.448 -28.8351 -194.333 -27.4575C-195.218 -26.0799 -196.99 -25.723 -198.291 -26.6604L-214.918 -38.6431C-216.219 -39.5804 -216.556 -41.4571 -215.671 -42.8347ZM-215.63 318.388C-214.74 317.014 -212.966 316.665 -211.669 317.608L-195.109 329.651C-193.813 330.595 -193.483 332.473 -194.374 333.846C-195.264 335.22 -197.038 335.569 -198.335 334.626L-214.894 322.582C-216.191 321.639 -216.521 319.761 -215.63 318.388ZM-215.602 695.209C-216.497 693.838 -216.174 691.959 -214.88 691.011L-198.366 678.908C-197.072 677.959 -195.298 678.302 -194.402 679.672C-193.507 681.042 -193.83 682.921 -195.124 683.87L-211.638 695.973C-212.932 696.921 -214.706 696.579 -215.602 695.209ZM-214.614 -327.136C-215.663 -328.377 -215.564 -330.285 -214.392 -331.396L-199.412 -345.607C-198.241 -346.719 -196.44 -346.614 -195.39 -345.372C-194.34 -344.131 -194.439 -342.224 -195.611 -341.112L-210.591 -326.902C-211.763 -325.79 -213.564 -325.895 -214.614 -327.136ZM-214.41 455.899C-215.487 454.684 -215.43 452.775 -214.283 451.634L-199.626 437.062C-198.479 435.921 -196.677 435.981 -195.6 437.196C-194.523 438.411 -194.58 440.32 -195.727 441.461L-210.383 456.033C-211.53 457.174 -213.333 457.114 -214.41 455.899ZM-214.053 -105.129C-212.931 -106.298 -211.128 -106.283 -210.024 -105.095L-195.919 -89.9212C-194.816 -88.7337 -194.83 -86.8236 -195.951 -85.6546C-197.072 -84.4857 -198.876 -84.5006 -199.979 -85.688L-214.084 -100.862C-215.188 -102.05 -215.174 -103.96 -214.053 -105.129ZM-212.383 -166.813C-211.092 -167.767 -209.317 -167.432 -208.416 -166.065L-196.914 -148.602C-196.014 -147.236 -196.331 -145.355 -197.621 -144.402C-198.911 -143.448 -200.687 -143.783 -201.587 -145.15L-213.089 -162.613C-213.989 -163.979 -213.673 -165.86 -212.383 -166.813ZM-208.867 -228.818C-207.366 -229.317 -205.767 -228.433 -205.296 -226.843L-199.278 -206.551C-198.806 -204.961 -199.641 -203.268 -201.142 -202.768C-202.643 -202.269 -204.242 -203.153 -204.713 -204.743L-210.731 -225.035C-211.203 -226.625 -210.368 -228.318 -208.867 -228.818ZM-207.592 -262.666C-209.133 -263 -210.126 -264.595 -209.81 -266.227L-205.775 -287.062C-205.459 -288.694 -203.953 -289.746 -202.412 -289.411C-200.871 -289.076 -199.878 -287.482 -200.194 -285.849L-204.229 -265.015C-204.545 -263.383 -206.05 -262.331 -207.592 -262.666ZM-205.658 372.721C-204.087 372.637 -202.748 373.917 -202.668 375.581L-201.645 396.837C-201.565 398.501 -202.774 399.919 -204.345 400.004C-205.917 400.089 -207.255 398.808 -207.335 397.144L-208.358 375.888C-208.438 374.224 -207.23 372.806 -205.658 372.721ZM-160.938 87.1871C-161.161 85.5376 -160.079 84.0093 -158.522 83.7735L-138.632 80.7628C-137.074 80.527 -135.631 81.6731 -135.409 83.3226C-135.186 84.9721 -136.268 86.5004 -137.826 86.7362L-157.715 89.7469C-159.273 89.9827 -160.716 88.8366 -160.938 87.1871ZM-160.762 22.0938C-160.42 20.4676 -158.897 19.4435 -157.362 19.8064L-137.745 24.4432C-136.209 24.8061 -135.242 26.4187 -135.585 28.045C-135.927 29.6712 -137.45 30.6953 -138.986 30.3324L-158.603 25.6956C-160.138 25.3327 -161.105 23.7201 -160.762 22.0938ZM-160.711 322.939C-160.342 321.32 -158.803 320.324 -157.273 320.715L-137.742 325.713C-136.212 326.104 -135.272 327.734 -135.642 329.354C-136.011 330.974 -137.55 331.97 -139.08 331.578L-158.611 326.581C-160.141 326.189 -161.081 324.559 -160.711 322.939ZM-160.53 -392.536C-160.98 -394.132 -160.122 -395.813 -158.615 -396.289L-139.367 -402.371C-137.859 -402.848 -136.272 -401.94 -135.823 -400.343C-135.373 -398.746 -136.23 -397.066 -137.738 -396.589L-156.986 -390.507C-158.493 -390.031 -160.08 -390.939 -160.53 -392.536ZM-160.4 270.23C-160.899 268.649 -160.093 266.94 -158.601 266.412L-139.552 259.668C-138.06 259.139 -136.446 259.992 -135.947 261.572C-135.449 263.153 -136.254 264.862 -137.746 265.39L-156.795 272.135C-158.287 272.663 -159.901 271.81 -160.4 270.23ZM-160.261 631.979C-160.808 630.417 -160.057 628.68 -158.582 628.1L-139.755 620.693C-138.28 620.113 -136.64 620.909 -136.092 622.471C-135.545 624.033 -136.296 625.769 -137.771 626.35L-156.598 633.756C-158.073 634.336 -159.713 633.541 -160.261 631.979ZM-160.203 571.918C-160.769 570.363 -160.037 568.617 -158.569 568.018L-139.827 560.37C-138.359 559.771 -136.71 560.546 -136.144 562.101C-135.579 563.656 -136.31 565.402 -137.779 566.001L-156.52 573.648C-157.989 574.247 -159.637 573.473 -160.203 571.918ZM-159.932 742.052C-159.286 740.532 -157.6 739.855 -156.165 740.539L-137.849 749.27C-136.415 749.954 -135.775 751.74 -136.421 753.259C-137.067 754.779 -138.753 755.456 -140.188 754.772L-158.504 746.041C-159.938 745.357 -160.578 743.571 -159.932 742.052ZM-159.932 -462.258C-159.286 -463.778 -157.6 -464.455 -156.165 -463.771L-137.849 -455.04C-136.415 -454.356 -135.775 -452.57 -136.421 -451.051C-137.067 -449.531 -138.753 -448.854 -140.188 -449.538L-158.503 -458.269C-159.938 -458.953 -160.578 -460.739 -159.932 -462.258ZM-159.727 151.568C-160.426 150.075 -159.85 148.264 -158.441 147.524L-140.443 138.07C-139.034 137.33 -137.325 137.94 -136.626 139.433C-135.926 140.926 -136.502 142.736 -137.912 143.476L-155.909 152.93C-157.319 153.67 -159.028 153.06 -159.727 151.568ZM-159.67 -41.3601C-158.957 -42.8457 -157.243 -43.4384 -155.84 -42.6839L-137.928 -33.0494C-136.525 -32.295 -135.965 -30.4789 -136.678 -28.9932C-137.39 -27.5076 -139.105 -26.9149 -140.507 -27.6694L-158.42 -37.3039C-159.822 -38.0583 -160.382 -39.8744 -159.67 -41.3601ZM-159.334 694.281C-160.122 692.839 -159.657 690.993 -158.296 690.158L-140.912 679.5C-139.55 678.665 -137.807 679.158 -137.019 680.6C-136.231 682.042 -136.696 683.887 -138.057 684.722L-155.441 695.38C-156.803 696.215 -158.546 695.723 -159.334 694.281ZM-159.137 212.874C-159.965 211.457 -159.552 209.597 -158.214 208.72L-141.132 197.52C-139.794 196.643 -138.038 197.081 -137.21 198.497C-136.382 199.914 -136.795 201.774 -138.133 202.651L-155.215 213.851C-156.553 214.728 -158.309 214.29 -159.137 212.874ZM-158.925 -102.898C-158.057 -104.287 -156.289 -104.668 -154.978 -103.748L-138.23 -92.0063C-136.918 -91.0866 -136.559 -89.2146 -137.427 -87.8252C-138.296 -86.4358 -140.063 -86.0551 -141.375 -86.9749L-158.123 -98.7168C-159.434 -99.6365 -159.794 -101.509 -158.925 -102.898ZM-158.216 -164.185C-157.229 -165.482 -155.435 -165.685 -154.211 -164.639L-138.56 -151.272C-137.335 -150.226 -137.143 -148.327 -138.131 -147.03C-139.118 -145.733 -140.912 -145.529 -142.137 -146.575L-157.787 -159.942C-159.012 -160.988 -159.204 -162.888 -158.216 -164.185ZM-158.181 515.411C-159.173 514.118 -158.988 512.218 -157.768 511.167L-142.174 497.739C-140.953 496.688 -139.159 496.883 -138.166 498.176C-137.174 499.469 -137.359 501.369 -138.58 502.421L-154.173 515.848C-155.394 516.9 -157.188 516.704 -158.181 515.411ZM-155.898 -226.729C-154.638 -227.727 -152.853 -227.455 -151.91 -226.12L-139.874 -209.08C-138.932 -207.745 -139.189 -205.855 -140.449 -204.857C-141.709 -203.859 -143.494 -204.131 -144.437 -205.465L-156.473 -222.506C-157.415 -223.84 -157.158 -225.731 -155.898 -226.729ZM-154.862 374.66C-153.517 373.796 -151.765 374.25 -150.949 375.675L-140.533 393.86C-139.717 395.285 -140.146 397.14 -141.491 398.005C-142.836 398.869 -144.588 398.415 -145.404 396.99L-155.82 378.805C-156.636 377.38 -156.207 375.524 -154.862 374.66ZM-154.3 -324.205C-155.684 -324.996 -156.201 -326.827 -155.454 -328.293L-145.913 -347.02C-145.165 -348.487 -143.437 -349.034 -142.053 -348.243C-140.668 -347.452 -140.151 -345.621 -140.899 -344.155L-150.44 -325.428C-151.187 -323.961 -152.915 -323.414 -154.3 -324.205ZM-151.565 459.756C-153.083 459.318 -153.978 457.66 -153.565 456.052L-148.285 435.518C-147.872 433.91 -146.306 432.962 -144.788 433.4C-143.27 433.838 -142.375 435.496 -142.788 437.104L-148.067 457.637C-148.481 459.245 -150.047 460.193 -151.565 459.756ZM-150.406 -289.487C-148.856 -289.776 -147.379 -288.679 -147.107 -287.038L-143.629 -266.083C-143.356 -264.442 -144.392 -262.878 -145.941 -262.589C-147.491 -262.301 -148.968 -263.397 -149.24 -265.038L-152.718 -285.993C-152.99 -287.634 -151.955 -289.199 -150.406 -289.487ZM-104.241 205.677C-104.237 204.011 -102.958 202.664 -101.384 202.669L-81.2899 202.729C-79.7166 202.734 -78.4448 204.088 -78.4492 205.755C-78.4536 207.421 -79.7326 208.768 -81.3059 208.763L-101.401 208.703C-102.974 208.698 -104.246 207.344 -104.241 205.677ZM-104.234 687.874C-104.287 686.208 -103.056 684.812 -101.484 684.756L-81.4004 684.033C-79.828 683.977 -78.5101 685.281 -78.4567 686.946C-78.4032 688.611 -79.6346 690.007 -81.207 690.064L-101.29 690.786C-102.863 690.843 -104.18 689.539 -104.234 687.874ZM-104.235 84.937C-104.194 83.2713 -102.887 81.9553 -101.314 81.9977L-81.2311 82.5395C-79.6583 82.5819 -78.4158 83.9667 -78.4558 85.6324C-78.4959 87.2981 -79.8034 88.614 -81.3762 88.5716L-101.459 88.0299C-103.032 87.9874 -104.275 86.6027 -104.235 84.937ZM-104.198 146.553C-104.323 144.892 -103.152 143.438 -101.584 143.306L-81.5578 141.62C-79.9895 141.488 -78.617 142.727 -78.4923 144.388C-78.3676 146.049 -79.5379 147.503 -81.1063 147.635L-101.133 149.321C-102.701 149.453 -104.073 148.214 -104.198 146.553ZM-104.132 264.124C-103.927 262.472 -102.496 261.308 -100.936 261.525L-81.0126 264.295C-79.4527 264.512 -78.3541 266.027 -78.5588 267.679C-78.7635 269.331 -80.1941 270.494 -81.754 270.278L-101.678 267.508C-103.238 267.291 -104.336 265.776 -104.132 264.124ZM-104.117 -274.115C-104.335 -275.765 -103.249 -277.29 -101.691 -277.521L-81.7952 -280.471C-80.2371 -280.702 -78.7971 -279.552 -78.579 -277.902C-78.3608 -276.251 -79.4471 -274.726 -81.0051 -274.495L-100.901 -271.545C-102.459 -271.314 -103.899 -272.464 -104.117 -274.115ZM-103.934 323.171C-103.591 321.545 -102.069 320.521 -100.533 320.884L-80.9216 325.521C-79.3861 325.884 -78.4192 327.497 -78.762 329.123C-79.1048 330.749 -80.6275 331.773 -82.163 331.41L-101.775 326.773C-103.31 326.41 -104.277 324.798 -103.934 323.171ZM-103.862 -393.155C-104.24 -394.772 -103.309 -396.408 -101.782 -396.809L-82.2844 -401.927C-80.7573 -402.328 -79.2125 -401.342 -78.834 -399.724C-78.4555 -398.107 -79.3866 -396.471 -80.9137 -396.07L-100.412 -390.952C-101.939 -390.551 -103.483 -391.537 -103.862 -393.155ZM-103.745 743.907C-103.313 742.305 -101.737 741.377 -100.224 741.834L-80.9081 747.675C-79.3952 748.132 -78.519 749.802 -78.9509 751.404C-79.3828 753.007 -80.9594 753.935 -82.4722 753.477L-101.788 747.636C-103.301 747.179 -104.177 745.509 -103.745 743.907ZM-103.745 -460.403C-103.313 -462.005 -101.737 -462.933 -100.224 -462.476L-80.9079 -456.635C-79.395 -456.178 -78.5188 -454.508 -78.9507 -452.906C-79.3827 -451.304 -80.9592 -450.376 -82.472 -450.833L-101.788 -456.674C-103.301 -457.131 -104.177 -458.801 -103.745 -460.403ZM-103.702 382.459C-103.252 380.863 -101.665 379.954 -100.158 380.43L-80.9043 386.512C-79.3966 386.989 -78.539 388.669 -78.9887 390.266C-79.4383 391.863 -81.0251 392.771 -82.5328 392.295L-101.786 386.213C-103.294 385.737 -104.151 384.056 -103.702 382.459ZM-103.585 -220.083C-103.091 -221.664 -101.48 -222.522 -99.9861 -221.999L-80.9144 -215.315C-79.4207 -214.792 -78.6105 -213.085 -79.1048 -211.503C-79.599 -209.921 -81.2106 -209.063 -82.7042 -209.587L-101.776 -216.27C-103.27 -216.794 -104.08 -218.501 -103.585 -220.083ZM-103.322 20.0067C-102.739 18.4591 -101.082 17.7053 -99.6204 18.3229L-80.958 26.2117C-79.4968 26.8294 -78.785 28.5846 -79.3682 30.1322C-79.9514 31.6797 -81.6088 32.4336 -83.0699 31.8159L-101.732 23.9271C-103.194 23.3094 -103.905 21.5542 -103.322 20.0067ZM-103.316 -331.16C-103.9 -332.708 -103.188 -334.463 -101.727 -335.081L-83.0761 -342.97C-81.615 -343.588 -79.9576 -342.834 -79.3741 -341.287C-78.7906 -339.739 -79.502 -337.984 -80.9632 -337.366L-99.6141 -329.478C-101.075 -328.86 -102.733 -329.613 -103.316 -331.16ZM-102.981 440.673C-102.304 439.169 -100.604 438.531 -99.1835 439.248L-81.0552 448.401C-79.6351 449.118 -79.0326 450.918 -79.7096 452.423C-80.3867 453.927 -82.0868 454.565 -83.507 453.848L-101.635 444.695C-103.055 443.978 -103.658 442.177 -102.981 440.673ZM-100.704 -164.969C-99.6216 -166.179 -97.8186 -166.23 -96.6767 -165.084L-82.1002 -150.451C-80.9583 -149.305 -80.91 -147.395 -81.9923 -146.186C-83.0746 -144.976 -84.8777 -144.925 -86.0196 -146.072L-100.596 -160.704C-101.738 -161.85 -101.786 -163.76 -100.704 -164.969ZM-100.486 -44.7701C-99.3768 -45.9517 -97.5731 -45.9574 -96.4573 -44.7827L-82.2163 -29.7888C-81.1005 -28.6141 -81.0952 -26.7037 -82.2043 -25.5221C-83.3136 -24.3404 -85.1172 -24.3347 -86.233 -25.5095L-100.474 -40.5033C-101.59 -41.6781 -101.595 -43.5884 -100.486 -44.7701ZM-100.113 496.784C-98.9601 495.65 -97.1576 495.722 -96.0876 496.943L-82.4261 512.539C-81.3561 513.761 -81.4236 515.67 -82.577 516.803C-83.7304 517.936 -85.5328 517.865 -86.6028 516.643L-100.264 501.047C-101.334 499.826 -101.267 497.917 -100.113 496.784ZM-99.6805 637.627C-100.882 636.551 -101.032 634.647 -100.016 633.375L-87.0304 617.117C-86.0143 615.845 -84.2169 615.686 -83.0157 616.762C-81.8145 617.838 -81.6644 619.742 -82.6805 621.014L-95.6658 637.272C-96.6819 638.544 -98.4793 638.703 -99.6805 637.627ZM-98.8727 -106.453C-97.5951 -107.425 -95.8151 -107.117 -94.8968 -105.764L-83.1675 -88.4821C-82.2492 -87.1291 -82.5404 -85.2439 -83.8179 -84.2713C-85.0954 -83.2987 -86.8754 -83.6071 -87.7937 -84.9601L-99.523 -102.242C-100.441 -103.595 -100.15 -105.48 -98.8727 -106.453ZM-92.8116 553.444C-91.2485 553.254 -89.8363 554.443 -89.6574 556.098L-87.3729 577.234C-87.194 578.889 -88.316 580.385 -89.8791 580.575C-91.4422 580.764 -92.8544 579.576 -93.0333 577.92L-95.3178 556.784C-95.4967 555.129 -94.3747 553.633 -92.8116 553.444ZM-47.4128 326.031C-47.3994 324.365 -46.1132 323.025 -44.54 323.04L-24.4511 323.22C-22.8779 323.235 -21.6133 324.597 -21.6267 326.263C-21.6401 327.929 -22.9263 329.268 -24.4995 329.254L-44.5884 329.073C-46.1616 329.059 -47.4261 327.697 -47.4128 326.031ZM-47.4127 266.056C-47.4305 264.39 -46.1696 263.024 -44.5964 263.005L-24.5075 262.764C-22.9344 262.745 -21.6446 264.081 -21.6268 265.747C-21.6089 267.413 -22.8698 268.779 -24.443 268.798L-44.5319 269.039C-46.1051 269.058 -47.3949 267.722 -47.4127 266.056ZM-47.4121 205.377C-47.3766 203.711 -46.0726 202.391 -44.4997 202.429L-24.4109 202.91C-22.8379 202.948 -21.5917 204.329 -21.6273 205.994C-21.6629 207.66 -22.9668 208.98 -24.5397 208.942L-44.6286 208.461C-46.2015 208.423 -47.4477 207.042 -47.4121 205.377ZM-47.3683 -216.982C-47.2348 -218.642 -45.8557 -219.874 -44.2881 -219.732L-24.2675 -217.925C-22.6999 -217.784 -21.5374 -216.323 -21.671 -214.663C-21.8046 -213.003 -23.1837 -211.772 -24.7512 -211.913L-44.7718 -213.72C-46.3394 -213.861 -47.5019 -215.322 -47.3683 -216.982ZM-47.2967 384.546C-47.0875 382.895 -45.6538 381.736 -44.0945 381.957L-24.1818 384.787C-22.6225 385.009 -21.528 386.527 -21.7373 388.179C-21.9465 389.83 -23.3802 390.989 -24.9395 390.768L-44.8522 387.938C-46.4115 387.716 -47.506 386.198 -47.2967 384.546ZM-47.2955 -394.615C-47.5092 -396.265 -46.4188 -397.787 -44.8601 -398.013L-24.953 -400.903C-23.3943 -401.13 -21.9575 -399.975 -21.7438 -398.324C-21.5302 -396.673 -22.6206 -395.151 -24.1793 -394.925L-44.0864 -392.035C-45.6451 -391.809 -47.0819 -392.964 -47.2955 -394.615ZM-47.2807 143.53C-47.0537 141.881 -45.6076 140.739 -44.0508 140.979L-24.1665 144.051C-22.6097 144.291 -21.5317 145.823 -21.7587 147.471C-21.9857 149.12 -23.4319 150.262 -24.9887 150.022L-44.8729 146.95C-46.4297 146.71 -47.5077 145.178 -47.2807 143.53ZM-47.2166 689.797C-47.4882 688.156 -46.4522 686.592 -44.9025 686.305L-25.1149 682.632C-23.5652 682.344 -22.0888 683.441 -21.8172 685.082C-21.5456 686.724 -22.5817 688.287 -24.1313 688.575L-43.9189 692.248C-45.4686 692.536 -46.945 691.438 -47.2166 689.797ZM-46.5315 -271.091C-47.1017 -272.644 -46.3751 -274.393 -44.9087 -274.996L-26.1894 -282.704C-24.723 -283.308 -23.0722 -282.539 -22.502 -280.986C-21.9319 -279.433 -22.6585 -277.684 -24.1249 -277.08L-42.8442 -269.372C-44.3105 -268.769 -45.9614 -269.538 -46.5315 -271.091ZM-46.2454 79.6041C-45.5909 78.0889 -43.9006 77.4224 -42.4699 78.1155L-24.1996 86.967C-22.7689 87.6602 -22.1396 89.4504 -22.7941 90.9657C-23.4486 92.4809 -25.1389 93.1474 -26.5696 92.4543L-44.8399 83.6028C-46.2706 82.9096 -46.8999 81.1193 -46.2454 79.6041ZM-46.1645 440.675C-45.4882 439.17 -43.7884 438.531 -42.3679 439.247L-24.2169 448.4C-22.7964 449.117 -22.1931 450.917 -22.8695 452.421C-23.5458 453.926 -25.2456 454.565 -26.6661 453.848L-44.8171 444.696C-46.2376 443.979 -46.8409 442.179 -46.1645 440.675ZM-45.9822 -329.994C-46.7031 -331.475 -46.1539 -333.295 -44.7555 -334.058L-26.8888 -343.813C-25.4903 -344.577 -23.7723 -343.995 -23.0514 -342.514C-22.3305 -341.033 -22.8797 -339.213 -24.2781 -338.45L-42.1448 -328.695C-43.5433 -327.932 -45.2613 -328.513 -45.9822 -329.994ZM-45.2812 740.121C-44.4136 738.731 -42.6463 738.349 -41.3339 739.268L-24.5638 751.01C-23.2513 751.929 -22.8908 753.801 -23.7584 755.191C-24.6261 756.581 -26.3934 756.962 -27.7058 756.044L-44.4759 744.302C-45.7883 743.383 -46.1489 741.511 -45.2812 740.121ZM-45.2811 -464.189C-44.4135 -465.579 -42.6461 -465.961 -41.3337 -465.042L-24.5636 -453.301C-23.2512 -452.382 -22.8906 -450.51 -23.7583 -449.12C-24.6259 -447.73 -26.3932 -447.348 -27.7056 -448.267L-44.4757 -460.009C-45.7882 -460.928 -46.1487 -462.799 -45.2811 -464.189ZM-44.6467 -164.039C-43.6722 -165.347 -41.8809 -165.571 -40.6458 -164.539L-24.8645 -151.352C-23.6294 -150.32 -23.4181 -148.423 -24.3926 -147.115C-25.3671 -145.807 -27.1584 -145.583 -28.3936 -146.615L-44.1748 -159.802C-45.41 -160.834 -45.6212 -162.731 -44.6467 -164.039ZM-43.1445 637.386C-44.3144 636.272 -44.41 634.365 -43.3581 633.125L-29.9126 617.289C-28.8606 616.05 -27.0594 615.948 -25.8896 617.062C-24.7197 618.177 -24.624 620.084 -25.676 621.323L-39.1215 637.16C-40.1735 638.399 -41.9746 638.5 -43.1445 637.386ZM-43.0376 14.8267C-41.8571 13.7251 -40.057 13.8457 -39.0169 15.0959L-25.7419 31.0532C-24.7018 32.3034 -24.8156 34.2099 -25.9961 35.3114C-27.1766 36.4129 -28.9766 36.2924 -30.0167 35.0422L-43.2918 19.0849C-44.3318 17.8347 -44.218 15.9282 -43.0376 14.8267ZM-41.9114 495.559C-40.6219 494.605 -38.8458 494.938 -37.9445 496.303L-26.4196 513.766C-25.5182 515.132 -25.8329 517.013 -27.1224 517.967C-28.4119 518.922 -30.188 518.589 -31.0893 517.223L-42.6142 499.76C-43.5155 498.395 -43.2009 496.514 -41.9114 495.559ZM-40.4908 -107.46C-39.0965 -108.231 -37.3753 -107.66 -36.6465 -106.183L-27.3437 -87.3357C-26.6148 -85.8591 -27.1543 -84.0362 -28.5486 -83.2643C-29.9429 -82.4925 -31.664 -83.0638 -32.3928 -84.5404L-41.6956 -103.388C-42.4245 -104.865 -41.8851 -106.688 -40.4908 -107.46ZM-39.8196 -47.621C-38.3854 -48.3061 -36.6984 -47.6301 -36.0515 -46.1112L-27.7944 -26.7222C-27.1476 -25.2033 -27.7858 -23.4166 -29.22 -22.7315C-30.6541 -22.0464 -32.3411 -22.7224 -32.988 -24.2414L-41.2451 -43.6304C-41.892 -45.1492 -41.2538 -46.936 -39.8196 -47.621ZM-34.9911 580.652C-36.5633 580.591 -37.7909 579.191 -37.7331 577.526L-36.9943 556.27C-36.9364 554.605 -35.6149 553.305 -34.0427 553.366C-32.4705 553.427 -31.2429 554.827 -31.3007 556.492L-32.0395 577.748C-32.0974 579.413 -33.4189 580.713 -34.9911 580.652ZM9.43058 206.381C9.35047 204.717 10.5593 203.299 12.1305 203.215L32.1966 202.131C33.7678 202.046 35.1065 203.327 35.1866 204.991C35.2667 206.655 34.0579 208.073 32.4867 208.157L12.4206 209.241C10.8494 209.326 9.51069 208.046 9.43058 206.381ZM9.46699 -335.017C9.3245 -336.676 10.4792 -338.144 12.046 -338.295L32.0553 -340.222C33.6222 -340.373 35.0078 -339.15 35.1504 -337.491C35.2928 -335.831 34.1382 -334.364 32.5714 -334.213L12.562 -332.286C10.9952 -332.135 9.60952 -333.357 9.46699 -335.017ZM9.49619 387.878C9.3181 386.222 10.441 384.727 12.0041 384.539L31.9679 382.13C33.5311 381.942 34.9427 383.131 35.1208 384.786C35.2989 386.442 34.176 387.937 32.6128 388.125L12.649 390.534C11.0858 390.723 9.67427 389.533 9.49619 387.878ZM9.56135 -273.96C9.32532 -275.607 10.395 -277.145 11.9505 -277.395L31.8122 -280.587C33.3677 -280.837 34.82 -279.704 35.056 -278.056C35.292 -276.409 34.2224 -274.871 32.6669 -274.621L12.8051 -271.429C11.2496 -271.179 9.79734 -272.312 9.56135 -273.96ZM9.80246 -219.147C10.1854 -220.763 11.7328 -221.744 13.2588 -221.339L32.7451 -216.16C34.2711 -215.755 35.1978 -214.116 34.8149 -212.5C34.4319 -210.884 32.8845 -209.902 31.3585 -210.308L11.8722 -215.486C10.3462 -215.892 9.41955 -217.531 9.80246 -219.147ZM9.89766 691.12C9.47032 689.516 10.3514 687.849 11.8655 687.397L31.204 681.616C32.7182 681.164 34.2921 682.097 34.7194 683.7C35.1467 685.304 34.2657 686.971 32.7516 687.423L13.413 693.204C11.8989 693.656 10.325 692.723 9.89766 691.12ZM9.93318 269.758C9.49229 268.158 10.3592 266.483 11.8695 266.016L31.1511 260.055C32.6614 259.588 34.2431 260.506 34.684 262.105C35.1249 263.705 34.258 265.38 32.7477 265.847L13.466 271.808C11.9558 272.275 10.3741 271.357 9.93318 269.758ZM10.0994 330.514C9.596 328.936 10.3963 327.224 11.8869 326.691L30.913 319.886C32.4036 319.353 34.02 320.201 34.5234 321.779C35.0267 323.358 34.2264 325.07 32.7358 325.603L13.7097 332.407C12.2191 332.941 10.6027 332.093 10.0994 330.514ZM10.1756 140.834C10.7096 139.266 12.3422 138.454 13.8221 139.02L32.7289 146.245C34.2088 146.811 34.9756 148.54 34.4416 150.107C33.9076 151.674 32.275 152.487 30.7951 151.921L11.8883 144.696C10.4084 144.13 9.64158 142.401 10.1756 140.834ZM10.2994 441.593C10.8733 440.042 12.5261 439.277 13.991 439.885L32.7103 447.653C34.1752 448.261 34.8974 450.011 34.3234 451.563C33.7494 453.114 32.0967 453.879 30.6318 453.271L11.9125 445.503C10.4476 444.895 9.72538 443.145 10.2994 441.593ZM10.676 -402.344C11.3531 -403.848 13.0532 -404.486 14.4734 -403.769L32.6016 -394.616C34.0217 -393.899 34.6241 -392.098 33.9471 -390.594C33.27 -389.09 31.5699 -388.452 30.1497 -389.169L12.0215 -398.322C10.6014 -399.039 9.99896 -400.84 10.676 -402.344ZM12.9032 636.545C11.8266 635.33 11.8839 633.42 13.0311 632.28L27.6929 617.708C28.8401 616.568 30.643 616.628 31.7196 617.844C32.7962 619.059 32.7389 620.968 31.5917 622.108L16.9299 636.68C15.7827 637.82 13.9799 637.76 12.9032 636.545ZM14.1003 74.738C15.3142 73.6779 17.1096 73.8608 18.1105 75.1464L30.9083 91.5851C31.9092 92.8707 31.7366 94.7722 30.5227 95.8322C29.3088 96.8922 27.5134 96.7094 26.5125 95.4237L13.7146 78.9851C12.7138 77.6995 12.8864 75.798 14.1003 74.738ZM14.259 -166.274C15.488 -167.314 17.2806 -167.102 18.2629 -165.801L30.805 -149.181C31.7872 -147.88 31.5872 -145.981 30.3583 -144.941C29.1293 -143.9 27.3367 -144.112 26.3544 -145.414L13.8123 -162.033C12.8301 -163.335 13.0301 -165.233 14.259 -166.274ZM15.8356 494.941C17.1965 494.104 18.9397 494.595 19.7291 496.036L29.8219 514.463C30.6114 515.904 30.1481 517.75 28.7872 518.586C27.4264 519.422 25.6832 518.932 24.8937 517.49L14.8009 499.064C14.0115 497.623 14.4747 495.777 15.8356 494.941ZM19.1824 734.401C20.7087 733.997 22.2554 734.98 22.637 736.596L27.5128 757.251C27.8944 758.867 26.9665 760.505 25.4402 760.909C23.9138 761.313 22.3672 760.331 21.9856 758.714L17.1097 738.06C16.7281 736.444 17.656 734.805 19.1824 734.401ZM19.1825 -469.909C20.7089 -470.313 22.2555 -469.331 22.6371 -467.714L27.513 -447.06C27.8946 -445.443 26.9666 -443.805 25.4403 -443.401C23.914 -442.997 22.3673 -443.98 21.9857 -445.596L17.1099 -466.251C16.7283 -467.867 17.6562 -469.505 19.1825 -469.909ZM19.8614 580.419C18.3167 580.102 17.3065 578.52 17.6051 576.884L21.4182 555.989C21.7167 554.353 23.2109 553.283 24.7557 553.6C26.3004 553.916 27.3106 555.498 27.012 557.134L23.1989 578.029C22.9004 579.665 21.4062 580.735 19.8614 580.419ZM20.3126 11.5812C21.8669 11.3228 23.3246 12.4478 23.5685 14.094L26.6827 35.1093C26.9266 36.7555 25.8644 38.2993 24.3101 38.5576C22.7559 38.816 21.2981 37.691 21.0542 36.0449L17.94 15.0295C17.6961 13.3834 18.7583 11.8395 20.3126 11.5812ZM20.9707 -108.99C22.5355 -109.163 23.9362 -107.96 24.0993 -106.302L26.1847 -85.1065C26.3478 -83.4492 25.2115 -81.9657 23.6466 -81.793C22.0818 -81.6203 20.6811 -82.8238 20.518 -84.4811L18.4325 -105.677C18.2695 -107.334 19.4058 -108.818 20.9707 -108.99ZM21.0571 -21.5756C19.4913 -21.7376 18.3459 -23.2133 18.4988 -24.8717L20.4537 -46.0675C20.6067 -47.7258 22.0001 -48.9389 23.5659 -48.7769C25.1317 -48.6149 26.2771 -47.1392 26.1242 -45.4808L24.1693 -24.285C24.0163 -22.6267 22.6229 -21.4136 21.0571 -21.5756ZM66.2517 206.226C66.1894 204.562 67.4133 203.158 68.9854 203.092L89.0628 202.249C90.6348 202.183 91.9598 203.479 92.0221 205.144C92.0844 206.809 90.8605 208.213 89.2885 208.279L69.211 209.122C67.639 209.188 66.3141 207.891 66.2517 206.226ZM66.7022 691.034C66.288 689.427 67.1826 687.768 68.7005 687.33L88.0789 681.729C89.5967 681.29 91.1629 682.238 91.5771 683.845C91.9913 685.453 91.0966 687.111 89.5788 687.55L70.2003 693.151C68.6825 693.589 67.1164 692.642 66.7022 691.034ZM66.7476 390.119C66.3113 388.519 67.1831 386.846 68.6947 386.384L87.9992 380.483C89.5108 380.021 91.0899 380.945 91.5262 382.545C91.9624 384.146 91.0907 385.819 89.5791 386.281L70.2745 392.182C68.763 392.644 67.1839 391.72 66.7476 390.119ZM66.9501 442.133C67.4622 440.558 69.0834 439.72 70.5709 440.263L89.5631 447.188C91.0507 447.73 91.8414 449.447 91.3292 451.023C90.8171 452.598 89.196 453.436 87.7084 452.893L68.7163 445.968C67.2287 445.426 66.4379 443.709 66.9501 442.133ZM67.3873 -281.612C68.0332 -283.132 69.7198 -283.809 71.1544 -283.125L89.4644 -274.394C90.899 -273.71 91.5383 -271.923 90.8924 -270.404C90.2465 -268.885 88.5599 -268.207 87.1253 -268.892L68.8153 -277.623C67.3807 -278.307 66.7414 -280.093 67.3873 -281.612ZM67.6224 272.076C66.9146 270.588 67.4799 268.773 68.885 268.024L86.8313 258.45C88.2364 257.7 89.9492 258.299 90.657 259.787C91.3648 261.275 90.7995 263.089 89.3944 263.839L71.4481 273.413C70.043 274.162 68.3302 273.564 67.6224 272.076ZM68.2047 333.374C67.3716 331.961 67.7781 330.1 69.1127 329.218L86.1441 317.957C87.4787 317.075 89.236 317.506 90.0691 318.919C90.9022 320.333 90.4957 322.194 89.1611 323.076L72.1297 334.336C70.7951 335.219 69.0378 334.788 68.2047 333.374ZM68.325 634.682C67.4664 633.286 67.8391 631.417 69.1574 630.507L86.007 618.885C87.3254 617.976 89.0901 618.371 89.9488 619.767C90.8074 621.163 90.4347 623.032 89.1164 623.941L72.2668 635.564C70.9484 636.473 69.1836 636.078 68.325 634.682ZM68.716 137.432C69.6421 136.085 71.4239 135.788 72.6957 136.769L88.9373 149.293C90.2092 150.274 90.4895 152.161 89.5634 153.508C88.6374 154.855 86.8556 155.152 85.5838 154.171L69.3422 141.647C68.0703 140.666 67.79 138.779 68.716 137.432ZM68.8648 -344.523C69.8168 -345.849 71.6039 -346.107 72.8565 -345.099L88.865 -332.213C90.1176 -331.205 90.3612 -329.312 89.4092 -327.985C88.4572 -326.659 86.67 -326.401 85.4175 -327.409L69.409 -340.295C68.1564 -341.304 67.9127 -343.196 68.8648 -344.523ZM69.5175 -224.875C70.5643 -226.119 72.365 -226.229 73.5395 -225.12L88.5309 -210.97C89.7054 -209.861 89.809 -207.954 88.7622 -206.71C87.7154 -205.466 85.9146 -205.357 84.7401 -206.465L69.7488 -220.616C68.5743 -221.724 68.4707 -223.632 69.5175 -224.875ZM70.3956 757.672C69.2386 756.543 69.1649 754.634 70.2311 753.409L83.8528 737.753C84.919 736.527 86.7211 736.449 87.8781 737.579C89.0351 738.708 89.1088 740.616 88.0426 741.842L74.4208 757.498C73.3547 758.723 71.5525 758.801 70.3956 757.672ZM70.3957 -446.639C69.2387 -447.768 69.1651 -449.676 70.2312 -450.902L83.853 -466.558C84.9191 -467.783 86.7213 -467.861 87.8783 -466.732C89.0353 -465.603 89.1089 -463.694 88.0428 -462.469L74.421 -446.813C73.3549 -445.587 71.5527 -445.509 70.3957 -446.639ZM70.6129 -24.9044C69.4326 -26.0063 69.3192 -27.9127 70.3595 -29.1628L83.6403 -45.1201C84.6807 -46.3701 86.4808 -46.4901 87.661 -45.3884C88.8413 -44.2865 88.9547 -42.3801 87.9143 -41.13L74.6336 -25.1727C73.5932 -23.9228 71.7931 -23.8027 70.6129 -24.9044ZM73.2101 37.1723C71.8128 36.4064 71.2664 34.5858 71.9896 33.106L81.23 14.1984C81.9532 12.7186 83.6721 12.1399 85.0694 12.9058C86.4666 13.6717 87.013 15.4923 86.2898 16.9721L77.0494 35.8797C76.3263 37.3595 74.6073 37.9382 73.2101 37.1723ZM73.5756 -83.035C72.1561 -83.7534 71.5552 -85.5546 72.2335 -87.0579L80.8997 -106.266C81.5781 -107.77 83.2787 -108.406 84.6983 -107.688C86.1178 -106.97 86.7187 -105.168 86.0404 -103.665L77.3742 -84.4565C76.6958 -82.9531 74.9952 -82.3166 73.5756 -83.035ZM73.9477 494.246C75.3882 493.576 77.0688 494.269 77.7017 495.795L85.7941 515.305C86.4269 516.83 85.7722 518.61 84.3317 519.281C82.8913 519.951 81.2106 519.257 80.5778 517.732L72.4853 498.222C71.8526 496.696 72.5073 494.916 73.9477 494.246ZM74.1367 579.575C72.6865 578.929 72.0054 577.16 72.6154 575.624L80.4123 555.994C81.0224 554.458 82.6926 553.737 84.1427 554.383C85.593 555.029 86.2741 556.798 85.664 558.334L77.8671 577.964C77.2571 579.5 75.5869 580.221 74.1367 579.575ZM76.2387 -409.766C77.7718 -410.14 79.301 -409.127 79.6541 -407.503L84.172 -386.729C84.5252 -385.105 83.5686 -383.486 82.0354 -383.112C80.5023 -382.738 78.9731 -383.751 78.62 -385.375L74.102 -406.149C73.7489 -407.773 74.7055 -409.392 76.2387 -409.766ZM76.6753 -168.986C78.2197 -169.304 79.715 -168.236 80.0153 -166.6L83.8513 -145.706C84.1516 -144.07 83.1431 -142.486 81.5987 -142.168C80.0543 -141.85 78.559 -142.918 78.2587 -144.554L74.4227 -165.448C74.1224 -167.084 75.1309 -168.668 76.6753 -168.986ZM76.9532 71.804C78.5038 71.5223 79.9765 72.6252 80.2425 74.2674L83.6465 95.2825C83.9126 96.9247 82.8712 98.4845 81.3205 98.7662C79.7699 99.0479 78.2972 97.945 78.0312 96.3027L74.6271 75.2877C74.3611 73.6455 75.4025 72.0857 76.9532 71.804ZM123.181 689.179C122.98 687.527 124.083 686.015 125.643 685.802L145.567 683.093C147.128 682.881 148.555 684.049 148.756 685.701C148.956 687.354 147.853 688.866 146.293 689.078L126.369 691.787C124.808 692 123.381 690.832 123.181 689.179ZM123.196 -33.2523C122.978 -34.9024 124.064 -36.4275 125.622 -36.6585L145.518 -39.6093C147.076 -39.8404 148.516 -38.69 148.734 -37.0398C148.952 -35.3897 147.866 -33.8646 146.308 -33.6336L126.413 -30.6828C124.854 -30.4517 123.414 -31.6021 123.196 -33.2523ZM123.225 745.539C123.465 743.892 124.921 742.763 126.475 743.018L146.331 746.27C147.886 746.525 148.952 748.066 148.711 749.713C148.471 751.359 147.015 752.488 145.461 752.233L125.605 748.981C124.05 748.727 122.984 747.185 123.225 745.539ZM123.225 -458.772C123.465 -460.419 124.921 -461.547 126.476 -461.292L146.332 -458.04C147.886 -457.786 148.952 -456.245 148.711 -454.598C148.471 -452.951 147.016 -451.823 145.461 -452.077L125.605 -455.329C124.05 -455.584 122.985 -457.125 123.225 -458.772ZM123.428 389.502C123.063 387.881 124.008 386.254 125.538 385.867L145.076 380.929C146.606 380.542 148.143 381.542 148.508 383.163C148.873 384.784 147.928 386.411 146.398 386.798L126.861 391.736C125.33 392.123 123.794 391.123 123.428 389.502ZM123.598 631.059C123.152 629.461 124.015 627.783 125.524 627.312L144.8 621.29C146.309 620.819 147.893 621.732 148.338 623.33C148.783 624.929 147.921 626.606 146.412 627.078L127.136 633.099C125.627 633.571 124.043 632.657 123.598 631.059ZM123.612 201.813C124.061 200.216 125.648 199.308 127.156 199.784L146.409 205.866C147.917 206.342 148.774 208.022 148.325 209.619C147.875 211.216 146.288 212.124 144.781 211.648L125.527 205.566C124.02 205.09 123.162 203.41 123.612 201.813ZM123.677 270.066C123.201 268.478 124.031 266.781 125.53 266.277L144.681 259.834C146.181 259.33 147.782 260.208 148.259 261.797C148.735 263.385 147.906 265.081 146.406 265.585L127.255 272.028C125.755 272.532 124.154 271.654 123.677 270.066ZM123.927 29.9772C123.362 28.4222 124.094 26.6763 125.562 26.0778L144.321 18.4302C145.79 17.8316 147.438 18.607 148.003 20.162C148.569 21.7171 147.836 23.4629 146.368 24.0615L127.609 31.709C126.141 32.3076 124.492 31.5322 123.927 29.9772ZM124.372 440.588C125.062 439.091 126.767 438.469 128.181 439.2L146.247 448.534C147.661 449.264 148.248 451.07 147.558 452.568C146.868 454.065 145.163 454.687 143.749 453.957L125.683 444.623C124.269 443.892 123.682 442.086 124.372 440.588ZM124.408 -89.2954C123.71 -90.7884 124.286 -92.5985 125.696 -93.3385L143.705 -102.792C145.114 -103.532 146.823 -102.921 147.522 -101.428C148.221 -99.9354 147.644 -98.1252 146.235 -97.3853L128.226 -87.932C126.816 -87.1921 125.107 -87.8024 124.408 -89.2954ZM124.629 332.676C123.877 331.213 124.388 329.381 125.77 328.585L143.438 318.409C144.82 317.613 146.55 318.154 147.302 319.618C148.053 321.082 147.542 322.914 146.16 323.71L128.492 333.886C127.11 334.682 125.38 334.14 124.629 332.676ZM127.187 -386.432C126.034 -387.566 125.968 -389.475 127.039 -390.696L140.723 -406.291C141.794 -407.512 143.597 -407.582 144.749 -406.448C145.902 -405.313 145.968 -403.404 144.897 -402.184L131.213 -386.588C130.142 -385.367 128.339 -385.297 127.187 -386.432ZM127.522 577.328C126.333 576.236 126.204 574.331 127.234 573.072L140.39 556.994C141.421 555.735 143.22 555.599 144.409 556.69C145.598 557.781 145.726 559.687 144.696 560.946L131.54 577.024C130.51 578.283 128.711 578.419 127.522 577.328ZM129.737 97.2287C128.36 96.4229 127.861 94.5874 128.622 93.1289L138.328 74.5225C139.089 73.064 140.822 72.5349 142.199 73.3407C143.576 74.1465 144.076 75.9821 143.315 77.4406L133.608 96.047C132.848 97.5054 131.114 98.0345 129.737 97.2287ZM130.309 -143.321C128.895 -144.052 128.308 -145.858 128.998 -147.356L137.818 -166.504C138.508 -168.002 140.213 -168.623 141.627 -167.893C143.041 -167.162 143.628 -165.356 142.938 -163.858L134.119 -144.71C133.429 -143.213 131.723 -142.591 130.309 -143.321ZM130.826 132.949C132.269 132.284 133.947 132.985 134.574 134.513L142.581 154.023C143.208 155.551 142.547 157.328 141.104 157.992C139.661 158.657 137.983 157.956 137.356 156.428L129.349 136.918C128.722 135.39 129.383 133.613 130.826 132.949ZM131.263 -288.723C132.728 -289.331 134.381 -288.566 134.955 -287.015L142.286 -267.203C142.86 -265.652 142.138 -263.901 140.673 -263.293C139.208 -262.685 137.555 -263.45 136.981 -265.002L129.65 -284.813C129.076 -286.364 129.798 -288.115 131.263 -288.723ZM133.679 493.317C135.227 493.021 136.708 494.111 136.987 495.751L140.55 516.706C140.829 518.346 139.8 519.915 138.252 520.21C136.703 520.505 135.222 519.415 134.943 517.776L131.38 496.821C131.101 495.181 132.13 493.612 133.679 493.317ZM133.912 -229.279C135.465 -229.544 136.927 -228.425 137.178 -226.78L140.377 -205.765C140.628 -204.12 139.572 -202.572 138.019 -202.307C136.465 -202.041 135.003 -203.16 134.753 -204.805L131.553 -225.82C131.303 -227.465 132.359 -229.013 133.912 -229.279ZM135.546 -349.867C137.118 -349.922 138.434 -348.615 138.486 -346.95L139.139 -325.694C139.191 -324.028 137.957 -322.634 136.385 -322.58C134.812 -322.526 133.496 -323.832 133.445 -325.497L132.791 -346.754C132.74 -348.419 133.973 -349.813 135.546 -349.867ZM179.901 -396.169C179.87 -397.835 181.12 -399.212 182.693 -399.245L202.782 -399.667C204.355 -399.7 205.655 -398.376 205.686 -396.71C205.717 -395.044 204.467 -393.667 202.894 -393.634L182.806 -393.212C181.233 -393.179 179.932 -394.503 179.901 -396.169ZM179.95 327.277C179.817 325.616 180.979 324.156 182.547 324.014L202.562 322.207C204.129 322.066 205.509 323.297 205.642 324.957C205.776 326.618 204.613 328.078 203.046 328.22L183.031 330.027C181.463 330.168 180.084 328.937 179.95 327.277ZM179.959 385.018C180.11 383.36 181.503 382.145 183.069 382.306L203.067 384.353C204.633 384.513 205.779 385.987 205.628 387.646C205.477 389.304 204.085 390.519 202.519 390.359L182.521 388.312C180.955 388.151 179.808 386.677 179.959 385.018ZM179.973 625.795C180.138 624.137 181.54 622.936 183.104 623.11L203.085 625.338C204.65 625.512 205.785 626.997 205.62 628.654C205.455 630.311 204.053 631.513 202.489 631.339L182.508 629.111C180.943 628.936 179.808 627.452 179.973 625.795ZM179.995 685.778C180.187 684.124 181.608 682.948 183.17 683.151L203.111 685.74C204.672 685.943 205.783 687.448 205.592 689.102C205.4 690.756 203.979 691.932 202.417 691.729L182.476 689.14C180.915 688.937 179.804 687.432 179.995 685.778ZM180.105 87.7195C179.825 86.0799 180.852 84.51 182.401 84.2129L202.171 80.4192C203.719 80.1221 205.201 81.2104 205.482 82.85C205.762 84.4896 204.735 86.0595 203.187 86.3566L183.416 90.1503C181.868 90.4474 180.386 89.3591 180.105 87.7195ZM180.316 -98.8013C180.712 -100.414 182.268 -101.381 183.791 -100.961L203.237 -95.602C204.76 -95.1824 205.673 -93.535 205.277 -91.9224C204.881 -90.3098 203.325 -89.3428 201.802 -89.7624L182.356 -95.1217C180.833 -95.5413 179.92 -97.1888 180.316 -98.8013ZM180.345 262.345C180.755 260.737 182.318 259.784 183.837 260.218L203.239 265.758C204.758 266.192 205.657 267.848 205.247 269.456C204.838 271.065 203.274 272.018 201.755 271.584L182.354 266.044C180.835 265.61 179.936 263.954 180.345 262.345ZM181.047 572.621C180.397 571.103 181.032 569.315 182.465 568.627L200.775 559.836C202.208 559.147 203.896 559.82 204.546 561.338C205.195 562.855 204.561 564.643 203.128 565.331L184.818 574.123C183.385 574.811 181.696 574.138 181.047 572.621ZM181.044 -149.973C180.398 -151.492 181.037 -153.279 182.472 -153.963L200.782 -162.694C202.217 -163.378 203.903 -162.701 204.549 -161.181C205.195 -159.662 204.556 -157.876 203.121 -157.192L184.811 -148.461C183.376 -147.776 181.69 -148.454 181.044 -149.973ZM181.337 18.7781C182.059 17.2974 183.777 16.7164 185.175 17.4805L203.025 27.2354C204.423 27.9995 204.972 29.8192 204.25 31.3C203.529 32.7808 201.81 33.3617 200.412 32.5977L182.562 22.8428C181.164 22.0787 180.616 20.2589 181.337 18.7781ZM182.389 -43.2217C183.319 -44.5659 185.102 -44.8571 186.371 -43.8724L202.589 -31.2875C203.859 -30.3027 204.134 -28.4148 203.204 -27.0707C202.274 -25.7265 200.491 -25.4353 199.222 -26.42L183.004 -39.0049C181.734 -39.9897 181.459 -41.8776 182.389 -43.2217ZM183.795 436.801C184.921 435.637 186.725 435.662 187.823 436.855L201.849 452.089C202.947 453.282 202.924 455.192 201.798 456.356C200.671 457.519 198.868 457.495 197.769 456.302L183.744 441.067C182.646 439.874 182.669 437.964 183.795 436.801ZM183.796 -326.446C182.669 -327.609 182.646 -329.519 183.744 -330.712L197.763 -345.947C198.862 -347.14 200.665 -347.165 201.792 -346.002C202.918 -344.839 202.942 -342.929 201.844 -341.735L187.824 -326.501C186.726 -325.307 184.922 -325.283 183.796 -326.446ZM184.48 737.191C185.683 736.116 187.48 736.277 188.495 737.551L201.452 753.809C202.466 755.082 202.314 756.985 201.112 758.06C199.91 759.135 198.113 758.974 197.098 757.701L184.141 741.443C183.126 740.169 183.278 738.266 184.48 737.191ZM184.481 -467.119C185.683 -468.194 187.48 -468.033 188.495 -466.76L201.452 -450.502C202.467 -449.229 202.315 -447.325 201.112 -446.25C199.91 -445.176 198.113 -445.337 197.098 -446.61L184.141 -462.868C183.126 -464.141 183.278 -466.045 184.481 -467.119ZM186.029 -204.161C184.689 -205.035 184.272 -206.894 185.097 -208.312L195.639 -226.437C196.464 -227.856 198.219 -228.298 199.559 -227.424C200.898 -226.55 201.315 -224.691 200.49 -223.273L189.948 -205.148C189.123 -203.729 187.368 -203.287 186.029 -204.161ZM186.145 194.008C187.494 193.149 189.244 193.611 190.055 195.038L200.415 213.284C201.226 214.712 200.79 216.566 199.441 217.424C198.093 218.283 196.343 217.822 195.532 216.394L185.172 198.148C184.361 196.72 184.797 194.866 186.145 194.008ZM187.253 157.829C185.832 157.112 185.229 155.312 185.906 153.807L194.544 134.599C195.22 133.095 196.92 132.456 198.34 133.173C199.761 133.889 200.364 135.689 199.687 137.194L191.049 156.402C190.373 157.906 188.673 158.545 187.253 157.829ZM187.931 -263.369C186.474 -263.998 185.774 -265.758 186.368 -267.301L193.943 -286.992C194.537 -288.535 196.199 -289.276 197.656 -288.647C199.113 -288.019 199.813 -286.258 199.219 -284.715L191.644 -265.024C191.051 -263.481 189.388 -262.74 187.931 -263.369ZM189.953 520.124C188.418 519.757 187.455 518.142 187.801 516.517L192.228 495.743C192.575 494.117 194.1 493.097 195.634 493.464C197.169 493.831 198.132 495.446 197.786 497.071L193.359 517.845C193.012 519.47 191.488 520.491 189.953 520.124ZM236.765 565.966C236.886 564.304 238.255 563.061 239.823 563.188L259.861 564.814C261.43 564.941 262.604 566.391 262.484 568.053C262.364 569.714 260.995 570.958 259.426 570.83L239.388 569.204C237.819 569.077 236.645 567.627 236.765 565.966ZM236.801 -157.007C236.966 -158.664 238.368 -159.866 239.933 -159.692L259.913 -157.464C261.478 -157.29 262.613 -155.805 262.448 -154.148C262.284 -152.491 260.882 -151.289 259.317 -151.463L239.336 -153.691C237.772 -153.865 236.637 -155.35 236.801 -157.007ZM236.81 147.016C236.631 145.36 237.754 143.866 239.318 143.677L259.281 141.268C260.844 141.079 262.256 142.268 262.434 143.924C262.612 145.58 261.489 147.075 259.926 147.263L239.962 149.672C238.399 149.861 236.988 148.672 236.81 147.016ZM237.145 -332.784C236.748 -334.397 237.661 -336.044 239.184 -336.464L258.625 -341.823C260.147 -342.243 261.703 -341.276 262.099 -339.663C262.496 -338.051 261.583 -336.403 260.06 -335.984L240.619 -330.625C239.097 -330.205 237.541 -331.172 237.145 -332.784ZM237.875 681.769C238.525 680.251 240.213 679.579 241.646 680.267L259.951 689.058C261.383 689.746 262.018 691.534 261.368 693.052C260.719 694.569 259.03 695.242 257.598 694.553L239.293 685.762C237.86 685.074 237.226 683.286 237.875 681.769ZM237.999 -402.352C238.68 -403.854 240.382 -404.487 241.8 -403.765L259.911 -394.552C261.329 -393.831 261.927 -392.028 261.245 -390.526C260.564 -389.024 258.862 -388.392 257.444 -389.113L239.333 -398.326C237.915 -399.048 237.317 -400.85 237.999 -402.352ZM238.248 -209.34C237.506 -210.809 238.028 -212.638 239.414 -213.424L257.139 -223.481C258.526 -224.267 260.253 -223.715 260.995 -222.246C261.738 -220.777 261.216 -218.948 259.829 -218.162L242.105 -208.105C240.718 -207.319 238.991 -207.871 238.248 -209.34ZM238.524 620.239C239.325 618.805 241.072 618.33 242.426 619.178L259.725 630.018C261.079 630.866 261.527 632.716 260.726 634.15C259.925 635.584 258.178 636.059 256.823 635.211L239.525 624.372C238.171 623.523 237.723 621.673 238.524 620.239ZM239.16 318.149C240.081 316.798 241.861 316.493 243.137 317.468L259.446 329.932C260.722 330.907 261.01 332.793 260.09 334.144C259.169 335.496 257.388 335.801 256.113 334.826L239.803 322.361C238.527 321.386 238.239 319.5 239.16 318.149ZM239.253 -267.923C238.318 -269.263 238.586 -271.153 239.851 -272.143L256.013 -284.788C257.278 -285.778 259.062 -285.494 259.997 -284.154C260.932 -282.814 260.664 -280.925 259.398 -279.935L243.237 -267.289C241.971 -266.299 240.187 -266.583 239.253 -267.923ZM239.7 377.6C240.705 376.318 242.501 376.143 243.711 377.208L259.174 390.817C260.384 391.882 260.55 393.784 259.544 395.065C258.539 396.347 256.743 396.522 255.533 395.457L240.07 381.848C238.86 380.783 238.694 378.881 239.7 377.6ZM240.404 75.7394C241.504 74.5479 243.308 74.5262 244.433 75.6909L258.799 90.564C259.924 91.7287 259.945 93.6389 258.845 94.8304C257.745 96.022 255.942 96.0437 254.817 94.8789L240.45 80.0059C239.325 78.8412 239.305 76.931 240.404 75.7394ZM240.837 516.8C239.685 515.666 239.619 513.756 240.691 512.536L254.387 496.941C255.458 495.721 257.261 495.651 258.413 496.786C259.565 497.921 259.63 499.83 258.558 501.05L244.863 516.646C243.791 517.866 241.989 517.935 240.837 516.8ZM240.991 -105.523C242.16 -106.637 243.961 -106.537 245.014 -105.298L258.471 -89.4618C259.523 -88.2233 259.428 -86.3156 258.259 -85.201C257.089 -84.0864 255.288 -84.1868 254.236 -85.4254L240.779 -101.262C239.727 -102.5 239.821 -104.408 240.991 -105.523ZM244.126 253.538C245.549 252.828 247.247 253.474 247.917 254.981L256.487 274.25C257.157 275.757 256.547 277.555 255.123 278.265C253.7 278.975 252.003 278.329 251.332 276.821L242.763 257.553C242.092 256.045 242.703 254.248 244.126 253.538ZM244.127 218.05C242.703 217.34 242.093 215.543 242.763 214.035L251.326 194.767C251.996 193.259 253.694 192.612 255.117 193.322C256.54 194.031 257.151 195.829 256.481 197.336L247.917 216.605C247.247 218.113 245.55 218.76 244.127 218.05ZM244.696 735.022C246.15 734.386 247.816 735.119 248.416 736.659L256.094 756.349C256.694 757.89 256.002 759.654 254.548 760.29C253.094 760.926 251.428 760.193 250.828 758.653L243.15 738.962C242.55 737.422 243.242 735.658 244.696 735.022ZM244.696 -469.288C246.15 -469.924 247.816 -469.191 248.416 -467.651L256.094 -447.961C256.694 -446.421 256.002 -444.657 254.548 -444.021C253.094 -443.385 251.428 -444.118 250.828 -445.658L243.15 -465.348C242.55 -466.888 243.242 -468.652 244.696 -469.288ZM246.204 11.8932C247.721 11.4515 249.289 12.3958 249.706 14.0025L255.037 34.5361C255.454 36.1428 254.562 37.8033 253.045 38.245C251.528 38.6867 249.96 37.7424 249.543 36.1357L244.213 15.602C243.796 13.9954 244.687 12.3349 246.204 11.8932ZM246.417 -48.3963C247.941 -48.8098 249.494 -47.8364 249.884 -46.2223L254.879 -25.5678C255.27 -23.9537 254.351 -22.3099 252.826 -21.8965C251.302 -21.483 249.75 -22.4564 249.36 -24.0705L244.365 -44.725C243.974 -46.3391 244.893 -47.9829 246.417 -48.3963ZM246.73 433.251C248.263 432.877 249.792 433.891 250.145 435.515L254.657 456.289C255.01 457.913 254.053 459.532 252.519 459.905C250.986 460.279 249.457 459.265 249.105 457.641L244.592 436.868C244.24 435.244 245.197 433.625 246.73 433.251ZM293.564 -335.79C293.511 -337.455 294.742 -338.851 296.315 -338.908L316.398 -339.631C317.97 -339.687 319.288 -338.383 319.342 -336.718C319.395 -335.052 318.164 -333.656 316.591 -333.6L296.508 -332.877C294.936 -332.821 293.618 -334.125 293.564 -335.79ZM293.732 207.927C293.474 206.283 294.523 204.729 296.075 204.456L315.896 200.963C317.448 200.69 318.916 201.801 319.174 203.445C319.432 205.088 318.383 206.642 316.831 206.916L297.01 210.408C295.458 210.681 293.99 209.57 293.732 207.927ZM293.996 510.319C293.587 508.71 294.486 507.054 296.005 506.62L315.412 501.08C316.931 500.646 318.495 501.599 318.904 503.208C319.314 504.817 318.414 506.473 316.895 506.906L297.488 512.446C295.969 512.88 294.406 511.927 293.996 510.319ZM294.045 -159.317C294.473 -160.921 296.046 -161.854 297.561 -161.401L316.894 -155.62C318.408 -155.168 319.289 -153.501 318.861 -151.897C318.434 -150.293 316.86 -149.361 315.346 -149.813L296.013 -155.594C294.498 -156.047 293.618 -157.714 294.045 -159.317ZM294.14 -211.735C293.673 -213.326 294.512 -215.017 296.014 -215.512L315.199 -221.835C316.701 -222.33 318.298 -221.442 318.766 -219.851C319.233 -218.26 318.394 -216.569 316.892 -216.073L297.707 -209.75C296.205 -209.255 294.608 -210.143 294.14 -211.735ZM294.608 -270.628C293.985 -272.158 294.651 -273.934 296.096 -274.594L314.548 -283.024C315.992 -283.684 317.669 -282.979 318.292 -281.449C318.915 -279.919 318.249 -278.144 316.805 -277.484L298.353 -269.053C296.908 -268.393 295.232 -269.098 294.608 -270.628ZM295.446 559.868C296.265 558.445 298.018 557.996 299.361 558.864L316.506 569.943C317.85 570.811 318.274 572.667 317.455 574.09C316.635 575.512 314.882 575.962 313.539 575.094L296.394 564.015C295.051 563.147 294.626 561.29 295.446 559.868ZM295.584 -403.813C296.43 -405.217 298.191 -405.63 299.518 -404.734L316.452 -393.293C317.779 -392.397 318.168 -390.531 317.322 -389.127C316.476 -387.722 314.715 -387.309 313.388 -388.206L296.454 -399.646C295.127 -400.543 294.738 -402.408 295.584 -403.813ZM296.557 678.669C297.567 677.391 299.364 677.223 300.57 678.292L315.988 691.961C317.194 693.031 317.353 694.934 316.343 696.211C315.333 697.489 313.537 697.658 312.33 696.588L296.913 682.919C295.706 681.85 295.547 679.947 296.557 678.669ZM297.409 135.732C298.531 134.564 300.335 134.58 301.438 135.768L315.525 150.942C316.629 152.131 316.613 154.041 315.491 155.209C314.369 156.377 312.566 156.361 311.463 155.173L297.375 139.998C296.272 138.81 296.287 136.9 297.409 135.732ZM298.577 616.375C299.823 615.357 301.611 615.603 302.572 616.923L314.841 633.783C315.802 635.103 315.57 636.997 314.324 638.015C313.077 639.032 311.289 638.786 310.328 637.467L298.059 620.606C297.099 619.286 297.33 617.392 298.577 616.375ZM300.154 -107.299C301.527 -108.112 303.263 -107.591 304.03 -106.137L313.844 -87.5302C314.612 -86.0756 314.12 -84.2375 312.747 -83.4249C311.373 -82.6123 309.638 -83.1328 308.87 -84.5874L299.056 -103.194C298.289 -104.648 298.78 -106.487 300.154 -107.299ZM300.326 277.95C298.942 277.158 298.425 275.328 299.173 273.861L308.72 255.135C309.468 253.668 311.196 253.122 312.58 253.913C313.965 254.705 314.481 256.535 313.733 258.001L304.186 276.728C303.439 278.194 301.711 278.741 300.326 277.95ZM300.708 735.409C302.117 734.668 303.827 735.277 304.526 736.769L313.477 755.858C314.176 757.35 313.601 759.161 312.192 759.902C310.783 760.643 309.074 760.034 308.374 758.542L299.424 739.453C298.724 737.961 299.299 736.15 300.708 735.409ZM300.708 -468.901C302.117 -469.643 303.827 -469.034 304.526 -467.541L313.477 -448.453C314.177 -446.96 313.602 -445.15 312.192 -444.409C310.783 -443.667 309.074 -444.277 308.374 -445.769L299.424 -464.857C298.724 -466.35 299.299 -468.16 300.708 -468.901ZM301.224 459.061C299.785 458.385 299.136 456.603 299.774 455.08L307.918 435.63C308.556 434.107 310.239 433.42 311.677 434.095C313.115 434.771 313.764 436.553 313.126 438.077L304.982 457.526C304.345 459.049 302.662 459.736 301.224 459.061ZM302.601 38.0946C301.1 37.5966 300.264 35.9039 300.734 34.3138L306.735 14.021C307.205 12.4309 308.804 11.5456 310.305 12.0436C311.806 12.5416 312.642 14.2343 312.172 15.8244L306.171 36.1172C305.701 37.7073 304.103 38.5926 302.601 38.0946ZM304.666 372.807C306.224 372.576 307.664 373.727 307.882 375.377L310.667 396.452C310.885 398.102 309.798 399.627 308.24 399.858C306.682 400.089 305.242 398.939 305.024 397.288L302.24 376.213C302.022 374.563 303.108 373.038 304.666 372.807ZM304.958 -21.5816C303.395 -21.7749 302.276 -23.2732 302.459 -24.9282L304.789 -46.0636C304.971 -47.7186 306.386 -48.9037 307.948 -48.7104C309.511 -48.5172 310.63 -47.0189 310.448 -45.3639L308.118 -24.2284C307.935 -22.5734 306.52 -21.3883 304.958 -21.5816ZM305.119 312.518C306.683 312.346 308.084 313.55 308.247 315.207L310.326 336.403C310.489 338.06 309.352 339.544 307.787 339.716C306.223 339.888 304.822 338.684 304.66 337.027L302.58 315.831C302.417 314.174 303.554 312.69 305.119 312.518ZM306.096 71.6409C307.669 71.5952 308.979 72.9083 309.022 74.5739L309.574 95.8302C309.617 97.4958 308.377 98.8832 306.804 98.9289C305.231 98.9747 303.921 97.6616 303.878 95.9959L303.327 74.7397C303.284 73.074 304.524 71.6867 306.096 71.6409ZM350.386 -155.839C350.413 -157.505 351.709 -158.833 353.283 -158.805L373.371 -158.443C374.944 -158.415 376.198 -157.041 376.171 -155.375C376.144 -153.709 374.848 -152.381 373.274 -152.41L353.186 -152.771C351.613 -152.8 350.359 -154.173 350.386 -155.839ZM350.414 -335.335C350.312 -336.998 351.502 -338.434 353.072 -338.542L373.12 -339.927C374.69 -340.035 376.046 -338.775 376.149 -337.112C376.251 -335.45 375.061 -334.014 373.491 -333.905L353.442 -332.521C351.873 -332.412 350.517 -333.672 350.414 -335.335ZM350.648 504.05C350.964 502.418 352.47 501.366 354.011 501.701L373.691 505.976C375.232 506.31 376.225 507.905 375.909 509.537C375.593 511.17 374.087 512.222 372.546 511.887L352.866 507.612C351.325 507.277 350.332 505.682 350.648 504.05ZM350.947 269.912C350.488 268.318 351.337 266.632 352.842 266.147L372.061 259.944C373.566 259.459 375.157 260.357 375.616 261.951C376.074 263.545 375.226 265.231 373.721 265.716L354.502 271.919C352.997 272.404 351.405 271.506 350.947 269.912ZM351.707 -402.498C352.401 -403.993 354.108 -404.609 355.52 -403.874L373.557 -394.48C374.969 -393.744 375.551 -391.936 374.856 -390.441C374.162 -388.946 372.455 -388.33 371.043 -389.065L353.006 -398.459C351.594 -399.194 351.012 -401.002 351.707 -402.498ZM351.779 -209.64C351.067 -211.126 351.627 -212.942 353.03 -213.696L370.954 -223.331C372.357 -224.085 374.071 -223.492 374.783 -222.006C375.495 -220.52 374.935 -218.704 373.532 -217.95L355.609 -208.315C354.206 -207.561 352.491 -208.154 351.779 -209.64ZM351.785 -269.855C351.073 -271.341 351.633 -273.157 353.035 -273.911L370.948 -283.546C372.35 -284.3 374.065 -283.707 374.777 -282.222C375.49 -280.736 374.93 -278.92 373.528 -278.166L355.615 -268.531C354.213 -267.777 352.498 -268.369 351.785 -269.855ZM352.268 198.576C353.087 197.153 354.84 196.702 356.183 197.57L373.345 208.649C374.689 209.516 375.114 211.373 374.295 212.795C373.476 214.218 371.723 214.669 370.38 213.801L353.218 202.722C351.874 201.855 351.449 199.998 352.268 198.576ZM352.334 453.804C351.502 452.39 351.909 450.529 353.245 449.648L370.299 438.387C371.634 437.506 373.391 437.938 374.223 439.352C375.055 440.766 374.648 442.626 373.313 443.508L356.259 454.768C354.924 455.65 353.167 455.218 352.334 453.804ZM354.323 -105.209C355.454 -106.367 357.258 -106.334 358.351 -105.136L372.308 -89.8408C373.402 -88.6426 373.371 -86.7326 372.239 -85.5746C371.108 -84.4167 369.305 -84.4493 368.211 -85.6474L354.254 -100.943C353.161 -102.141 353.192 -104.051 354.323 -105.209ZM354.581 737.57C355.742 736.446 357.544 736.532 358.605 737.763L372.159 753.479C373.22 754.709 373.138 756.617 371.977 757.741C370.815 758.865 369.013 758.778 367.952 757.548L354.398 741.832C353.337 740.602 353.419 738.693 354.581 737.57ZM354.581 -466.741C355.742 -467.865 357.544 -467.778 358.605 -466.548L372.159 -450.831C373.22 -449.601 373.138 -447.693 371.977 -446.569C370.815 -445.445 369.013 -445.532 367.952 -446.762L354.399 -462.479C353.337 -463.709 353.419 -465.617 354.581 -466.741ZM354.834 677.121C356.023 676.03 357.822 676.166 358.853 677.425L372.015 693.502C373.045 694.761 372.917 696.667 371.728 697.758C370.54 698.85 368.74 698.714 367.71 697.455L354.548 681.377C353.518 680.118 353.646 678.213 354.834 677.121ZM355.165 556.384C356.388 555.336 358.182 555.537 359.171 556.832L371.821 573.391C372.81 574.687 372.621 576.587 371.398 577.635C370.175 578.683 368.381 578.482 367.392 577.187L354.742 560.627C353.752 559.332 353.942 557.432 355.165 556.384ZM355.266 336.851C354.033 335.816 353.826 333.918 354.804 332.612L367.295 315.932C368.273 314.627 370.064 314.408 371.297 315.443C372.53 316.479 372.736 318.377 371.759 319.682L359.268 336.362C358.29 337.667 356.498 337.886 355.266 336.851ZM356.332 397.847C355.006 396.95 354.618 395.084 355.465 393.68L366.291 375.736C367.138 374.332 368.899 373.921 370.225 374.818C371.551 375.715 371.939 377.581 371.092 378.985L360.266 396.929C359.419 398.333 357.658 398.744 356.332 397.847ZM358.058 614.742C359.497 614.066 361.18 614.754 361.817 616.278L369.955 635.727C370.592 637.251 369.943 639.033 368.504 639.708C367.066 640.383 365.383 639.695 364.746 638.172L356.608 618.722C355.971 617.199 356.62 615.417 358.058 614.742ZM358.118 37.5589C356.676 36.8919 356.018 35.1134 356.648 33.5865L364.694 14.0767C365.324 12.5497 367.004 11.8526 368.445 12.5196C369.887 13.1866 370.545 14.9652 369.915 16.4921L361.869 36.0019C361.239 37.5288 359.559 38.226 358.118 37.5589ZM359.023 98.1589C357.538 97.6095 356.755 95.8889 357.273 94.3158L363.905 74.2039C364.424 72.6308 366.048 71.8009 367.534 72.3502C369.019 72.8996 369.803 74.6202 369.284 76.1933L362.652 96.3053C362.133 97.8784 360.509 98.7083 359.023 98.1589ZM360.605 132.102C362.144 131.756 363.656 132.797 363.983 134.427L368.154 155.262C368.48 156.892 367.497 158.493 365.958 158.839C364.419 159.185 362.907 158.144 362.58 156.513L358.409 135.679C358.083 134.049 359.066 132.447 360.605 132.102ZM363.143 -48.791C364.716 -48.8089 366.005 -47.4727 366.022 -45.8065L366.238 -24.5503C366.255 -22.8841 364.993 -21.5189 363.42 -21.501C361.847 -21.4831 360.558 -22.8193 360.541 -24.4855L360.325 -45.7417C360.308 -47.4079 361.57 -48.7731 363.143 -48.791ZM407.22 446.934C407.176 445.269 408.415 443.88 409.987 443.833L430.071 443.231C431.643 443.184 432.954 444.496 432.999 446.161C433.043 447.827 431.804 449.215 430.232 449.263L410.149 449.865C408.576 449.912 407.265 448.6 407.22 446.934ZM407.287 -96.8604C407.456 -98.517 408.861 -99.7147 410.426 -99.5355L430.401 -97.2473C431.965 -97.0681 433.096 -95.5799 432.927 -93.9233C432.758 -92.2667 431.353 -91.069 429.788 -91.2482L409.813 -93.5364C408.249 -93.7156 407.118 -95.2037 407.287 -96.8604ZM407.462 -333.557C407.155 -335.191 408.157 -336.78 409.7 -337.105L429.408 -341.26C430.951 -341.585 432.451 -340.524 432.758 -338.89C433.065 -337.256 432.063 -335.667 430.52 -335.342L410.812 -331.187C409.269 -330.862 407.769 -331.923 407.462 -333.557ZM407.587 329.431C407.209 327.814 408.14 326.178 409.667 325.777L429.177 320.659C430.704 320.258 432.248 321.245 432.627 322.862C433.005 324.48 432.074 326.115 430.546 326.516L411.037 331.634C409.51 332.035 407.966 331.049 407.587 329.431ZM407.651 262.414C408.056 260.804 409.617 259.847 411.137 260.276L430.55 265.756C432.07 266.185 432.974 267.838 432.569 269.448C432.164 271.058 430.603 272.015 429.082 271.586L409.67 266.107C408.15 265.677 407.246 264.024 407.651 262.414ZM407.783 -400.488C408.246 -402.081 409.84 -402.974 411.344 -402.484L430.552 -396.221C432.056 -395.731 432.899 -394.043 432.436 -392.45C431.974 -390.858 430.379 -389.964 428.876 -390.454L409.668 -396.717C408.164 -397.207 407.32 -398.896 407.783 -400.488ZM408.017 391.116C407.469 389.553 408.221 387.817 409.696 387.237L428.541 379.831C430.016 379.251 431.655 380.048 432.203 381.61C432.75 383.172 431.998 384.908 430.523 385.488L411.679 392.894C410.204 393.474 408.564 392.678 408.017 391.116ZM409.087 499.72C409.902 498.295 411.654 497.84 412.999 498.703L430.172 509.723C431.518 510.586 431.948 512.441 431.133 513.866C430.318 515.291 428.566 515.747 427.22 514.883L410.047 503.864C408.701 503.001 408.271 501.145 409.087 499.72ZM409.285 740.205C410.14 738.806 411.903 738.406 413.224 739.311L430.091 750.873C431.412 751.779 431.789 753.646 430.935 755.045C430.08 756.444 428.316 756.844 426.995 755.939L410.128 744.377C408.808 743.472 408.43 741.604 409.285 740.205ZM409.285 -464.105C410.14 -465.504 411.903 -465.904 413.224 -464.999L430.091 -453.437C431.412 -452.532 431.79 -450.664 430.935 -449.265C430.08 -447.866 428.316 -447.466 426.995 -448.371L410.129 -459.933C408.808 -460.838 408.43 -462.706 409.285 -464.105ZM409.323 -148.111C408.46 -149.504 408.827 -151.375 410.142 -152.289L426.952 -163.97C428.267 -164.884 430.033 -164.496 430.897 -163.103C431.76 -161.71 431.393 -159.839 430.077 -158.925L413.268 -147.244C411.952 -146.33 410.186 -146.718 409.323 -148.111ZM410.155 -267.314C409.154 -268.6 409.326 -270.501 410.54 -271.561L426.049 -285.11C427.262 -286.17 429.058 -285.987 430.059 -284.702C431.06 -283.417 430.888 -281.515 429.674 -280.455L414.165 -266.907C412.952 -265.846 411.156 -266.029 410.155 -267.314ZM411.757 677.044C412.955 675.964 414.753 676.117 415.772 677.386L428.786 693.584C429.806 694.853 429.661 696.757 428.463 697.837C427.265 698.917 425.467 698.763 424.447 697.494L411.433 681.297C410.414 680.028 410.558 678.123 411.757 677.044ZM411.825 -205.32C410.619 -206.39 410.46 -208.293 411.47 -209.571L424.376 -225.889C425.386 -227.166 427.183 -227.334 428.389 -226.264C429.595 -225.194 429.754 -223.292 428.744 -222.014L415.838 -205.696C414.828 -204.419 413.031 -204.25 411.825 -205.32ZM412.203 194.933C413.446 193.911 415.235 194.15 416.2 195.466L428.515 212.266C429.479 213.582 429.254 215.478 428.011 216.499C426.768 217.521 424.979 217.283 424.014 215.966L411.699 199.166C410.735 197.85 410.96 195.954 412.203 194.933ZM412.328 -46.073C413.582 -47.0781 415.369 -46.8157 416.318 -45.4868L428.446 -28.5056C429.395 -27.1767 429.147 -25.2846 427.892 -24.2794C426.637 -23.2742 424.851 -23.5366 423.902 -24.8656L411.774 -41.8468C410.825 -43.1756 411.073 -45.0678 412.328 -46.073ZM413.699 555.147C415.065 554.32 416.805 554.821 417.587 556.267L427.577 574.753C428.359 576.199 427.885 578.042 426.52 578.87C425.154 579.698 423.414 579.197 422.632 577.75L412.642 559.264C411.86 557.818 412.334 555.975 413.699 555.147ZM415.426 614.508C416.892 613.903 418.543 614.67 419.115 616.223L426.412 636.034C426.984 637.586 426.259 639.336 424.793 639.941C423.327 640.547 421.676 639.779 421.104 638.227L413.807 618.415C413.236 616.863 413.96 615.114 415.426 614.508ZM417.82 98.7015C416.272 98.4062 415.243 96.8373 415.522 95.1975L419.085 74.2429C419.364 72.603 420.845 71.513 422.393 71.8084C423.942 72.1037 424.971 73.6725 424.692 75.3124L421.129 96.267C420.85 97.9069 419.369 98.9969 417.82 98.7015ZM418.994 131.867C420.562 131.723 421.943 132.952 422.078 134.612L423.811 155.808C423.947 157.468 422.787 158.931 421.219 159.074C419.652 159.218 418.271 157.989 418.135 156.329L416.402 135.133C416.266 133.473 417.427 132.01 418.994 131.867ZM419.804 11.4252C421.377 11.386 422.682 12.7047 422.719 14.3705L423.191 35.6267C423.228 37.2925 421.983 38.6746 420.41 38.7138C418.837 38.7529 417.532 37.4343 417.495 35.7685L417.023 14.5123C416.986 12.8464 418.231 11.4643 419.804 11.4252Z" fill="#555555"/>
</svg>
